# Face Mesh LOD2 - Triangles: 1118
v -0.074760 0.048195 -0.099504
v -0.043714 -0.103953 -0.103835
v -0.059221 0.029851 -0.121887
v 0.059462 0.005195 0.019073
v -0.040536 0.036426 -0.139531
v -0.034579 -0.024343 -0.122970
v 0.046894 0.060581 0.022103
v -0.038817 -0.086305 -0.098522
v -0.073590 0.013880 -0.093988
v 0.061519 -0.012216 0.019198
v 0.042728 -0.081037 0.002737
v -0.062288 0.100800 -0.048899
v -0.040355 0.023519 -0.138342
v -0.052489 0.106456 -0.029701
v -0.022122 0.082526 -0.138766
v 0.043460 -0.172475 -0.011466
v -0.058902 0.042548 -0.123359
v 0.050607 -0.072174 0.001152
v 0.052412 0.041752 0.024117
v -0.036853 -0.062709 -0.099545
v -0.051715 0.004712 -0.123121
v -0.060391 -0.118698 -0.110021
v 0.059466 -0.028614 0.018813
v 0.045904 -0.116637 -0.023504
v -0.044612 0.112878 -0.032789
v -0.056939 -0.105028 -0.082796
v -0.062578 0.061464 -0.119088
v -0.081287 -0.137423 -0.125001
v 0.044165 0.022041 0.025643
v -0.071241 0.066982 -0.104099
v 0.058709 -0.061646 -0.006110
v -0.041319 -0.012026 -0.124520
v -0.000254 0.106091 -0.124420
v -0.040726 0.061844 -0.138125
v -0.071979 -0.129067 -0.119061
v 0.048850 -0.083333 -0.022565
v -0.022643 0.097720 -0.127052
v -0.058590 0.100671 -0.031796
v -0.079406 0.055279 -0.083724
v 0.047251 0.010889 0.025980
v -0.046024 -0.070528 -0.087974
v -0.069422 0.085557 -0.034994
v 0.065618 -0.171458 -0.017223
v -0.065080 -0.115710 -0.091625
v 0.021698 0.114479 -0.104868
v 0.045720 -0.104342 -0.023028
v 0.057190 -0.012392 0.026628
v -0.047139 -0.086448 -0.089241
v -0.075944 0.030593 -0.093396
v -0.000255 0.084021 -0.142051
v -0.080252 -0.147580 -0.135667
v 0.058104 0.037908 0.015166
v -0.096785 -0.142380 -0.123057
v 0.057777 -0.059565 0.007271
v -0.039948 0.007616 -0.135483
v 0.054838 -0.033447 0.025974
v -0.071264 0.089057 -0.076593
v 0.016876 0.122753 -0.083074
v 0.053355 -0.071149 -0.014496
v -0.051211 0.063844 -0.129672
v -0.048429 -0.098777 -0.093099
v -0.000251 0.093310 -0.135635
v -0.044719 0.115716 -0.049804
v -0.076605 0.078113 -0.073311
v 0.053289 -0.051160 0.023523
v 0.058815 0.026222 0.015333
v 0.061517 -0.046725 0.005340
v 0.072383 0.045842 -0.019961
v -0.086478 -0.131798 -0.079589
v 0.049266 -0.068896 0.018339
v 0.063537 -0.029722 0.006117
v -0.073201 0.072564 -0.035488
v 0.070724 0.025327 -0.015454
v -0.059430 -0.156541 -0.144277
v 0.056863 0.060636 0.009495
v -0.022356 0.114522 -0.104845
v 0.065674 -0.014716 0.006038
v 0.042265 -0.076732 0.023469
v -0.065234 0.098033 -0.063423
v -0.063194 -0.145767 -0.137776
v -0.008094 0.123627 -0.084682
v -0.061718 -0.001874 -0.108636
v -0.046986 -0.120722 -0.120609
v -0.052196 -0.033931 -0.094924
v -0.058351 -0.016700 -0.101986
v 0.022116 0.097682 -0.127062
v -0.000466 0.125293 -0.082287
v 0.066560 0.066928 -0.013625
v -0.101608 -0.135293 -0.102440
v -0.047852 -0.050189 -0.090416
v 0.066203 0.005468 0.005577
v -0.040334 -0.156276 -0.143359
v -0.065402 -0.016638 -0.086376
v 0.067910 -0.028454 -0.015206
v -0.074877 0.076963 -0.050217
v -0.096066 -0.136383 -0.078921
v -0.041315 0.117006 -0.068367
v -0.038592 -0.049211 -0.101970
v 0.063975 0.024484 0.004325
v -0.019706 0.121581 -0.086686
v 0.063987 -0.048097 -0.016085
v -0.000302 0.116541 -0.108009
v 0.061797 0.042494 0.005468
v -0.064583 0.015652 -0.113704
v -0.069658 -0.002505 -0.091665
v -0.044637 -0.028295 -0.109445
v -0.055246 -0.133146 -0.129849
v 0.062017 0.058475 0.000854
v 0.072149 0.004785 -0.019153
v -0.079865 -0.124060 -0.100185
v 0.021607 0.082487 -0.138767
v 0.070293 -0.013696 -0.016326
v -0.037249 -0.138209 -0.136355
v -0.024039 0.123387 -0.069272
v 0.017566 -0.008875 -0.138095
v -0.082055 0.017791 -0.053971
v 0.020971 0.060956 -0.146694
v 0.036341 -0.011354 -0.128896
v -0.058333 0.089363 -0.108602
v -0.028267 -0.047687 -0.111955
v -0.073193 -0.030331 -0.039632
v 0.050701 0.099144 -0.016132
v -0.019571 -0.159350 -0.142958
v -0.055573 -0.081728 -0.036830
v 0.020231 0.124463 -0.051983
v 0.009249 0.127115 -0.051559
v -0.067406 0.078888 -0.104802
v -0.069429 -0.016594 -0.069366
v -0.079195 0.033691 -0.054953
v 0.034297 0.117632 -0.033874
v -0.054139 -0.104087 -0.035237
v -0.007653 -0.119764 -0.126383
v -0.105855 -0.141738 -0.076027
v -0.047170 0.110576 -0.085467
v 0.055251 0.086390 -0.006718
v 0.029525 -0.065784 -0.105039
v 0.018685 0.003707 -0.143232
v -0.028271 -0.107461 -0.115986
v -0.060129 -0.033747 -0.076378
v -0.074321 0.007002 -0.038600
v -0.067002 -0.140479 -0.050043
v -0.078852 0.059435 -0.055599
v -0.049789 -0.140033 -0.029243
v 0.032154 -0.084917 -0.103227
v 0.031764 -0.029893 -0.119878
v -0.057063 -0.050458 -0.072271
v -0.062234 -0.121565 -0.055160
v -0.046058 -0.125458 -0.025082
v 0.032258 -0.096376 -0.106973
v -0.018647 -0.141575 -0.138185
v -0.071928 -0.013965 -0.038781
v -0.057748 -0.063737 -0.033685
v 0.041142 -0.065610 0.033934
v -0.056354 -0.159512 -0.030046
v 0.030385 0.121534 -0.053465
v -0.000178 -0.141971 -0.139133
v -0.076126 0.040502 -0.031373
v -0.059203 -0.104530 -0.049273
v 0.051422 0.079575 0.005474
v 0.016477 -0.018337 -0.133349
v -0.076246 -0.126825 -0.077759
v -0.076032 0.025223 -0.034786
v 0.063036 0.079943 -0.016211
v 0.012562 -0.070820 -0.112156
v -0.000145 -0.130791 -0.133709
v -0.043660 0.102431 -0.108602
v 0.046949 0.093268 -0.001948
v -0.076426 -0.028562 -0.051892
v 0.014813 0.122848 -0.029804
v -0.078716 -0.140497 -0.061199
v -0.058582 -0.084731 -0.050397
v -0.070554 0.084202 -0.091523
v -0.026959 -0.125120 -0.129047
v 0.012629 -0.082023 -0.111972
v -0.056701 -0.125773 -0.039525
v -0.007434 -0.107832 -0.119237
v -0.005890 0.127302 -0.072376
v 0.012399 -0.047421 -0.116231
v 0.019521 0.026191 -0.147602
v -0.058529 -0.064815 -0.053294
v -0.074558 -0.012448 -0.051052
v 0.013022 -0.095188 -0.114051
v -0.079399 0.007338 -0.052585
v 0.000191 -0.160739 -0.143808
v -0.074714 0.059118 -0.033022
v -0.060603 0.097890 -0.088732
v 0.014619 -0.030629 -0.125903
v -0.006921 -0.057340 -0.114500
v 0.018461 -0.141221 -0.137884
v -0.060071 -0.051110 -0.049870
v -0.000658 0.125061 -0.027942
v -0.066755 -0.120210 -0.074175
v -0.090430 0.007977 -0.065954
v 0.044647 -0.012847 0.037866
v -0.078869 -0.160364 -0.037727
v -0.000299 0.061010 -0.150276
v -0.067924 -0.030874 -0.049974
v -0.006899 -0.070153 -0.112795
v 0.031665 -0.123286 -0.126951
v 0.043913 0.004698 0.033201
v -0.080139 0.061238 -0.069884
v -0.089484 -0.007390 -0.067888
v -0.010676 0.124083 -0.028869
v -0.096268 -0.153164 -0.053886
v -0.044146 0.082167 -0.127859
v 0.013950 -0.107722 -0.119077
v -0.019596 0.003781 -0.143217
v 0.010283 0.126630 -0.071772
v -0.007068 -0.081738 -0.112472
v -0.067244 -0.011704 -0.051552
v -0.080418 0.043778 -0.072873
v -0.000397 0.025203 -0.150787
v -0.075676 0.073015 -0.088375
v 0.043006 -0.049770 0.037483
v -0.007027 -0.047286 -0.116454
v -0.026406 0.123131 -0.052624
v -0.082099 0.019458 -0.065284
v 0.019867 -0.159504 -0.142729
v -0.007155 -0.095129 -0.114326
v 0.012395 -0.058111 -0.113916
v -0.005290 -0.032549 -0.125601
v 0.045158 -0.031087 0.038260
v 0.019734 0.124581 -0.067290
v -0.018583 -0.008797 -0.138071
v -0.084013 0.007553 -0.065020
v -0.057119 0.077171 -0.119410
v -0.069057 -0.029608 -0.035361
v -0.023798 -0.030387 -0.122997
v -0.000534 -0.014298 -0.137398
v 0.037296 -0.138475 -0.135984
v -0.026858 -0.095807 -0.110604
v -0.062333 -0.047733 -0.035193
v -0.020278 0.026255 -0.147604
v -0.005471 0.127882 -0.051478
v -0.000475 0.002757 -0.145890
v -0.026937 -0.083673 -0.107439
v -0.055756 -0.069434 -0.068142
v -0.081657 -0.013052 -0.065415
v 0.015813 -0.124833 -0.129635
v -0.026385 0.120558 -0.031601
v 0.041567 0.024832 0.032852
v -0.026946 -0.067199 -0.107461
v 0.027844 -0.107546 -0.115901
v -0.079442 -0.023724 -0.062449
v -0.087027 -0.146500 -0.059234
v -0.054511 -0.087955 -0.073511
v -0.017522 -0.018265 -0.133316
v 0.045090 0.039321 0.034122
v 0.032434 -0.048569 -0.107158
v 0.030214 0.120393 -0.073870
v -0.089622 0.016688 -0.062909
v -0.021553 0.061000 -0.146699
v -0.059148 -0.104599 -0.066305
v 0.044382 0.074974 0.018009
v 0.038796 -0.162809 -0.144503
v 0.072079 -0.129429 -0.118668
v 0.016167 0.007540 0.043337
v -0.070165 -0.013197 -0.017051
v 0.005699 0.018795 0.052541
v 0.022291 -0.045430 0.050430
v -0.010384 0.105769 0.012945
v 0.070688 0.066850 -0.104043
v 0.056292 -0.021106 -0.100186
v 0.086834 -0.132210 -0.079085
v -0.026053 0.115249 -0.013628
v 0.024192 -0.034209 0.049958
v 0.101401 -0.139595 -0.076775
v 0.018090 -0.010696 0.047567
v -0.019632 -0.062333 0.049812
v 0.029193 0.057251 0.037470
v -0.061816 0.059479 0.003110
v -0.007399 -0.091002 0.040370
v -0.063267 -0.047765 -0.016239
v 0.050538 -0.155102 -0.143035
v 0.034953 0.081746 0.022279
v 0.018641 -0.022495 0.048677
v 0.043663 0.115961 -0.064484
v 0.063872 0.015404 -0.113618
v 0.029483 0.039826 0.040346
v -0.062795 0.042862 0.005467
v -0.017034 -0.080039 0.051673
v 0.070846 0.005289 -0.092653
v 0.064539 -0.017081 -0.086302
v -0.066868 -0.029703 -0.011757
v 0.029319 0.093494 0.016853
v -0.065015 0.024835 0.004397
v 0.013192 -0.047124 0.044622
v -0.005606 0.114003 0.000712
v 0.074218 0.048018 -0.099389
v 0.030080 0.023201 0.034804
v 0.043636 -0.028497 -0.109563
v 0.058530 -0.012970 -0.103839
v -0.025864 0.108553 0.000869
v -0.034836 -0.083069 0.018714
v -0.066662 0.005757 0.005491
v 0.031072 0.009193 0.036041
v 0.046886 -0.121116 -0.120506
v 0.013453 -0.045233 0.055092
v 0.051300 -0.034197 -0.095084
v -0.068024 0.067482 -0.013555
v 0.066407 0.094874 -0.067862
v 0.011266 0.060094 0.042013
v -0.065520 -0.014253 0.005811
v 0.028938 -0.011854 0.044063
v -0.004042 -0.083095 0.055104
v 0.055234 -0.133604 -0.129470
v -0.023713 -0.083419 0.039065
v 0.047127 -0.050366 -0.090683
v 0.061112 -0.142560 -0.134939
v 0.075405 0.030317 -0.093183
v 0.060851 -0.002167 -0.108595
v 0.011773 -0.031132 0.057032
v 0.032048 -0.032958 0.046218
v -0.062942 -0.029163 0.005932
v -0.000418 0.001012 0.071186
v -0.006544 -0.066536 0.056349
v -0.036283 0.022915 0.012255
v 0.010816 0.040164 0.045246
v 0.085149 -0.127192 -0.101860
v 0.013896 0.085842 0.029944
v -0.005675 0.120933 -0.015681
v -0.026482 -0.068556 0.043688
v 0.008966 -0.012043 0.057851
v 0.067710 -0.153025 -0.141151
v 0.025829 -0.045245 0.044150
v 0.014403 0.023123 0.036972
v -0.060358 -0.046117 0.005185
v -0.045786 -0.070184 0.019337
v -0.025871 0.103485 0.008623
v 0.009257 0.005470 0.058404
v -0.003388 -0.009341 0.070320
v 0.014009 0.096016 0.021634
v 0.046599 -0.086262 -0.089610
v -0.023330 -0.045249 0.043712
v 0.035422 0.098420 0.005448
v -0.057059 0.024243 0.018920
v -0.006408 -0.044903 0.056293
v 0.039082 0.007470 -0.135490
v -0.050973 -0.032747 0.030755
v -0.049646 -0.074927 -0.016818
v 0.013714 -0.082085 0.053646
v 0.050663 0.063747 -0.129664
v -0.005746 0.059426 0.042998
v 0.051581 -0.099765 -0.086868
v -0.026837 -0.031536 0.047495
v -0.006063 -0.030893 0.058112
v 0.043707 0.115547 -0.049921
v 0.096831 -0.153521 -0.053170
v 0.056800 -0.115397 -0.106276
v -0.055727 0.040160 0.021503
v -0.056296 -0.058899 0.007150
v -0.050489 -0.049707 0.026214
v 0.030544 -0.066103 0.043634
v 0.065097 -0.115805 -0.091530
v -0.006401 0.040835 0.046332
v -0.065661 -0.171410 -0.017449
v 0.052272 0.040358 -0.129519
v -0.071834 0.025537 -0.015715
v -0.047529 -0.083735 -0.022330
v -0.023208 -0.012443 0.045844
v 0.012277 -0.066598 0.055913
v 0.005745 0.000145 0.070303
v 0.069512 0.080889 -0.035230
v -0.041467 0.012492 0.024986
v 0.081447 -0.137931 -0.124415
v 0.016256 0.117601 -0.013687
v 0.028316 -0.081867 0.037327
v -0.006788 -0.012355 0.058132
v -0.010211 0.086695 0.031250
v -0.054866 0.056305 0.016203
v 0.060714 0.096754 -0.031972
v 0.045434 -0.070410 -0.088401
v -0.007403 0.005975 0.058955
v 0.052314 0.027699 -0.128236
v -0.073490 0.045853 -0.020143
v 0.029537 0.107070 -0.001007
v -0.010446 0.024203 0.040368
v -0.041085 -0.101604 -0.018287
v -0.004603 0.099048 0.021495
v 0.006349 -0.008961 0.069999
v -0.026272 0.008052 0.038506
v -0.049063 -0.071952 0.001170
v -0.002520 0.019250 0.053816
v 0.078850 0.055127 -0.083581
v -0.054872 -0.052280 0.017771
v -0.025778 0.095025 0.018820
v -0.041212 0.038926 0.024689
v 0.050859 0.004506 -0.123116
v -0.013836 0.008961 0.045037
v -0.044671 -0.117110 -0.023473
v 0.045944 0.110842 -0.031908
v 0.014010 0.104783 0.011571
v -0.055937 -0.064327 -0.009008
v -0.027165 0.023124 0.035283
v 0.069442 -0.121911 -0.105592
v 0.084053 -0.150042 -0.135700
v -0.072647 0.005107 -0.019848
v -0.057112 -0.030556 0.021339
v -0.016489 -0.010061 0.052116
v 0.037678 0.104583 -0.005428
v -0.042790 0.022670 0.025575
v -0.025132 0.085053 0.027895
v -0.023774 0.040052 0.042680
v 0.062036 0.061344 -0.119054
v -0.015776 -0.004712 0.047914
v 0.048267 -0.013917 -0.115908
v -0.036655 -0.143934 -0.018627
v 0.040160 0.061760 -0.138117
v 0.058451 -0.108721 -0.085480
v -0.019732 -0.035743 0.051899
v 0.061329 0.100599 -0.048987
v 0.076921 -0.146202 -0.134296
v 0.045894 -0.107428 -0.104180
v -0.060209 -0.011802 0.021121
v 0.013617 -0.089989 0.040829
v 0.033687 0.112417 -0.016638
v 0.021898 -0.064840 0.050191
v -0.025236 0.059858 0.039182
v 0.064328 0.044455 -0.117128
v -0.038864 -0.158838 -0.020394
v 0.039870 0.036315 -0.139518
v -0.046594 0.061943 0.023731
v -0.018496 -0.045727 0.050967
v -0.041099 -0.080974 0.002743
v 0.073905 0.076738 -0.050207
v -0.056468 0.006304 0.022380
v 0.039605 0.023386 -0.138331
v 0.053248 0.104728 -0.031203
v 0.075870 0.077960 -0.073271
v 0.064815 0.031647 -0.115435
v 0.012392 0.112077 0.000880
v -0.007171 -0.046763 0.044838
v -0.043981 -0.172461 -0.011560
v 0.071597 -0.014459 -0.038180
v -0.027878 -0.122390 -0.011393
v -0.038519 0.023069 0.033974
v -0.023913 0.075766 0.033725
v -0.030110 0.034634 0.023205
v -0.039801 0.088793 0.015286
v 0.059128 -0.104229 -0.066484
v 0.083625 -0.164826 -0.033070
v -0.022064 -0.137430 -0.010456
v 0.079484 0.061100 -0.069744
v -0.042851 0.039558 0.036293
v -0.007283 -0.185403 0.000197
v 0.073322 0.004579 -0.037515
v -0.041757 0.076932 0.021583
v -0.023984 0.025029 0.022787
v -0.037517 0.059269 0.033227
v 0.079917 0.043612 -0.072619
v 0.011758 -0.097651 0.021010
v 0.062687 -0.047626 -0.035295
v -0.024327 -0.156595 -0.012770
v -0.004686 -0.123347 0.000733
v -0.022189 -0.099518 0.005346
v 0.058908 0.072376 -0.119471
v 0.082615 0.018902 -0.064506
v -0.026154 -0.171086 -0.008584
v 0.070701 -0.030303 -0.037961
v 0.000246 -0.135664 -0.004194
v -0.034097 -0.086742 0.005636
v 0.086003 0.006488 -0.064182
v 0.072341 0.061074 -0.028597
v -0.006866 -0.176199 -0.009428
v -0.039968 -0.048126 0.038728
v 0.074681 0.002851 -0.051044
v 0.054195 -0.087622 -0.073901
v 0.070821 -0.012221 -0.049337
v -0.020945 -0.113733 -0.002673
v -0.004323 -0.108917 0.009040
v 0.082752 -0.013552 -0.064998
v 0.031026 0.023014 0.011545
v -0.041996 -0.031055 0.039794
v -0.006206 -0.159617 -0.012174
v 0.055457 -0.069078 -0.068619
v 0.069969 -0.030673 -0.050083
v -0.028538 -0.179966 0.000202
v -0.041483 -0.012391 0.039683
v -0.007165 -0.141169 -0.007315
v 0.087597 -0.146883 -0.058567
v 0.080375 -0.024544 -0.061873
v -0.028490 0.012460 0.022399
v 0.097019 -0.142966 -0.122399
v 0.072837 0.024410 -0.025015
v 0.066971 -0.120193 -0.074086
v 0.059822 -0.050940 -0.050117
v -0.039748 0.008338 0.034297
v 0.075185 0.040531 -0.031002
v -0.032442 -0.107453 -0.012028
v 0.028958 -0.088031 0.022369
v -0.003498 0.080252 0.034939
v 0.046258 0.082016 -0.125733
v 0.059899 0.097772 -0.088761
v 0.081108 0.017937 -0.052466
v -0.025439 -0.088832 0.022927
v 0.033719 -0.107055 -0.012171
v 0.011640 -0.175122 -0.008727
v 0.056391 -0.050434 -0.072658
v 0.027441 -0.180120 0.000014
v 0.059068 -0.130422 -0.041168
v 0.078669 0.033594 -0.054553
v 0.010351 -0.106092 0.009694
v 0.072464 0.078475 -0.089918
v 0.030300 0.012663 0.022247
v 0.058621 -0.064467 -0.053779
v 0.010721 -0.159257 -0.011958
v 0.035810 -0.094811 -0.009174
v -0.016704 -0.096857 0.015656
v 0.019430 0.023014 0.023006
v 0.078091 0.059292 -0.055417
v -0.037812 -0.063430 0.035591
v -0.062715 0.080162 -0.012194
v 0.075766 0.010894 -0.041252
v 0.022342 -0.113498 -0.002840
v 0.054966 -0.108039 -0.035125
v 0.058912 -0.084402 -0.050711
v -0.048220 0.085365 0.008537
v 0.010822 -0.139548 -0.007125
v -0.029957 0.022915 0.011624
v 0.055924 -0.087981 -0.036357
v -0.058947 0.093000 -0.018514
v 0.067107 -0.160295 -0.034543
v 0.043053 0.102356 -0.108619
v 0.013241 0.076340 0.035387
v -0.043163 0.097497 0.000308
v 0.101865 -0.135945 -0.101763
v 0.059420 -0.103934 -0.049393
v 0.025156 -0.171224 -0.008601
v 0.062911 -0.121233 -0.055170
v 0.076523 -0.127063 -0.077450
v 0.050382 -0.140134 -0.028861
v 0.058455 -0.063568 -0.033952
v 0.035807 -0.086844 0.005568
v 0.033978 0.065521 0.031170
v 0.028877 -0.157388 -0.015358
v 0.067714 -0.140645 -0.049541
v 0.066270 -0.028032 -0.068597
v 0.076588 0.025565 -0.038802
v 0.023899 -0.099418 0.005015
v -0.039065 0.111413 -0.018032
v 0.051766 -0.123056 -0.031434
v 0.012729 -0.184548 0.000353
v 0.079232 -0.140818 -0.060740
v 0.078629 -0.027986 -0.052098
v 0.072011 -0.013412 -0.065119
v 0.066801 0.078773 -0.104792
v 0.029911 -0.140761 -0.014509
v -0.004652 -0.099658 0.020048
v 0.079578 -0.015925 -0.056512
v -0.047436 0.103866 -0.015157
v 0.028617 0.025402 0.022474
v 0.010964 -0.122778 -0.000400
v 0.075935 0.054419 -0.041552
v 0.057718 0.089262 -0.108610
v -0.055245 0.077897 0.004431
v 0.027230 0.074933 0.031749
v 0.080482 0.008389 -0.051888
v 0.029172 -0.122123 -0.011526
v 0.046440 0.110478 -0.085512
v 0.054833 -0.154739 -0.031074
v 0.031022 0.034456 0.022998
v 0.075099 0.005351 -0.066686
f 1 17 3
f 1 3 49
f 27 17 1
f 27 1 30
f 39 30 1
f 211 39 1
f 211 1 49
f 8 2 61
f 236 2 8
f 44 2 22
f 22 2 83
f 44 26 2
f 26 61 2
f 138 83 2
f 2 231 138
f 236 231 2
f 5 13 3
f 5 3 17
f 21 3 13
f 3 21 104
f 104 49 3
f 40 10 4
f 91 4 10
f 4 29 40
f 29 4 66
f 99 66 4
f 99 4 91
f 233 13 5
f 34 5 17
f 252 5 34
f 252 233 5
f 106 32 6
f 6 32 247
f 106 6 228
f 6 247 228
f 19 103 7
f 7 270 19
f 103 75 7
f 159 7 75
f 7 159 254
f 7 254 275
f 7 534 270
f 7 275 534
f 48 41 8
f 8 41 242
f 8 61 48
f 8 242 236
f 104 9 49
f 9 217 49
f 82 9 104
f 82 105 9
f 105 225 9
f 9 225 217
f 47 23 10
f 71 10 23
f 40 47 10
f 71 77 10
f 10 77 91
f 59 18 11
f 18 70 11
f 36 59 11
f 36 11 507
f 11 70 78
f 11 78 490
f 533 11 490
f 507 11 533
f 42 38 12
f 63 12 38
f 12 95 42
f 97 12 63
f 12 79 95
f 97 79 12
f 21 13 55
f 55 13 233
f 38 25 14
f 15 34 205
f 15 252 34
f 15 37 62
f 205 37 15
f 15 62 50
f 252 15 50
f 43 522 16
f 16 528 499
f 535 16 522
f 16 535 528
f 60 17 27
f 34 17 60
f 54 18 31
f 59 31 18
f 70 18 54
f 19 29 66
f 19 248 29
f 19 66 52
f 19 52 103
f 270 248 19
f 20 41 90
f 20 242 41
f 20 90 98
f 98 242 20
f 21 55 32
f 32 82 21
f 21 82 104
f 107 35 22
f 110 22 35
f 22 110 44
f 107 22 83
f 23 47 194
f 56 67 23
f 23 194 56
f 67 71 23
f 515 46 24
f 24 46 558
f 24 541 515
f 558 541 24
f 63 38 25
f 38 550 25
f 25 216 63
f 25 240 216
f 540 240 25
f 540 25 550
f 26 44 192
f 48 61 26
f 48 26 246
f 26 192 253
f 26 253 246
f 226 27 30
f 60 27 226
f 35 80 28
f 110 35 28
f 51 53 28
f 51 28 80
f 89 28 53
f 110 28 89
f 40 29 200
f 29 40 551
f 29 241 200
f 248 241 29
f 241 290 29
f 290 29 551
f 472 551 29
f 561 29 551
f 39 213 30
f 127 30 213
f 226 30 127
f 54 31 67
f 101 31 59
f 67 31 101
f 32 55 207
f 32 85 82
f 106 85 32
f 32 207 224
f 32 224 247
f 37 33 62
f 37 102 33
f 86 62 33
f 86 33 102
f 60 205 34
f 35 107 80
f 46 36 507
f 36 46 520
f 532 59 36
f 532 36 520
f 37 76 102
f 166 76 37
f 205 166 37
f 38 42 521
f 550 38 521
f 211 201 39
f 201 213 39
f 200 47 40
f 296 40 200
f 551 504 40
f 41 48 246
f 41 146 90
f 41 237 146
f 246 237 41
f 72 42 95
f 512 42 72
f 521 42 512
f 441 522 43
f 44 110 161
f 44 161 192
f 81 58 45
f 250 45 58
f 81 45 102
f 86 102 45
f 523 86 45
f 250 559 45
f 523 45 559
f 46 507 496
f 46 496 558
f 46 515 520
f 200 194 47
f 49 217 211
f 111 50 62
f 117 50 111
f 117 196 50
f 252 50 196
f 74 51 80
f 52 66 99
f 52 99 103
f 54 67 65
f 54 65 70
f 55 233 207
f 56 65 67
f 222 65 56
f 56 194 222
f 95 57 64
f 172 64 57
f 95 79 57
f 79 186 57
f 186 172 57
f 58 81 87
f 208 58 87
f 58 208 223
f 58 223 250
f 532 101 59
f 226 205 60
f 111 62 86
f 216 97 63
f 142 95 64
f 142 64 201
f 172 213 64
f 201 64 213
f 70 65 214
f 222 214 65
f 67 101 71
f 103 73 68
f 73 488 68
f 103 68 108
f 108 68 463
f 68 488 463
f 69 89 96
f 69 110 89
f 245 69 96
f 110 69 161
f 161 69 170
f 245 170 69
f 78 70 367
f 70 214 153
f 153 367 70
f 94 77 71
f 71 101 94
f 95 185 72
f 512 72 185
f 91 73 99
f 91 109 73
f 99 73 103
f 73 109 484
f 73 484 488
f 74 80 92
f 103 108 75
f 159 75 108
f 81 76 100
f 81 102 76
f 97 100 76
f 97 76 134
f 166 134 76
f 112 91 77
f 112 77 94
f 490 78 367
f 97 186 79
f 80 113 92
f 80 107 113
f 87 81 177
f 100 114 81
f 81 114 177
f 85 105 82
f 113 107 83
f 113 83 173
f 138 173 83
f 84 93 85
f 84 85 106
f 98 90 84
f 90 139 84
f 84 139 93
f 98 84 106
f 85 93 105
f 492 111 86
f 492 86 523
f 208 87 177
f 108 88 163
f 108 463 88
f 88 463 163
f 96 89 133
f 90 146 139
f 91 112 109
f 113 123 92
f 93 238 105
f 139 128 93
f 93 128 238
f 94 101 459
f 434 112 94
f 434 94 459
f 185 95 142
f 133 245 96
f 100 97 114
f 97 216 114
f 97 134 186
f 106 120 98
f 98 120 242
f 452 459 101
f 452 101 532
f 105 238 225
f 106 228 120
f 159 108 163
f 434 109 112
f 446 109 434
f 446 484 109
f 111 408 117
f 111 492 408
f 113 150 123
f 150 113 173
f 114 234 177
f 114 216 234
f 118 115 137
f 118 160 115
f 115 235 137
f 160 229 115
f 115 229 235
f 142 129 116
f 217 116 129
f 116 140 162
f 140 116 183
f 142 116 185
f 157 116 162
f 157 185 116
f 116 217 183
f 116 225 183
f 225 116 193
f 251 193 116
f 217 116 225
f 116 217 251
f 179 196 117
f 117 421 179
f 117 408 421
f 118 137 338
f 145 160 118
f 291 145 118
f 291 118 406
f 388 118 338
f 406 118 388
f 186 119 127
f 226 127 119
f 119 186 166
f 226 119 166
f 120 215 188
f 120 188 242
f 221 215 120
f 221 120 228
f 181 121 151
f 227 151 121
f 181 168 121
f 227 121 168
f 122 135 163
f 135 122 167
f 122 163 371
f 167 122 400
f 428 122 371
f 122 391 416
f 428 391 122
f 122 416 400
f 123 150 156
f 123 156 184
f 171 131 124
f 359 124 131
f 171 124 152
f 152 124 359
f 169 125 126
f 223 126 125
f 130 155 125
f 130 125 169
f 223 125 155
f 169 126 234
f 223 208 126
f 234 126 208
f 186 127 172
f 127 213 172
f 139 197 128
f 197 238 128
f 211 129 142
f 211 217 129
f 130 347 155
f 416 130 169
f 391 347 130
f 391 130 416
f 131 158 147
f 131 147 175
f 131 171 158
f 390 131 175
f 359 131 378
f 131 390 378
f 165 173 132
f 239 165 132
f 176 132 173
f 206 132 176
f 206 239 132
f 133 204 245
f 186 134 166
f 135 159 163
f 159 135 167
f 174 136 144
f 144 136 372
f 174 164 136
f 164 220 136
f 249 136 220
f 136 249 308
f 136 308 372
f 137 212 179
f 338 137 179
f 137 235 212
f 176 173 138
f 176 138 231
f 197 139 146
f 181 151 140
f 140 151 397
f 140 397 162
f 181 140 183
f 154 143 141
f 143 175 141
f 141 175 147
f 141 147 192
f 154 141 195
f 161 170 141
f 141 192 161
f 245 141 170
f 245 195 141
f 142 201 211
f 175 143 148
f 435 148 143
f 407 143 154
f 435 143 407
f 182 144 149
f 144 344 149
f 182 174 144
f 144 333 344
f 333 144 372
f 145 187 160
f 249 187 145
f 291 249 145
f 197 146 190
f 237 190 146
f 253 147 158
f 253 192 147
f 390 175 148
f 435 390 148
f 206 182 149
f 206 149 243
f 413 243 149
f 149 344 413
f 156 150 173
f 151 227 258
f 258 397 151
f 171 152 180
f 180 152 190
f 232 190 152
f 273 232 152
f 393 273 152
f 340 152 359
f 393 152 340
f 153 214 353
f 153 353 367
f 195 356 154
f 356 433 154
f 407 154 420
f 420 154 433
f 223 155 250
f 250 155 277
f 155 347 277
f 156 173 165
f 239 156 165
f 218 184 156
f 218 156 189
f 239 189 156
f 358 157 162
f 375 185 157
f 358 375 157
f 171 253 158
f 159 167 335
f 254 159 275
f 159 335 275
f 187 229 160
f 358 162 397
f 371 163 363
f 363 163 463
f 209 164 174
f 209 198 164
f 198 220 164
f 226 166 205
f 167 400 335
f 168 181 238
f 197 227 168
f 168 238 197
f 168 244 238
f 169 234 191
f 366 169 191
f 416 169 366
f 237 171 180
f 171 237 246
f 171 246 253
f 219 174 182
f 219 209 174
f 182 206 176
f 182 176 219
f 176 231 219
f 234 208 177
f 178 221 187
f 249 178 187
f 188 215 178
f 188 178 220
f 178 215 221
f 249 220 178
f 179 212 196
f 338 179 427
f 179 421 427
f 237 180 190
f 238 181 183
f 183 217 225
f 238 183 225
f 271 300 185
f 271 185 375
f 300 512 185
f 187 221 229
f 198 188 220
f 198 242 188
f 189 199 230
f 189 239 199
f 230 218 189
f 190 232 197
f 203 191 234
f 321 191 203
f 366 191 321
f 193 202 238
f 225 193 217
f 251 217 193
f 238 193 225
f 200 296 194
f 304 222 194
f 194 296 304
f 204 195 245
f 233 196 212
f 233 252 196
f 232 227 197
f 209 242 198
f 199 239 206
f 199 206 243
f 230 199 297
f 243 297 199
f 241 296 200
f 240 203 234
f 203 240 265
f 203 265 321
f 207 233 212
f 207 212 235
f 224 207 235
f 219 236 209
f 209 236 242
f 313 214 222
f 313 325 214
f 214 325 353
f 240 234 216
f 230 274 218
f 218 274 255
f 219 231 236
f 228 229 221
f 313 222 304
f 224 235 229
f 247 224 229
f 232 273 227
f 227 284 258
f 227 273 284
f 228 247 229
f 309 274 230
f 230 297 306
f 309 230 306
f 540 265 240
f 241 248 279
f 279 290 241
f 241 290 296
f 243 413 297
f 270 279 248
f 249 291 299
f 249 299 308
f 250 277 559
f 256 309 306
f 306 395 256
f 256 365 309
f 319 365 256
f 395 319 256
f 304 257 268
f 257 330 268
f 296 257 304
f 296 326 257
f 330 257 326
f 284 303 258
f 258 303 295
f 295 397 258
f 330 326 259
f 326 383 259
f 383 330 259
f 312 260 266
f 260 325 266
f 298 260 312
f 260 298 325
f 329 261 288
f 261 379 288
f 386 261 329
f 386 379 261
f 384 289 262
f 404 262 289
f 384 262 503
f 456 262 404
f 456 546 262
f 546 503 262
f 263 292 283
f 299 263 283
f 291 292 263
f 299 291 263
f 480 267 264
f 264 267 526
f 395 264 319
f 264 526 319
f 395 530 264
f 480 264 543
f 530 543 264
f 293 288 265
f 265 288 321
f 525 293 265
f 525 265 540
f 266 304 276
f 312 266 276
f 266 313 304
f 266 325 313
f 267 480 348
f 276 304 268
f 276 268 323
f 323 268 330
f 322 316 269
f 423 269 316
f 322 269 423
f 302 279 270
f 270 524 302
f 270 556 524
f 534 556 270
f 271 280 370
f 280 271 375
f 271 512 300
f 422 271 370
f 555 271 422
f 271 555 512
f 272 305 307
f 341 305 272
f 272 307 495
f 341 272 415
f 451 415 272
f 451 272 548
f 548 272 495
f 284 273 314
f 273 327 314
f 273 393 327
f 274 309 324
f 275 285 332
f 275 335 285
f 275 332 320
f 556 275 320
f 534 275 556
f 323 312 276
f 277 411 301
f 277 301 493
f 277 347 411
f 277 493 559
f 278 310 282
f 311 278 282
f 278 430 310
f 388 278 311
f 374 278 388
f 374 430 278
f 279 326 290
f 302 318 279
f 318 326 279
f 350 280 286
f 286 280 358
f 350 370 280
f 280 375 358
f 305 281 307
f 316 281 305
f 322 307 281
f 322 281 316
f 292 282 283
f 283 282 545
f 292 311 282
f 282 310 457
f 282 457 562
f 282 562 545
f 299 283 537
f 537 283 545
f 284 314 303
f 285 392 332
f 285 335 392
f 286 295 336
f 295 286 358
f 350 286 336
f 325 287 298
f 298 337 287
f 298 287 432
f 287 337 432
f 329 288 293
f 321 288 431
f 392 288 379
f 392 431 288
f 289 310 430
f 450 310 289
f 450 289 384
f 404 289 419
f 289 430 419
f 296 290 326
f 290 296 504
f 290 504 551
f 290 561 551
f 291 406 292
f 406 311 292
f 293 525 329
f 307 328 294
f 307 294 495
f 328 424 294
f 294 424 461
f 294 461 495
f 303 414 295
f 295 426 336
f 295 358 397
f 295 414 426
f 306 297 395
f 395 297 349
f 349 297 413
f 337 298 312
f 353 325 298
f 361 298 337
f 298 432 337
f 353 298 417
f 361 417 298
f 308 299 537
f 411 425 301
f 425 429 301
f 503 301 429
f 493 301 503
f 318 302 343
f 491 343 302
f 491 302 524
f 314 414 303
f 305 361 316
f 305 341 361
f 328 307 322
f 372 308 498
f 308 537 498
f 412 324 309
f 412 309 365
f 310 450 457
f 406 388 311
f 323 346 312
f 337 312 346
f 327 398 314
f 314 398 414
f 362 330 315
f 330 373 315
f 315 373 331
f 315 331 380
f 380 362 315
f 361 337 316
f 423 316 337
f 364 401 317
f 364 317 519
f 317 401 519
f 355 326 318
f 318 343 355
f 319 526 365
f 379 320 332
f 379 491 320
f 491 524 320
f 556 320 524
f 321 431 366
f 322 511 328
f 322 423 334
f 334 511 322
f 330 380 323
f 331 368 323
f 331 323 380
f 323 368 346
f 412 396 324
f 355 377 326
f 326 377 383
f 351 385 327
f 393 351 327
f 327 385 398
f 382 328 351
f 351 328 385
f 352 385 328
f 465 352 328
f 328 382 424
f 465 328 511
f 329 525 386
f 362 380 330
f 330 383 373
f 373 368 331
f 379 332 392
f 333 467 344
f 333 372 467
f 337 423 334
f 432 337 334
f 410 345 334
f 345 465 334
f 423 410 334
f 423 432 334
f 465 511 334
f 335 400 376
f 335 376 431
f 335 431 392
f 336 401 350
f 336 426 401
f 337 346 423
f 423 337 432
f 388 338 427
f 398 352 339
f 352 473 339
f 398 339 473
f 424 340 359
f 382 393 340
f 382 340 424
f 353 361 341
f 353 341 367
f 367 341 415
f 408 342 357
f 342 419 357
f 342 404 419
f 342 456 404
f 492 342 408
f 492 456 342
f 403 355 343
f 403 343 418
f 418 343 491
f 409 413 344
f 440 409 344
f 344 467 440
f 346 368 345
f 410 346 345
f 345 368 360
f 478 345 360
f 345 473 465
f 473 345 478
f 346 410 423
f 347 391 428
f 347 428 411
f 348 522 441
f 348 480 522
f 349 354 395
f 354 349 413
f 422 370 350
f 387 422 350
f 444 387 350
f 401 444 350
f 393 382 351
f 385 352 398
f 352 465 473
f 417 361 353
f 354 530 395
f 354 413 409
f 409 485 354
f 354 485 530
f 355 403 377
f 421 357 374
f 357 430 374
f 408 357 421
f 357 419 430
f 424 359 378
f 399 360 368
f 360 405 381
f 360 381 478
f 360 399 405
f 371 363 411
f 411 363 425
f 463 425 363
f 364 401 426
f 436 401 364
f 487 401 364
f 426 487 364
f 364 487 436
f 482 487 364
f 482 364 519
f 396 412 365
f 396 365 483
f 526 483 365
f 376 416 366
f 376 366 431
f 415 490 367
f 368 373 405
f 368 405 399
f 402 369 379
f 379 369 491
f 437 369 402
f 437 491 369
f 428 371 411
f 467 372 475
f 372 498 475
f 383 377 373
f 373 377 389
f 381 373 389
f 381 405 373
f 388 427 374
f 421 374 427
f 400 416 376
f 389 377 381
f 381 377 394
f 403 394 377
f 435 378 390
f 461 424 378
f 378 435 489
f 461 378 455
f 455 378 489
f 402 379 386
f 394 381 482
f 394 487 381
f 381 487 478
f 482 381 487
f 450 384 443
f 443 384 503
f 386 447 402
f 386 439 447
f 386 525 439
f 387 448 401
f 422 387 449
f 387 448 438
f 449 387 444
f 401 394 436
f 401 448 394
f 444 394 403
f 394 444 436
f 394 448 436
f 487 394 436
f 394 482 448
f 398 478 414
f 398 473 478
f 436 444 401
f 436 448 401
f 487 436 401
f 519 401 448
f 402 447 437
f 444 403 418
f 453 407 420
f 407 442 435
f 442 407 453
f 409 440 485
f 414 487 426
f 414 478 487
f 451 490 415
f 449 422 418
f 437 449 418
f 418 491 437
f 444 418 449
f 433 453 420
f 447 422 449
f 422 447 555
f 510 429 425
f 463 553 425
f 553 510 425
f 443 503 429
f 510 443 429
f 433 458 453
f 433 477 458
f 434 468 446
f 459 476 434
f 434 476 468
f 454 435 442
f 435 454 469
f 469 489 435
f 437 447 449
f 439 517 447
f 525 517 439
f 516 440 467
f 440 529 485
f 516 527 440
f 440 527 529
f 453 479 442
f 454 442 479
f 510 450 443
f 464 477 445
f 542 464 445
f 446 468 466
f 446 466 557
f 538 484 446
f 513 538 446
f 446 557 513
f 555 447 517
f 519 448 482
f 450 501 457
f 450 510 501
f 451 539 490
f 502 539 451
f 548 502 451
f 476 459 452
f 486 476 452
f 532 486 452
f 458 474 453
f 453 474 479
f 454 479 460
f 454 460 518
f 470 469 454
f 552 470 454
f 454 518 552
f 455 495 461
f 470 455 469
f 455 489 469
f 548 455 470
f 508 495 455
f 548 508 455
f 546 456 492
f 557 462 457
f 562 457 462
f 494 457 501
f 457 494 557
f 458 464 474
f 464 458 477
f 459 476 544
f 518 460 479
f 557 466 462
f 562 462 466
f 545 462 471
f 549 471 462
f 462 494 557
f 545 562 462
f 549 462 557
f 562 557 462
f 463 488 553
f 497 474 464
f 542 497 464
f 549 466 468
f 557 466 468
f 466 549 557
f 466 557 562
f 516 467 475
f 544 468 476
f 544 549 468
f 549 468 545
f 549 468 557
f 470 502 548
f 552 502 470
f 481 476 471
f 537 471 476
f 481 471 544
f 545 471 537
f 544 471 549
f 472 551 504
f 479 474 506
f 497 506 474
f 475 498 486
f 475 486 505
f 475 505 516
f 481 544 476
f 476 486 498
f 476 498 537
f 537 545 476
f 479 506 518
f 480 536 522
f 480 543 536
f 538 488 484
f 536 485 529
f 536 530 485
f 505 486 532
f 488 538 494
f 488 494 553
f 539 533 490
f 492 523 554
f 546 492 554
f 493 503 546
f 554 523 493
f 493 523 559
f 493 546 554
f 510 494 501
f 510 553 494
f 494 538 513
f 557 494 513
f 548 495 508
f 539 496 507
f 539 514 496
f 558 496 514
f 497 499 528
f 497 542 499
f 528 506 497
f 536 529 500
f 529 541 500
f 531 536 500
f 541 531 500
f 514 539 502
f 514 502 552
f 516 505 532
f 535 518 506
f 528 535 506
f 507 533 539
f 512 525 521
f 555 525 512
f 558 514 552
f 520 515 527
f 515 529 527
f 515 541 529
f 520 527 516
f 516 532 520
f 555 517 525
f 535 547 518
f 552 518 547
f 550 521 525
f 535 522 560
f 560 522 536
f 540 550 525
f 530 536 543
f 560 536 531
f 558 531 541
f 558 547 531
f 547 560 531
f 547 535 560
f 552 547 558
