# Face Mesh LOD1 - Triangles: 1134
v -0.074564 0.049895 -0.100016
v -0.044068 -0.105625 -0.103471
v 0.000114 0.108093 -0.124975
v -0.052882 0.029757 -0.128726
v 0.059629 0.003450 0.020100
v -0.040388 0.038431 -0.140013
v -0.034664 -0.022970 -0.122956
v 0.048095 0.058786 0.022758
v -0.039119 -0.087024 -0.098263
v 0.061799 -0.011934 0.019214
v 0.043332 -0.079622 0.010070
v -0.062062 0.101906 -0.049410
v -0.040249 0.025468 -0.138767
v -0.021678 0.077749 -0.142414
v 0.042976 -0.174451 -0.012518
v -0.065009 0.040052 -0.116852
v 0.049869 -0.072736 0.005209
v 0.053866 0.040150 0.024132
v -0.037099 -0.062246 -0.099248
v -0.051655 0.006507 -0.123482
v -0.060806 -0.121127 -0.109619
v 0.059534 -0.028477 0.018862
v -0.046332 0.112209 -0.032536
v -0.057273 -0.106482 -0.082828
v -0.062379 0.063299 -0.119629
v -0.081744 -0.140529 -0.124586
v 0.045042 0.021683 0.025966
v 0.058968 -0.061423 -0.005983
v -0.041324 -0.010360 -0.124732
v -0.040607 0.057097 -0.140024
v -0.072427 -0.131931 -0.118616
v -0.052734 0.042427 -0.130051
v 0.045311 -0.083386 -0.013726
v -0.022328 0.099686 -0.127612
v -0.061949 0.096932 -0.032947
v -0.079177 0.056793 -0.084228
v 0.047689 0.009706 0.026698
v -0.046334 -0.070499 -0.087820
v -0.068475 0.084168 -0.029619
v -0.084271 -0.152708 -0.135942
v 0.065159 -0.173489 -0.018312
v -0.065456 -0.117920 -0.091563
v 0.022185 0.116256 -0.105410
v 0.045279 -0.105116 -0.023021
v 0.055190 -0.013682 0.029052
v -0.047450 -0.087046 -0.089099
v -0.074616 0.023848 -0.094129
v 0.000006 0.078770 -0.145846
v -0.077178 -0.148887 -0.134329
v 0.058667 0.038456 0.015117
v -0.097262 -0.145587 -0.122801
v -0.039887 0.009488 -0.135833
v 0.054649 -0.033535 0.025948
v 0.019400 0.123089 -0.087263
v 0.053396 -0.071150 -0.014385
v 0.015377 0.125421 -0.079966
v -0.051762 0.059863 -0.130855
v -0.048759 -0.100054 -0.092934
v 0.000081 0.095388 -0.136180
v -0.079926 0.042015 -0.078975
v -0.055588 0.107045 -0.038723
v -0.044452 0.116832 -0.050333
v -0.076373 0.079415 -0.073817
v 0.051108 -0.052596 0.025502
v 0.059277 0.024730 0.015529
v 0.059979 -0.052708 0.005965
v 0.070614 0.040483 -0.013932
v -0.086960 -0.134687 -0.079669
v 0.046842 -0.069876 0.021447
v 0.063474 -0.032049 0.006016
v -0.072963 0.073323 -0.035951
v 0.071019 0.018930 -0.014465
v -0.061395 -0.157938 -0.142566
v 0.057522 0.061435 0.009406
v -0.022006 0.116210 -0.105400
v 0.065965 -0.014198 0.006125
v -0.067017 0.096291 -0.068331
v -0.061429 -0.145204 -0.134819
v 0.000042 0.124770 -0.090511
v -0.061663 -0.000203 -0.108979
v -0.047420 -0.123120 -0.119966
v -0.052314 -0.032823 -0.094880
v -0.058379 -0.015284 -0.102153
v 0.022524 0.099700 -0.127606
v -0.007699 0.126040 -0.081390
v 0.067155 0.067967 -0.013989
v -0.102107 -0.138424 -0.102392
v -0.048054 -0.049432 -0.090223
v 0.066466 0.006032 0.005581
v -0.040804 -0.159334 -0.142598
v -0.065448 -0.015353 -0.086509
v 0.067888 -0.030703 -0.016831
v -0.074638 0.077963 -0.050698
v -0.096563 -0.139491 -0.079071
v -0.041024 0.118326 -0.068905
v -0.038772 -0.048367 -0.101772
v 0.063670 0.024764 0.005751
v -0.019336 0.123032 -0.087234
v 0.063374 -0.050181 -0.013988
v 0.000107 0.118353 -0.108563
v 0.060713 0.044127 0.008759
v -0.064468 0.017401 -0.114139
v -0.069604 -0.000983 -0.091984
v -0.042540 -0.033271 -0.106461
v -0.055692 -0.135911 -0.129211
v -0.046915 -0.020760 -0.112422
v 0.062717 0.059389 0.000648
v 0.072559 0.005703 -0.019153
v -0.080317 -0.126837 -0.099977
v 0.021726 0.077756 -0.142388
v 0.070644 -0.012861 -0.016245
v -0.037715 -0.141017 -0.135568
v -0.071028 0.068665 -0.104632
v -0.028920 0.123286 -0.066299
v 0.017587 -0.007074 -0.138204
v -0.081691 0.017793 -0.054189
v 0.021003 0.055281 -0.148855
v 0.036377 -0.009546 -0.128963
v -0.058077 0.091090 -0.109159
v -0.028429 -0.046719 -0.111737
v -0.073517 -0.031123 -0.039737
v 0.051628 0.097786 -0.013209
v -0.020131 -0.162240 -0.142129
v -0.055522 -0.088791 -0.036198
v 0.013386 0.127558 -0.054585
v -0.067179 0.080558 -0.105349
v -0.069582 -0.015402 -0.069498
v -0.078446 0.034575 -0.051171
v 0.034932 0.118870 -0.034387
v -0.054541 -0.109740 -0.035409
v -0.005639 -0.125541 -0.128065
v -0.106390 -0.144878 -0.076342
v -0.046884 0.112080 -0.086013
v 0.055854 0.087313 -0.007143
v 0.029290 -0.065236 -0.104541
v 0.018759 0.005638 -0.143456
v -0.020366 0.125898 -0.067783
v -0.060265 -0.032767 -0.076284
v -0.073261 0.004933 -0.034131
v -0.065685 -0.146434 -0.045568
v -0.077915 0.058846 -0.051434
v -0.050366 -0.142153 -0.029816
v 0.031805 -0.085511 -0.102776
v 0.031688 -0.028486 -0.119699
v -0.057330 -0.049781 -0.072219
v -0.061330 -0.126465 -0.051153
v 0.046398 0.106890 -0.019265
v -0.046028 -0.122707 -0.024562
v 0.030349 -0.101411 -0.109421
v -0.019140 -0.144240 -0.137355
v -0.072148 -0.015105 -0.039018
v -0.058755 -0.063906 -0.033592
v 0.062923 0.089115 -0.022608
v 0.040394 -0.065712 0.033764
v 0.009912 0.124985 -0.029471
v -0.056998 -0.162182 -0.030788
v 0.031234 0.122518 -0.047154
v -0.000757 -0.144422 -0.138280
v -0.075625 0.041114 -0.031772
v -0.059678 -0.105521 -0.049463
v 0.051969 0.080286 0.005139
v 0.016442 -0.016726 -0.133331
v -0.076650 -0.129374 -0.077920
v -0.075218 0.023145 -0.035271
v 0.039203 0.009460 -0.135728
v 0.063925 0.078332 -0.014624
v 0.012296 -0.070464 -0.111628
v -0.042965 0.100512 -0.115221
v 0.021009 0.125357 -0.045462
v 0.047573 0.091238 0.000904
v -0.076320 -0.029213 -0.051884
v 0.020804 0.122808 -0.031207
v -0.079201 -0.143246 -0.061544
v -0.058923 -0.085009 -0.050407
v -0.070326 0.085670 -0.092054
v -0.027442 -0.127450 -0.128223
v 0.012502 -0.089342 -0.112490
v -0.055803 -0.122646 -0.038180
v -0.007822 -0.109413 -0.118547
v -0.003654 0.129117 -0.068760
v 0.012237 -0.046428 -0.115898
v -0.043770 0.107850 -0.103100
v 0.019374 0.021459 -0.147106
v -0.059072 -0.064604 -0.053136
v -0.075153 -0.013464 -0.051286
v -0.078263 0.006435 -0.052171
v -0.000408 -0.163558 -0.142959
v -0.073286 0.061974 -0.029099
v -0.060355 0.099389 -0.089273
v 0.014513 -0.029337 -0.125699
v 0.019992 0.035053 -0.148814
v -0.007132 -0.056625 -0.114106
v 0.017830 -0.143519 -0.137147
v -0.060695 -0.050671 -0.049725
v -0.005232 0.125449 -0.028957
v -0.067146 -0.122364 -0.074433
v -0.090805 0.008377 -0.067120
v -0.041527 0.089782 -0.126397
v 0.043140 -0.012984 0.038793
v -0.083859 -0.167420 -0.034337
v -0.000119 0.054852 -0.152376
v -0.068188 -0.029600 -0.050136
v -0.007155 -0.069775 -0.112328
v 0.031105 -0.125395 -0.126267
v -0.071063 -0.136310 -0.060726
v 0.042104 0.006897 0.033649
v -0.079891 0.062558 -0.070373
v -0.089940 -0.006025 -0.068184
v -0.096854 -0.156187 -0.054469
v -0.046804 0.078089 -0.129482
v 0.013504 -0.109330 -0.118382
v -0.019551 0.005651 -0.143500
v 0.015524 0.126954 -0.070071
v -0.005171 -0.086682 -0.112774
v -0.067501 -0.010731 -0.051966
v -0.080406 0.048378 -0.067722
v -0.000329 0.020349 -0.150199
v -0.075448 0.074514 -0.088895
v -0.021010 0.125628 -0.052430
v 0.043253 -0.049648 0.036703
v -0.007195 -0.046326 -0.116144
v -0.031424 0.122425 -0.047053
v -0.083451 0.018040 -0.064034
v 0.019175 -0.162184 -0.142014
v -0.014193 -0.096385 -0.113406
v 0.012189 -0.057381 -0.113480
v -0.005420 -0.031380 -0.125376
v 0.044732 -0.031465 0.038084
v -0.000233 0.034069 -0.152064
v -0.018585 -0.007060 -0.138245
v -0.083118 0.007256 -0.065432
v 0.039376 0.052767 0.034458
v -0.056889 0.078994 -0.119968
v -0.069469 -0.029727 -0.035372
v -0.020372 0.035057 -0.148862
v -0.023907 -0.029110 -0.122890
v -0.000572 -0.012699 -0.137414
v 0.036662 -0.140819 -0.135413
v -0.027938 -0.103355 -0.112690
v -0.063562 -0.047775 -0.035086
v -0.040436 0.070652 -0.137289
v -0.019947 0.021467 -0.147159
v -0.006696 0.128621 -0.049219
v -0.000440 0.004601 -0.146090
v -0.075132 -0.158966 -0.042512
v -0.027256 -0.084574 -0.107003
v -0.056135 -0.069337 -0.068027
v -0.081954 -0.013023 -0.065078
v 0.015284 -0.126967 -0.128860
v -0.026054 0.121452 -0.032143
v 0.041753 0.023219 0.033138
v -0.027204 -0.066903 -0.107065
v -0.080045 -0.024908 -0.061782
v -0.087564 -0.149475 -0.059647
v -0.054848 -0.088472 -0.073458
v -0.017574 -0.016717 -0.133360
v 0.045048 0.038355 0.034714
v 0.032295 -0.047498 -0.106802
v 0.030773 0.122362 -0.069874
v -0.090000 0.015689 -0.063697
v -0.021174 0.055276 -0.148895
v -0.070724 -0.021587 -0.038041
v -0.059533 -0.105817 -0.066498
v 0.044919 0.075576 0.017853
v 0.038107 -0.165391 -0.144003
v 0.071465 -0.131597 -0.118477
v 0.015784 0.006361 0.043971
v -0.070783 -0.013109 -0.016942
v 0.005931 0.016719 0.053691
v -0.009943 0.106072 0.012367
v 0.071184 0.068805 -0.104485
v 0.051088 -0.020095 -0.106139
v 0.086292 -0.134315 -0.079394
v -0.025705 0.115936 -0.014178
v 0.105856 -0.144472 -0.075861
v 0.017635 -0.012255 0.048059
v -0.016435 -0.073167 0.054225
v 0.028054 0.058625 0.038681
v -0.061547 0.059720 0.002788
v -0.006919 -0.090899 0.041958
v -0.063913 -0.050655 -0.014132
v 0.049838 -0.157592 -0.142636
v 0.032711 0.078945 0.026322
v 0.017992 -0.023689 0.049055
v 0.044293 0.117506 -0.064995
v 0.064103 0.017420 -0.113849
v 0.029697 0.039329 0.040516
v -0.060691 0.043956 0.008551
v -0.018145 -0.080327 0.051770
v -0.053110 -0.064289 0.015701
v 0.068925 -0.001027 -0.091488
v 0.064588 -0.015361 -0.086073
v -0.067715 -0.033287 -0.015116
v 0.034130 0.089623 0.017138
v -0.063319 0.023253 0.006657
v 0.013278 -0.047062 0.045328
v -0.002723 0.111956 0.004831
v 0.074637 0.050009 -0.099763
v 0.030665 0.022772 0.035056
v 0.041317 -0.033266 -0.106448
v 0.058598 -0.011150 -0.103770
v -0.025488 0.109019 0.000303
v -0.035963 -0.083846 0.018893
v -0.066650 0.005823 0.005322
v 0.030841 0.008114 0.036574
v 0.046332 -0.123126 -0.120014
v 0.012758 -0.046356 0.055046
v 0.051250 -0.032776 -0.094784
v -0.067734 0.067899 -0.013985
v 0.067066 0.096489 -0.068337
v 0.011864 0.060337 0.042596
v -0.066102 -0.014383 0.005832
v 0.029236 -0.013270 0.044024
v -0.003941 -0.082280 0.055736
v 0.054622 -0.135808 -0.129074
v -0.021708 -0.085581 0.040851
v 0.047011 -0.049288 -0.090262
v 0.060461 -0.144919 -0.134602
v 0.074414 0.023879 -0.093661
v 0.060986 -0.000226 -0.108693
v 0.010674 -0.032357 0.057183
v 0.029142 -0.034016 0.047257
v -0.063681 -0.032230 0.005780
v -0.001140 0.000576 0.071199
v -0.006178 -0.066770 0.056688
v -0.036727 0.022493 0.011950
v 0.011339 0.039848 0.045914
v 0.084562 -0.129351 -0.101888
v 0.014366 0.086093 0.029842
v -0.006855 0.120015 -0.012574
v -0.027009 -0.069468 0.044422
v 0.008735 -0.013552 0.058920
v 0.067014 -0.155483 -0.140891
v 0.025451 -0.046181 0.044116
v 0.014600 0.022398 0.037513
v -0.061223 -0.049569 0.005126
v -0.043718 -0.072774 0.024386
v -0.027176 0.101667 0.009734
v 0.008706 0.004538 0.059152
v -0.067401 0.040474 -0.005274
v -0.003737 -0.011203 0.071718
v 0.014438 0.096325 0.021178
v 0.046258 -0.086626 -0.089255
v -0.023997 -0.045811 0.044246
v 0.034431 0.098607 0.006969
v -0.056250 0.024729 0.019260
v -0.007977 -0.046124 0.056495
v -0.051976 -0.033415 0.030545
v -0.050892 -0.075373 -0.016658
v 0.012886 -0.082017 0.053203
v 0.051767 0.059915 -0.130761
v -0.005357 0.059501 0.043421
v 0.051129 -0.100688 -0.086671
v -0.026095 -0.033341 0.047439
v -0.006547 -0.032344 0.058418
v 0.044362 0.116978 -0.050426
v 0.096394 -0.155711 -0.053950
v 0.056257 -0.117129 -0.106015
v -0.056429 0.039300 0.020038
v -0.055557 -0.064483 0.005287
v -0.049871 -0.052535 0.028055
v 0.028852 -0.069459 0.043033
v 0.064542 -0.117469 -0.091520
v -0.006111 0.040474 0.046786
v -0.066341 -0.174065 -0.018281
v 0.052584 0.042466 -0.129925
v -0.071350 0.018670 -0.014909
v -0.041710 -0.089981 -0.015775
v -0.023442 -0.012398 0.046021
v 0.010944 -0.067738 0.055759
v 0.005459 -0.001444 0.071272
v 0.070410 0.078927 -0.032807
v -0.042180 0.011160 0.025838
v 0.080834 -0.140216 -0.124336
v 0.014974 0.118032 -0.011990
v 0.024593 -0.083752 0.039042
v -0.007161 -0.014124 0.059539
v -0.004929 0.086953 0.031268
v -0.054510 0.056482 0.016015
v 0.064188 0.094976 -0.035403
v 0.045224 -0.070135 -0.088013
v -0.007493 0.005016 0.059195
v 0.052561 0.029775 -0.128564
v -0.072228 0.039676 -0.018807
v 0.030082 0.107872 -0.001521
v -0.010172 0.023515 0.040747
v -0.045051 -0.105597 -0.023099
v -0.005125 0.097407 0.022864
v 0.006229 -0.011203 0.071059
v -0.025579 0.006713 0.038969
v -0.048182 -0.074783 0.006403
v -0.002403 0.017783 0.054708
v 0.079359 0.056996 -0.083963
v -0.056191 -0.052896 0.017781
v -0.023571 0.094422 0.019919
v -0.042669 0.036452 0.024875
v 0.050999 0.006485 -0.123311
v -0.014027 0.007797 0.045028
v 0.050194 0.109776 -0.033485
v 0.014468 0.105259 0.011043
v -0.057497 -0.064810 -0.008820
v -0.027467 0.022514 0.035002
v 0.068852 -0.123905 -0.105423
v 0.083405 -0.152438 -0.135613
v -0.072506 0.001943 -0.018023
v -0.058066 -0.031125 0.021206
v 0.020705 -0.062687 0.049812
v -0.017009 -0.012565 0.053496
v 0.038273 0.105513 -0.005921
v -0.042874 0.022168 0.025987
v -0.024604 0.085083 0.027452
v -0.024111 0.038783 0.041813
v 0.062468 0.063396 -0.119503
v -0.015335 -0.019366 0.050292
v 0.048329 -0.012069 -0.115942
v -0.037406 -0.146034 -0.019013
v 0.040519 0.057111 -0.139952
v 0.057926 -0.110043 -0.085436
v -0.019596 -0.034677 0.052562
v 0.062014 0.102105 -0.049462
v 0.076271 -0.148609 -0.134079
v 0.045394 -0.108863 -0.103832
v -0.059202 -0.012727 0.023007
v 0.013216 -0.090059 0.040437
v 0.034301 0.113480 -0.017147
v -0.024937 0.060032 0.039300
v 0.064915 0.040112 -0.116656
v -0.039588 -0.161265 -0.021065
v 0.040119 0.038431 -0.139920
v -0.045707 0.059919 0.024775
v -0.018957 -0.047207 0.051825
v -0.039978 -0.083618 0.003853
v 0.074558 0.078217 -0.050628
v -0.056796 0.005390 0.022174
v 0.039791 0.025452 -0.138659
v 0.054296 0.103470 -0.025908
v 0.076489 0.079650 -0.073707
v 0.014545 0.110718 0.003150
v -0.006834 -0.047740 0.045568
v -0.044675 -0.174907 -0.012350
v 0.072081 -0.015678 -0.038434
v -0.028545 -0.123633 -0.011564
v -0.037804 0.022679 0.034241
v -0.023467 0.075885 0.033501
v -0.030402 0.034041 0.022900
v -0.039368 0.088882 0.014696
v 0.059493 -0.109547 -0.067647
v 0.083210 -0.166969 -0.034011
v -0.022755 -0.139159 -0.010805
v 0.080057 0.062830 -0.070130
v -0.041690 0.039109 0.036324
v -0.007805 -0.187392 -0.000718
v 0.073433 0.002320 -0.037967
v -0.041286 0.076998 0.021205
v -0.024555 0.024107 0.023628
v -0.039506 0.052713 0.034524
v 0.080402 0.045447 -0.072933
v 0.011273 -0.098030 0.020947
v 0.062746 -0.047030 -0.035114
v -0.025050 -0.158773 -0.013397
v -0.005366 -0.124561 0.000853
v -0.022499 -0.104898 0.002595
v 0.040475 0.070672 -0.137236
v 0.059382 0.074395 -0.119960
v 0.084832 0.018588 -0.063839
v -0.026849 -0.173362 -0.009354
v 0.071134 -0.030914 -0.037674
v -0.000401 -0.137265 -0.004323
v 0.075946 0.014422 -0.056223
v 0.056994 -0.096465 -0.064207
v 0.086533 0.007644 -0.064226
v 0.072923 0.062268 -0.028951
v -0.007453 -0.178246 -0.010264
v -0.039365 -0.049228 0.040082
v 0.075047 0.001760 -0.050098
v 0.053873 -0.087960 -0.073584
v 0.071397 -0.011666 -0.049137
v -0.005529 -0.108362 0.010087
v 0.083653 -0.012563 -0.064524
v 0.031743 0.022471 0.011810
v -0.042017 -0.032485 0.040196
v -0.006840 -0.161555 -0.012779
v 0.070554 -0.135867 -0.060461
v 0.055291 -0.068749 -0.068227
v 0.070032 -0.029716 -0.049938
v -0.029152 -0.182104 -0.000587
v 0.041696 0.089812 -0.126373
v -0.040788 -0.013020 0.040028
v -0.007819 -0.142887 -0.007615
v 0.087091 -0.149023 -0.059182
v 0.081000 -0.026234 -0.060438
v -0.029380 0.012004 0.022898
v 0.096450 -0.145273 -0.122499
v 0.074595 0.018501 -0.033606
v 0.071207 -0.125381 -0.076037
v 0.059933 -0.050115 -0.049770
v -0.039137 0.006990 0.034606
v 0.075651 0.041744 -0.031244
v -0.033029 -0.108122 -0.012241
v 0.029125 -0.087095 0.023620
v -0.004548 0.077036 0.036782
v 0.048868 0.079548 -0.127041
v 0.057624 -0.063570 -0.032050
v 0.060496 0.099529 -0.089263
v 0.082572 0.017708 -0.053296
v -0.027507 -0.087964 0.024841
v 0.033049 -0.107692 -0.012285
v 0.043956 0.107922 -0.103096
v 0.011121 -0.177062 -0.009623
v 0.056346 -0.049407 -0.072337
v 0.026942 -0.182026 -0.000930
v 0.058507 -0.132050 -0.041740
v 0.078682 0.035000 -0.050587
v 0.009764 -0.106806 0.009962
v 0.073045 0.080277 -0.090375
v 0.031021 0.012125 0.022506
v 0.058492 -0.064006 -0.053321
v 0.010186 -0.161094 -0.012639
v 0.035313 -0.095362 -0.009315
v -0.017528 -0.097275 0.015717
v 0.019981 0.022475 0.023263
v 0.077958 0.059196 -0.051150
v -0.039021 -0.064121 0.035808
v -0.062460 0.080605 -0.012652
v 0.076444 0.009872 -0.041607
v 0.054430 -0.108987 -0.035228
v 0.058628 -0.084603 -0.050368
v -0.047862 0.085494 0.008007
v 0.010148 -0.141127 -0.007463
v -0.030402 0.022493 0.011321
v 0.055700 -0.088357 -0.036152
v -0.058709 0.093609 -0.018998
v 0.058542 -0.166370 -0.028928
v 0.043162 0.100555 -0.115208
v 0.013775 0.076668 0.035581
v -0.042451 0.095553 0.003395
v 0.101322 -0.138170 -0.102024
v 0.058905 -0.104768 -0.049412
v 0.024663 -0.173169 -0.009546
v 0.062323 -0.122695 -0.055597
v 0.049840 -0.141808 -0.029473
v 0.058841 -0.063204 -0.034547
v 0.095931 -0.139153 -0.078684
v 0.035526 -0.087282 0.005361
v 0.034690 0.066065 0.031452
v 0.028384 -0.159277 -0.016149
v 0.065495 -0.145911 -0.045041
v 0.059420 -0.032665 -0.076124
v 0.076951 0.026892 -0.038950
v 0.022676 -0.104694 0.002302
v -0.041443 0.110374 -0.018748
v 0.049194 -0.122193 -0.029065
v 0.012222 -0.186493 -0.000576
v 0.078687 -0.142826 -0.061232
v 0.079123 -0.028668 -0.051642
v 0.072501 -0.014348 -0.063319
v 0.067338 0.080680 -0.105281
v 0.029303 -0.142376 -0.015024
v -0.005036 -0.099694 0.021125
v 0.074712 -0.158500 -0.041999
v 0.080041 -0.016374 -0.055870
v -0.044818 0.101646 -0.007841
v 0.029075 0.024851 0.022769
v 0.010218 -0.123874 -0.000293
v 0.058241 0.091162 -0.109129
v -0.054956 0.078064 0.004045
v 0.080371 0.008416 -0.050938
v 0.028443 -0.123234 -0.011682
v 0.047022 0.112191 -0.086032
v 0.054355 -0.156750 -0.031902
v 0.031740 0.033912 0.023260
v 0.074763 0.004696 -0.066713
f 25 16 1
f 1 16 47
f 25 1 113
f 60 36 1
f 36 113 1
f 60 1 47
f 9 2 58
f 246 2 9
f 42 2 21
f 21 2 81
f 42 24 2
f 24 58 2
f 239 81 2
f 246 239 2
f 34 3 59
f 34 100 3
f 84 59 3
f 84 3 100
f 6 13 4
f 6 4 32
f 20 4 13
f 32 4 16
f 4 102 16
f 4 20 102
f 37 10 5
f 89 5 10
f 65 37 5
f 5 89 65
f 235 13 6
f 30 6 32
f 261 6 30
f 261 235 6
f 106 29 7
f 7 29 256
f 104 106 7
f 104 7 236
f 7 256 236
f 8 18 101
f 18 8 257
f 101 74 8
f 161 8 74
f 8 161 264
f 232 257 8
f 278 232 8
f 8 264 283
f 8 545 278
f 8 283 545
f 46 38 9
f 9 38 252
f 9 58 46
f 9 252 246
f 45 22 10
f 70 10 22
f 37 45 10
f 70 76 10
f 10 76 89
f 33 17 11
f 11 17 69
f 33 11 544
f 11 69 500
f 544 11 500
f 61 12 35
f 12 93 35
f 62 12 61
f 95 12 62
f 12 77 93
f 95 77 12
f 20 13 52
f 52 13 242
f 235 242 13
f 14 30 241
f 14 261 30
f 14 34 59
f 210 34 14
f 14 59 48
f 261 14 48
f 14 241 210
f 41 533 15
f 15 539 511
f 546 15 533
f 15 546 539
f 57 16 25
f 57 32 16
f 102 47 16
f 55 28 17
f 66 17 28
f 55 17 33
f 69 17 66
f 18 27 65
f 18 257 27
f 18 65 50
f 18 50 101
f 19 38 88
f 19 252 38
f 19 88 96
f 96 252 19
f 20 52 29
f 29 80 20
f 20 80 102
f 105 31 21
f 109 21 31
f 21 109 42
f 105 21 81
f 22 45 53
f 53 66 22
f 70 22 66
f 35 23 61
f 35 551 23
f 62 61 23
f 23 222 62
f 23 250 222
f 551 250 23
f 24 42 196
f 46 58 24
f 46 24 255
f 24 196 263
f 24 263 255
f 210 57 25
f 233 25 113
f 210 25 233
f 31 78 26
f 109 31 26
f 40 26 49
f 40 51 26
f 49 26 78
f 87 26 51
f 109 26 87
f 65 27 37
f 37 27 251
f 27 37 563
f 27 97 65
f 257 251 27
f 251 299 27
f 299 27 563
f 480 563 27
f 571 27 563
f 99 28 55
f 66 28 99
f 29 52 212
f 29 83 80
f 106 83 29
f 29 212 230
f 29 230 256
f 30 32 57
f 241 30 57
f 31 105 78
f 44 33 519
f 33 44 531
f 503 55 33
f 503 33 531
f 519 33 544
f 34 75 100
f 168 75 34
f 198 168 34
f 210 198 34
f 71 39 35
f 35 39 532
f 71 35 93
f 551 35 532
f 216 36 60
f 36 218 113
f 216 207 36
f 207 218 36
f 37 199 45
f 37 206 199
f 206 37 251
f 563 516 37
f 38 46 255
f 38 145 88
f 38 247 145
f 255 247 38
f 524 39 71
f 532 39 524
f 73 40 49
f 448 533 41
f 42 109 163
f 42 163 196
f 79 54 43
f 259 43 54
f 79 43 100
f 84 100 43
f 534 84 43
f 259 569 43
f 534 43 508
f 508 43 569
f 44 519 507
f 44 507 568
f 44 526 531
f 526 44 552
f 552 44 568
f 53 45 228
f 45 199 228
f 47 223 60
f 80 47 102
f 80 103 47
f 103 231 47
f 47 231 223
f 110 48 59
f 117 48 110
f 117 201 48
f 261 48 201
f 49 78 73
f 50 65 97
f 50 97 101
f 52 242 212
f 53 64 66
f 228 64 53
f 56 54 79
f 54 56 259
f 542 99 55
f 503 542 55
f 56 79 85
f 213 56 85
f 56 213 259
f 241 57 210
f 110 59 84
f 60 223 216
f 114 95 62
f 114 62 222
f 93 77 63
f 175 63 77
f 141 93 63
f 141 63 207
f 175 218 63
f 207 63 218
f 66 64 69
f 69 64 154
f 154 64 220
f 228 220 64
f 97 65 89
f 70 66 99
f 97 72 67
f 72 494 67
f 97 67 101
f 101 67 107
f 107 67 472
f 67 498 472
f 67 494 498
f 68 87 94
f 68 109 87
f 254 68 94
f 109 68 163
f 163 68 173
f 254 173 68
f 154 362 69
f 69 362 500
f 92 76 70
f 70 99 92
f 93 188 71
f 524 71 188
f 89 72 97
f 89 108 72
f 72 108 494
f 73 78 90
f 101 107 74
f 161 74 107
f 79 75 98
f 79 100 75
f 95 98 75
f 95 75 133
f 182 133 75
f 168 182 75
f 111 89 76
f 111 76 92
f 95 189 77
f 189 175 77
f 78 112 90
f 78 105 112
f 79 98 85
f 83 103 80
f 112 105 81
f 112 81 176
f 239 176 81
f 82 91 83
f 82 83 106
f 96 88 82
f 88 138 82
f 82 138 91
f 96 82 104
f 82 106 104
f 83 91 103
f 502 110 84
f 502 84 487
f 487 84 534
f 98 114 85
f 85 114 137
f 85 137 180
f 213 85 180
f 107 86 166
f 107 472 86
f 86 472 166
f 94 87 132
f 88 145 138
f 89 111 108
f 112 123 90
f 91 231 103
f 138 127 91
f 91 127 231
f 459 92 99
f 441 111 92
f 441 92 467
f 459 467 92
f 93 141 188
f 132 254 94
f 98 95 114
f 95 133 189
f 104 120 96
f 96 120 252
f 459 99 542
f 104 236 120
f 161 107 166
f 441 108 111
f 453 108 441
f 494 108 453
f 110 417 117
f 110 463 417
f 110 502 463
f 112 150 123
f 150 112 176
f 126 113 218
f 233 113 126
f 114 219 137
f 219 114 222
f 118 115 136
f 118 162 115
f 115 244 136
f 162 237 115
f 115 237 244
f 116 164 128
f 223 116 128
f 164 116 139
f 139 116 186
f 186 223 116
f 231 186 116
f 223 231 116
f 223 260 116
f 231 116 260
f 191 201 117
f 117 429 191
f 117 417 429
f 118 136 165
f 144 162 118
f 272 144 118
f 397 118 165
f 272 118 415
f 415 118 397
f 189 119 126
f 233 126 119
f 119 182 168
f 233 119 168
f 119 189 182
f 120 221 192
f 120 192 252
f 227 221 120
f 227 120 236
f 151 185 121
f 121 234 151
f 185 171 121
f 234 121 171
f 122 134 166
f 134 122 170
f 122 147 425
f 147 122 436
f 122 166 153
f 122 153 380
f 170 122 345
f 122 409 345
f 436 122 380
f 122 425 409
f 123 150 158
f 123 158 187
f 124 160 130
f 387 124 130
f 174 124 152
f 152 124 368
f 124 174 160
f 368 124 387
f 172 125 155
f 155 125 243
f 125 169 157
f 125 157 259
f 172 169 125
f 180 125 213
f 125 180 243
f 213 125 259
f 189 126 175
f 126 218 175
f 138 202 127
f 202 248 127
f 231 127 248
f 159 141 128
f 216 128 141
f 159 128 164
f 216 223 128
f 129 157 169
f 129 356 157
f 129 169 172
f 425 129 172
f 399 356 129
f 399 129 425
f 130 160 146
f 130 146 178
f 148 130 178
f 130 148 387
f 158 176 131
f 249 158 131
f 179 131 176
f 211 131 179
f 211 249 131
f 132 209 254
f 189 133 182
f 134 161 166
f 161 134 170
f 177 135 143
f 143 135 381
f 177 167 135
f 167 226 135
f 258 135 226
f 135 258 317
f 135 317 381
f 165 136 183
f 136 217 183
f 136 244 217
f 137 243 180
f 137 219 243
f 202 138 145
f 139 186 151
f 139 151 405
f 367 164 139
f 405 367 139
f 142 146 140
f 156 142 140
f 140 146 205
f 156 140 245
f 140 205 173
f 254 140 173
f 254 245 140
f 188 141 159
f 141 207 216
f 178 146 142
f 178 142 148
f 442 148 142
f 416 142 156
f 442 142 416
f 177 143 149
f 143 353 149
f 143 343 353
f 343 143 381
f 144 190 162
f 258 190 144
f 300 258 144
f 300 144 272
f 202 145 194
f 247 194 145
f 263 146 160
f 205 146 196
f 263 196 146
f 147 399 425
f 436 399 147
f 442 387 148
f 211 177 149
f 204 211 149
f 149 306 204
f 149 422 306
f 149 353 422
f 158 150 176
f 185 151 186
f 262 151 234
f 151 234 268
f 268 405 151
f 174 152 184
f 184 152 194
f 240 194 152
f 281 240 152
f 401 281 152
f 349 152 368
f 401 152 349
f 153 166 372
f 380 153 372
f 154 220 362
f 155 375 172
f 155 243 195
f 375 155 195
f 200 156 245
f 200 365 156
f 365 440 156
f 416 156 428
f 428 156 440
f 259 157 356
f 224 187 158
f 224 158 193
f 249 193 158
f 384 159 164
f 384 188 159
f 174 263 160
f 161 170 345
f 264 161 294
f 161 345 294
f 190 237 162
f 163 173 205
f 205 196 163
f 367 384 164
f 165 183 435
f 397 165 435
f 372 166 472
f 214 167 177
f 214 203 167
f 203 226 167
f 233 168 198
f 185 248 171
f 202 234 171
f 171 248 202
f 171 253 248
f 425 172 375
f 247 174 184
f 174 247 255
f 174 255 263
f 179 176 239
f 177 211 179
f 177 179 214
f 225 214 179
f 179 239 225
f 181 227 190
f 258 181 190
f 192 221 181
f 192 181 226
f 181 221 227
f 258 226 181
f 183 229 191
f 191 435 183
f 183 217 229
f 247 184 194
f 185 186 231
f 185 186 248
f 185 231 248
f 186 231 223
f 186 248 231
f 279 309 188
f 279 188 384
f 309 524 188
f 190 227 237
f 191 229 201
f 191 429 435
f 203 192 226
f 203 252 192
f 193 204 238
f 193 249 204
f 238 224 193
f 194 240 202
f 250 195 243
f 195 250 274
f 195 274 330
f 375 195 330
f 197 208 248
f 197 223 231
f 223 197 260
f 248 197 231
f 260 197 231
f 210 233 198
f 206 305 199
f 313 228 199
f 199 305 313
f 209 200 245
f 235 201 229
f 235 261 201
f 240 234 202
f 214 252 203
f 204 249 211
f 238 204 306
f 251 305 206
f 209 245 254
f 212 242 217
f 212 217 244
f 230 212 244
f 225 246 214
f 214 246 252
f 242 229 217
f 250 219 222
f 250 243 219
f 228 334 220
f 220 334 362
f 238 282 224
f 224 282 265
f 225 239 246
f 236 237 227
f 322 228 313
f 322 334 228
f 242 235 229
f 230 244 237
f 256 230 237
f 232 287 257
f 278 287 232
f 240 293 234
f 234 293 268
f 236 256 237
f 318 282 238
f 238 306 315
f 318 238 315
f 281 293 240
f 551 274 250
f 287 251 257
f 287 299 251
f 251 299 305
f 258 300 308
f 258 308 317
f 259 356 285
f 259 285 569
f 264 294 283
f 266 318 315
f 315 403 266
f 266 374 318
f 328 374 266
f 403 328 266
f 305 267 276
f 267 339 276
f 305 335 267
f 339 267 335
f 293 312 268
f 268 312 304
f 304 405 268
f 339 335 269
f 392 269 335
f 392 339 269
f 338 270 297
f 297 270 388
f 395 270 338
f 395 388 270
f 393 298 271
f 413 271 298
f 393 271 515
f 464 271 413
f 464 557 271
f 557 515 271
f 272 301 292
f 308 272 292
f 308 300 272
f 272 415 301
f 403 273 328
f 273 537 328
f 403 495 273
f 490 543 273
f 490 273 554
f 495 554 273
f 273 543 537
f 302 330 274
f 562 302 274
f 562 274 551
f 275 490 357
f 275 543 490
f 543 275 537
f 284 313 276
f 276 321 284
f 276 313 305
f 276 332 321
f 332 276 339
f 277 289 314
f 331 289 277
f 277 314 325
f 331 277 325
f 278 283 535
f 545 283 278
f 311 287 278
f 278 535 311
f 279 340 288
f 279 288 379
f 279 524 309
f 340 279 384
f 430 279 379
f 566 279 430
f 279 566 524
f 280 314 289
f 280 289 316
f 350 314 280
f 280 316 506
f 350 280 424
f 458 424 280
f 458 280 559
f 559 280 506
f 293 281 323
f 281 336 323
f 281 401 336
f 282 318 333
f 283 294 342
f 283 342 329
f 283 329 535
f 322 313 284
f 321 322 284
f 285 420 310
f 285 310 504
f 285 356 420
f 285 504 569
f 320 286 319
f 286 427 319
f 397 286 320
f 383 286 397
f 383 427 286
f 335 299 287
f 311 327 287
f 327 335 287
f 340 295 288
f 359 288 295
f 430 288 359
f 430 379 288
f 331 316 289
f 361 290 337
f 391 337 290
f 360 391 290
f 360 290 394
f 361 394 290
f 301 291 292
f 292 291 572
f 301 320 291
f 320 319 291
f 291 319 572
f 308 292 548
f 548 292 556
f 292 572 556
f 293 323 312
f 294 345 342
f 304 295 367
f 304 434 295
f 295 340 384
f 359 295 346
f 295 434 346
f 295 384 367
f 307 296 321
f 296 307 334
f 307 439 296
f 321 296 347
f 296 439 347
f 302 297 330
f 338 297 302
f 330 297 375
f 297 388 342
f 297 342 400
f 297 438 375
f 400 438 297
f 298 319 427
f 457 319 298
f 457 298 393
f 413 298 427
f 305 299 335
f 299 305 516
f 299 516 563
f 299 571 563
f 415 320 301
f 302 536 338
f 302 562 536
f 337 432 303
f 506 337 303
f 303 432 506
f 312 423 304
f 304 367 405
f 304 423 434
f 315 306 403
f 403 306 358
f 358 306 422
f 307 334 321
f 321 347 307
f 334 307 407
f 370 307 347
f 307 347 439
f 370 407 307
f 317 308 548
f 420 433 310
f 433 437 310
f 515 310 437
f 504 310 515
f 327 311 352
f 501 352 311
f 501 311 535
f 323 423 312
f 314 370 325
f 314 350 370
f 331 506 316
f 381 317 510
f 317 548 510
f 421 333 318
f 421 318 374
f 319 457 465
f 319 465 572
f 415 397 320
f 321 334 322
f 332 355 321
f 347 321 355
f 323 336 406
f 323 406 423
f 371 339 324
f 339 382 324
f 324 382 341
f 389 324 341
f 389 371 324
f 431 331 325
f 370 347 325
f 431 325 347
f 326 410 530
f 364 335 327
f 327 352 364
f 328 537 374
f 388 329 342
f 388 378 329
f 378 535 329
f 337 506 331
f 331 523 337
f 344 331 431
f 344 474 331
f 474 523 331
f 339 389 332
f 332 377 355
f 332 389 377
f 421 404 333
f 407 362 334
f 364 386 335
f 335 386 392
f 360 394 336
f 401 360 336
f 336 394 406
f 361 337 523
f 337 391 432
f 338 446 395
f 338 536 446
f 371 389 339
f 339 392 382
f 382 377 341
f 341 377 389
f 345 400 342
f 343 476 353
f 343 381 476
f 347 431 344
f 439 347 344
f 419 354 344
f 439 344 354
f 354 474 344
f 431 419 344
f 345 409 385
f 345 385 438
f 345 438 400
f 396 359 346
f 346 410 396
f 346 434 410
f 347 355 431
f 355 347 439
f 406 361 348
f 361 481 348
f 406 348 481
f 432 349 368
f 391 401 349
f 391 349 432
f 362 370 350
f 362 350 376
f 376 350 424
f 417 351 366
f 351 427 366
f 351 413 427
f 502 413 351
f 463 351 417
f 463 502 351
f 412 364 352
f 412 352 426
f 426 352 501
f 418 422 353
f 447 418 353
f 353 470 447
f 353 476 470
f 355 414 354
f 419 355 354
f 354 414 369
f 488 354 369
f 354 481 474
f 481 354 488
f 355 377 414
f 355 419 431
f 356 399 420
f 357 560 448
f 357 490 560
f 358 363 403
f 363 358 422
f 396 430 359
f 360 401 391
f 394 361 406
f 361 474 481
f 474 361 523
f 370 362 407
f 362 376 500
f 363 495 403
f 363 422 418
f 418 495 363
f 364 412 386
f 366 427 383
f 429 366 383
f 417 366 429
f 387 499 368
f 432 368 462
f 462 368 499
f 377 382 369
f 408 369 377
f 369 414 377
f 390 369 382
f 369 390 497
f 369 497 488
f 372 433 380
f 472 433 372
f 373 410 434
f 443 410 373
f 492 410 373
f 423 373 434
f 373 423 488
f 443 373 497
f 373 488 497
f 404 421 374
f 404 374 493
f 537 493 374
f 385 425 375
f 385 375 438
f 424 500 376
f 411 378 388
f 444 378 411
f 444 501 378
f 378 501 535
f 399 380 420
f 399 436 380
f 420 380 433
f 476 381 484
f 381 510 484
f 392 386 382
f 382 386 398
f 390 382 398
f 397 435 383
f 429 383 435
f 409 425 385
f 398 386 390
f 390 386 402
f 412 402 386
f 387 442 499
f 411 388 395
f 497 390 402
f 457 393 450
f 450 393 515
f 395 454 411
f 395 446 454
f 410 451 396
f 396 455 410
f 430 396 451
f 396 455 445
f 443 410 402
f 410 402 455
f 402 410 492
f 412 443 402
f 402 455 443
f 497 402 443
f 455 402 492
f 406 481 423
f 410 443 451
f 443 455 410
f 530 410 455
f 492 410 530
f 411 454 444
f 451 412 426
f 412 451 443
f 502 464 413
f 460 416 428
f 416 449 442
f 449 416 460
f 418 447 495
f 423 481 488
f 458 500 424
f 444 430 426
f 456 426 430
f 426 501 444
f 451 426 456
f 440 460 428
f 444 454 430
f 456 430 451
f 430 454 566
f 462 506 432
f 522 437 433
f 472 522 433
f 450 515 437
f 522 450 437
f 440 466 460
f 440 486 466
f 441 477 453
f 441 467 485
f 441 485 477
f 461 442 449
f 442 461 462
f 462 499 442
f 446 528 454
f 536 528 446
f 447 470 538
f 447 540 495
f 447 538 540
f 448 560 533
f 460 489 449
f 461 449 489
f 522 457 450
f 473 486 452
f 553 473 452
f 453 477 475
f 453 475 567
f 453 525 494
f 453 567 525
f 566 454 528
f 530 455 492
f 457 513 465
f 457 522 513
f 458 550 500
f 514 550 458
f 559 514 458
f 485 467 459
f 496 485 459
f 542 496 459
f 542 459 503
f 466 482 460
f 460 482 489
f 478 462 461
f 461 489 468
f 461 468 529
f 564 478 461
f 461 529 564
f 478 520 462
f 520 506 462
f 557 464 502
f 471 465 505
f 572 465 471
f 505 465 513
f 466 473 482
f 473 466 486
f 467 485 555
f 529 468 489
f 469 567 475
f 505 469 567
f 527 470 476
f 527 538 470
f 505 475 471
f 572 471 475
f 561 479 471
f 479 572 471
f 471 505 567
f 561 471 567
f 572 567 471
f 472 498 522
f 509 482 473
f 553 509 473
f 561 475 477
f 505 567 475
f 561 475 567
f 475 567 572
f 527 476 484
f 479 485 477
f 556 479 477
f 477 485 556
f 561 477 485
f 561 477 556
f 478 514 559
f 564 514 478
f 559 520 478
f 561 485 479
f 555 479 491
f 479 561 555
f 479 556 572
f 480 563 516
f 489 482 518
f 509 518 482
f 483 495 540
f 495 483 554
f 547 483 540
f 547 554 483
f 484 510 496
f 484 496 517
f 484 517 527
f 491 485 555
f 485 496 510
f 485 510 548
f 548 556 485
f 555 485 561
f 502 487 534
f 489 518 529
f 490 554 547
f 490 547 560
f 549 498 494
f 505 494 525
f 505 549 494
f 517 496 542
f 498 513 522
f 498 549 513
f 550 544 500
f 502 534 565
f 557 502 565
f 503 531 542
f 565 508 504
f 504 508 569
f 504 515 557
f 504 557 565
f 505 513 549
f 567 505 525
f 559 506 520
f 550 507 519
f 568 507 550
f 565 534 508
f 509 511 539
f 509 553 511
f 539 518 509
f 547 540 512
f 540 552 512
f 541 547 512
f 552 541 512
f 550 514 564
f 527 517 542
f 546 529 518
f 539 546 518
f 519 544 550
f 524 562 532
f 524 536 562
f 566 536 524
f 531 526 538
f 526 540 538
f 526 552 540
f 531 538 527
f 527 542 531
f 566 528 536
f 546 558 529
f 564 529 558
f 551 532 562
f 546 533 570
f 570 533 560
f 570 547 541
f 568 541 552
f 568 558 541
f 558 570 541
f 558 546 570
f 570 560 547
f 568 550 564
f 564 558 568
