# Face Mesh LOD3 - Triangles: 253
v -0.080252 -0.147580 -0.135667
v -0.069658 -0.002505 -0.091665
v -0.007716 0.099041 -0.129036
v -0.041890 -0.006010 -0.126524
v 0.055337 -0.051959 0.016089
v -0.083350 -0.136290 -0.122373
v -0.074767 0.022236 -0.093692
v 0.039494 -0.096811 -0.010409
v -0.052719 0.029599 -0.127364
v -0.064075 -0.118206 -0.091940
v 0.031656 0.114092 -0.091189
v -0.069422 0.085557 -0.034994
v -0.073174 0.067760 -0.095338
v -0.051156 0.069298 -0.126831
v -0.049186 0.103683 -0.020811
v -0.047939 -0.091285 -0.089854
v 0.024852 -0.125891 -0.009984
v 0.022861 -0.171448 -0.007963
v -0.047124 -0.045958 -0.092647
v -0.057527 -0.015877 -0.101611
v -0.012615 0.119068 -0.096056
v -0.049882 -0.156409 -0.143818
v 0.054142 0.070106 0.007485
v -0.000466 0.125293 -0.082287
v 0.022116 0.097682 -0.127062
v -0.050669 -0.134461 -0.131147
v -0.053389 0.107889 -0.057623
v -0.091020 -0.132683 -0.085820
v -0.014167 -0.169780 -0.008552
v 0.061864 -0.012428 0.014492
v -0.013749 -0.128955 -0.005883
v 0.059021 0.034572 0.012882
v -0.000704 0.127433 -0.058471
v -0.071369 0.063300 -0.023289
v -0.052441 0.100065 -0.097851
v -0.043477 -0.086774 -0.010925
v -0.009690 -0.160045 -0.143383
v -0.082871 -0.143499 -0.060216
v 0.032999 0.028631 -0.141817
v -0.025223 0.123259 -0.060948
v 0.027850 -0.012728 -0.130094
v -0.010716 -0.131844 -0.133292
v -0.087569 -0.156764 -0.045807
v -0.058984 -0.058610 -0.019644
v -0.071406 -0.004045 -0.018449
v -0.011365 -0.092463 -0.114963
v -0.067924 -0.030874 -0.049974
v -0.046679 -0.168438 -0.015850
v 0.036362 -0.054907 -0.100960
v -0.074370 0.034279 -0.025504
v 0.035828 -0.087903 -0.100727
v -0.044293 -0.131634 -0.024106
v -0.006412 -0.045725 -0.118852
v 0.030173 0.110926 -0.014824
v 0.032249 0.071805 -0.137328
v 0.030024 -0.129786 -0.130192
v -0.083970 0.023230 -0.062658
v -0.013418 -0.010868 -0.136815
v -0.062266 0.069821 -0.004542
v -0.061979 -0.129272 -0.048243
v 0.039252 0.117680 -0.055956
v -0.071264 0.089057 -0.076593
v -0.010338 0.025729 -0.149195
v 0.029332 -0.161156 -0.143616
v 0.043636 -0.028497 -0.109563
v -0.076165 -0.012730 -0.053046
v 0.016750 0.125225 -0.063681
v -0.066868 -0.029703 -0.011757
v -0.011057 0.072139 -0.144448
v -0.017917 0.115859 -0.011866
v 0.012397 -0.052766 -0.115073
v -0.026897 -0.089740 -0.109022
v -0.059499 -0.053529 -0.052657
v -0.076735 0.069662 -0.056900
v -0.005667 0.124572 -0.028406
v -0.027606 -0.057443 -0.109708
v 0.016844 -0.095319 -0.115296
v -0.057067 -0.091518 -0.051031
v 0.010816 0.040164 0.045246
v 0.063868 0.097736 -0.058424
v 0.075405 0.030317 -0.093183
v 0.069359 -0.137945 -0.128358
v 0.020459 -0.009376 0.045911
v -0.047196 0.066469 0.019835
v 0.067434 -0.152723 -0.139962
v 0.062211 -0.009607 -0.098315
v -0.044887 0.027509 0.021322
v -0.010538 -0.081567 0.053388
v -0.058628 -0.012301 0.017394
v -0.015369 0.098004 0.018627
v -0.016070 -0.047824 0.050316
v 0.072604 0.065449 -0.096344
v 0.101633 -0.137770 -0.089269
v 0.070658 -0.121061 -0.090170
v 0.059520 0.031913 -0.120787
v -0.003923 -0.005210 0.060093
v -0.049096 -0.047795 0.025148
v 0.050859 0.004506 -0.123116
v -0.038240 -0.079998 0.014562
v -0.008166 0.025579 0.048081
v 0.051300 -0.034197 -0.095084
v 0.020750 -0.047887 0.049724
v 0.021331 0.095711 0.017090
v -0.005746 0.059426 0.042998
v 0.097019 -0.142966 -0.122399
v 0.052888 -0.093694 -0.080384
v 0.054979 0.096754 -0.021506
v 0.057202 0.065822 -0.122730
v 0.013714 -0.082085 0.053646
v 0.030142 0.068930 0.030022
v 0.067231 -0.133280 -0.051655
v -0.016683 -0.093214 0.023902
v 0.065989 0.066605 -0.014395
v -0.004323 -0.108917 0.009040
v 0.057670 -0.097717 -0.047614
v 0.044280 -0.004075 0.035534
v 0.072782 0.034027 -0.022858
v 0.032577 0.023921 0.028387
v 0.058596 -0.056509 -0.056094
v 0.070117 -0.012455 -0.016895
v 0.060384 -0.057770 -0.018716
v 0.024371 -0.090828 0.020660
v 0.075129 -0.013703 -0.054585
v 0.050937 -0.075552 -0.011969
v 0.058809 0.093517 -0.098685
v 0.043102 -0.048822 0.036559
v 0.079306 0.022699 -0.053727
v -0.019445 0.075232 0.033935
v 0.051074 -0.131595 -0.030147
v 0.075466 0.068400 -0.054237
v -0.023271 0.018574 0.031869
v 0.067796 -0.162830 -0.028977
v -0.044010 0.087079 0.011912
v 0.092214 -0.150202 -0.055868
f 1 6 26
f 22 1 26
f 20 2 7
f 2 66 7
f 20 66 2
f 14 35 3
f 14 3 69
f 25 3 21
f 35 21 3
f 55 3 25
f 55 69 3
f 4 20 9
f 4 9 63
f 20 4 58
f 4 63 58
f 8 5 122
f 124 5 8
f 30 116 5
f 5 121 30
f 5 116 126
f 5 124 121
f 126 122 5
f 26 6 10
f 28 10 6
f 13 9 7
f 20 7 9
f 57 13 7
f 7 66 57
f 115 8 17
f 122 17 8
f 124 8 115
f 14 9 13
f 69 9 14
f 69 63 9
f 10 16 26
f 16 10 78
f 60 10 28
f 78 10 60
f 11 21 24
f 25 21 11
f 67 11 24
f 55 25 11
f 55 11 125
f 67 61 11
f 61 125 11
f 12 15 27
f 15 12 59
f 27 74 12
f 59 12 74
f 14 13 35
f 35 13 62
f 57 74 13
f 13 74 62
f 15 40 27
f 15 70 40
f 84 15 59
f 70 15 90
f 84 133 15
f 90 15 133
f 16 73 19
f 19 76 16
f 46 26 16
f 16 72 46
f 16 76 72
f 16 78 73
f 31 18 17
f 17 18 132
f 17 114 31
f 17 122 114
f 17 129 115
f 17 132 129
f 31 29 18
f 19 66 20
f 20 76 19
f 19 47 66
f 47 19 73
f 20 58 76
f 24 21 33
f 27 21 35
f 21 27 40
f 21 40 33
f 26 37 22
f 32 23 110
f 32 113 23
f 23 54 103
f 23 107 54
f 23 103 110
f 107 23 113
f 67 24 33
f 26 42 37
f 46 42 26
f 27 35 62
f 74 27 62
f 28 43 38
f 28 38 60
f 31 52 29
f 29 52 48
f 30 117 32
f 118 30 32
f 116 30 118
f 30 120 117
f 30 121 120
f 31 36 52
f 112 36 31
f 114 112 31
f 110 118 32
f 32 117 113
f 70 33 40
f 54 67 33
f 54 33 75
f 70 75 33
f 50 34 57
f 59 34 50
f 74 57 34
f 59 74 34
f 44 78 36
f 44 36 97
f 78 52 36
f 36 99 97
f 99 36 112
f 64 37 42
f 38 43 60
f 41 63 39
f 98 41 39
f 39 69 55
f 55 95 39
f 39 63 69
f 98 39 95
f 65 49 41
f 49 71 41
f 41 53 58
f 71 53 41
f 41 58 63
f 65 41 86
f 41 98 86
f 77 42 46
f 64 42 56
f 77 56 42
f 48 60 43
f 66 44 68
f 73 44 66
f 68 44 89
f 78 44 73
f 44 97 89
f 66 45 50
f 89 50 45
f 66 68 45
f 68 89 45
f 46 77 51
f 46 53 71
f 46 76 53
f 46 71 77
f 46 72 76
f 73 66 47
f 48 52 60
f 51 77 49
f 51 49 119
f 49 65 101
f 77 71 49
f 49 101 123
f 49 123 119
f 57 66 50
f 87 59 50
f 89 87 50
f 77 51 56
f 94 56 51
f 94 51 106
f 106 51 119
f 52 78 60
f 53 76 58
f 54 61 67
f 61 54 107
f 54 75 70
f 103 54 70
f 92 108 55
f 92 55 125
f 55 108 95
f 56 85 64
f 82 85 56
f 82 56 94
f 59 87 84
f 61 107 80
f 61 80 125
f 101 65 86
f 103 70 90
f 79 104 100
f 100 118 79
f 79 110 104
f 110 79 118
f 125 80 92
f 92 80 130
f 107 130 80
f 95 81 86
f 86 81 127
f 92 81 95
f 127 81 92
f 85 82 105
f 94 93 82
f 93 105 82
f 96 102 83
f 96 83 118
f 102 126 83
f 116 118 83
f 83 126 116
f 87 128 84
f 90 84 128
f 90 133 84
f 98 95 86
f 101 86 123
f 86 127 123
f 131 87 89
f 87 100 128
f 87 131 100
f 88 102 91
f 91 112 88
f 88 109 102
f 109 88 112
f 89 91 96
f 97 91 89
f 96 131 89
f 90 128 103
f 96 91 102
f 91 97 99
f 99 112 91
f 108 92 95
f 127 92 130
f 134 93 94
f 115 94 106
f 115 111 94
f 134 94 111
f 96 118 100
f 100 131 96
f 100 104 128
f 100 131 118
f 102 109 122
f 126 102 122
f 128 110 103
f 128 104 110
f 115 106 119
f 107 113 130
f 109 112 122
f 115 129 111
f 132 111 129
f 134 111 132
f 114 122 112
f 113 117 130
f 115 119 121
f 121 124 115
f 123 117 120
f 127 117 123
f 117 127 130
f 119 123 121
f 120 121 123
