# Face Mesh LOD3 - Triangles: 261
v -0.080724 -0.150798 -0.135136
v 0.053667 -0.078030 0.016138
v -0.069604 -0.000983 -0.091984
v -0.007378 0.101056 -0.129589
v -0.042547 -0.008941 -0.123723
v 0.060880 -0.048093 0.015907
v -0.083811 -0.139349 -0.122001
v -0.077271 0.032932 -0.086552
v 0.037525 -0.102587 -0.004354
v -0.050802 0.029003 -0.129197
v -0.063378 -0.119562 -0.100620
v 0.029588 0.116976 -0.092353
v -0.074109 0.067107 -0.093965
v -0.049813 0.067999 -0.129541
v -0.049284 0.101720 -0.017945
v -0.052050 -0.093024 -0.088981
v 0.039347 -0.132403 -0.021269
v 0.027037 -0.175083 -0.007944
v -0.044198 -0.046778 -0.096461
v -0.058105 -0.012900 -0.102516
v -0.009779 0.121681 -0.094620
v -0.051100 -0.158636 -0.142582
v 0.054752 0.070817 0.007466
v 0.035794 0.096689 -0.123062
v -0.050564 -0.136313 -0.129891
v -0.047212 0.112302 -0.055579
v -0.088029 -0.133724 -0.084259
v -0.007527 -0.171069 -0.009825
v -0.067179 0.080558 -0.105349
v 0.068345 -0.003923 0.025464
v -0.002656 -0.134812 -0.004909
v 0.062821 0.030036 0.014028
v -0.005175 0.128869 -0.058990
v -0.069836 0.071346 -0.024226
v -0.052272 0.102602 -0.096886
v -0.055090 -0.093623 -0.015829
v -0.010270 -0.162899 -0.142544
v -0.075132 -0.139778 -0.061135
v 0.031696 0.025971 -0.142045
v -0.020688 0.125763 -0.060107
v 0.026242 -0.013943 -0.129328
v -0.012160 -0.130213 -0.130094
v -0.086517 -0.154876 -0.052209
v -0.064167 -0.062852 -0.013436
v -0.074826 -0.012642 -0.011620
v -0.014193 -0.096385 -0.113406
v -0.069786 -0.031986 -0.035102
v -0.047351 -0.170905 -0.016614
v 0.037589 -0.048823 -0.102014
v -0.074226 0.033153 -0.020826
v 0.034894 -0.089063 -0.101362
v -0.044318 -0.125638 -0.022681
v -0.006582 -0.044777 -0.118542
v -0.072532 -0.091083 -0.046341
v 0.033208 0.110520 -0.015087
v 0.034518 0.068074 -0.139094
v 0.026787 -0.128193 -0.127681
v -0.082140 0.021543 -0.053778
v -0.013438 -0.009222 -0.136917
v -0.059663 0.072774 -0.001835
v -0.042246 0.095147 -0.120809
v -0.062004 -0.126469 -0.046173
v 0.034334 0.120944 -0.055582
v -0.010220 0.027735 -0.149571
v 0.035706 -0.161722 -0.142884
v -0.077728 -0.011668 -0.054899
v -0.070132 -0.033288 -0.013471
v 0.014455 0.127256 -0.062328
v -0.010741 0.066662 -0.147383
v -0.013237 0.119476 -0.019503
v 0.012213 -0.051904 -0.114689
v -0.020125 -0.091538 -0.110823
v -0.062222 -0.056570 -0.055653
v -0.083859 -0.167420 -0.034337
v -0.077032 0.066747 -0.058332
v -0.017189 -0.068339 -0.109697
v -0.066327 -0.106577 -0.066869
v 0.014749 0.035178 0.047333
v 0.064423 0.097857 -0.051067
v -0.067242 -0.033180 0.006211
v 0.074414 0.023879 -0.093661
v 0.066846 -0.138135 -0.126622
v 0.021802 -0.016405 0.047185
v -0.045652 0.067584 0.020981
v 0.075563 -0.152177 -0.136861
v 0.060840 -0.009572 -0.099232
v -0.044074 0.026021 0.022907
v -0.013328 -0.081486 0.052663
v -0.051996 -0.009296 0.036387
v -0.013708 0.102304 0.013946
v 0.012891 0.060978 0.044855
v -0.013401 -0.045394 0.051951
v 0.073113 0.067353 -0.096773
v 0.101036 -0.140598 -0.085523
v 0.072067 -0.124609 -0.093393
v 0.058541 0.032443 -0.122248
v -0.004996 -0.006498 0.059780
v -0.051235 -0.047334 0.028469
v 0.050999 0.006485 -0.123311
v -0.045381 -0.082799 0.022325
v -0.006634 0.033334 0.050852
v 0.055420 -0.032721 -0.085454
v -0.067198 0.024992 0.006391
v 0.021054 -0.049485 0.049362
v 0.024367 0.097452 0.014088
v -0.000917 0.055371 0.049422
v 0.096450 -0.145273 -0.122499
v 0.061331 -0.097614 -0.078675
v 0.056175 0.094420 -0.017216
v 0.057872 0.065902 -0.123408
v -0.073141 -0.004426 0.019342
v 0.015944 -0.084928 0.051648
v 0.031508 0.070602 0.030001
v 0.080902 -0.153761 -0.050591
v 0.065565 -0.132080 -0.049885
v -0.017559 -0.101250 0.016676
v 0.067434 0.069368 -0.017899
v -0.007620 -0.110163 0.010671
v 0.069195 -0.091397 -0.053327
v 0.034375 0.002416 0.039218
v 0.074188 0.031611 -0.021315
v 0.033358 0.024472 0.029045
v 0.064686 -0.048101 -0.051234
v 0.075598 -0.007600 -0.013870
v 0.066087 -0.053095 -0.018299
v 0.028097 -0.092911 0.026077
v 0.077444 -0.009627 -0.053083
v 0.060061 -0.091691 -0.018334
v 0.059369 0.095346 -0.099196
v 0.044784 -0.050338 0.037816
v 0.080789 0.027529 -0.055567
v -0.016497 0.076838 0.034356
v 0.077267 0.069973 -0.061403
v -0.020979 0.023265 0.033321
v 0.065317 -0.165895 -0.028288
v -0.039368 0.088879 0.014711
v -0.025849 0.007794 0.038408
v 0.096394 -0.155711 -0.053950
f 1 7 25
f 1 25 22
f 128 6 2
f 2 6 130
f 9 2 126
f 128 2 9
f 128 125 2
f 2 130 126
f 20 3 8
f 3 66 8
f 20 66 3
f 14 61 4
f 14 4 69
f 24 4 21
f 61 21 4
f 56 4 24
f 56 69 4
f 5 20 10
f 5 10 59
f 19 20 5
f 19 5 59
f 124 30 6
f 6 30 130
f 125 124 6
f 6 128 125
f 25 7 11
f 27 11 7
f 13 10 8
f 20 8 10
f 75 13 8
f 8 66 58
f 8 58 75
f 17 9 31
f 128 9 17
f 9 126 31
f 14 10 13
f 69 10 14
f 10 64 59
f 69 64 10
f 11 16 25
f 16 11 27
f 24 21 12
f 68 12 21
f 129 24 12
f 12 68 63
f 63 129 12
f 14 13 29
f 35 13 26
f 13 75 26
f 35 29 13
f 14 29 35
f 14 35 61
f 15 70 26
f 26 75 15
f 15 34 60
f 75 34 15
f 60 84 15
f 70 15 90
f 15 84 136
f 90 15 136
f 16 73 19
f 16 19 76
f 72 25 16
f 16 27 77
f 54 73 16
f 54 16 77
f 16 76 72
f 18 17 31
f 17 18 135
f 115 128 17
f 135 115 17
f 18 31 28
f 19 66 20
f 53 19 59
f 19 53 76
f 66 19 73
f 26 21 35
f 21 26 40
f 21 40 33
f 68 21 33
f 61 35 21
f 25 37 22
f 32 23 113
f 32 117 23
f 23 55 105
f 23 109 55
f 113 23 105
f 109 23 117
f 56 24 129
f 25 42 37
f 72 42 25
f 70 40 26
f 43 38 27
f 38 62 27
f 77 27 62
f 31 52 28
f 28 52 48
f 32 122 30
f 30 124 32
f 120 30 122
f 30 120 130
f 52 31 116
f 118 116 31
f 31 126 118
f 113 122 32
f 32 121 117
f 32 124 121
f 70 33 40
f 70 68 33
f 60 34 50
f 34 75 50
f 60 34 75
f 44 54 36
f 100 44 36
f 36 54 52
f 116 36 52
f 100 36 116
f 65 37 42
f 43 62 38
f 41 64 39
f 99 41 39
f 39 69 56
f 56 96 39
f 39 64 69
f 99 39 96
f 49 71 41
f 49 41 86
f 41 53 59
f 71 53 41
f 41 59 64
f 41 99 86
f 46 72 42
f 51 57 42
f 51 42 72
f 65 42 57
f 48 62 43
f 74 48 43
f 54 44 73
f 44 67 73
f 67 44 80
f 44 98 80
f 44 100 98
f 66 47 45
f 47 67 45
f 50 58 45
f 111 50 45
f 58 66 45
f 67 80 45
f 45 80 111
f 73 47 66
f 73 67 47
f 48 52 62
f 51 71 49
f 51 49 123
f 102 49 86
f 49 102 123
f 50 75 58
f 87 60 50
f 103 87 50
f 111 103 50
f 95 57 51
f 76 71 51
f 72 76 51
f 95 51 108
f 108 51 119
f 51 123 119
f 62 52 54
f 76 53 71
f 77 62 54
f 55 63 68
f 63 55 79
f 55 68 70
f 70 90 55
f 55 109 79
f 105 55 90
f 55 109 105
f 93 110 56
f 93 56 129
f 56 110 96
f 82 65 57
f 82 57 95
f 60 87 84
f 63 79 129
f 65 82 85
f 101 78 122
f 129 79 93
f 93 79 133
f 79 109 117
f 117 133 79
f 80 98 111
f 86 96 81
f 86 81 127
f 93 81 96
f 131 81 93
f 81 131 127
f 85 82 107
f 95 94 82
f 94 107 82
f 83 97 92
f 92 104 83
f 120 97 83
f 104 130 83
f 83 130 120
f 87 132 84
f 90 84 132
f 90 136 84
f 99 96 86
f 102 86 127
f 89 87 111
f 89 134 87
f 87 137 89
f 87 101 132
f 101 87 134
f 103 111 87
f 134 137 87
f 92 100 88
f 88 104 92
f 88 100 116
f 88 112 104
f 126 112 88
f 126 88 116
f 89 92 97
f 98 92 89
f 97 137 89
f 111 98 89
f 134 89 137
f 90 113 105
f 90 132 113
f 106 101 91
f 91 101 122
f 132 106 91
f 91 122 113
f 132 91 113
f 98 100 92
f 110 93 96
f 131 93 133
f 114 94 95
f 94 114 138
f 108 119 95
f 114 95 115
f 119 115 95
f 97 122 101
f 101 134 97
f 97 120 122
f 97 134 137
f 101 106 132
f 127 123 102
f 104 112 126
f 130 104 126
f 135 114 115
f 138 114 135
f 119 128 115
f 116 118 126
f 117 121 133
f 119 123 125
f 125 128 119
f 131 121 124
f 121 131 133
f 127 125 123
f 127 124 125
f 127 131 124
