# Face Mesh LOD1 - Triangles: 1170
v -0.074564 0.049895 -0.100016
v 0.077396 0.000289 0.007292
v -0.044488 -0.105672 -0.103506
v 0.062992 -0.083924 -0.020604
v 0.000114 0.108093 -0.124975
v -0.052882 0.029757 -0.128726
v -0.053701 -0.074574 -0.081509
v 0.065863 0.006967 0.025679
v -0.040388 0.038431 -0.140013
v -0.034664 -0.022970 -0.122956
v 0.048320 0.059662 0.022836
v -0.040079 -0.087062 -0.098292
v 0.072315 -0.012021 0.023367
v 0.053670 -0.083331 0.006194
v -0.062062 0.101906 -0.049410
v -0.040249 0.025468 -0.138767
v -0.021678 0.077749 -0.142414
v 0.042976 -0.174451 -0.012518
v -0.065009 0.040052 -0.116852
v 0.053355 0.042052 0.025728
v -0.037379 -0.062249 -0.099250
v -0.051655 0.006507 -0.123482
v -0.060864 -0.121138 -0.109627
v 0.062385 -0.030670 0.022184
v -0.046332 0.112209 -0.032536
v -0.060878 -0.106931 -0.083164
v -0.062379 0.063299 -0.119629
v -0.081744 -0.140529 -0.124586
v 0.058983 -0.052880 0.018123
v 0.045935 0.021913 0.026947
v 0.063574 -0.067990 -0.010948
v -0.041324 -0.010360 -0.124732
v -0.040607 0.057097 -0.140024
v -0.072427 -0.131931 -0.118616
v -0.052734 0.042427 -0.130051
v 0.047310 -0.095372 -0.006438
v -0.022328 0.099686 -0.127612
v -0.061949 0.096932 -0.032947
v -0.079177 0.056793 -0.084228
v 0.046108 0.012478 0.027332
v 0.077018 -0.009623 -0.005460
v -0.045276 -0.068592 -0.091074
v -0.068475 0.084168 -0.029619
v -0.084271 -0.152708 -0.135942
v 0.065159 -0.173489 -0.018312
v -0.065893 -0.117986 -0.091612
v 0.022185 0.116256 -0.105410
v 0.077105 0.005703 -0.015214
v 0.053369 -0.105188 -0.021289
v -0.050486 -0.087276 -0.089272
v -0.074616 0.023848 -0.094129
v 0.000006 0.078770 -0.145846
v -0.077178 -0.148887 -0.134329
v 0.058661 0.037162 0.018308
v -0.097262 -0.145587 -0.122801
v 0.060741 -0.072280 0.002405
v -0.039887 0.009488 -0.135833
v 0.019400 0.123089 -0.087263
v 0.015377 0.125421 -0.079966
v -0.051762 0.059863 -0.130855
v -0.050907 -0.100264 -0.093092
v 0.000081 0.095388 -0.136180
v -0.079926 0.042015 -0.078975
v -0.055588 0.107045 -0.038723
v -0.044452 0.116832 -0.050333
v -0.076373 0.079415 -0.073817
v 0.054051 -0.050343 0.026640
v 0.061013 0.022707 0.019837
v 0.063354 -0.052715 0.006310
v 0.072609 0.040278 -0.018056
v -0.086960 -0.134687 -0.079669
v 0.053664 -0.072730 0.026083
v 0.067110 -0.032993 0.006521
v -0.072964 0.073323 -0.035951
v 0.073833 0.018930 -0.012026
v -0.061395 -0.157938 -0.142566
v 0.057534 0.061358 0.009748
v -0.022006 0.116210 -0.105400
v 0.073250 -0.018293 0.003669
v 0.044527 -0.086381 0.022880
v -0.067017 0.096291 -0.068331
v -0.061429 -0.145204 -0.134819
v 0.000042 0.124770 -0.090511
v -0.061663 -0.000203 -0.108979
v -0.047423 -0.123121 -0.119966
v -0.052358 -0.032823 -0.094881
v -0.058382 -0.015284 -0.102153
v 0.022524 0.099700 -0.127606
v -0.007699 0.126040 -0.081390
v 0.067158 0.067964 -0.013974
v -0.102107 -0.138424 -0.102392
v -0.048370 -0.049436 -0.090226
v 0.074233 0.009890 0.007776
v -0.040804 -0.159334 -0.142598
v -0.065459 -0.015353 -0.086509
v 0.070451 -0.030704 -0.014961
v -0.074638 0.077963 -0.050698
v -0.096563 -0.139491 -0.079071
v -0.041024 0.118326 -0.068905
v -0.038840 -0.048367 -0.101772
v 0.066959 0.025160 0.006609
v -0.019336 0.123032 -0.087234
v 0.066309 -0.050204 -0.013674
v 0.000107 0.118353 -0.108563
v 0.062704 0.043245 0.005910
v -0.064468 0.017401 -0.114139
v -0.069604 -0.000983 -0.091984
v 0.059399 -0.068956 0.015666
v -0.042541 -0.033271 -0.106461
v -0.055692 -0.135911 -0.129211
v -0.046915 -0.020760 -0.112422
v 0.062747 0.059350 0.000840
v -0.080319 -0.126838 -0.099977
v 0.021726 0.077756 -0.142388
v 0.074851 -0.016099 -0.017913
v -0.037715 -0.141017 -0.135568
v -0.071028 0.068665 -0.104632
v -0.028920 0.123286 -0.066299
v 0.017587 -0.007074 -0.138204
v -0.082027 0.017790 -0.054254
v 0.021003 0.055281 -0.148855
v 0.036377 -0.009546 -0.128963
v -0.058077 0.091090 -0.109159
v -0.028429 -0.046719 -0.111737
v -0.073938 -0.030348 -0.038396
v 0.051628 0.097786 -0.013208
v -0.020131 -0.162240 -0.142129
v -0.070358 -0.089494 -0.035165
v 0.013386 0.127558 -0.054585
v -0.067179 0.080558 -0.105349
v -0.068737 -0.014870 -0.072535
v -0.078554 0.034575 -0.051077
v 0.034932 0.118870 -0.034387
v -0.059798 -0.109948 -0.034756
v -0.005639 -0.125541 -0.128065
v -0.106390 -0.144878 -0.076342
v -0.046884 0.112080 -0.086013
v 0.055854 0.087312 -0.007139
v 0.029390 -0.065238 -0.104542
v 0.018759 0.005638 -0.143456
v -0.020366 0.125898 -0.067783
v -0.060394 -0.032767 -0.076285
v -0.076127 0.002105 -0.037302
v -0.065685 -0.146434 -0.045568
v -0.077919 0.058846 -0.051431
v -0.050366 -0.142153 -0.029816
v 0.032262 -0.085528 -0.102789
v 0.031688 -0.028486 -0.119699
v -0.058191 -0.049800 -0.072233
v -0.061523 -0.126481 -0.051151
v 0.046398 0.106890 -0.019265
v -0.046383 -0.122709 -0.024475
v 0.030486 -0.101420 -0.109428
v -0.019140 -0.144240 -0.137355
v -0.074392 -0.016046 -0.037436
v -0.064512 -0.064066 -0.033476
v 0.062923 0.089115 -0.022608
v 0.042498 -0.069233 0.037692
v 0.009912 0.124985 -0.029471
v -0.056998 -0.162182 -0.030788
v 0.031234 0.122518 -0.047154
v -0.000757 -0.144422 -0.138280
v -0.075812 0.041114 -0.031611
v -0.064939 -0.110311 -0.049803
v 0.051969 0.080276 0.005183
v 0.016442 -0.016726 -0.133331
v -0.076650 -0.129374 -0.077920
v -0.076472 0.021431 -0.035632
v 0.039203 0.009460 -0.135728
v 0.063925 0.078329 -0.014613
v 0.012296 -0.070464 -0.111628
v -0.042965 0.100512 -0.115221
v 0.021009 0.125357 -0.045462
v 0.047573 0.091237 0.000908
v -0.076731 -0.029114 -0.051900
v 0.020804 0.122808 -0.031207
v -0.079201 -0.143246 -0.061544
v -0.071005 -0.079719 -0.051381
v -0.070326 0.085670 -0.092054
v -0.027442 -0.127450 -0.128223
v 0.012502 -0.089342 -0.112490
v -0.055868 -0.122649 -0.038171
v -0.007822 -0.109413 -0.118547
v -0.003654 0.129117 -0.068760
v 0.012237 -0.046428 -0.115898
v -0.043770 0.107850 -0.103100
v 0.019374 0.021459 -0.147106
v -0.064001 -0.064848 -0.053195
v -0.076022 -0.013416 -0.050603
v -0.079055 0.006467 -0.051825
v -0.000408 -0.163558 -0.142959
v 0.042645 -0.081502 0.034103
v -0.073295 0.061974 -0.029091
v -0.060355 0.099389 -0.089273
v 0.014513 -0.029337 -0.125699
v 0.019992 0.035053 -0.148814
v -0.007132 -0.056625 -0.114106
v -0.072053 -0.102304 -0.049042
v 0.017830 -0.143519 -0.137147
v -0.062378 -0.050703 -0.049688
v -0.005232 0.125449 -0.028957
v -0.067216 -0.122374 -0.074440
v -0.090805 0.008377 -0.067120
v -0.041527 0.089782 -0.126397
v 0.046055 -0.012984 0.041299
v -0.083859 -0.167420 -0.034337
v -0.000119 0.054852 -0.152376
v -0.068812 -0.029675 -0.049569
v -0.007155 -0.069775 -0.112328
v -0.076711 -0.092815 -0.049777
v 0.031105 -0.125395 -0.126267
v -0.071063 -0.136310 -0.060726
v 0.044950 0.007453 0.035162
v -0.079891 0.062558 -0.070373
v -0.089944 -0.006025 -0.068184
v -0.096854 -0.156187 -0.054469
v -0.046804 0.078089 -0.129482
v 0.013504 -0.109330 -0.118382
v -0.019551 0.005651 -0.143500
v 0.015524 0.126954 -0.070071
v -0.005171 -0.086682 -0.112774
v -0.068238 -0.010192 -0.051232
v -0.080406 0.048378 -0.067722
v -0.000329 0.020349 -0.150199
v -0.075448 0.074514 -0.088895
v -0.021010 0.125628 -0.052430
v 0.044370 -0.050036 0.037495
v -0.007195 -0.046326 -0.116144
v -0.031424 0.122425 -0.047053
v -0.083647 0.018230 -0.064231
v 0.019175 -0.162184 -0.142014
v -0.014193 -0.096385 -0.113406
v 0.012189 -0.057381 -0.113480
v -0.005420 -0.031380 -0.125376
v 0.047485 -0.031745 0.038260
v -0.000233 0.034069 -0.152064
v -0.018585 -0.007060 -0.138245
v -0.083323 0.007372 -0.065588
v 0.039390 0.052254 0.036696
v -0.056889 0.078994 -0.119968
v -0.069786 -0.031986 -0.035102
v 0.062886 -0.013682 0.035700
v -0.020372 0.035057 -0.148862
v -0.023907 -0.029110 -0.122890
v -0.000572 -0.012699 -0.137414
v 0.036662 -0.140819 -0.135413
v -0.027942 -0.103356 -0.112690
v -0.065358 -0.047794 -0.034916
v -0.040436 0.070652 -0.137289
v -0.019947 0.021467 -0.147159
v -0.006696 0.128621 -0.049219
v -0.000440 0.004601 -0.146090
v -0.075132 -0.158966 -0.042512
v -0.027263 -0.084575 -0.107004
v -0.061184 -0.069705 -0.068231
v 0.063266 -0.001166 0.035282
v -0.081933 -0.013076 -0.065120
v 0.015284 -0.126967 -0.128860
v -0.026054 0.121452 -0.032143
v 0.042777 0.022077 0.034069
v -0.027223 -0.066903 -0.107065
v -0.080134 -0.024909 -0.061782
v -0.087564 -0.149475 -0.059647
v -0.063813 -0.089388 -0.074031
v -0.017574 -0.016717 -0.133360
v 0.046262 0.038002 0.035842
v 0.032328 -0.047498 -0.106802
v 0.030773 0.122362 -0.069874
v -0.090000 0.015689 -0.063697
v -0.021174 0.055276 -0.148895
v -0.066327 -0.106577 -0.066869
v 0.044919 0.075532 0.018047
v 0.038107 -0.165391 -0.144003
v 0.071465 -0.131597 -0.118477
v 0.016124 0.006840 0.043255
v 0.005623 0.017662 0.053665
v -0.009943 0.106072 0.012368
v 0.071184 0.068805 -0.104485
v 0.051091 -0.020095 -0.106139
v 0.086292 -0.134315 -0.079394
v 0.009635 0.040607 0.052032
v -0.025705 0.115936 -0.014178
v 0.024316 -0.037330 0.050414
v 0.105856 -0.144472 -0.075861
v 0.017668 -0.012256 0.048081
v -0.018403 -0.071056 0.054576
v 0.029161 0.059349 0.039713
v -0.061573 0.059668 0.003037
v -0.005580 -0.091476 0.045931
v -0.066946 -0.050680 -0.013831
v 0.049838 -0.157592 -0.142636
v 0.006733 0.052539 0.051208
v 0.034356 0.080107 0.024663
v 0.018043 -0.023689 0.049068
v 0.044293 0.117506 -0.064995
v 0.064103 0.017420 -0.113849
v 0.030248 0.039191 0.043562
v -0.073872 -0.010667 0.020282
v -0.062692 0.043006 0.005718
v -0.023143 -0.080327 0.053211
v -0.056437 -0.070925 0.020923
v 0.068925 -0.001027 -0.091488
v 0.064598 -0.015361 -0.086073
v -0.070132 -0.033288 -0.013471
v -0.073372 0.000900 0.022621
v 0.034130 0.089619 0.017153
v -0.067198 0.024992 0.006391
v 0.013088 -0.047236 0.045322
v -0.002723 0.111956 0.004831
v 0.074637 0.050009 -0.099763
v 0.030532 0.022625 0.035954
v 0.041318 -0.033266 -0.106449
v 0.058598 -0.011150 -0.103770
v -0.025488 0.109019 0.000303
v -0.041610 -0.087633 0.023551
v 0.030371 0.008355 0.037156
v 0.046335 -0.123127 -0.120015
v 0.013151 -0.046356 0.055055
v 0.051293 -0.032776 -0.094784
v -0.067737 0.067895 -0.013969
v 0.067066 0.096489 -0.068337
v 0.012891 0.060978 0.044855
v 0.029695 -0.013270 0.044407
v -0.006183 -0.083085 0.056934
v 0.054622 -0.135808 -0.129074
v -0.028016 -0.087396 0.041208
v 0.047319 -0.049291 -0.090264
v 0.060461 -0.144919 -0.134602
v 0.074414 0.023879 -0.093661
v 0.060986 -0.000226 -0.108693
v 0.010760 -0.032357 0.057186
v 0.029919 -0.033761 0.047139
v -0.067242 -0.033180 0.006211
v -0.001140 0.000570 0.071223
v -0.005766 -0.066529 0.057141
v -0.036629 0.022413 0.012544
v 0.014749 0.035178 0.047333
v 0.084562 -0.129351 -0.101888
v 0.014366 0.086077 0.029909
v -0.006855 0.120015 -0.012574
v -0.027363 -0.067966 0.048214
v 0.008742 -0.013552 0.058923
v 0.067014 -0.155483 -0.140891
v 0.025761 -0.046119 0.044259
v 0.014713 0.022292 0.038327
v -0.063850 -0.049574 0.005477
v -0.027176 0.101667 0.009735
v 0.008881 0.004591 0.058770
v -0.003738 -0.011204 0.071720
v 0.014438 0.096324 0.021185
v 0.049163 -0.086837 -0.089413
v -0.075560 0.006469 0.007366
v -0.024659 -0.045811 0.044272
v 0.034431 0.098607 0.006971
v -0.058030 0.023033 0.022135
v -0.007947 -0.046151 0.056563
v 0.012624 -0.083142 0.056440
v 0.051767 0.059915 -0.130761
v -0.006176 0.061019 0.045715
v 0.049728 -0.099776 -0.093197
v -0.026375 -0.033341 0.047501
v -0.006593 -0.032344 0.058418
v 0.044362 0.116978 -0.050426
v 0.096394 -0.155711 -0.053950
v 0.056383 -0.117153 -0.106033
v -0.073309 -0.018494 0.003239
v -0.056486 0.038490 0.022416
v -0.061490 -0.068256 0.004311
v 0.028575 -0.067856 0.047344
v 0.065047 -0.117545 -0.091577
v -0.011440 0.034283 0.047943
v -0.066341 -0.174065 -0.018281
v 0.052584 0.042466 -0.129925
v -0.074215 0.018670 -0.012427
v -0.046641 -0.095796 -0.006365
v -0.023597 -0.012398 0.046145
v 0.012566 -0.067738 0.055999
v 0.005460 -0.001446 0.071285
v 0.070410 0.078927 -0.032807
v -0.040165 0.012550 0.024773
v 0.080834 -0.140216 -0.124336
v -0.055652 -0.081704 0.005438
v 0.014974 0.118032 -0.011990
v 0.027981 -0.086488 0.042479
v -0.007166 -0.014124 0.059541
v -0.004929 0.086938 0.031335
v -0.018969 0.041002 0.050544
v -0.054537 0.056319 0.016744
v 0.064188 0.094976 -0.035403
v 0.046892 -0.070215 -0.088073
v -0.007451 0.005419 0.059065
v 0.052561 0.029775 -0.128564
v -0.072651 0.039676 -0.018440
v 0.030082 0.107872 -0.001521
v -0.011190 0.022812 0.041028
v -0.043176 -0.109352 -0.016540
v -0.005125 0.097405 0.022870
v 0.006232 -0.011204 0.071061
v -0.025849 0.007794 0.038408
v -0.001435 0.021298 0.054137
v 0.079359 0.056996 -0.083963
v -0.055990 -0.051218 0.023781
v -0.023571 0.094421 0.019927
v -0.041532 0.038409 0.025841
v 0.050999 0.006485 -0.123311
v -0.013787 0.007304 0.045814
v 0.050194 0.109776 -0.033485
v -0.076028 -0.013109 -0.012424
v 0.014468 0.105259 0.011043
v -0.063720 -0.068408 -0.010750
v -0.027299 0.022528 0.035638
v 0.068857 -0.123905 -0.105424
v 0.083405 -0.152438 -0.135613
v -0.077312 0.005379 -0.015922
v -0.062504 -0.030776 0.022001
v -0.017032 -0.012565 0.053510
v 0.038273 0.105513 -0.005921
v -0.044044 0.022295 0.026462
v -0.005143 0.040203 0.052629
v -0.024604 0.085068 0.027517
v -0.024707 0.038285 0.045011
v 0.062468 0.063396 -0.119503
v -0.015358 -0.019366 0.050298
v 0.023042 -0.080329 0.053207
v 0.048329 -0.012069 -0.115942
v -0.037406 -0.146034 -0.019013
v 0.040519 0.057111 -0.139952
v 0.060035 -0.106386 -0.083214
v -0.019777 -0.034677 0.052570
v 0.062014 0.102105 -0.049462
v -0.003308 0.052555 0.051342
v 0.076271 -0.148609 -0.134079
v 0.045823 -0.108919 -0.103875
v -0.069758 -0.014405 0.027098
v 0.012168 -0.091314 0.045299
v 0.034301 0.113480 -0.017147
v -0.056240 -0.100731 -0.020742
v -0.024937 0.059462 0.041770
v 0.064915 0.040112 -0.116656
v -0.039588 -0.161265 -0.021065
v 0.040119 0.038431 -0.139920
v -0.047340 0.060125 0.023954
v -0.019248 -0.047027 0.052074
v -0.048134 -0.087482 0.008697
v 0.074559 0.078217 -0.050628
v -0.072654 -0.024345 -0.021373
v -0.061896 0.008619 0.026890
v 0.039791 0.025452 -0.138659
v 0.054296 0.103470 -0.025908
v 0.076489 0.079650 -0.073707
v 0.014545 0.110718 0.003150
v -0.007045 -0.047740 0.045572
v -0.062390 -0.084341 -0.020380
v -0.044675 -0.174907 -0.012350
v 0.074315 -0.016115 -0.036912
v -0.053534 -0.028167 0.034738
v -0.028779 -0.123633 -0.011485
v -0.039080 0.022467 0.034616
v -0.023467 0.075795 0.033893
v -0.030594 0.033837 0.024548
v -0.039368 0.088879 0.014711
v 0.065726 -0.105973 -0.066885
v 0.083210 -0.166969 -0.034011
v -0.022755 -0.139159 -0.010805
v 0.080057 0.062830 -0.070130
v -0.042787 0.038602 0.037780
v 0.076554 -0.092404 -0.049884
v 0.062626 -0.088841 -0.074136
v -0.007805 -0.187392 -0.000718
v 0.075764 0.000313 -0.034431
v -0.041286 0.076953 0.021404
v -0.024448 0.024455 0.023298
v -0.037236 0.059034 0.034779
v 0.080402 0.045447 -0.072933
v 0.012581 -0.099187 0.024979
v 0.064446 -0.047047 -0.034928
v -0.025050 -0.158773 -0.013397
v -0.060023 0.000770 0.034605
v 0.062624 -0.075863 -0.067289
v -0.005391 -0.124561 0.000936
v -0.027056 -0.104898 0.004584
v 0.040475 0.070672 -0.137236
v 0.059382 0.074395 -0.119960
v 0.084833 0.018588 -0.063838
v -0.026849 -0.173362 -0.009354
v -0.062581 -0.013738 0.035306
v 0.071845 -0.031362 -0.037607
v -0.000401 -0.137265 -0.004323
v 0.086535 0.007644 -0.064225
v 0.072932 0.062268 -0.028943
v -0.007453 -0.178246 -0.010264
v -0.041845 -0.049921 0.039524
v 0.075602 0.001898 -0.052382
v 0.071924 -0.011929 -0.048983
v -0.007620 -0.110163 0.010671
v 0.083673 -0.012563 -0.064523
v 0.031765 0.021600 0.012145
v -0.042071 -0.033680 0.041488
v -0.006840 -0.161555 -0.012779
v 0.070554 -0.135867 -0.060461
v 0.057620 -0.062326 -0.069553
v 0.070468 -0.029275 -0.050473
v -0.029152 -0.182104 -0.000587
v 0.041696 0.089812 -0.126373
v 0.024254 -0.097075 0.018902
v -0.042875 -0.013020 0.041817
v -0.007819 -0.142887 -0.007615
v 0.087091 -0.149023 -0.059182
v 0.081135 -0.026235 -0.060415
v -0.028734 0.012144 0.022285
v 0.096450 -0.145273 -0.122499
v 0.074493 0.025493 -0.024078
v 0.071263 -0.125388 -0.076042
v 0.061535 -0.050143 -0.049729
v -0.040968 0.007678 0.035467
v 0.075818 0.041744 -0.031100
v 0.032666 -0.090964 0.028356
v -0.004548 0.076925 0.037263
v 0.048868 0.079548 -0.127041
v 0.060496 0.099529 -0.089263
v 0.082760 0.017660 -0.053092
v 0.037743 -0.107695 -0.010905
v 0.043956 0.107922 -0.103096
v 0.011121 -0.177062 -0.009623
v 0.057168 -0.049425 -0.072350
v 0.076973 -0.032171 -0.041090
v 0.026942 -0.182026 -0.000930
v 0.058507 -0.132050 -0.041740
v -0.042439 -0.081658 0.034134
v 0.078785 0.035000 -0.050498
v 0.012022 -0.108779 0.010842
v 0.073045 0.080277 -0.090375
v 0.030959 0.012102 0.022852
v 0.063215 -0.064237 -0.053379
v 0.010186 -0.161094 -0.012639
v -0.021127 -0.097395 0.022610
v 0.019994 0.022329 0.023910
v 0.077962 0.059196 -0.051146
v -0.041148 -0.068832 0.038544
v -0.062460 0.080603 -0.012642
v 0.077553 0.006648 -0.039439
v 0.057422 -0.113093 -0.035240
v 0.070975 -0.079397 -0.051303
v -0.047862 0.085489 0.008026
v 0.010148 -0.141127 -0.007463
v -0.030290 0.022400 0.011781
v -0.058709 0.093609 -0.018998
v 0.058542 -0.166370 -0.028928
v 0.043162 0.100555 -0.115208
v 0.013775 0.076569 0.036008
v -0.042451 0.095552 0.003397
v 0.076554 -0.008625 -0.040987
v 0.101322 -0.138170 -0.102024
v 0.068324 -0.105608 -0.049373
v 0.024663 -0.173169 -0.009546
v 0.062727 -0.122730 -0.055595
v 0.049840 -0.141808 -0.029473
v 0.064013 -0.063483 -0.033614
v 0.095931 -0.139153 -0.078684
v 0.028384 -0.159277 -0.016149
v 0.065495 -0.145911 -0.045041
v 0.059547 -0.032666 -0.076124
v 0.077167 0.020949 -0.037473
v 0.027522 -0.104694 0.004281
v -0.041443 0.110374 -0.018748
v 0.049524 -0.122196 -0.028990
v 0.012222 -0.186493 -0.000576
v 0.078687 -0.142826 -0.061232
v 0.079472 -0.028798 -0.051221
v 0.072562 -0.014348 -0.063283
v 0.067338 0.080680 -0.105281
v 0.029303 -0.142376 -0.015024
v -0.004495 -0.101458 0.022836
v 0.074712 -0.158500 -0.041999
v 0.079404 -0.014553 -0.052553
v -0.044818 0.101646 -0.007841
v 0.029197 0.025330 0.022759
v 0.010281 -0.123874 -0.000187
v 0.063143 -0.105373 -0.033849
v 0.058241 0.091162 -0.109129
v -0.054957 0.078052 0.004101
v 0.027778 0.075264 0.032139
v 0.080455 0.007453 -0.049969
v 0.028720 -0.123234 -0.011590
v 0.070969 -0.089134 -0.035226
v 0.047022 0.112191 -0.086032
v 0.054355 -0.156750 -0.031902
v 0.031802 0.033720 0.024847
v 0.074568 0.004020 -0.067796
f 27 19 1
f 1 19 51
f 27 1 117
f 63 39 1
f 39 117 1
f 63 1 51
f 8 13 2
f 8 2 93
f 41 2 13
f 2 41 48
f 2 48 93
f 12 3 61
f 254 3 12
f 46 3 23
f 23 3 85
f 46 26 3
f 26 61 3
f 247 85 3
f 254 247 3
f 4 31 14
f 4 14 36
f 558 31 4
f 49 4 36
f 4 49 585
f 558 4 585
f 37 5 62
f 37 104 5
f 88 62 5
f 88 5 104
f 9 16 6
f 9 6 35
f 22 6 16
f 35 6 19
f 6 106 19
f 6 22 106
f 7 42 50
f 7 255 42
f 7 50 264
f 264 255 7
f 13 8 256
f 40 8 30
f 68 30 8
f 40 256 8
f 101 68 8
f 8 93 101
f 243 16 9
f 33 9 35
f 270 9 33
f 270 243 9
f 111 32 10
f 10 32 265
f 109 111 10
f 109 10 244
f 10 265 244
f 11 20 105
f 11 239 20
f 105 77 11
f 165 11 77
f 11 165 272
f 287 239 11
f 11 272 293
f 11 293 287
f 50 42 12
f 12 42 261
f 12 61 50
f 12 261 254
f 73 13 24
f 242 24 13
f 41 13 79
f 79 13 73
f 256 242 13
f 31 56 14
f 36 14 564
f 56 108 14
f 14 72 80
f 14 108 72
f 564 14 80
f 64 15 38
f 15 97 38
f 65 15 64
f 99 15 65
f 15 81 97
f 99 81 15
f 22 16 57
f 57 16 250
f 243 250 16
f 17 33 249
f 17 270 33
f 17 37 62
f 217 37 17
f 17 62 52
f 270 17 52
f 17 249 217
f 45 548 18
f 18 555 527
f 560 18 548
f 18 560 555
f 60 19 27
f 60 35 19
f 106 51 19
f 30 68 20
f 266 30 20
f 20 68 54
f 20 54 105
f 239 266 20
f 21 42 92
f 21 261 42
f 21 92 100
f 100 261 21
f 22 57 32
f 32 84 22
f 22 84 106
f 110 34 23
f 113 23 34
f 23 113 46
f 110 23 85
f 29 24 67
f 24 29 69
f 24 235 67
f 73 24 69
f 24 242 235
f 38 25 64
f 38 565 25
f 65 64 25
f 25 229 65
f 25 259 229
f 565 259 25
f 26 46 202
f 50 61 26
f 50 26 264
f 26 202 271
f 26 271 264
f 217 60 27
f 240 27 117
f 217 27 240
f 34 82 28
f 113 34 28
f 44 28 53
f 44 55 28
f 53 28 82
f 91 28 55
f 113 28 91
f 108 29 67
f 69 29 108
f 40 30 260
f 30 533 40
f 266 260 30
f 260 311 30
f 260 30 577
f 311 533 30
f 311 30 577
f 30 497 577
f 577 30 533
f 69 56 31
f 69 31 103
f 558 103 31
f 32 57 219
f 32 87 84
f 111 87 32
f 32 219 237
f 32 237 265
f 33 35 60
f 249 33 60
f 34 110 82
f 49 36 522
f 564 522 36
f 37 78 104
f 172 78 37
f 204 172 37
f 217 204 37
f 74 43 38
f 38 43 547
f 74 38 97
f 565 38 547
f 223 39 63
f 39 225 117
f 223 214 39
f 214 225 39
f 213 256 40
f 213 40 260
f 41 115 48
f 41 79 96
f 41 96 115
f 42 149 92
f 42 255 149
f 540 43 74
f 547 43 540
f 76 44 53
f 463 548 45
f 46 113 167
f 46 167 202
f 83 58 47
f 268 47 58
f 83 47 104
f 88 104 47
f 549 88 47
f 268 586 47
f 549 47 523
f 523 47 586
f 93 48 75
f 75 48 512
f 455 48 115
f 470 48 455
f 563 48 470
f 563 512 48
f 49 522 584
f 542 49 566
f 542 579 49
f 566 49 584
f 49 579 585
f 51 230 63
f 84 51 106
f 84 107 51
f 107 238 51
f 51 238 230
f 114 52 62
f 121 52 114
f 121 207 52
f 270 52 207
f 53 82 76
f 54 68 101
f 54 101 105
f 108 56 69
f 57 250 219
f 59 58 83
f 58 59 268
f 59 83 89
f 220 59 89
f 59 220 268
f 249 60 217
f 114 62 88
f 63 230 223
f 118 99 65
f 118 65 229
f 97 81 66
f 179 66 81
f 145 97 66
f 145 66 214
f 179 225 66
f 214 66 225
f 108 67 72
f 72 67 227
f 235 227 67
f 73 69 103
f 101 75 70
f 75 512 70
f 101 70 105
f 105 70 112
f 112 70 490
f 70 516 490
f 70 512 516
f 71 91 98
f 71 113 91
f 263 71 98
f 113 71 167
f 167 71 177
f 263 177 71
f 80 72 192
f 72 158 192
f 72 227 158
f 96 79 73
f 73 103 96
f 97 193 74
f 540 74 193
f 93 75 101
f 76 82 94
f 105 112 77
f 165 77 112
f 83 78 102
f 83 104 78
f 99 102 78
f 99 78 137
f 186 137 78
f 172 186 78
f 384 80 192
f 517 80 384
f 505 80 517
f 505 564 80
f 99 194 81
f 194 179 81
f 82 116 94
f 82 110 116
f 83 102 89
f 87 107 84
f 116 110 85
f 116 85 180
f 247 180 85
f 86 95 87
f 86 87 111
f 100 92 86
f 92 142 86
f 86 142 95
f 100 86 109
f 86 111 109
f 87 95 107
f 519 114 88
f 519 88 504
f 504 88 549
f 102 118 89
f 89 118 141
f 89 141 184
f 220 89 184
f 112 90 170
f 112 490 90
f 90 490 170
f 98 91 136
f 92 149 142
f 116 127 94
f 95 238 107
f 142 131 95
f 95 131 238
f 476 96 103
f 455 115 96
f 455 96 487
f 476 487 96
f 97 145 193
f 136 263 98
f 102 99 118
f 99 137 194
f 109 124 100
f 100 124 261
f 476 103 558
f 109 244 124
f 165 112 170
f 114 427 121
f 114 482 427
f 114 519 482
f 116 154 127
f 154 116 180
f 130 117 225
f 240 117 130
f 118 226 141
f 226 118 229
f 122 119 140
f 122 166 119
f 119 252 140
f 166 245 119
f 119 245 252
f 120 168 132
f 230 120 132
f 168 120 190
f 190 238 120
f 230 238 120
f 230 269 120
f 238 120 269
f 196 207 121
f 121 441 196
f 121 427 441
f 122 140 169
f 148 166 122
f 279 148 122
f 405 122 169
f 279 122 425
f 425 122 405
f 194 123 130
f 240 130 123
f 123 186 172
f 240 123 172
f 123 194 186
f 124 228 197
f 124 197 261
f 234 228 124
f 234 124 244
f 155 175 125
f 155 125 446
f 208 125 175
f 208 241 125
f 125 241 446
f 126 138 170
f 138 126 174
f 126 151 436
f 151 126 449
f 126 170 157
f 126 157 389
f 174 126 354
f 126 417 354
f 449 126 389
f 126 436 417
f 127 154 162
f 127 162 191
f 128 198 134
f 437 128 134
f 178 128 156
f 156 128 453
f 210 128 178
f 128 210 198
f 453 128 437
f 176 129 159
f 159 129 251
f 129 173 161
f 129 161 268
f 176 173 129
f 184 129 220
f 129 184 251
f 220 129 268
f 194 130 179
f 130 225 179
f 142 208 131
f 208 257 131
f 238 131 257
f 163 145 132
f 223 132 145
f 163 132 168
f 223 230 132
f 133 161 173
f 133 363 161
f 133 173 176
f 436 133 176
f 407 363 133
f 407 133 436
f 134 164 150
f 134 150 182
f 152 134 182
f 134 152 396
f 164 134 198
f 437 134 396
f 162 180 135
f 258 162 135
f 183 135 180
f 218 135 183
f 218 258 135
f 136 216 263
f 194 137 186
f 138 165 170
f 165 138 174
f 181 139 147
f 147 139 390
f 181 171 139
f 171 233 139
f 267 139 233
f 139 267 327
f 139 327 390
f 169 140 187
f 140 224 187
f 140 252 224
f 141 251 184
f 141 226 251
f 208 142 149
f 189 155 143
f 143 155 414
f 143 168 190
f 168 143 414
f 190 189 143
f 146 150 144
f 160 146 144
f 144 150 212
f 160 144 253
f 144 212 177
f 263 144 177
f 263 253 144
f 193 145 163
f 145 214 223
f 182 150 146
f 182 146 152
f 457 152 146
f 426 146 160
f 457 146 426
f 181 147 153
f 147 360 153
f 147 351 360
f 351 147 390
f 148 195 166
f 267 195 148
f 312 267 148
f 312 148 279
f 208 149 200
f 255 200 149
f 271 150 164
f 212 150 202
f 271 202 150
f 151 407 436
f 449 407 151
f 457 396 152
f 218 181 153
f 211 218 153
f 153 317 211
f 153 433 317
f 153 360 433
f 162 154 180
f 155 189 175
f 408 414 155
f 155 446 408
f 178 156 188
f 188 156 200
f 248 200 156
f 290 248 156
f 410 290 156
f 410 156 453
f 157 170 379
f 389 157 379
f 158 384 192
f 227 344 158
f 344 369 158
f 158 369 384
f 159 383 176
f 159 251 201
f 383 159 201
f 206 160 253
f 206 372 160
f 372 454 160
f 426 160 440
f 440 160 454
f 268 161 363
f 231 191 162
f 231 162 199
f 258 199 162
f 393 163 168
f 393 193 163
f 271 164 198
f 165 174 354
f 272 165 306
f 165 354 306
f 195 245 166
f 167 177 212
f 212 202 167
f 374 393 168
f 374 168 414
f 169 187 448
f 405 169 448
f 379 170 490
f 221 171 181
f 221 209 171
f 209 233 171
f 240 172 204
f 189 257 175
f 175 257 208
f 175 262 257
f 436 176 383
f 255 178 188
f 178 264 210
f 178 255 264
f 183 180 247
f 181 218 183
f 181 183 221
f 232 221 183
f 183 247 232
f 185 234 195
f 267 185 195
f 197 228 185
f 197 185 233
f 185 228 234
f 267 233 185
f 187 236 196
f 196 448 187
f 187 224 236
f 255 188 200
f 189 190 238
f 189 190 257
f 189 238 257
f 257 190 238
f 288 320 193
f 288 193 393
f 320 540 193
f 195 234 245
f 196 236 207
f 196 441 448
f 209 197 233
f 209 261 197
f 210 271 198
f 199 211 246
f 199 258 211
f 246 231 199
f 200 248 208
f 259 201 251
f 201 259 282
f 201 282 340
f 383 201 340
f 203 215 257
f 203 230 238
f 230 203 269
f 257 203 238
f 269 203 238
f 217 240 204
f 256 213 205
f 213 316 205
f 242 205 235
f 323 235 205
f 256 205 242
f 205 316 323
f 216 206 253
f 243 207 236
f 243 270 207
f 248 241 208
f 221 261 209
f 210 264 271
f 211 258 218
f 246 211 317
f 260 316 213
f 216 253 263
f 219 250 224
f 219 224 252
f 237 219 252
f 232 254 221
f 221 254 261
f 250 236 224
f 259 226 229
f 259 251 226
f 332 227 235
f 332 344 227
f 246 291 231
f 231 291 273
f 232 247 254
f 244 245 234
f 332 235 323
f 250 243 236
f 237 252 245
f 265 237 245
f 239 297 266
f 287 297 239
f 248 304 241
f 241 304 446
f 244 265 245
f 328 291 246
f 246 317 325
f 328 246 325
f 290 304 248
f 565 282 259
f 297 260 266
f 297 311 260
f 260 311 316
f 311 260 577
f 267 312 319
f 267 319 327
f 268 363 295
f 268 295 586
f 272 306 293
f 274 328 325
f 325 412 274
f 274 381 328
f 338 381 274
f 412 338 274
f 316 275 285
f 275 348 285
f 316 345 275
f 348 275 345
f 348 345 276
f 345 400 276
f 400 348 276
f 347 277 309
f 309 277 397
f 403 277 347
f 403 397 277
f 401 310 278
f 422 278 310
f 401 278 532
f 483 278 422
f 483 571 278
f 571 532 278
f 279 313 303
f 319 279 303
f 319 312 279
f 279 425 313
f 412 280 338
f 280 553 338
f 412 513 280
f 508 559 280
f 508 280 568
f 513 568 280
f 280 559 553
f 292 281 322
f 281 292 431
f 322 281 297
f 281 337 297
f 281 345 337
f 419 345 281
f 281 431 419
f 314 340 282
f 576 314 282
f 576 282 565
f 283 331 332
f 284 508 364
f 284 559 508
f 559 284 553
f 294 323 285
f 285 331 294
f 285 323 316
f 285 342 331
f 342 285 348
f 286 300 324
f 341 300 286
f 286 324 335
f 341 286 335
f 287 293 582
f 322 297 287
f 287 550 322
f 287 582 550
f 288 299 388
f 299 288 393
f 288 540 320
f 442 288 388
f 581 288 442
f 288 581 540
f 289 324 326
f 357 324 289
f 289 326 573
f 357 289 435
f 475 435 289
f 475 289 573
f 304 290 333
f 290 346 333
f 290 410 346
f 291 328 343
f 292 322 359
f 292 359 431
f 293 306 350
f 293 350 339
f 582 293 339
f 332 323 294
f 331 332 294
f 295 430 321
f 295 321 520
f 295 363 430
f 295 520 586
f 330 296 329
f 296 439 329
f 405 296 330
f 392 296 405
f 392 439 296
f 297 345 311
f 337 345 297
f 352 298 305
f 305 298 447
f 366 333 298
f 333 434 298
f 408 298 352
f 408 366 298
f 478 298 434
f 478 447 298
f 367 299 307
f 307 299 393
f 442 299 367
f 442 388 299
f 324 300 326
f 341 326 300
f 301 382 315
f 529 301 315
f 301 368 382
f 368 301 402
f 492 402 301
f 492 301 539
f 301 529 539
f 313 302 303
f 303 302 589
f 313 330 302
f 330 329 302
f 302 329 589
f 319 303 562
f 562 303 570
f 303 589 570
f 304 333 366
f 304 366 408
f 446 304 408
f 352 305 447
f 306 354 350
f 352 307 374
f 307 352 447
f 367 307 355
f 307 447 355
f 307 393 374
f 318 308 331
f 308 344 318
f 318 452 308
f 331 308 356
f 308 452 356
f 314 309 340
f 347 309 314
f 340 309 383
f 309 397 350
f 309 350 409
f 309 451 383
f 409 451 309
f 310 329 439
f 474 329 310
f 474 310 401
f 422 310 439
f 316 311 345
f 311 316 533
f 533 311 577
f 425 330 313
f 314 551 347
f 314 576 551
f 326 529 315
f 536 326 315
f 315 382 444
f 481 315 444
f 536 315 481
f 325 317 412
f 412 317 365
f 365 317 433
f 318 344 331
f 331 356 318
f 344 318 369
f 377 318 356
f 318 356 452
f 377 369 318
f 327 319 562
f 430 445 321
f 445 450 321
f 532 321 450
f 520 321 532
f 518 359 322
f 518 322 550
f 324 377 335
f 324 357 377
f 539 326 341
f 539 529 326
f 573 326 536
f 390 327 525
f 327 562 525
f 432 343 328
f 432 328 381
f 329 474 484
f 329 484 589
f 425 405 330
f 331 344 332
f 342 362 331
f 356 331 362
f 333 346 415
f 333 415 434
f 378 348 334
f 348 391 334
f 334 391 349
f 398 334 349
f 398 378 334
f 443 341 335
f 377 356 335
f 443 335 356
f 380 418 336
f 510 380 336
f 336 418 472
f 336 472 546
f 510 336 546
f 338 553 381
f 397 339 350
f 397 386 339
f 386 550 339
f 582 339 550
f 353 341 443
f 353 492 341
f 492 539 341
f 348 398 342
f 342 385 362
f 342 398 385
f 432 413 343
f 419 400 345
f 368 402 346
f 410 368 346
f 346 402 415
f 347 461 403
f 347 551 461
f 378 398 348
f 348 400 391
f 391 385 349
f 349 385 398
f 354 409 350
f 351 428 360
f 351 390 468
f 351 468 428
f 352 374 414
f 352 414 408
f 356 443 353
f 452 356 353
f 429 361 353
f 452 353 361
f 361 492 353
f 443 429 353
f 354 417 394
f 354 394 451
f 354 451 409
f 355 418 367
f 447 418 355
f 356 362 443
f 362 356 452
f 377 357 424
f 357 384 424
f 435 384 357
f 427 358 373
f 358 439 373
f 358 422 439
f 519 422 358
f 482 358 427
f 482 519 358
f 421 419 359
f 431 359 419
f 421 359 438
f 438 359 518
f 428 433 360
f 362 423 361
f 429 362 361
f 361 423 376
f 506 361 376
f 361 498 492
f 498 361 506
f 362 385 423
f 362 429 443
f 363 407 430
f 364 574 463
f 364 508 574
f 365 370 412
f 370 365 433
f 404 442 367
f 466 404 367
f 418 466 367
f 368 410 382
f 369 377 424
f 369 424 384
f 370 513 412
f 370 433 428
f 428 513 370
f 419 371 395
f 371 421 395
f 419 421 371
f 373 439 392
f 441 373 392
f 427 373 441
f 444 382 375
f 382 453 375
f 437 396 375
f 481 375 396
f 437 375 453
f 444 375 481
f 385 391 376
f 416 376 385
f 376 423 385
f 399 376 391
f 376 399 515
f 376 515 506
f 379 445 389
f 490 445 379
f 418 447 380
f 458 418 380
f 515 418 380
f 447 478 380
f 380 515 458
f 478 515 380
f 510 515 380
f 413 432 381
f 413 381 511
f 553 511 381
f 382 410 453
f 394 436 383
f 394 383 451
f 475 384 435
f 475 517 384
f 420 386 397
f 459 386 420
f 459 518 386
f 386 518 550
f 387 419 421
f 407 389 430
f 407 449 389
f 430 389 445
f 468 390 479
f 390 501 479
f 390 525 501
f 400 395 391
f 391 395 406
f 399 391 406
f 405 448 392
f 441 392 448
f 417 436 394
f 406 395 399
f 399 395 411
f 419 395 400
f 421 411 395
f 481 396 457
f 420 397 403
f 411 399 510
f 411 515 399
f 510 399 515
f 474 401 465
f 465 401 532
f 415 402 456
f 402 498 456
f 402 492 498
f 403 471 420
f 403 461 471
f 404 472 418
f 442 404 473
f 404 472 460
f 473 404 466
f 418 411 458
f 418 472 411
f 421 458 411
f 411 472 458
f 515 411 458
f 411 510 472
f 434 415 486
f 415 456 486
f 458 466 418
f 458 472 418
f 515 458 418
f 420 471 459
f 466 421 438
f 421 466 458
f 519 483 422
f 477 426 440
f 426 464 457
f 464 426 477
f 428 468 462
f 428 462 513
f 434 486 478
f 473 442 438
f 459 473 438
f 438 518 459
f 466 438 473
f 454 477 440
f 471 442 473
f 442 471 581
f 538 450 445
f 490 538 445
f 465 532 450
f 538 465 450
f 454 485 477
f 454 503 485
f 455 552 470
f 455 487 494
f 494 552 455
f 486 456 506
f 456 498 506
f 480 457 464
f 457 480 481
f 459 471 473
f 461 544 471
f 551 544 461
f 467 462 468
f 467 554 462
f 462 556 513
f 462 554 556
f 463 574 548
f 477 507 464
f 480 464 507
f 538 474 465
f 543 467 468
f 467 543 585
f 585 554 467
f 543 468 479
f 491 503 469
f 567 491 469
f 541 563 470
f 583 541 470
f 470 552 583
f 581 471 544
f 546 472 510
f 474 530 484
f 474 538 530
f 475 505 517
f 475 564 505
f 475 531 564
f 573 531 475
f 487 476 502
f 514 502 476
f 558 514 476
f 485 499 477
f 477 499 507
f 478 486 506
f 478 506 515
f 479 501 534
f 479 534 543
f 495 481 480
f 480 507 488
f 480 488 545
f 578 495 480
f 480 545 578
f 573 481 495
f 573 536 481
f 571 483 519
f 489 484 521
f 589 484 489
f 521 484 530
f 485 491 499
f 491 485 503
f 575 494 487
f 487 502 569
f 487 569 526
f 575 487 569
f 545 488 507
f 521 493 489
f 493 583 489
f 589 489 493
f 575 496 489
f 496 589 489
f 489 521 583
f 575 489 583
f 490 516 538
f 524 499 491
f 567 524 491
f 493 575 494
f 583 493 494
f 521 583 493
f 575 493 583
f 496 502 494
f 570 496 494
f 494 502 570
f 575 552 494
f 575 494 570
f 575 583 494
f 573 495 531
f 578 531 495
f 575 502 496
f 569 496 509
f 496 575 569
f 496 570 589
f 497 577 533
f 507 499 535
f 524 535 499
f 500 513 556
f 513 500 568
f 561 500 556
f 561 568 500
f 501 525 514
f 501 514 534
f 509 502 569
f 502 514 525
f 502 525 562
f 562 570 502
f 569 502 575
f 519 504 549
f 507 535 545
f 508 568 561
f 508 561 574
f 563 516 512
f 534 514 558
f 516 530 538
f 516 563 530
f 519 549 580
f 571 519 580
f 580 523 520
f 520 523 586
f 520 532 571
f 520 571 580
f 521 530 563
f 521 563 541
f 583 521 541
f 584 522 564
f 580 549 523
f 524 527 555
f 524 567 527
f 555 535 524
f 561 556 528
f 556 566 528
f 557 561 528
f 566 557 528
f 564 531 578
f 543 534 558
f 560 545 535
f 555 560 535
f 540 576 547
f 540 551 576
f 581 551 540
f 542 556 554
f 554 579 542
f 542 566 556
f 543 558 585
f 581 544 551
f 560 572 545
f 578 545 572
f 565 547 576
f 560 548 587
f 587 548 574
f 552 575 583
f 585 579 554
f 587 561 557
f 584 557 566
f 584 572 557
f 572 587 557
f 572 560 587
f 587 574 561
f 584 564 578
f 578 572 584
