# Face Mesh LOD2 - Triangles: 1140
v -0.073806 0.047023 -0.100265
v -0.044161 -0.100009 -0.103628
v 0.048250 -0.092354 -0.006714
v 0.064752 -0.077245 -0.018392
v 0.063662 0.010934 0.021472
v -0.039786 0.053984 -0.140656
v 0.048504 0.064117 0.021053
v -0.039784 -0.083628 -0.098496
v -0.072735 0.012833 -0.094168
v 0.070951 -0.007022 0.021630
v 0.048947 -0.084171 0.007788
v -0.061491 0.100026 -0.050188
v -0.039487 0.029042 -0.139820
v -0.048735 0.107706 -0.029194
v 0.076277 -0.004762 -0.000445
v -0.021143 0.081417 -0.140219
v 0.056952 -0.096876 -0.021109
v 0.040620 -0.162970 -0.016738
v -0.063907 0.043464 -0.118112
v 0.053203 0.045258 0.024226
v -0.037083 -0.061794 -0.099607
v -0.051481 0.011291 -0.126370
v -0.060437 -0.113836 -0.109560
v 0.062567 -0.025534 0.020578
v 0.075214 0.024561 -0.024325
v 0.045977 -0.112857 -0.024008
v -0.042952 0.113843 -0.037670
v -0.060681 -0.101750 -0.083054
v -0.059998 0.065806 -0.120451
v -0.078782 -0.135949 -0.129194
v 0.058148 -0.044543 0.019254
v 0.044945 0.024705 0.023852
v 0.064469 -0.060003 -0.017120
v -0.041120 -0.008890 -0.126498
v 0.000642 0.105047 -0.126062
v -0.039636 0.067492 -0.138054
v -0.053970 -0.073049 -0.081745
v -0.071830 -0.123734 -0.118420
v -0.051886 0.039403 -0.130495
v -0.021938 0.102869 -0.123165
v -0.057903 0.100082 -0.032991
v -0.074781 0.071900 -0.089375
v 0.045501 0.015928 0.023944
v 0.077080 -0.000763 -0.018241
v 0.045028 -0.170782 -0.006465
v -0.048035 -0.061158 -0.087791
v -0.068862 0.084881 -0.035892
v -0.021442 0.090404 -0.134125
v 0.064795 -0.165868 -0.017276
v -0.065792 -0.111121 -0.091307
v 0.022428 0.113727 -0.106627
v 0.077234 0.008310 -0.014522
v -0.052041 0.026868 -0.129019
v 0.049220 -0.105838 -0.022538
v 0.057647 -0.076303 -0.001341
v -0.047636 -0.080655 -0.091197
v -0.075051 0.029439 -0.093773
v 0.000671 0.082975 -0.143488
v -0.083574 -0.143737 -0.135597
v 0.058173 0.045096 0.015373
v -0.096491 -0.136660 -0.122214
v 0.062119 -0.061054 0.001245
v -0.039067 0.006904 -0.136116
v 0.017520 0.122271 -0.084896
v -0.050176 0.062691 -0.130876
v -0.050601 -0.095514 -0.093152
v 0.000664 0.092242 -0.137193
v -0.078539 0.054100 -0.084459
v -0.043914 0.115113 -0.051347
v -0.075804 0.077082 -0.074292
v -0.044609 -0.111988 -0.116530
v 0.053687 -0.042517 0.026930
v 0.060409 0.027569 0.018185
v -0.056672 -0.021301 -0.100220
v 0.063797 -0.044306 0.002020
v 0.073858 0.046117 -0.020161
v 0.053552 -0.059832 0.025593
v 0.068640 -0.025529 0.000936
v 0.072894 0.032908 -0.016185
v -0.059286 -0.150901 -0.143547
v -0.074762 -0.116251 -0.097510
v 0.022722 0.090470 -0.134203
v -0.021475 0.113623 -0.106534
v 0.047618 -0.079583 0.020276
v -0.064391 0.097172 -0.064726
v -0.065234 -0.143754 -0.139363
v -0.004837 0.123638 -0.085699
v -0.063669 0.014645 -0.114196
v -0.049245 -0.119757 -0.123881
v -0.051886 -0.034106 -0.094992
v -0.070415 0.088120 -0.077810
v -0.059831 -0.008019 -0.106473
v 0.023149 0.102940 -0.123244
v 0.070371 0.061779 -0.019919
v -0.101286 -0.129675 -0.101592
v -0.048166 -0.049972 -0.090452
v 0.072500 0.015190 0.004314
v -0.040278 -0.150740 -0.142804
v -0.067397 -0.008593 -0.089940
v 0.070122 -0.028160 -0.017940
v -0.073768 0.082171 -0.058884
v -0.043702 0.115362 -0.065971
v -0.038392 -0.048749 -0.102069
v 0.066621 0.028781 0.003620
v -0.018909 0.120905 -0.088445
v 0.066831 -0.044684 -0.018410
v 0.000531 0.115642 -0.109735
v 0.064021 0.044098 0.003744
v -0.064466 0.030736 -0.116229
v 0.058623 -0.066162 0.014965
v -0.044096 -0.028377 -0.109632
v -0.057998 -0.132258 -0.132070
v -0.048505 -0.014266 -0.116193
v 0.061792 0.062081 0.001711
v 0.074254 0.018478 -0.012370
v -0.084743 -0.121393 -0.101550
v 0.022457 0.081487 -0.140296
v -0.063891 -0.021033 -0.084524
v 0.073777 -0.016367 -0.019162
v -0.037174 -0.132904 -0.135907
v -0.070269 0.065823 -0.105124
v -0.026850 0.121269 -0.073340
v 0.018250 -0.009016 -0.138663
v -0.078434 0.028382 -0.051818
v 0.022043 0.067818 -0.146386
v 0.036968 -0.011406 -0.129464
v 0.061943 0.074357 -0.007264
v -0.027856 -0.047060 -0.112119
v -0.073688 -0.025532 -0.038646
v 0.051279 0.099521 -0.017357
v -0.019536 -0.153921 -0.142590
v 0.009798 0.127012 -0.053283
v -0.061891 0.083039 -0.108080
v -0.069454 -0.013377 -0.073808
v -0.078808 0.050945 -0.055634
v 0.025645 0.120483 -0.033318
v -0.064973 -0.097965 -0.034331
v -0.005151 -0.118738 -0.128616
v -0.100627 -0.133473 -0.076625
v -0.074435 -0.037649 -0.040015
v 0.055932 0.087066 -0.007591
v 0.029711 -0.064060 -0.105219
v 0.019726 0.011102 -0.145811
v -0.066023 -0.024643 -0.070052
v -0.077395 0.006963 -0.039456
v -0.067064 -0.135168 -0.049495
v -0.077750 0.065718 -0.056635
v 0.020619 0.032226 -0.149485
v -0.046260 0.109679 -0.087034
v -0.049756 -0.135324 -0.029220
v 0.026146 -0.080285 -0.107619
v 0.021596 0.052290 -0.149641
v 0.032259 -0.029409 -0.120220
v -0.058349 -0.050389 -0.072238
v -0.062680 -0.117059 -0.055079
v 0.038433 0.113335 -0.024302
v 0.026947 -0.097468 -0.113179
v -0.018617 -0.136365 -0.137848
v -0.075361 -0.010980 -0.040338
v -0.066617 -0.063539 -0.033069
v 0.043867 -0.061274 0.035472
v -0.056318 -0.154050 -0.029453
v 0.024206 0.123327 -0.051904
v -0.000206 -0.136755 -0.138864
v -0.076655 0.048482 -0.037822
v -0.076921 -0.037370 -0.048858
v -0.066700 -0.102225 -0.049512
v 0.051054 0.083287 0.003800
v -0.076249 -0.121723 -0.077211
v -0.077683 0.027795 -0.034900
v 0.064374 0.082408 -0.020403
v 0.012678 -0.062921 -0.113173
v -0.042702 0.101404 -0.110178
v 0.041806 0.097242 0.000530
v -0.076333 -0.024428 -0.053665
v 0.009906 0.124131 -0.030489
v -0.086297 -0.126429 -0.078860
v -0.069645 0.083175 -0.092755
v -0.026931 -0.120181 -0.128725
v 0.012746 -0.079120 -0.111963
v -0.056552 -0.117476 -0.038247
v -0.007396 -0.103788 -0.119090
v -0.065416 -0.064715 -0.053301
v -0.075656 -0.008776 -0.051939
v 0.013023 -0.091592 -0.113986
v -0.080748 0.009572 -0.053579
v 0.000138 -0.155298 -0.143546
v 0.041255 -0.075370 0.034225
v -0.073631 0.069211 -0.037367
v -0.059674 0.096918 -0.090151
v -0.005226 0.126913 -0.074195
v 0.015778 -0.026136 -0.128736
v -0.013090 -0.046550 -0.116355
v -0.075938 -0.090295 -0.049924
v 0.018367 -0.136019 -0.137631
v -0.062971 -0.051313 -0.049592
v -0.064983 -0.112170 -0.071685
v -0.089660 0.008015 -0.066153
v 0.045197 -0.007673 0.038386
v -0.078534 -0.154969 -0.037170
v 0.000643 0.068296 -0.149914
v -0.068948 -0.028712 -0.049829
v -0.006655 -0.062417 -0.113765
v -0.072988 -0.078700 -0.051506
v 0.031543 -0.118387 -0.126734
v 0.043884 0.015079 0.032182
v -0.079389 0.060105 -0.070595
v -0.089969 -0.001343 -0.068550
v -0.005122 0.124655 -0.029914
v -0.095888 -0.147614 -0.053154
v -0.043132 0.081026 -0.129310
v 0.013904 -0.103470 -0.118957
v -0.018962 0.011010 -0.145721
v -0.006850 -0.079117 -0.112430
v -0.067220 -0.011465 -0.050966
v -0.079639 0.042556 -0.073316
v 0.000491 0.031289 -0.152624
v 0.044320 -0.044240 0.037735
v -0.000137 -0.046301 -0.116935
v -0.025685 0.122750 -0.054280
v -0.079029 0.026029 -0.066623
v 0.019486 -0.159883 -0.143636
v -0.007035 -0.091784 -0.114221
v 0.012801 -0.046483 -0.116438
v -0.007590 -0.030326 -0.126805
v 0.045364 -0.027352 0.039037
v 0.000584 0.051877 -0.153049
v 0.010902 0.126283 -0.073599
v -0.017828 -0.009119 -0.138568
v -0.083936 0.008317 -0.065372
v 0.041156 0.059300 0.031171
v -0.053771 0.080746 -0.120773
v -0.069180 -0.033051 -0.033530
v 0.061213 -0.006541 0.033213
v -0.020403 0.052203 -0.149559
v -0.027124 -0.025849 -0.124592
v 0.000166 -0.009782 -0.140343
v -0.072181 -0.081308 -0.035988
v -0.006493 0.127347 -0.050362
v 0.037100 -0.133224 -0.135716
v -0.027515 -0.097560 -0.113040
v -0.067446 -0.041414 -0.037938
v -0.019585 0.032140 -0.149399
v 0.000095 0.128614 -0.061683
v 0.000346 0.010126 -0.148583
v -0.026853 -0.080607 -0.107297
v -0.059378 -0.062535 -0.069557
v 0.060673 0.003779 0.030503
v -0.082373 -0.008550 -0.067273
v 0.015766 -0.120016 -0.129436
v -0.025733 0.120345 -0.033134
v 0.043635 0.026138 0.032101
v -0.026821 -0.065808 -0.107518
v -0.081528 -0.020278 -0.064468
v -0.082706 -0.138077 -0.059516
v -0.065059 -0.081440 -0.070481
v 0.044597 0.046870 0.034109
v 0.032794 -0.047538 -0.107393
v 0.000078 -0.018752 -0.135299
v 0.028158 0.121463 -0.070616
v -0.020760 0.067740 -0.146308
v -0.065176 -0.096003 -0.069719
v 0.042554 0.084547 0.014226
v 0.020129 -0.148271 -0.141299
v 0.071700 -0.124100 -0.118335
v 0.015037 0.011988 0.040619
v 0.063797 -0.020244 -0.084754
v 0.005588 0.027343 0.049109
v 0.024464 -0.042320 0.048526
v 0.071372 0.066270 -0.105413
v 0.048844 -0.013908 -0.116458
v 0.011086 0.044533 0.050268
v 0.060762 -0.137131 -0.134599
v -0.007584 -0.055679 0.043520
v -0.025517 0.115279 -0.014946
v 0.022445 -0.030415 0.049342
v -0.056275 -0.075620 0.019401
v 0.100672 -0.133930 -0.076404
v 0.017441 -0.007593 0.045717
v -0.022155 -0.063681 0.050970
v 0.030047 0.063849 0.036650
v -0.059433 0.064220 0.005559
v -0.008638 -0.088313 0.043301
v -0.068931 -0.046355 -0.017275
v 0.047326 -0.151558 -0.143056
v 0.033457 0.083757 0.023246
v 0.044232 0.115627 -0.066190
v 0.065492 0.031153 -0.116514
v 0.029872 0.044566 0.043287
v -0.073111 -0.009703 0.019973
v -0.065803 0.046931 0.000783
v -0.023976 -0.078671 0.050259
v -0.058663 -0.063914 0.021586
v 0.073454 0.013411 -0.094435
v 0.067658 -0.007946 -0.090155
v -0.070338 -0.033653 -0.013078
v -0.073127 0.004364 0.019487
v 0.030008 0.097609 0.012699
v -0.015056 -0.093652 0.029531
v -0.069125 0.026579 0.001639
v 0.012821 -0.044630 0.044716
v -0.005189 0.114590 -0.000358
v 0.029683 0.025506 0.035130
v 0.044082 -0.027989 -0.109906
v 0.060223 -0.007533 -0.106753
v -0.043025 -0.085103 0.021005
v 0.071096 0.088565 -0.078104
v 0.030435 0.015275 0.034762
v 0.049094 -0.120302 -0.124000
v 0.012474 -0.042541 0.055074
v 0.051704 -0.033483 -0.095346
v -0.067915 0.066901 -0.013803
v 0.064970 0.097584 -0.065018
v 0.012422 0.064342 0.042900
v 0.028675 -0.007154 0.041997
v -0.006291 -0.080448 0.053956
v 0.054951 -0.128357 -0.129192
v -0.029570 -0.082352 0.039833
v 0.021775 0.048256 0.048728
v 0.047703 -0.049215 -0.090931
v 0.065244 -0.144340 -0.139060
v 0.064505 0.015088 -0.114480
v 0.008650 -0.023402 0.056533
v 0.030110 -0.025136 0.045637
v -0.068937 -0.029405 0.001843
v -0.002320 0.003848 0.067356
v -0.006031 -0.061863 0.056468
v 0.084651 -0.121771 -0.101508
v 0.019410 0.086570 0.028466
v -0.005184 0.121225 -0.017021
v -0.027667 -0.056411 0.041928
v 0.008625 -0.010621 0.056854
v 0.069406 -0.150627 -0.142430
v 0.026458 -0.044282 0.042950
v 0.015198 0.024294 0.036984
v -0.066572 -0.045228 0.000538
v -0.025507 0.106403 0.003804
v 0.056708 -0.020688 -0.100497
v 0.007508 0.009622 0.055480
v -0.004875 -0.010316 0.068899
v 0.013431 0.099064 0.019149
v 0.048208 -0.077848 -0.089466
v 0.074901 0.047526 -0.100565
v -0.073521 0.013857 0.005849
v -0.025342 -0.044441 0.042134
v 0.032766 0.105241 -0.001046
v -0.058834 0.026197 0.022239
v -0.007561 -0.042646 0.056669
v 0.039789 0.007083 -0.136287
v 0.011528 -0.079374 0.054288
v 0.051396 0.062947 -0.131094
v -0.006402 0.063508 0.044547
v 0.049897 -0.094910 -0.093601
v -0.028073 -0.021514 0.046690
v -0.006607 -0.022938 0.058140
v 0.044235 0.115383 -0.051586
v 0.096013 -0.147762 -0.052872
v 0.044274 -0.112079 -0.116567
v -0.076957 -0.006184 0.000534
v -0.057172 0.043414 0.018950
v -0.064473 -0.062341 0.002476
v 0.031491 -0.058112 0.041768
v 0.070016 -0.113739 -0.094523
v -0.065332 -0.165892 -0.017097
v 0.052996 0.039686 -0.130731
v -0.074621 0.027324 -0.019510
v -0.025166 -0.005919 0.044013
v 0.011669 -0.062904 0.054863
v 0.004509 0.003509 0.066445
v 0.068937 0.085354 -0.036264
v -0.040558 0.014845 0.021278
v -0.072464 -0.019586 0.002551
v 0.078716 -0.136527 -0.128967
v -0.059088 -0.077462 -0.000024
v 0.014880 0.117673 -0.012892
v 0.029120 -0.080914 0.039607
v -0.008573 -0.010762 0.057785
v -0.022281 0.043791 0.048935
v -0.055091 0.056374 0.017242
v -0.045934 -0.170864 -0.006466
v 0.061311 0.096867 -0.033299
v 0.047414 -0.060229 -0.088450
v -0.006375 0.010087 0.055794
v 0.053017 0.027170 -0.129261
v -0.073914 0.049941 -0.022316
v -0.012072 0.024379 0.039544
v -0.043145 -0.105924 -0.016622
v -0.005227 0.101175 0.019389
v 0.006018 -0.009962 0.068336
v -0.027390 0.014744 0.035879
v -0.002432 0.027972 0.049984
v 0.075738 0.072420 -0.089680
v -0.060114 -0.045281 0.020318
v -0.023895 0.097022 0.017714
v -0.051927 0.046710 0.026117
v 0.052265 0.011591 -0.126604
v -0.012958 0.014119 0.041287
v -0.046132 -0.117768 -0.024374
v 0.043091 0.114103 -0.037926
v -0.077214 -0.002330 -0.017882
v 0.019681 0.107467 0.005326
v -0.066305 -0.061569 -0.015804
v -0.027061 0.024661 0.036126
v 0.060204 -0.113873 -0.109592
v -0.076976 0.010284 -0.012970
v -0.065254 -0.026597 0.020254
v 0.011499 -0.055643 0.042455
v -0.017594 -0.012999 0.050846
v 0.038106 0.109393 -0.014954
v -0.039932 0.025199 0.021032
v -0.006711 0.044764 0.051248
v -0.030294 0.088576 0.023192
v -0.027106 0.048233 0.045135
v 0.061170 0.066145 -0.120706
v 0.022190 -0.078546 0.049997
v 0.050756 -0.003160 -0.121162
v -0.036871 -0.139247 -0.018542
v 0.040898 0.067643 -0.138203
v 0.060095 -0.101068 -0.083449
v -0.023657 -0.029503 0.050147
v 0.061911 0.100434 -0.050491
v 0.076048 0.030051 -0.094077
v 0.083557 -0.144426 -0.135271
v 0.043611 -0.099757 -0.103890
v -0.048253 -0.093268 -0.005956
v 0.013853 -0.087848 0.041556
v 0.026890 0.115606 -0.017466
v -0.056066 -0.098107 -0.020595
v 0.023219 -0.061850 0.048959
v -0.025908 0.063762 0.039669
v 0.065026 0.043818 -0.118381
v -0.038936 -0.153565 -0.020030
v 0.040992 0.054150 -0.140815
v 0.038970 -0.083048 -0.099006
v -0.047526 0.064988 0.022993
v -0.024464 -0.043076 0.049898
v 0.014236 -0.093358 0.029113
v -0.049972 -0.084815 0.008816
v 0.079547 0.054730 -0.084778
v 0.074244 0.082710 -0.059214
v -0.073309 -0.021734 -0.020105
v -0.060468 0.012634 0.024768
v 0.040493 0.029217 -0.139985
v 0.051782 0.106021 -0.031417
v 0.076546 0.077645 -0.074612
v 0.009439 0.114134 -0.001035
v -0.008278 -0.045196 0.045178
v -0.065618 -0.078474 -0.017128
v -0.041480 -0.163115 -0.016615
v 0.073857 -0.012975 -0.035698
v -0.056069 -0.027512 0.033439
v -0.030875 -0.119379 -0.013157
v -0.041668 0.024835 0.033824
v -0.022528 0.080016 0.032474
v 0.064309 -0.094861 -0.070193
v 0.082755 -0.159192 -0.032944
v -0.022573 -0.133052 -0.011027
v 0.080203 0.060814 -0.070924
v -0.044782 0.044951 0.035666
v 0.074914 -0.088854 -0.050553
v 0.063190 -0.080033 -0.071171
v -0.007178 -0.179896 -0.000182
v -0.040612 0.081712 0.019917
v -0.027343 0.025975 0.017421
v -0.038466 0.062668 0.032817
v 0.080633 0.043360 -0.073641
v 0.011163 -0.097474 0.019751
v 0.069274 -0.040539 -0.038842
v -0.024384 -0.151491 -0.012950
v -0.057803 0.005110 0.032091
v 0.058175 -0.061168 -0.070275
v -0.004577 -0.118013 0.000020
v -0.030391 -0.099011 0.002235
v 0.080112 0.026978 -0.066936
v -0.025900 -0.165701 -0.008938
v -0.064476 -0.007098 0.033602
v 0.071419 -0.026271 -0.038595
v -0.005512 -0.131006 -0.006377
v 0.085578 0.008765 -0.065229
v 0.073010 0.069439 -0.034833
v -0.006753 -0.170673 -0.009811
v -0.042083 -0.044287 0.041967
v 0.070671 -0.010860 -0.050109
v -0.021962 -0.113438 -0.005356
v -0.011037 -0.107409 0.006243
v 0.083689 -0.008689 -0.066001
v -0.053269 0.031450 0.030430
v -0.042393 -0.027378 0.043510
v -0.006257 -0.154442 -0.012714
v 0.070840 -0.025989 -0.050959
v -0.028210 -0.174633 -0.000300
v 0.025800 -0.094159 0.014390
v -0.043444 -0.008176 0.040719
v -0.005829 -0.139432 -0.009270
v 0.082790 -0.138288 -0.059359
v 0.081033 -0.019985 -0.064079
v -0.027578 0.014041 0.018948
v 0.096414 -0.137300 -0.121985
v 0.064702 -0.111722 -0.071959
v 0.066026 -0.045725 -0.049585
v -0.042611 0.014994 0.033588
v 0.034443 -0.087124 0.023582
v -0.004792 0.082980 0.033992
v 0.046999 0.081137 -0.127345
v 0.060530 0.097241 -0.090388
v 0.081628 0.023507 -0.053299
v 0.038022 -0.103896 -0.011618
v 0.011391 -0.169598 -0.009098
v 0.075832 -0.032804 -0.041257
v 0.027076 -0.174578 -0.000303
v 0.058269 -0.125430 -0.041511
v -0.042974 -0.078066 0.033234
v 0.079446 0.051875 -0.055963
v 0.011015 -0.107174 0.006004
v 0.070511 0.083597 -0.093032
v 0.029300 0.014642 0.019184
v 0.063882 -0.063054 -0.054323
v 0.010327 -0.154109 -0.012672
v -0.023856 -0.094316 0.018030
v 0.019545 0.022906 0.023633
v 0.078274 0.066443 -0.056978
v -0.044263 -0.060227 0.038263
v -0.064625 0.082015 -0.019985
v 0.077762 0.007675 -0.039756
v 0.021912 -0.112846 -0.005780
v 0.071095 -0.077181 -0.052215
v -0.048194 0.088439 0.004572
v 0.010294 -0.139160 -0.009858
v -0.056149 0.094960 -0.017697
v 0.066364 -0.154617 -0.034401
v 0.043762 0.101571 -0.110328
v 0.012380 0.081063 0.033823
v -0.041463 0.099171 -0.000864
v 0.075769 -0.008639 -0.041863
v 0.101219 -0.130312 -0.101373
v 0.067078 -0.100879 -0.049886
v 0.024692 -0.165644 -0.008922
v 0.076697 0.049571 -0.038225
v 0.062672 -0.116402 -0.055359
v 0.057751 -0.049213 -0.072875
v 0.047075 0.109918 -0.087225
v 0.076003 -0.121810 -0.077203
v 0.049175 -0.135135 -0.029672
v 0.065409 -0.062095 -0.034068
v 0.076659 -0.036991 -0.048349
v 0.028201 -0.152126 -0.015843
v 0.067068 -0.135199 -0.049454
v 0.065751 -0.023557 -0.070106
v 0.077575 0.029249 -0.035344
v 0.030502 -0.098586 0.001802
v -0.038528 0.113132 -0.024038
v 0.050779 -0.118745 -0.032195
v 0.012608 -0.178971 0.000013
v 0.086241 -0.126765 -0.078752
v 0.078877 -0.023785 -0.054550
v 0.071958 -0.008234 -0.069865
v 0.062932 0.083326 -0.108303
v 0.029031 -0.135998 -0.015445
v -0.004667 -0.099104 0.018837
v 0.077966 -0.006714 -0.053375
v -0.044038 0.105473 -0.015757
v 0.029701 0.026721 0.017086
v 0.010178 -0.118866 -0.002395
v 0.062863 -0.100489 -0.035141
v 0.074984 0.070640 -0.043608
v -0.057314 0.079206 -0.001362
v 0.028030 0.076417 0.031736
v 0.081584 0.010169 -0.053127
v 0.030807 -0.118780 -0.013739
v 0.071467 -0.079929 -0.036837
v 0.054004 -0.149217 -0.031147
v 0.010178 -0.130658 -0.007237
f 29 19 1
f 1 19 109
f 29 1 121
f 1 109 57
f 216 1 57
f 68 121 1
f 216 68 1
f 8 2 66
f 246 2 8
f 50 2 23
f 23 2 71
f 50 28 2
f 28 66 2
f 241 71 2
f 246 241 2
f 17 4 3
f 4 55 3
f 3 55 11
f 3 11 550
f 17 3 507
f 550 507 3
f 4 17 564
f 4 33 55
f 544 33 4
f 544 4 570
f 4 564 570
f 10 15 5
f 10 5 248
f 5 15 97
f 73 43 5
f 43 206 5
f 5 97 73
f 206 248 5
f 6 13 39
f 235 13 6
f 36 6 65
f 261 6 36
f 6 39 65
f 261 235 6
f 20 60 7
f 257 20 7
f 60 114 7
f 168 7 114
f 7 168 263
f 231 257 7
f 231 7 281
f 7 263 286
f 7 286 281
f 8 66 56
f 8 56 253
f 8 253 246
f 88 9 57
f 9 230 57
f 92 9 88
f 92 99 9
f 99 230 9
f 15 10 78
f 78 10 24
f 234 24 10
f 10 248 234
f 55 84 11
f 492 11 84
f 492 550 11
f 47 41 12
f 69 12 41
f 12 101 47
f 102 12 69
f 12 85 101
f 102 85 12
f 22 53 13
f 22 13 63
f 13 53 39
f 63 13 213
f 243 213 13
f 235 243 13
f 27 41 14
f 27 14 551
f 41 561 14
f 551 14 561
f 15 44 52
f 15 119 44
f 15 52 97
f 15 78 119
f 16 36 211
f 16 261 36
f 16 48 67
f 211 48 16
f 16 67 58
f 261 16 58
f 54 17 507
f 17 54 564
f 49 18 45
f 45 18 537
f 49 530 18
f 546 18 530
f 18 546 537
f 65 19 29
f 65 39 19
f 39 109 19
f 32 73 20
f 257 32 20
f 20 73 60
f 56 46 21
f 21 46 96
f 21 253 56
f 21 96 103
f 103 253 21
f 34 22 63
f 22 34 92
f 53 22 88
f 22 92 88
f 81 23 38
f 112 38 23
f 23 81 50
f 71 89 23
f 112 23 89
f 31 75 24
f 31 24 226
f 24 75 78
f 24 234 226
f 115 52 25
f 524 25 52
f 115 25 79
f 79 25 549
f 549 25 524
f 564 54 26
f 26 54 569
f 26 552 564
f 569 552 26
f 69 41 27
f 27 220 69
f 27 251 220
f 551 251 27
f 28 50 197
f 56 66 28
f 56 28 262
f 197 262 28
f 29 211 65
f 29 121 133
f 232 29 133
f 29 232 211
f 38 112 30
f 116 38 30
f 59 61 30
f 80 59 30
f 95 30 61
f 80 30 86
f 30 112 86
f 116 30 95
f 62 75 31
f 62 31 110
f 31 72 77
f 31 226 72
f 110 31 77
f 73 32 43
f 32 206 43
f 32 43 516
f 32 252 206
f 257 252 32
f 303 252 32
f 32 252 562
f 303 32 562
f 32 516 562
f 33 62 55
f 33 106 62
f 468 106 33
f 468 33 544
f 34 63 213
f 113 92 34
f 111 113 34
f 111 34 236
f 34 213 229
f 34 229 236
f 48 40 35
f 40 107 35
f 48 35 67
f 82 67 35
f 82 35 93
f 93 35 107
f 65 211 36
f 56 37 46
f 37 247 46
f 37 56 256
f 37 256 247
f 81 38 116
f 39 53 109
f 211 40 48
f 40 83 107
f 173 83 40
f 211 173 40
f 41 47 523
f 529 41 523
f 561 41 529
f 68 42 121
f 207 42 68
f 178 42 70
f 207 70 42
f 133 121 42
f 133 42 178
f 43 206 308
f 43 308 516
f 524 52 44
f 450 44 119
f 524 44 450
f 45 537 510
f 46 154 96
f 46 247 154
f 189 47 101
f 523 47 189
f 456 530 49
f 50 81 169
f 50 169 197
f 87 64 51
f 260 51 64
f 87 51 107
f 93 107 51
f 531 93 51
f 260 541 51
f 531 51 541
f 97 52 115
f 53 88 109
f 54 507 569
f 55 62 110
f 55 110 84
f 56 262 256
f 88 57 109
f 57 221 216
f 57 230 221
f 117 58 67
f 125 58 117
f 125 201 58
f 261 58 201
f 60 73 104
f 60 104 108
f 60 108 114
f 75 62 106
f 228 64 87
f 64 228 260
f 117 67 82
f 216 207 68
f 220 102 69
f 101 91 70
f 178 70 91
f 147 101 70
f 147 70 207
f 89 71 179
f 241 179 71
f 218 77 72
f 218 72 226
f 73 97 104
f 90 74 111
f 90 118 74
f 74 99 92
f 111 74 92
f 74 118 99
f 78 75 100
f 75 106 100
f 108 79 76
f 79 549 76
f 114 76 94
f 76 538 94
f 108 76 114
f 76 549 538
f 77 84 110
f 84 77 188
f 161 188 77
f 218 161 77
f 100 119 78
f 104 79 108
f 104 115 79
f 80 86 112
f 80 112 98
f 81 116 177
f 81 177 169
f 504 82 93
f 504 117 82
f 87 83 105
f 87 107 83
f 122 105 83
f 122 83 149
f 173 149 83
f 376 84 188
f 376 502 84
f 492 84 502
f 101 85 91
f 85 190 91
f 102 190 85
f 105 122 87
f 87 122 191
f 228 87 191
f 120 112 89
f 120 89 179
f 103 96 90
f 96 144 90
f 103 90 111
f 90 144 118
f 190 178 91
f 111 92 113
f 504 93 531
f 114 94 127
f 171 127 94
f 94 480 171
f 94 538 480
f 177 116 95
f 177 95 139
f 96 154 144
f 97 115 104
f 112 120 98
f 120 131 98
f 118 134 99
f 99 134 249
f 99 249 230
f 100 106 477
f 450 119 100
f 450 100 477
f 189 101 147
f 122 149 102
f 102 220 122
f 102 149 190
f 111 128 103
f 103 128 253
f 468 477 106
f 111 236 128
f 168 114 127
f 117 418 125
f 117 504 418
f 118 144 134
f 120 158 131
f 158 120 179
f 122 239 191
f 122 220 239
f 126 123 143
f 126 192 123
f 123 245 143
f 192 237 123
f 123 237 245
f 135 124 165
f 216 124 135
f 165 124 170
f 186 170 124
f 221 186 124
f 216 221 124
f 152 201 125
f 125 433 152
f 125 418 433
f 126 143 349
f 153 192 126
f 304 153 126
f 304 126 271
f 271 126 416
f 416 126 349
f 141 168 127
f 141 127 171
f 128 193 203
f 225 193 128
f 128 203 253
f 225 128 236
f 129 166 140
f 129 140 242
f 159 184 129
f 441 159 129
f 129 175 166
f 175 129 184
f 202 175 129
f 129 242 233
f 129 233 441
f 130 141 171
f 141 130 174
f 130 156 409
f 130 444 156
f 130 171 381
f 174 130 346
f 130 409 346
f 444 130 381
f 131 158 164
f 131 164 187
f 136 163 132
f 136 132 176
f 260 132 163
f 176 132 239
f 244 132 228
f 260 228 132
f 132 244 239
f 133 190 173
f 232 133 173
f 190 133 178
f 144 249 134
f 165 147 135
f 135 147 207
f 135 207 216
f 156 399 136
f 156 136 427
f 399 163 136
f 176 427 136
f 167 181 137
f 137 194 167
f 181 387 137
f 194 137 238
f 448 238 137
f 428 137 387
f 448 137 428
f 164 179 138
f 250 164 138
f 182 138 179
f 212 138 182
f 212 250 138
f 255 177 139
f 139 210 255
f 140 166 242
f 141 174 168
f 180 142 151
f 434 151 142
f 180 172 142
f 258 142 172
f 142 258 320
f 142 320 382
f 342 142 382
f 434 142 342
f 143 217 148
f 148 443 143
f 143 245 217
f 349 143 443
f 202 144 154
f 202 175 144
f 144 175 254
f 144 254 249
f 184 159 145
f 145 159 400
f 186 145 170
f 170 145 366
f 184 145 186
f 145 405 366
f 145 400 405
f 162 150 146
f 150 181 146
f 146 181 155
f 146 155 197
f 162 146 200
f 146 197 169
f 169 255 146
f 255 200 146
f 165 189 147
f 148 227 152
f 152 443 148
f 148 217 227
f 190 149 173
f 417 150 162
f 181 150 398
f 452 398 150
f 452 150 417
f 185 151 157
f 151 424 157
f 185 180 151
f 151 434 424
f 152 227 201
f 152 433 443
f 258 192 153
f 304 258 153
f 202 154 196
f 247 196 154
f 181 167 155
f 262 155 167
f 262 197 155
f 444 399 156
f 409 156 427
f 212 185 157
f 205 212 157
f 157 358 205
f 157 424 358
f 164 158 179
f 441 400 159
f 183 160 196
f 204 160 183
f 242 196 160
f 204 238 160
f 160 238 448
f 402 242 160
f 402 160 448
f 161 376 188
f 218 362 161
f 362 376 161
f 200 364 162
f 364 449 162
f 417 162 432
f 432 162 449
f 260 163 356
f 399 356 163
f 264 187 164
f 250 195 164
f 264 164 195
f 385 165 170
f 385 189 165
f 166 175 202
f 166 202 242
f 194 262 167
f 168 174 263
f 169 177 255
f 366 385 170
f 381 171 370
f 480 370 171
f 214 172 180
f 214 203 172
f 203 224 172
f 258 172 224
f 232 173 211
f 263 174 298
f 174 346 298
f 175 202 184
f 184 249 175
f 249 254 175
f 176 239 209
f 375 176 209
f 176 375 427
f 182 179 241
f 223 180 185
f 223 214 180
f 181 398 387
f 185 212 182
f 185 182 223
f 182 241 223
f 247 183 196
f 256 204 183
f 256 183 247
f 186 249 184
f 215 202 184
f 186 198 230
f 230 186 221
f 230 249 186
f 222 187 264
f 312 189 385
f 312 523 189
f 244 228 191
f 244 191 239
f 224 225 192
f 258 224 192
f 192 225 259
f 192 259 237
f 203 193 219
f 193 225 219
f 194 238 204
f 204 256 194
f 194 256 262
f 195 205 240
f 195 250 205
f 240 264 195
f 196 242 202
f 249 208 198
f 249 198 230
f 206 199 234
f 199 206 315
f 234 199 226
f 324 226 199
f 199 315 324
f 210 200 255
f 235 201 227
f 235 261 201
f 233 242 202
f 214 253 203
f 203 219 224
f 205 250 212
f 240 205 309
f 309 205 358
f 248 206 234
f 252 308 206
f 206 252 562
f 206 308 315
f 308 206 562
f 251 209 239
f 209 251 275
f 209 275 330
f 375 209 330
f 213 243 217
f 213 217 245
f 229 213 245
f 223 246 214
f 214 246 253
f 243 227 217
f 334 218 226
f 218 334 362
f 224 219 225
f 251 239 220
f 264 285 222
f 223 241 246
f 225 236 259
f 324 334 226
f 243 235 227
f 236 229 237
f 229 245 237
f 281 257 231
f 242 284 233
f 233 284 296
f 233 296 441
f 236 237 259
f 240 285 264
f 273 285 240
f 273 240 317
f 240 309 317
f 284 242 402
f 551 275 251
f 252 257 289
f 252 289 303
f 303 308 252
f 562 252 303
f 281 289 257
f 258 304 311
f 258 311 320
f 260 356 287
f 260 287 541
f 263 298 286
f 265 273 317
f 265 373 273
f 317 404 265
f 363 328 265
f 328 373 265
f 363 265 404
f 266 335 268
f 339 266 268
f 279 315 266
f 279 266 332
f 266 315 308
f 266 308 335
f 332 266 339
f 338 295 267
f 267 295 556
f 311 338 267
f 311 267 548
f 267 556 548
f 272 268 335
f 411 268 272
f 383 339 268
f 383 268 391
f 411 391 268
f 276 323 269
f 269 324 276
f 269 323 310
f 269 310 334
f 269 310 429
f 269 334 324
f 269 429 334
f 414 270 343
f 439 343 270
f 439 270 392
f 557 392 270
f 414 557 270
f 304 271 305
f 271 416 305
f 314 272 289
f 272 319 289
f 272 335 289
f 272 314 352
f 272 352 411
f 285 273 321
f 373 321 273
f 301 407 274
f 301 274 447
f 274 331 345
f 274 345 447
f 275 302 330
f 337 302 275
f 533 337 275
f 533 275 561
f 561 275 551
f 276 324 323
f 293 374 277
f 277 512 293
f 306 277 438
f 512 277 306
f 277 374 438
f 278 495 357
f 495 278 554
f 554 278 535
f 315 279 324
f 323 324 279
f 323 279 332
f 280 292 316
f 280 318 292
f 280 316 327
f 522 318 280
f 436 280 327
f 331 280 436
f 331 522 280
f 281 286 567
f 314 289 281
f 281 532 314
f 281 567 532
f 282 312 291
f 282 291 360
f 282 566 312
f 282 360 379
f 435 282 379
f 566 282 435
f 283 316 292
f 283 292 318
f 283 318 299
f 283 299 559
f 426 316 283
f 467 426 283
f 467 283 559
f 284 336 296
f 284 361 336
f 361 284 402
f 285 321 333
f 286 298 341
f 286 341 329
f 567 286 329
f 287 421 313
f 287 313 505
f 287 356 421
f 287 505 541
f 384 288 322
f 322 288 422
f 343 422 288
f 343 288 431
f 365 288 384
f 365 431 288
f 289 335 303
f 359 290 297
f 290 476 297
f 372 325 290
f 325 406 290
f 359 372 290
f 290 406 476
f 291 300 347
f 300 291 366
f 291 312 385
f 291 347 360
f 291 385 366
f 293 361 374
f 361 293 393
f 482 393 293
f 482 293 522
f 512 522 293
f 305 294 295
f 295 294 479
f 305 322 294
f 322 422 294
f 294 422 479
f 338 305 295
f 295 479 556
f 296 336 325
f 441 296 325
f 344 359 297
f 344 297 442
f 297 476 442
f 298 401 341
f 298 346 401
f 299 318 519
f 559 299 519
f 300 344 347
f 344 300 405
f 300 366 405
f 334 301 310
f 310 348 301
f 310 301 447
f 334 407 301
f 301 348 447
f 330 302 446
f 337 388 302
f 341 302 388
f 341 446 302
f 308 303 335
f 516 308 303
f 308 562 303
f 516 303 562
f 304 305 338
f 311 304 338
f 396 322 305
f 396 305 416
f 318 512 306
f 519 318 306
f 519 306 438
f 440 307 313
f 313 307 505
f 440 445 307
f 515 307 445
f 505 307 515
f 317 309 404
f 404 309 358
f 310 323 355
f 310 355 348
f 368 310 348
f 310 447 348
f 368 429 310
f 320 311 548
f 523 312 566
f 421 440 313
f 503 352 314
f 503 314 532
f 316 368 327
f 316 350 368
f 350 316 426
f 522 512 318
f 382 320 540
f 320 548 540
f 373 333 321
f 384 322 396
f 323 332 377
f 323 377 355
f 325 336 406
f 325 372 359
f 325 359 441
f 340 326 383
f 389 326 340
f 369 383 326
f 389 369 326
f 368 348 327
f 436 327 348
f 363 554 328
f 328 535 373
f 554 535 328
f 329 341 532
f 567 329 532
f 330 446 375
f 331 436 345
f 331 345 482
f 482 522 331
f 332 339 389
f 340 377 332
f 340 332 389
f 373 423 333
f 334 362 407
f 362 334 429
f 336 361 393
f 336 393 406
f 394 388 337
f 337 533 394
f 369 339 383
f 389 339 369
f 377 340 355
f 377 340 383
f 388 532 341
f 401 446 341
f 342 419 353
f 434 342 353
f 342 382 471
f 342 455 419
f 342 461 455
f 342 471 461
f 414 343 431
f 466 422 343
f 466 343 439
f 344 442 347
f 359 344 405
f 348 436 345
f 447 345 348
f 436 482 345
f 346 375 401
f 346 427 375
f 346 409 427
f 487 360 347
f 442 410 347
f 410 453 347
f 347 453 487
f 348 355 436
f 416 349 396
f 396 349 443
f 368 350 415
f 426 415 350
f 351 431 365
f 433 351 365
f 351 414 431
f 504 414 351
f 418 351 433
f 504 351 418
f 413 411 352
f 413 352 430
f 430 352 503
f 419 424 353
f 434 353 424
f 354 408 367
f 488 354 367
f 420 408 354
f 420 354 488
f 377 408 355
f 420 355 408
f 355 420 436
f 356 399 444
f 356 444 421
f 357 530 456
f 357 495 530
f 404 358 424
f 359 405 400
f 359 400 441
f 435 379 360
f 459 360 395
f 459 435 360
f 459 360 487
f 361 402 374
f 362 429 376
f 363 404 424
f 363 424 419
f 419 499 363
f 363 499 542
f 363 542 554
f 364 380 449
f 443 365 384
f 433 365 443
f 367 377 383
f 367 408 377
f 383 390 367
f 367 390 501
f 493 488 367
f 367 501 493
f 429 368 415
f 381 370 421
f 421 370 440
f 565 440 370
f 480 565 370
f 442 371 410
f 371 453 410
f 371 410 464
f 501 410 371
f 371 442 470
f 371 501 453
f 464 497 371
f 371 470 501
f 497 501 371
f 423 373 498
f 535 498 373
f 374 402 448
f 438 374 425
f 374 448 425
f 401 375 446
f 426 376 415
f 429 415 376
f 437 376 426
f 437 467 376
f 467 502 376
f 378 403 413
f 378 459 403
f 378 411 413
f 459 378 413
f 380 475 449
f 380 491 475
f 444 381 421
f 382 540 471
f 383 397 390
f 391 397 383
f 396 443 384
f 386 390 397
f 403 390 386
f 386 397 391
f 411 386 391
f 411 403 386
f 452 387 398
f 428 387 425
f 473 425 387
f 484 387 452
f 473 387 484
f 454 388 394
f 454 503 388
f 388 503 532
f 464 403 390
f 390 403 501
f 464 390 497
f 497 390 501
f 458 439 392
f 458 392 445
f 515 445 392
f 557 515 392
f 406 393 451
f 393 482 451
f 394 412 454
f 394 463 412
f 394 533 463
f 411 413 403
f 453 403 459
f 403 453 464
f 501 403 453
f 406 451 476
f 410 453 464
f 501 410 453
f 412 463 454
f 459 413 430
f 557 414 504
f 469 417 432
f 417 457 452
f 457 417 469
f 499 419 455
f 482 436 420
f 420 488 482
f 422 466 474
f 422 474 479
f 428 425 448
f 438 425 473
f 437 426 467
f 454 465 430
f 430 503 454
f 459 430 465
f 449 469 432
f 465 435 459
f 463 435 465
f 435 463 566
f 519 438 473
f 466 439 458
f 521 445 440
f 565 521 440
f 476 470 442
f 521 458 445
f 449 475 469
f 534 450 477
f 450 534 524
f 476 451 493
f 451 482 488
f 451 488 493
f 472 452 457
f 472 484 452
f 453 459 487
f 454 463 465
f 460 455 461
f 460 536 455
f 455 539 499
f 455 536 539
f 469 494 457
f 472 457 478
f 478 457 494
f 513 466 458
f 513 458 521
f 526 460 461
f 460 526 570
f 564 536 460
f 460 570 564
f 461 471 517
f 461 517 526
f 481 491 462
f 553 481 462
f 533 527 463
f 566 463 527
f 466 506 474
f 466 513 506
f 467 492 502
f 467 550 492
f 467 514 550
f 559 514 467
f 490 468 477
f 509 477 468
f 490 500 468
f 544 500 468
f 468 500 545
f 468 545 509
f 475 489 469
f 469 489 494
f 470 476 493
f 470 493 501
f 471 500 517
f 471 540 500
f 472 478 572
f 485 484 472
f 559 485 472
f 559 472 514
f 563 514 472
f 472 572 563
f 485 473 484
f 559 473 485
f 559 519 473
f 474 506 479
f 475 481 489
f 481 475 491
f 490 483 477
f 534 477 483
f 555 490 477
f 555 477 509
f 528 478 494
f 528 572 478
f 556 479 486
f 568 486 479
f 479 506 568
f 480 538 565
f 508 489 481
f 553 508 481
f 483 490 555
f 534 483 560
f 555 560 483
f 490 486 496
f 486 490 548
f 555 496 486
f 556 486 548
f 560 555 486
f 568 560 486
f 494 489 518
f 508 518 489
f 496 555 490
f 490 500 540
f 545 500 490
f 490 540 548
f 555 545 490
f 494 518 528
f 495 547 530
f 542 547 495
f 542 495 554
f 547 499 539
f 547 542 499
f 517 500 544
f 504 531 557
f 505 515 557
f 505 531 541
f 557 531 505
f 513 538 506
f 538 549 506
f 506 549 568
f 550 525 507
f 569 507 525
f 508 510 537
f 508 553 510
f 537 518 508
f 555 509 545
f 547 539 511
f 539 552 511
f 543 547 511
f 552 543 511
f 538 513 521
f 525 550 514
f 525 514 563
f 516 520 562
f 526 517 544
f 546 528 518
f 537 546 518
f 538 521 565
f 529 523 566
f 568 524 534
f 568 549 524
f 569 525 563
f 526 544 570
f 566 527 533
f 546 558 528
f 572 528 558
f 561 529 533
f 566 533 529
f 546 530 571
f 571 530 547
f 560 568 534
f 564 539 536
f 564 552 539
f 571 547 543
f 569 543 552
f 569 558 543
f 558 571 543
f 558 546 571
f 563 558 569
f 563 572 558
