# Humanoid-Face-3D Facial Hair Cards Mesh
# Cards: 100, Vertices: 600, Triangles: 400
v -0.500774 0.035260 -0.608917
v 0.445548 -0.213203 0.662273
v 1.803898 -3.166063 -2.849111
v 2.655587 -3.389679 -1.705040
v 4.773266 -5.659899 -5.142212
v 5.246427 -5.784130 -4.506618
v -0.766003 0.299010 0.234189
v 0.763632 -0.412687 -0.114057
v -2.839187 -3.486048 -1.562754
v -1.462515 -4.126575 -1.876176
v -4.621381 -6.848575 -4.223287
v -3.856564 -7.204423 -4.397410
v -0.628484 0.136354 -0.255481
v 0.611312 -0.225740 0.375291
v -2.597779 -3.369385 1.766522
v -1.481963 -3.695269 2.334216
v -4.107179 -7.357673 3.098905
v -3.487281 -7.538720 3.414290
v 0.882209 0.065916 0.054657
v -0.878891 -0.180135 0.036167
v 1.412125 -4.175138 -2.532668
v -0.172865 -4.396584 -2.549308
v 1.723306 -8.850199 -4.165431
v 0.842757 -8.973225 -4.174675
v 0.171225 0.057195 0.822180
v -0.219009 -0.147506 -0.735575
v -3.009497 -4.082177 2.078809
v -3.360708 -4.266408 0.676829
v -7.002039 -7.434251 3.182989
v -7.197156 -7.536602 2.404111
v 0.146174 0.044025 0.722475
v -0.194390 -0.134620 -0.637002
v -2.544586 -3.457306 1.783227
v -2.851094 -3.618087 0.559698
v -5.923555 -6.293572 2.708748
v -6.093837 -6.382895 2.029010
v -0.544319 -0.116852 0.730748
v 0.584242 0.028143 -0.629175
v 1.865562 -4.577576 2.139439
v 2.881267 -4.447080 0.915508
v 3.693248 -9.442642 2.675080
v 4.257529 -9.370144 1.995118
v -0.648688 0.117951 -0.310714
v 0.583547 -0.240576 0.399219
v -1.708057 -4.434930 -0.619749
v -0.599046 -4.757605 0.019192
v -2.079910 -8.953875 -1.650501
v -1.463793 -9.133139 -1.295534
v 0.752613 0.047883 0.053327
v -0.747868 -0.161756 0.037574
v 1.350732 -4.568888 -2.764772
v 0.000299 -4.757563 -2.778949
v 1.773265 -9.649656 -4.542428
v 1.023024 -9.754476 -4.550305
v -0.674814 0.070711 -0.569073
v 0.636827 -0.176634 0.677665
v -1.367197 -4.484324 -0.610551
v -0.186720 -4.706935 0.511514
v -1.199752 -9.027464 -1.152897
v -0.543932 -9.151137 -0.529528
v 0.608764 0.102036 -0.382520
v -0.590560 -0.189427 0.477687
v 3.355249 -2.231332 2.787646
v 2.275858 -2.493649 3.561833
v 5.983253 -3.695413 6.481825
v 5.383591 -3.841144 6.911928
v -0.789511 0.067728 0.095370
v 0.793436 -0.164914 0.030010
v -1.320516 -4.569355 1.778696
v 0.104137 -4.778733 1.719871
v -1.684382 -9.436148 2.442962
v -0.892908 -9.552469 2.410282
v -0.521286 0.015598 0.509526
v 0.547819 -0.215397 -0.480046
v -3.581051 -3.604141 -2.061129
v -2.618857 -3.812036 -2.951744
v -6.800618 -6.343094 -5.339810
v -6.266066 -6.458591 -5.834596
v -0.656177 0.127728 -0.257366
v 0.625694 -0.252959 0.367943
v -2.307764 -5.108840 0.114588
v -1.154080 -5.451458 0.677366
v -3.278345 -10.451796 -0.451544
v -2.637409 -10.642139 -0.138889
v -0.820104 0.261941 -0.029659
v 0.766745 -0.354913 0.125080
v -2.340347 -3.894545 -0.064699
v -0.912183 -4.449713 0.074566
v -3.493419 -8.038041 -0.980257
v -2.699995 -8.346468 -0.902888
v 0.359667 -0.039673 0.751501
v -0.408409 -0.056510 -0.671531
v 1.638103 -4.814755 0.026075
v 0.946835 -4.829908 -1.254654
v 1.899342 -9.747087 -0.424131
v 1.515304 -9.755506 -1.135647
v -0.382828 -0.387886 0.519971
v 0.467896 0.230621 -0.477452
v -1.710492 -3.418318 -2.596936
v -0.944840 -2.861662 -3.494617
v -3.569749 -5.698335 -6.017900
v -3.144387 -5.389082 -6.516611
v -0.604768 -0.324600 -0.061567
v 0.619587 0.236131 0.178967
v 1.540088 -3.373685 -3.482215
v 2.642008 -2.869027 -3.265734
v 3.626549 -5.537629 -7.502077
v 4.238726 -5.257264 -7.381810
v -0.446769 -0.110983 0.593901
v 0.491625 0.019535 -0.495429
v 1.810139 -4.382775 1.930604
v 2.654694 -4.265309 0.950207
v 3.502556 -9.031379 2.448882
v 3.971753 -8.966120 1.904217
v -0.416110 -0.257938 0.563382
v 0.474722 0.087635 -0.495156
v -2.662812 -4.017888 -2.650902
v -1.861064 -3.706872 -3.603587
v -5.438501 -6.854722 -6.297160
v -4.993086 -6.681936 -6.826429
v 0.804620 0.186008 -0.307567
v -0.762714 -0.296541 0.387422
v 0.791469 -4.353641 -3.260981
v -0.619131 -4.787934 -2.635490
v 1.069343 -9.361379 -5.198383
v 0.285676 -9.602653 -4.850888
v 0.742353 -0.022740 -0.284301
v -0.736940 -0.067032 0.390401
v 2.803474 -1.465121 4.336093
v 1.472111 -1.504984 4.943326
v 4.673970 -1.831131 9.197345
v 3.934324 -1.853277 9.534696
v -0.749668 -0.279794 0.475747
v 0.775840 0.143842 -0.360813
v 0.902153 -4.052449 1.385796
v 2.275110 -3.671176 0.632892
v 2.416499 -7.962401 1.400686
v 3.179253 -7.750583 0.982406
v -0.631894 0.090450 -0.388929
v 0.581665 -0.215281 0.487101
v -1.582024 -4.380188 -0.499757
v -0.489821 -4.655345 0.288669
v -1.787889 -8.853250 -1.242880
v -1.181109 -9.006115 -0.804865
v -0.793103 0.293431 0.163709
v 0.781707 -0.403378 -0.042122
v -2.950080 -4.244493 -1.707538
v -1.532751 -4.871621 -1.892786
v -4.758163 -8.346672 -4.576580
v -3.970758 -8.695077 -4.679496
v 0.591658 0.027042 -0.642340
v -0.546815 -0.118854 0.732930
v -1.666444 -3.010706 -2.717238
v -2.691070 -3.142013 -1.479494
v -3.513808 -6.603872 -4.161061
v -4.083045 -6.676820 -3.473426
v -0.341994 -0.094242 -0.725892
v 0.298252 0.005803 0.822454
v -3.753558 -1.994973 0.898594
v -3.177336 -1.904932 2.292105
v -6.583009 -4.595591 2.600530
v -6.262886 -4.545568 3.374703
v -0.836373 -0.164581 0.082249
v 0.840807 0.055856 0.040903
v -0.202397 -4.667699 -1.671839
v 1.307065 -4.469306 -1.709051
v 0.596678 -8.644793 -4.311804
v 1.435269 -8.534574 -4.332477
v -0.521796 -0.145930 0.553491
v 0.546813 0.060250 -0.440433
v 2.110348 -4.090383 2.455903
v 3.072096 -3.904822 1.561372
v 4.331695 -8.529906 3.486113
v 4.865999 -8.426817 2.989151
v -0.724594 -0.272387 0.455156
v 0.782045 0.161473 -0.361123
v 0.772744 -5.063315 0.481045
v 2.128719 -4.672842 -0.253606
v 1.999191 -9.787447 -0.531719
v 2.752511 -9.570518 -0.939859
v 0.533076 0.026229 -0.529571
v -0.485947 -0.126338 0.610235
v -0.680714 -3.731076 -2.014105
v -1.597835 -3.868386 -0.988279
v -1.408820 -7.782883 -2.793151
v -1.918332 -7.859167 -2.223248
v 0.151978 0.056947 0.786925
v -0.201294 -0.147732 -0.706975
v -0.643846 -5.304492 1.629415
v -0.961790 -5.488704 0.284905
v -2.553728 -10.334647 2.449142
v -2.730364 -10.436987 1.702192
v -0.728479 -0.324664 0.210084
v 0.749301 0.212567 -0.092574
v 0.757132 -5.074935 -1.391700
v 2.087133 -4.591427 -1.664093
v 2.126145 -9.351521 -3.992740
v 2.865035 -9.082905 -4.144069
v -0.795011 0.241620 -0.085587
v 0.782732 -0.338535 0.209770
v -2.357506 -3.661544 1.087325
v -0.937538 -4.183684 1.353146
v -3.575935 -7.810593 1.418759
v -2.787064 -8.100671 1.566437
v -0.562329 -0.242642 0.413417
v 0.627483 0.112288 -0.325795
v 0.590709 -5.083292 -0.196150
v 1.661540 -4.763854 -0.861441
v 1.349203 -9.739090 -1.775715
v 1.944109 -9.561625 -2.145321
v -0.164890 -0.013877 0.762487
v 0.211126 -0.173342 -0.719954
v -4.305487 -3.396862 -0.003602
v -3.967072 -3.540381 -1.337798
v -8.915062 -5.841474 -1.228831
v -8.727055 -5.921207 -1.970051
v -0.695071 -0.245079 0.572017
v 0.751609 0.116956 -0.478222
v 0.451802 -4.801123 0.422874
v 1.753814 -4.475292 -0.522341
v 1.237717 -9.273276 -0.669732
v 1.961058 -9.092259 -1.194851
v 0.754157 -0.182918 -0.061941
v -0.753349 0.075165 0.155707
v -0.295490 -3.922056 -2.350102
v -1.652246 -3.689781 -2.154219
v -1.511565 -7.995846 -3.749397
v -2.265318 -7.866804 -3.640573
v -0.767165 0.207763 -0.169229
v 0.716201 -0.301039 0.265209
v -2.100388 -3.909268 -0.133999
v -0.765359 -4.367190 0.256994
v -2.944271 -8.056268 -0.890415
v -2.202588 -8.310669 -0.673197
v 0.546206 -0.346919 -0.266441
v -0.552884 0.255817 0.371808
v -2.469383 -1.958053 -3.782910
v -3.458564 -1.415591 -3.208486
v -5.717948 -4.273534 -6.570402
v -6.267494 -3.972166 -6.251277
v -0.726593 -0.320993 0.235959
v 0.751679 0.203319 -0.121869
v 0.510065 -4.284557 -0.824432
v 1.840510 -3.812677 -1.146477
v 1.680612 -7.902941 -2.737144
v 2.419748 -7.640785 -2.916058
v -0.813963 0.275182 0.032027
v 0.757886 -0.364126 0.064245
v -2.426424 -4.024951 -2.157467
v -1.011760 -4.600328 -2.128470
v -3.564860 -7.879313 -5.217305
v -2.778935 -8.198967 -5.201196
v 0.550025 0.013613 -0.635965
v -0.522659 -0.104352 0.740235
v 4.443806 -1.851729 2.350285
v 3.478391 -1.957897 3.588865
v 8.315177 -2.672002 5.742010
v 7.778835 -2.730984 6.430110
v -0.744581 0.171339 -0.255513
v 0.670268 -0.280489 0.341466
v -1.818261 -4.467229 -1.006999
v -0.544897 -4.873874 -0.469718
v -2.245604 -8.977188 -2.549150
v -1.538179 -9.203102 -2.250660
v 0.788946 -0.346967 0.205498
v -0.819170 0.238803 -0.119050
v -0.086308 -4.243584 -2.958107
v -1.533612 -3.716390 -3.250200
v -1.545878 -8.497706 -5.274202
v -2.349936 -8.204822 -5.436475
v -0.673629 0.222391 0.045886
v 0.625699 -0.312476 0.045886
v -2.349303 -4.032804 0.731792
v -1.179907 -4.514185 0.731792
v -3.830077 -8.368230 0.457430
v -3.180413 -8.635664 0.457430
v -0.673101 0.015975 0.448805
v 0.675474 -0.221580 -0.417701
v -2.976914 -2.938234 -2.478323
v -1.763196 -3.152033 -3.258179
v -5.241696 -5.084123 -6.020879
v -4.567409 -5.202900 -6.454133
v -0.652505 -0.065169 0.188720
v 0.671936 -0.161730 -0.178994
v -1.243174 -3.911249 -1.186965
v -0.051176 -3.998154 -1.517908
v -1.805934 -7.349533 -3.343737
v -1.143713 -7.397813 -3.527594
v -0.640610 -0.234860 0.462832
v 0.693347 0.122960 -0.365903
v 0.508416 -4.342947 0.382081
v 1.708977 -4.020909 -0.363781
v 1.386395 -8.377938 -0.572957
v 2.053373 -8.199028 -0.987324
v -0.623827 0.113018 -0.278150
v 0.568381 -0.229549 0.372999
v -1.958690 -4.684965 -0.207604
v -0.885702 -4.993276 0.378430
v -2.617303 -9.526803 -0.946162
v -2.021199 -9.698087 -0.620588
v -0.822627 0.073243 0.096612
v 0.824260 -0.168796 0.028612
v -1.338219 -4.471705 1.746039
v 0.143980 -4.689540 1.684839
v -1.675673 -9.243873 2.396216
v -0.852230 -9.364892 2.362216
v -0.709812 0.197541 -0.075149
v 0.690428 -0.316332 0.190453
v -2.016617 -4.261975 -1.381691
v -0.756401 -4.724461 -1.142649
v -2.819388 -8.461026 -3.545269
v -2.119268 -8.717962 -3.412468
v -0.498263 -0.147078 0.525536
v 0.522707 0.053815 -0.407585
v 1.378160 -4.345408 1.570078
v 2.297033 -4.164605 0.730269
v 2.806666 -8.797957 1.755782
v 3.317151 -8.697511 1.289222
v -0.736765 -0.212627 -0.384936
v 0.737488 0.008832 0.419674
v 1.703136 -3.441490 -3.788420
v 3.029964 -3.242177 -3.064271
v 4.514867 -5.691014 -7.607725
v 5.251994 -5.580285 -7.205420
v 0.735744 0.046602 0.053595
v -0.730056 -0.158192 0.038207
v 1.195402 -3.610582 -2.177728
v -0.123817 -3.794896 -2.191578
v 1.474370 -7.640950 -3.585737
v 0.741471 -7.743346 -3.593432
v -0.661014 -0.305026 0.166324
v 0.721879 0.208020 -0.073527
v 1.101960 -5.007123 -0.192412
v 2.346564 -4.545382 -0.408277
v 2.839893 -9.476551 -1.594423
v 3.531339 -9.220028 -1.714348
v -0.700493 -0.248005 0.432030
v 0.717998 0.160753 -0.313141
v 1.609394 -3.956034 2.611583
v 2.886035 -3.588152 1.940928
v 3.830551 -8.085650 3.840536
v 4.539796 -7.881271 3.467950
v -0.493532 -0.020627 -0.672739
v 0.448161 -0.069546 0.770242
v -3.835499 -2.275684 1.534747
v -2.987976 -2.319711 2.833429
v -6.556973 -5.290925 3.620404
v -6.086127 -5.315384 4.341894
v -0.556979 -0.226064 0.364340
v 0.618882 0.112543 -0.272727
v 0.677374 -4.187684 0.387630
v 1.735648 -3.882937 -0.185731
v 1.677333 -8.097092 -0.442064
v 2.265263 -7.927788 -0.760598
v 0.289164 0.066207 0.644182
v -0.272939 -0.265758 -0.602163
v -3.774299 -1.262995 2.751429
v -4.280192 -1.561763 1.629718
v -8.141701 -1.689370 4.517042
v -8.422752 -1.855352 3.893869
v -0.634021 -0.219705 -0.416099
v 0.628085 0.025638 0.481843
v 1.917288 -2.151442 -3.337348
v 3.053183 -1.930633 -2.529201
v 4.714561 -3.203625 -6.433793
v 5.345613 -3.080953 -5.984822
v -0.648628 0.174975 -0.067507
v 0.627638 -0.291429 0.183165
v -1.977260 -4.429152 -1.488616
v -0.828621 -4.848916 -1.263012
v -2.801492 -8.742038 -3.793473
v -2.163359 -8.975240 -3.668137
v 0.556285 0.081805 0.699399
v -0.529544 -0.278318 -0.652686
v -2.999447 -1.036987 3.736915
v -3.976694 -1.361098 2.520038
v -6.912446 -1.235925 6.468342
v -7.455361 -1.415987 5.792299
v -0.472114 -0.204120 -0.641337
v 0.447452 0.021804 0.732267
v 2.640387 -2.495529 -2.246818
v 3.467996 -2.292198 -1.010575
v 6.139163 -3.974066 -3.940635
v 6.598946 -3.861104 -3.253833
v 0.515757 -0.132743 0.646104
v -0.566433 0.029540 -0.570354
v 0.942196 -5.420785 -0.548768
v -0.031775 -5.274730 -1.643580
v 0.359734 -10.748746 -1.181551
v -0.181360 -10.667604 -1.789780
v 0.541499 0.023810 -0.569223
v -0.500247 -0.114792 0.666132
v 3.824748 -2.169534 2.059846
v 2.887177 -2.294276 3.171666
v 7.145949 -3.455893 5.142087
v 6.625077 -3.525194 5.759765
v -0.856483 0.265958 -0.081810
v 0.806145 -0.357578 0.177700
v -2.830231 -4.501500 1.729083
v -1.333866 -5.062684 1.962642
v -4.478853 -9.619774 2.475519
v -3.647539 -9.931542 2.605274
v -0.331511 -0.064266 0.620067
v 0.374284 -0.117051 -0.551486
v -3.007268 -2.941626 -0.942242
v -2.372054 -2.989132 -1.996639
v -5.987076 -5.102516 -2.959874
v -5.634179 -5.128909 -3.545651
v -0.585466 -0.211402 0.477817
v 0.627974 0.091367 -0.373881
v 0.554176 -4.238799 0.535399
v 1.646273 -3.966306 -0.231130
v 1.379380 -8.237473 -0.248023
v 1.986100 -8.086088 -0.673872
v -0.649400 0.123522 -0.302678
v 0.614774 -0.228548 0.414122
v -1.652899 -5.002540 -0.894673
v -0.515142 -5.319403 -0.249553
v -1.900606 -10.020042 -2.298398
v -1.268519 -10.196077 -1.939998
v -0.822168 0.223801 -0.184806
v 0.798980 -0.328614 0.304423
v -2.106703 -4.532608 -0.974740
v -0.647671 -5.029781 -0.534434
v -2.787371 -9.151001 -2.637116
v -1.976797 -9.427209 -2.392501
v 0.648450 -0.310024 0.094073
v -0.692745 0.219656 -0.001600
v 0.054069 -2.333767 -3.869272
v -1.153007 -1.857055 -3.955377
v -1.051102 -4.962240 -7.294543
v -1.721700 -4.697400 -7.342380
v -0.759856 -0.140590 0.181412
v 0.771300 0.011816 -0.063279
v 0.087877 -5.357404 1.740769
v 1.465917 -5.220239 1.520547
v 1.004587 -10.732482 2.145051
v 1.770165 -10.656279 2.022705
v -0.703163 0.044174 0.557209
v 0.709863 -0.250751 -0.529425
v -3.204231 -2.719188 -2.095302
v -1.932508 -2.984621 -3.073272
v -5.666524 -4.707130 -5.358470
v -4.960011 -4.854592 -5.901787
v -0.615761 0.053325 -0.556077
v 0.579838 -0.151681 0.666388
v -1.755369 -4.969346 -0.162499
v -0.679329 -5.153851 0.937719
v -1.956077 -10.090606 -0.339794
v -1.358277 -10.193108 0.271438
v 0.801435 -0.357982 0.171918
v -0.826119 0.252341 -0.082186
v -0.234037 -4.067327 -2.712384
v -1.698835 -3.518036 -2.941077
v -1.800252 -8.087974 -4.766635
v -2.614029 -7.782812 -4.893688
v -0.632519 0.160893 -0.127173
v 0.610020 -0.262509 0.247799
v -1.841426 -4.261626 -0.866429
v -0.723141 -4.642688 -0.528953
v -2.528233 -8.542072 -2.429771
v -1.906963 -8.753773 -2.242285
v -0.767977 -0.293441 0.453305
v 0.798999 0.164595 -0.342153
v 0.788726 -4.542134 0.866099
v 2.199004 -4.129901 0.150187
v 2.174101 -8.803720 0.312072
v 2.957589 -8.574702 -0.085657
v -0.571117 0.141182 -0.494535
v 0.510822 -0.312161 0.556803
v 1.073063 -3.407968 -3.598976
v 2.046808 -3.815977 -2.652772
v 3.500528 -6.253192 -6.851926
v 4.041498 -6.479864 -6.326257
v 0.812316 0.245656 -0.075000
v -0.782989 -0.355539 0.161412
v 1.722131 -3.635605 -3.179097
v 0.286357 -4.176681 -2.966327
v 2.694343 -8.053642 -5.347622
v 1.896690 -8.354239 -5.229416
v -0.649005 0.085423 -0.408298
v 0.615667 -0.220681 0.518169
v -2.142109 -3.749929 0.500360
v -1.003905 -4.025423 1.334181
v -2.976454 -7.839131 0.838998
v -2.344118 -7.992183 1.302232
v -0.813945 -0.351889 0.248557
v 0.829616 0.235449 -0.130765
v 0.600203 -4.726573 -0.818313
v 2.079408 -4.197969 -1.159703
v 1.956986 -8.737536 -2.832074
v 2.778767 -8.443867 -3.021735
v -0.805351 -0.025640 0.305944
v 0.809269 -0.185025 -0.281452
v -1.803126 -3.685217 -1.697162
v -0.349967 -3.828664 -2.225818
v -2.743338 -6.801495 -4.449794
v -1.936028 -6.881188 -4.743492
v -0.771340 -0.339078 0.219344
v 0.794297 0.230093 -0.101308
v 0.442126 -4.151977 -1.072537
v 1.851200 -3.639722 -1.361123
v 1.618435 -7.563401 -3.179524
v 2.401254 -7.278816 -3.339850
v -0.577445 0.001152 0.390867
v 0.586860 -0.203943 -0.357240
v -3.063444 -3.166066 -2.740704
v -2.015569 -3.350651 -3.414000
v -5.549962 -5.458531 -6.505354
v -4.967809 -5.561078 -6.879407
v 0.320488 0.082939 0.702750
v -0.293931 -0.279923 -0.659594
v -3.623704 -1.208161 2.738665
v -4.176681 -1.534736 1.512555
v -7.873048 -1.629842 4.420219
v -8.180257 -1.811273 3.739047
v 0.693438 -0.412637 -0.287080
v -0.705522 0.323772 0.394531
v -2.405255 -2.243637 -4.451308
v -3.664319 -1.580869 -3.837858
v -5.837426 -4.853552 -7.806170
v -6.536906 -4.485348 -7.465365
v -0.802626 -0.167636 0.066533
v 0.810699 0.050225 0.051857
v -0.044278 -5.235795 -0.834152
v 1.407714 -5.039721 -0.847360
v 0.901054 -9.932899 -2.761643
v 1.707716 -9.823969 -2.768981
v 0.356399 -0.290555 -0.667560
v -0.362206 0.088852 0.706609
v 3.949615 -0.959324 1.488848
v 3.302872 -0.617858 2.725601
v 7.546719 -0.715427 3.673509
v 7.187417 -0.525724 4.360594
v -0.697009 -0.128973 0.134646
v 0.703783 0.029473 -0.009084
v -0.053715 -4.049050 1.384211
v 1.206998 -3.906449 1.254853
v 0.729071 -8.091445 1.762853
v 1.429467 -8.012221 1.690988
v -0.744044 -0.327188 0.240181
v 0.762914 0.207298 -0.124590
v 0.731008 -5.103332 -1.033011
v 2.087270 -4.622295 -1.361305
v 2.085588 -9.478452 -3.322324
v 2.839067 -9.211208 -3.504709
v -0.767285 0.143272 -0.379028
v 0.729057 -0.270712 0.485291
v -1.846098 -4.220417 -0.418770
v -0.499389 -4.593002 0.359117
v -2.227090 -8.613309 -1.132623
v -1.478919 -8.820301 -0.700463
v 0.827606 -0.362518 0.216392
v -0.856772 0.248999 -0.132209
v 0.128776 -3.480494 -2.354540
v -1.387164 -2.930130 -2.668281
v -1.102932 -6.869525 -4.260170
v -1.945121 -6.563767 -4.434471
v -0.687763 -0.213666 0.618042
v 0.726009 0.103892 -0.510492
v 0.312707 -4.947650 0.389837
v 1.585102 -4.661849 -0.625844
v 0.891079 -9.577851 -0.786298
v 1.597965 -9.419073 -1.350565
v -0.743937 0.197153 -0.161195
v 0.722394 -0.302507 0.281313
v -2.170458 -5.021482 -1.033525
v -0.850760 -5.471177 -0.635267
v -2.980875 -10.072475 -2.878284
v -2.247710 -10.322306 -2.657029
v -0.723535 0.138263 -0.361080
v 0.670316 -0.245188 0.457347
v -2.093744 -4.381324 0.023574
v -0.839278 -4.726430 0.760158
v -2.771446 -9.024712 -0.323383
v -2.074521 -9.216437 0.085830
v 0.621783 0.115277 -0.353134
v -0.602140 -0.200969 0.444748
v 2.839124 -2.220188 2.262544
v 1.737594 -2.504810 2.980638
v 4.945051 -3.848724 5.407614
v 4.333089 -4.006847 5.806555
v -0.731971 -0.297181 0.292250
v 0.771632 0.208961 -0.188215
v -0.383708 -3.930722 -2.731556
v 0.969534 -3.475194 -3.163974
v -0.224236 -6.833045 -6.433754
v 0.527565 -6.579974 -6.673987
v -0.684511 -0.313569 0.144800
v 0.734120 0.225596 -0.046234
v 0.366125 -3.900449 -2.788919
v 1.642892 -3.415201 -2.960850
v 1.294989 -6.763263 -6.420489
v 2.004304 -6.493681 -6.516006
v 0.839504 0.320637 0.157348
v -0.825986 -0.415413 -0.056336
v 2.756959 -3.143346 -3.642211
v 1.258018 -3.805790 -3.834526
v 4.593324 -7.366942 -6.552717
v 3.760579 -7.734967 -6.659559
vt 0.000000 0.000000
vt 1.000000 0.000000
vt 0.000000 0.500000
vt 1.000000 0.500000
vt 0.000000 1.000000
vt 1.000000 1.000000
vt 0.000000 0.000000
vt 1.000000 0.000000
vt 0.000000 0.500000
vt 1.000000 0.500000
vt 0.000000 1.000000
vt 1.000000 1.000000
vt 0.000000 0.000000
vt 1.000000 0.000000
vt 0.000000 0.500000
vt 1.000000 0.500000
vt 0.000000 1.000000
vt 1.000000 1.000000
vt 0.000000 0.000000
vt 1.000000 0.000000
vt 0.000000 0.500000
vt 1.000000 0.500000
vt 0.000000 1.000000
vt 1.000000 1.000000
vt 0.000000 0.000000
vt 1.000000 0.000000
vt 0.000000 0.500000
vt 1.000000 0.500000
vt 0.000000 1.000000
vt 1.000000 1.000000
vt 0.000000 0.000000
vt 1.000000 0.000000
vt 0.000000 0.500000
vt 1.000000 0.500000
vt 0.000000 1.000000
vt 1.000000 1.000000
vt 0.000000 0.000000
vt 1.000000 0.000000
vt 0.000000 0.500000
vt 1.000000 0.500000
vt 0.000000 1.000000
vt 1.000000 1.000000
vt 0.000000 0.000000
vt 1.000000 0.000000
vt 0.000000 0.500000
vt 1.000000 0.500000
vt 0.000000 1.000000
vt 1.000000 1.000000
vt 0.000000 0.000000
vt 1.000000 0.000000
vt 0.000000 0.500000
vt 1.000000 0.500000
vt 0.000000 1.000000
vt 1.000000 1.000000
vt 0.000000 0.000000
vt 1.000000 0.000000
vt 0.000000 0.500000
vt 1.000000 0.500000
vt 0.000000 1.000000
vt 1.000000 1.000000
vt 0.000000 0.000000
vt 1.000000 0.000000
vt 0.000000 0.500000
vt 1.000000 0.500000
vt 0.000000 1.000000
vt 1.000000 1.000000
vt 0.000000 0.000000
vt 1.000000 0.000000
vt 0.000000 0.500000
vt 1.000000 0.500000
vt 0.000000 1.000000
vt 1.000000 1.000000
vt 0.000000 0.000000
vt 1.000000 0.000000
vt 0.000000 0.500000
vt 1.000000 0.500000
vt 0.000000 1.000000
vt 1.000000 1.000000
vt 0.000000 0.000000
vt 1.000000 0.000000
vt 0.000000 0.500000
vt 1.000000 0.500000
vt 0.000000 1.000000
vt 1.000000 1.000000
vt 0.000000 0.000000
vt 1.000000 0.000000
vt 0.000000 0.500000
vt 1.000000 0.500000
vt 0.000000 1.000000
vt 1.000000 1.000000
vt 0.000000 0.000000
vt 1.000000 0.000000
vt 0.000000 0.500000
vt 1.000000 0.500000
vt 0.000000 1.000000
vt 1.000000 1.000000
vt 0.000000 0.000000
vt 1.000000 0.000000
vt 0.000000 0.500000
vt 1.000000 0.500000
vt 0.000000 1.000000
vt 1.000000 1.000000
vt 0.000000 0.000000
vt 1.000000 0.000000
vt 0.000000 0.500000
vt 1.000000 0.500000
vt 0.000000 1.000000
vt 1.000000 1.000000
vt 0.000000 0.000000
vt 1.000000 0.000000
vt 0.000000 0.500000
vt 1.000000 0.500000
vt 0.000000 1.000000
vt 1.000000 1.000000
vt 0.000000 0.000000
vt 1.000000 0.000000
vt 0.000000 0.500000
vt 1.000000 0.500000
vt 0.000000 1.000000
vt 1.000000 1.000000
vt 0.000000 0.000000
vt 1.000000 0.000000
vt 0.000000 0.500000
vt 1.000000 0.500000
vt 0.000000 1.000000
vt 1.000000 1.000000
vt 0.000000 0.000000
vt 1.000000 0.000000
vt 0.000000 0.500000
vt 1.000000 0.500000
vt 0.000000 1.000000
vt 1.000000 1.000000
vt 0.000000 0.000000
vt 1.000000 0.000000
vt 0.000000 0.500000
vt 1.000000 0.500000
vt 0.000000 1.000000
vt 1.000000 1.000000
vt 0.000000 0.000000
vt 1.000000 0.000000
vt 0.000000 0.500000
vt 1.000000 0.500000
vt 0.000000 1.000000
vt 1.000000 1.000000
vt 0.000000 0.000000
vt 1.000000 0.000000
vt 0.000000 0.500000
vt 1.000000 0.500000
vt 0.000000 1.000000
vt 1.000000 1.000000
vt 0.000000 0.000000
vt 1.000000 0.000000
vt 0.000000 0.500000
vt 1.000000 0.500000
vt 0.000000 1.000000
vt 1.000000 1.000000
vt 0.000000 0.000000
vt 1.000000 0.000000
vt 0.000000 0.500000
vt 1.000000 0.500000
vt 0.000000 1.000000
vt 1.000000 1.000000
vt 0.000000 0.000000
vt 1.000000 0.000000
vt 0.000000 0.500000
vt 1.000000 0.500000
vt 0.000000 1.000000
vt 1.000000 1.000000
vt 0.000000 0.000000
vt 1.000000 0.000000
vt 0.000000 0.500000
vt 1.000000 0.500000
vt 0.000000 1.000000
vt 1.000000 1.000000
vt 0.000000 0.000000
vt 1.000000 0.000000
vt 0.000000 0.500000
vt 1.000000 0.500000
vt 0.000000 1.000000
vt 1.000000 1.000000
vt 0.000000 0.000000
vt 1.000000 0.000000
vt 0.000000 0.500000
vt 1.000000 0.500000
vt 0.000000 1.000000
vt 1.000000 1.000000
vt 0.000000 0.000000
vt 1.000000 0.000000
vt 0.000000 0.500000
vt 1.000000 0.500000
vt 0.000000 1.000000
vt 1.000000 1.000000
vt 0.000000 0.000000
vt 1.000000 0.000000
vt 0.000000 0.500000
vt 1.000000 0.500000
vt 0.000000 1.000000
vt 1.000000 1.000000
vt 0.000000 0.000000
vt 1.000000 0.000000
vt 0.000000 0.500000
vt 1.000000 0.500000
vt 0.000000 1.000000
vt 1.000000 1.000000
vt 0.000000 0.000000
vt 1.000000 0.000000
vt 0.000000 0.500000
vt 1.000000 0.500000
vt 0.000000 1.000000
vt 1.000000 1.000000
vt 0.000000 0.000000
vt 1.000000 0.000000
vt 0.000000 0.500000
vt 1.000000 0.500000
vt 0.000000 1.000000
vt 1.000000 1.000000
vt 0.000000 0.000000
vt 1.000000 0.000000
vt 0.000000 0.500000
vt 1.000000 0.500000
vt 0.000000 1.000000
vt 1.000000 1.000000
vt 0.000000 0.000000
vt 1.000000 0.000000
vt 0.000000 0.500000
vt 1.000000 0.500000
vt 0.000000 1.000000
vt 1.000000 1.000000
vt 0.000000 0.000000
vt 1.000000 0.000000
vt 0.000000 0.500000
vt 1.000000 0.500000
vt 0.000000 1.000000
vt 1.000000 1.000000
vt 0.000000 0.000000
vt 1.000000 0.000000
vt 0.000000 0.500000
vt 1.000000 0.500000
vt 0.000000 1.000000
vt 1.000000 1.000000
vt 0.000000 0.000000
vt 1.000000 0.000000
vt 0.000000 0.500000
vt 1.000000 0.500000
vt 0.000000 1.000000
vt 1.000000 1.000000
vt 0.000000 0.000000
vt 1.000000 0.000000
vt 0.000000 0.500000
vt 1.000000 0.500000
vt 0.000000 1.000000
vt 1.000000 1.000000
vt 0.000000 0.000000
vt 1.000000 0.000000
vt 0.000000 0.500000
vt 1.000000 0.500000
vt 0.000000 1.000000
vt 1.000000 1.000000
vt 0.000000 0.000000
vt 1.000000 0.000000
vt 0.000000 0.500000
vt 1.000000 0.500000
vt 0.000000 1.000000
vt 1.000000 1.000000
vt 0.000000 0.000000
vt 1.000000 0.000000
vt 0.000000 0.500000
vt 1.000000 0.500000
vt 0.000000 1.000000
vt 1.000000 1.000000
vt 0.000000 0.000000
vt 1.000000 0.000000
vt 0.000000 0.500000
vt 1.000000 0.500000
vt 0.000000 1.000000
vt 1.000000 1.000000
vt 0.000000 0.000000
vt 1.000000 0.000000
vt 0.000000 0.500000
vt 1.000000 0.500000
vt 0.000000 1.000000
vt 1.000000 1.000000
vt 0.000000 0.000000
vt 1.000000 0.000000
vt 0.000000 0.500000
vt 1.000000 0.500000
vt 0.000000 1.000000
vt 1.000000 1.000000
vt 0.000000 0.000000
vt 1.000000 0.000000
vt 0.000000 0.500000
vt 1.000000 0.500000
vt 0.000000 1.000000
vt 1.000000 1.000000
vt 0.000000 0.000000
vt 1.000000 0.000000
vt 0.000000 0.500000
vt 1.000000 0.500000
vt 0.000000 1.000000
vt 1.000000 1.000000
vt 0.000000 0.000000
vt 1.000000 0.000000
vt 0.000000 0.500000
vt 1.000000 0.500000
vt 0.000000 1.000000
vt 1.000000 1.000000
vt 0.000000 0.000000
vt 1.000000 0.000000
vt 0.000000 0.500000
vt 1.000000 0.500000
vt 0.000000 1.000000
vt 1.000000 1.000000
vt 0.000000 0.000000
vt 1.000000 0.000000
vt 0.000000 0.500000
vt 1.000000 0.500000
vt 0.000000 1.000000
vt 1.000000 1.000000
vt 0.000000 0.000000
vt 1.000000 0.000000
vt 0.000000 0.500000
vt 1.000000 0.500000
vt 0.000000 1.000000
vt 1.000000 1.000000
vt 0.000000 0.000000
vt 1.000000 0.000000
vt 0.000000 0.500000
vt 1.000000 0.500000
vt 0.000000 1.000000
vt 1.000000 1.000000
vt 0.000000 0.000000
vt 1.000000 0.000000
vt 0.000000 0.500000
vt 1.000000 0.500000
vt 0.000000 1.000000
vt 1.000000 1.000000
vt 0.000000 0.000000
vt 1.000000 0.000000
vt 0.000000 0.500000
vt 1.000000 0.500000
vt 0.000000 1.000000
vt 1.000000 1.000000
vt 0.000000 0.000000
vt 1.000000 0.000000
vt 0.000000 0.500000
vt 1.000000 0.500000
vt 0.000000 1.000000
vt 1.000000 1.000000
vt 0.000000 0.000000
vt 1.000000 0.000000
vt 0.000000 0.500000
vt 1.000000 0.500000
vt 0.000000 1.000000
vt 1.000000 1.000000
vt 0.000000 0.000000
vt 1.000000 0.000000
vt 0.000000 0.500000
vt 1.000000 0.500000
vt 0.000000 1.000000
vt 1.000000 1.000000
vt 0.000000 0.000000
vt 1.000000 0.000000
vt 0.000000 0.500000
vt 1.000000 0.500000
vt 0.000000 1.000000
vt 1.000000 1.000000
vt 0.000000 0.000000
vt 1.000000 0.000000
vt 0.000000 0.500000
vt 1.000000 0.500000
vt 0.000000 1.000000
vt 1.000000 1.000000
vt 0.000000 0.000000
vt 1.000000 0.000000
vt 0.000000 0.500000
vt 1.000000 0.500000
vt 0.000000 1.000000
vt 1.000000 1.000000
vt 0.000000 0.000000
vt 1.000000 0.000000
vt 0.000000 0.500000
vt 1.000000 0.500000
vt 0.000000 1.000000
vt 1.000000 1.000000
vt 0.000000 0.000000
vt 1.000000 0.000000
vt 0.000000 0.500000
vt 1.000000 0.500000
vt 0.000000 1.000000
vt 1.000000 1.000000
vt 0.000000 0.000000
vt 1.000000 0.000000
vt 0.000000 0.500000
vt 1.000000 0.500000
vt 0.000000 1.000000
vt 1.000000 1.000000
vt 0.000000 0.000000
vt 1.000000 0.000000
vt 0.000000 0.500000
vt 1.000000 0.500000
vt 0.000000 1.000000
vt 1.000000 1.000000
vt 0.000000 0.000000
vt 1.000000 0.000000
vt 0.000000 0.500000
vt 1.000000 0.500000
vt 0.000000 1.000000
vt 1.000000 1.000000
vt 0.000000 0.000000
vt 1.000000 0.000000
vt 0.000000 0.500000
vt 1.000000 0.500000
vt 0.000000 1.000000
vt 1.000000 1.000000
vt 0.000000 0.000000
vt 1.000000 0.000000
vt 0.000000 0.500000
vt 1.000000 0.500000
vt 0.000000 1.000000
vt 1.000000 1.000000
vt 0.000000 0.000000
vt 1.000000 0.000000
vt 0.000000 0.500000
vt 1.000000 0.500000
vt 0.000000 1.000000
vt 1.000000 1.000000
vt 0.000000 0.000000
vt 1.000000 0.000000
vt 0.000000 0.500000
vt 1.000000 0.500000
vt 0.000000 1.000000
vt 1.000000 1.000000
vt 0.000000 0.000000
vt 1.000000 0.000000
vt 0.000000 0.500000
vt 1.000000 0.500000
vt 0.000000 1.000000
vt 1.000000 1.000000
vt 0.000000 0.000000
vt 1.000000 0.000000
vt 0.000000 0.500000
vt 1.000000 0.500000
vt 0.000000 1.000000
vt 1.000000 1.000000
vt 0.000000 0.000000
vt 1.000000 0.000000
vt 0.000000 0.500000
vt 1.000000 0.500000
vt 0.000000 1.000000
vt 1.000000 1.000000
vt 0.000000 0.000000
vt 1.000000 0.000000
vt 0.000000 0.500000
vt 1.000000 0.500000
vt 0.000000 1.000000
vt 1.000000 1.000000
vt 0.000000 0.000000
vt 1.000000 0.000000
vt 0.000000 0.500000
vt 1.000000 0.500000
vt 0.000000 1.000000
vt 1.000000 1.000000
vt 0.000000 0.000000
vt 1.000000 0.000000
vt 0.000000 0.500000
vt 1.000000 0.500000
vt 0.000000 1.000000
vt 1.000000 1.000000
vt 0.000000 0.000000
vt 1.000000 0.000000
vt 0.000000 0.500000
vt 1.000000 0.500000
vt 0.000000 1.000000
vt 1.000000 1.000000
vt 0.000000 0.000000
vt 1.000000 0.000000
vt 0.000000 0.500000
vt 1.000000 0.500000
vt 0.000000 1.000000
vt 1.000000 1.000000
vt 0.000000 0.000000
vt 1.000000 0.000000
vt 0.000000 0.500000
vt 1.000000 0.500000
vt 0.000000 1.000000
vt 1.000000 1.000000
vt 0.000000 0.000000
vt 1.000000 0.000000
vt 0.000000 0.500000
vt 1.000000 0.500000
vt 0.000000 1.000000
vt 1.000000 1.000000
vt 0.000000 0.000000
vt 1.000000 0.000000
vt 0.000000 0.500000
vt 1.000000 0.500000
vt 0.000000 1.000000
vt 1.000000 1.000000
vt 0.000000 0.000000
vt 1.000000 0.000000
vt 0.000000 0.500000
vt 1.000000 0.500000
vt 0.000000 1.000000
vt 1.000000 1.000000
vt 0.000000 0.000000
vt 1.000000 0.000000
vt 0.000000 0.500000
vt 1.000000 0.500000
vt 0.000000 1.000000
vt 1.000000 1.000000
vt 0.000000 0.000000
vt 1.000000 0.000000
vt 0.000000 0.500000
vt 1.000000 0.500000
vt 0.000000 1.000000
vt 1.000000 1.000000
vt 0.000000 0.000000
vt 1.000000 0.000000
vt 0.000000 0.500000
vt 1.000000 0.500000
vt 0.000000 1.000000
vt 1.000000 1.000000
vt 0.000000 0.000000
vt 1.000000 0.000000
vt 0.000000 0.500000
vt 1.000000 0.500000
vt 0.000000 1.000000
vt 1.000000 1.000000
vt 0.000000 0.000000
vt 1.000000 0.000000
vt 0.000000 0.500000
vt 1.000000 0.500000
vt 0.000000 1.000000
vt 1.000000 1.000000
vt 0.000000 0.000000
vt 1.000000 0.000000
vt 0.000000 0.500000
vt 1.000000 0.500000
vt 0.000000 1.000000
vt 1.000000 1.000000
vt 0.000000 0.000000
vt 1.000000 0.000000
vt 0.000000 0.500000
vt 1.000000 0.500000
vt 0.000000 1.000000
vt 1.000000 1.000000
vt 0.000000 0.000000
vt 1.000000 0.000000
vt 0.000000 0.500000
vt 1.000000 0.500000
vt 0.000000 1.000000
vt 1.000000 1.000000
vt 0.000000 0.000000
vt 1.000000 0.000000
vt 0.000000 0.500000
vt 1.000000 0.500000
vt 0.000000 1.000000
vt 1.000000 1.000000
vt 0.000000 0.000000
vt 1.000000 0.000000
vt 0.000000 0.500000
vt 1.000000 0.500000
vt 0.000000 1.000000
vt 1.000000 1.000000
vt 0.000000 0.000000
vt 1.000000 0.000000
vt 0.000000 0.500000
vt 1.000000 0.500000
vt 0.000000 1.000000
vt 1.000000 1.000000
vt 0.000000 0.000000
vt 1.000000 0.000000
vt 0.000000 0.500000
vt 1.000000 0.500000
vt 0.000000 1.000000
vt 1.000000 1.000000
vt 0.000000 0.000000
vt 1.000000 0.000000
vt 0.000000 0.500000
vt 1.000000 0.500000
vt 0.000000 1.000000
vt 1.000000 1.000000
vt 0.000000 0.000000
vt 1.000000 0.000000
vt 0.000000 0.500000
vt 1.000000 0.500000
vt 0.000000 1.000000
vt 1.000000 1.000000
vt 0.000000 0.000000
vt 1.000000 0.000000
vt 0.000000 0.500000
vt 1.000000 0.500000
vt 0.000000 1.000000
vt 1.000000 1.000000
vt 0.000000 0.000000
vt 1.000000 0.000000
vt 0.000000 0.500000
vt 1.000000 0.500000
vt 0.000000 1.000000
vt 1.000000 1.000000
vn -0.429167 -0.891471 0.145244
vn -0.429167 -0.891471 0.145244
vn -0.429167 -0.891471 0.145244
vn -0.429167 -0.891471 0.145244
vn -0.429167 -0.891471 0.145244
vn -0.429167 -0.891471 0.145244
vn -0.151514 -0.677727 0.719535
vn -0.151514 -0.677727 0.719535
vn -0.151514 -0.677727 0.719535
vn -0.151514 -0.677727 0.719535
vn -0.151514 -0.677727 0.719535
vn -0.151514 -0.677727 0.719535
vn -0.368299 0.282142 0.885862
vn -0.368299 0.282142 0.885862
vn -0.368299 0.282142 0.885862
vn -0.368299 0.282142 0.885862
vn -0.368299 0.282142 0.885862
vn -0.368299 0.282142 0.885862
vn -0.017120 0.196205 -0.980413
vn -0.017120 0.196205 -0.980413
vn -0.017120 0.196205 -0.980413
vn -0.017120 0.196205 -0.980413
vn -0.017120 0.196205 -0.980413
vn -0.017120 0.196205 -0.980413
vn 0.525847 -0.850344 -0.019989
vn 0.525847 -0.850344 -0.019989
vn 0.525847 -0.850344 -0.019989
vn 0.525847 -0.850344 -0.019989
vn 0.525847 -0.850344 -0.019989
vn 0.525847 -0.850344 -0.019989
vn 0.525847 -0.850344 -0.019989
vn 0.525847 -0.850344 -0.019989
vn 0.525847 -0.850344 -0.019989
vn 0.525847 -0.850344 -0.019989
vn 0.525847 -0.850344 -0.019989
vn 0.525847 -0.850344 -0.019989
vn 0.742867 0.202507 0.638075
vn 0.742867 0.202507 0.638075
vn 0.742867 0.202507 0.638075
vn 0.742867 0.202507 0.638075
vn 0.742867 0.202507 0.638075
vn 0.742867 0.202507 0.638075
vn -0.538967 -0.277760 0.795213
vn -0.538967 -0.277760 0.795213
vn -0.538967 -0.277760 0.795213
vn -0.538967 -0.277760 0.795213
vn -0.538967 -0.277760 0.795213
vn -0.538967 -0.277760 0.795213
vn -0.017120 0.196205 -0.980413
vn -0.017120 0.196205 -0.980413
vn -0.017120 0.196205 -0.980413
vn -0.017120 0.196205 -0.980413
vn -0.017120 0.196205 -0.980413
vn -0.017120 0.196205 -0.980413
vn -0.691880 -0.244270 0.679437
vn -0.691880 -0.244270 0.679437
vn -0.691880 -0.244270 0.679437
vn -0.691880 -0.244270 0.679437
vn -0.691880 -0.244270 0.679437
vn -0.691880 -0.244270 0.679437
vn 0.057355 -0.967131 -0.247725
vn 0.057355 -0.967131 -0.247725
vn 0.057355 -0.967131 -0.247725
vn 0.057355 -0.967131 -0.247725
vn 0.057355 -0.967131 -0.247725
vn 0.057355 -0.967131 -0.247725
vn 0.040514 -0.005044 0.999166
vn 0.040514 -0.005044 0.999166
vn 0.040514 -0.005044 0.999166
vn 0.040514 -0.005044 0.999166
vn 0.040514 -0.005044 0.999166
vn 0.040514 -0.005044 0.999166
vn 0.157471 -0.910380 0.382637
vn 0.157471 -0.910380 0.382637
vn 0.157471 -0.910380 0.382637
vn 0.157471 -0.910380 0.382637
vn 0.157471 -0.910380 0.382637
vn 0.157471 -0.910380 0.382637
vn -0.468588 -0.147006 0.871100
vn -0.468588 -0.147006 0.871100
vn -0.468588 -0.147006 0.871100
vn -0.468588 -0.147006 0.871100
vn -0.468588 -0.147006 0.871100
vn -0.468588 -0.147006 0.871100
vn -0.205350 -0.294102 0.933454
vn -0.205350 -0.294102 0.933454
vn -0.205350 -0.294102 0.933454
vn -0.205350 -0.294102 0.933454
vn -0.205350 -0.294102 0.933454
vn -0.205350 -0.294102 0.933454
vn 0.879234 -0.047669 -0.473999
vn 0.879234 -0.047669 -0.473999
vn 0.879234 -0.047669 -0.473999
vn 0.879234 -0.047669 -0.473999
vn 0.879234 -0.047669 -0.473999
vn 0.879234 -0.047669 -0.473999
vn 0.604509 -0.796300 0.021810
vn 0.604509 -0.796300 0.021810
vn 0.604509 -0.796300 0.021810
vn 0.604509 -0.796300 0.021810
vn 0.604509 -0.796300 0.021810
vn 0.604509 -0.796300 0.021810
vn 0.300809 -0.845812 0.440586
vn 0.300809 -0.845812 0.440586
vn 0.300809 -0.845812 0.440586
vn 0.300809 -0.845812 0.440586
vn 0.300809 -0.845812 0.440586
vn 0.300809 -0.845812 0.440586
vn 0.731862 0.192931 0.653572
vn 0.731862 0.192931 0.653572
vn 0.731862 0.192931 0.653572
vn 0.731862 0.192931 0.653572
vn 0.731862 0.192931 0.653572
vn 0.731862 0.192931 0.653572
vn 0.474998 -0.872451 0.114921
vn 0.474998 -0.872451 0.114921
vn 0.474998 -0.872451 0.114921
vn 0.474998 -0.872451 0.114921
vn 0.474998 -0.872451 0.114921
vn 0.474998 -0.872451 0.114921
vn -0.442601 0.169318 -0.880588
vn -0.442601 0.169318 -0.880588
vn -0.442601 0.169318 -0.880588
vn -0.442601 0.169318 -0.880588
vn -0.442601 0.169318 -0.880588
vn -0.442601 0.169318 -0.880588
vn 0.053268 -0.997260 0.051324
vn 0.053268 -0.997260 0.051324
vn 0.053268 -0.997260 0.051324
vn 0.053268 -0.997260 0.051324
vn 0.053268 -0.997260 0.051324
vn 0.053268 -0.997260 0.051324
vn 0.471946 0.039723 0.880732
vn 0.471946 0.039723 0.880732
vn 0.471946 0.039723 0.880732
vn 0.471946 0.039723 0.880732
vn 0.471946 0.039723 0.880732
vn 0.471946 0.039723 0.880732
vn -0.607169 -0.236803 0.758465
vn -0.607169 -0.236803 0.758465
vn -0.607169 -0.236803 0.758465
vn -0.607169 -0.236803 0.758465
vn -0.607169 -0.236803 0.758465
vn -0.607169 -0.236803 0.758465
vn -0.178964 -0.628146 0.757235
vn -0.178964 -0.628146 0.757235
vn -0.178964 -0.628146 0.757235
vn -0.178964 -0.628146 0.757235
vn -0.178964 -0.628146 0.757235
vn -0.178964 -0.628146 0.757235
vn -0.718292 0.426971 -0.549320
vn -0.718292 0.426971 -0.549320
vn -0.718292 0.426971 -0.549320
vn -0.718292 0.426971 -0.549320
vn -0.718292 0.426971 -0.549320
vn -0.718292 0.426971 -0.549320
vn -0.687920 0.684885 0.240204
vn -0.687920 0.684885 0.240204
vn -0.687920 0.684885 0.240204
vn -0.687920 0.684885 0.240204
vn -0.687920 0.684885 0.240204
vn -0.687920 0.684885 0.240204
vn 0.103658 -0.646979 0.755429
vn 0.103658 -0.646979 0.755429
vn 0.103658 -0.646979 0.755429
vn 0.103658 -0.646979 0.755429
vn 0.103658 -0.646979 0.755429
vn 0.103658 -0.646979 0.755429
vn 0.612069 0.318036 0.724034
vn 0.612069 0.318036 0.724034
vn 0.612069 0.318036 0.724034
vn 0.612069 0.318036 0.724034
vn 0.612069 0.318036 0.724034
vn 0.612069 0.318036 0.724034
vn 0.509639 -0.191733 0.838753
vn 0.509639 -0.191733 0.838753
vn 0.509639 -0.191733 0.838753
vn 0.509639 -0.191733 0.838753
vn 0.509639 -0.191733 0.838753
vn 0.509639 -0.191733 0.838753
vn -0.748075 0.118647 -0.652922
vn -0.748075 0.118647 -0.652922
vn -0.748075 0.118647 -0.652922
vn -0.748075 0.118647 -0.652922
vn -0.748075 0.118647 -0.652922
vn -0.748075 0.118647 -0.652922
vn 0.857910 -0.495760 -0.134951
vn 0.857910 -0.495760 -0.134951
vn 0.857910 -0.495760 -0.134951
vn 0.857910 -0.495760 -0.134951
vn 0.857910 -0.495760 -0.134951
vn 0.857910 -0.495760 -0.134951
vn 0.349891 -0.525592 0.775454
vn 0.349891 -0.525592 0.775454
vn 0.349891 -0.525592 0.775454
vn 0.349891 -0.525592 0.775454
vn 0.349891 -0.525592 0.775454
vn 0.349891 -0.525592 0.775454
vn -0.187310 -0.009325 0.982257
vn -0.187310 -0.009325 0.982257
vn -0.187310 -0.009325 0.982257
vn -0.187310 -0.009325 0.982257
vn -0.187310 -0.009325 0.982257
vn -0.187310 -0.009325 0.982257
vn 0.566811 -0.312453 0.762298
vn 0.566811 -0.312453 0.762298
vn 0.566811 -0.312453 0.762298
vn 0.566811 -0.312453 0.762298
vn 0.566811 -0.312453 0.762298
vn 0.566811 -0.312453 0.762298
vn 0.292802 -0.939952 0.175378
vn 0.292802 -0.939952 0.175378
vn 0.292802 -0.939952 0.175378
vn 0.292802 -0.939952 0.175378
vn 0.292802 -0.939952 0.175378
vn 0.292802 -0.939952 0.175378
vn 0.608588 -0.221847 0.761843
vn 0.608588 -0.221847 0.761843
vn 0.608588 -0.221847 0.761843
vn 0.608588 -0.221847 0.761843
vn 0.608588 -0.221847 0.761843
vn 0.608588 -0.221847 0.761843
vn -0.103535 0.214324 -0.971260
vn -0.103535 0.214324 -0.971260
vn -0.103535 0.214324 -0.971260
vn -0.103535 0.214324 -0.971260
vn -0.103535 0.214324 -0.971260
vn -0.103535 0.214324 -0.971260
vn -0.346949 -0.236589 0.907553
vn -0.346949 -0.236589 0.907553
vn -0.346949 -0.236589 0.907553
vn -0.346949 -0.236589 0.907553
vn -0.346949 -0.236589 0.907553
vn -0.346949 -0.236589 0.907553
vn -0.056109 0.675869 -0.734883
vn -0.056109 0.675869 -0.734883
vn -0.056109 0.675869 -0.734883
vn -0.056109 0.675869 -0.734883
vn -0.056109 0.675869 -0.734883
vn -0.056109 0.675869 -0.734883
vn 0.361524 -0.469585 0.805475
vn 0.361524 -0.469585 0.805475
vn 0.361524 -0.469585 0.805475
vn 0.361524 -0.469585 0.805475
vn 0.361524 -0.469585 0.805475
vn 0.361524 -0.469585 0.805475
vn -0.280426 -0.654070 0.702534
vn -0.280426 -0.654070 0.702534
vn -0.280426 -0.654070 0.702534
vn -0.280426 -0.654070 0.702534
vn -0.280426 -0.654070 0.702534
vn -0.280426 -0.654070 0.702534
vn 0.028295 -0.997583 -0.063456
vn 0.028295 -0.997583 -0.063456
vn 0.028295 -0.997583 -0.063456
vn 0.028295 -0.997583 -0.063456
vn 0.028295 -0.997583 -0.063456
vn 0.028295 -0.997583 -0.063456
vn -0.459630 -0.376562 0.804327
vn -0.459630 -0.376562 0.804327
vn -0.459630 -0.376562 0.804327
vn -0.459630 -0.376562 0.804327
vn -0.459630 -0.376562 0.804327
vn -0.459630 -0.376562 0.804327
vn 0.277528 0.247591 -0.928266
vn 0.277528 0.247591 -0.928266
vn 0.277528 0.247591 -0.928266
vn 0.277528 0.247591 -0.928266
vn 0.277528 0.247591 -0.928266
vn 0.277528 0.247591 -0.928266
vn -0.074653 -0.181352 0.980581
vn -0.074653 -0.181352 0.980581
vn -0.074653 -0.181352 0.980581
vn -0.074653 -0.181352 0.980581
vn -0.074653 -0.181352 0.980581
vn -0.074653 -0.181352 0.980581
vn 0.058372 -0.935890 0.347422
vn 0.058372 -0.935890 0.347422
vn 0.058372 -0.935890 0.347422
vn 0.058372 -0.935890 0.347422
vn 0.058372 -0.935890 0.347422
vn 0.058372 -0.935890 0.347422
vn 0.157952 -0.653273 0.740463
vn 0.157952 -0.653273 0.740463
vn 0.157952 -0.653273 0.740463
vn 0.157952 -0.653273 0.740463
vn 0.157952 -0.653273 0.740463
vn 0.157952 -0.653273 0.740463
vn 0.556167 -0.212666 0.803400
vn 0.556167 -0.212666 0.803400
vn 0.556167 -0.212666 0.803400
vn 0.556167 -0.212666 0.803400
vn 0.556167 -0.212666 0.803400
vn 0.556167 -0.212666 0.803400
vn -0.512974 -0.197298 0.835423
vn -0.512974 -0.197298 0.835423
vn -0.512974 -0.197298 0.835423
vn -0.512974 -0.197298 0.835423
vn -0.512974 -0.197298 0.835423
vn -0.512974 -0.197298 0.835423
vn 0.040514 -0.005044 0.999166
vn 0.040514 -0.005044 0.999166
vn 0.040514 -0.005044 0.999166
vn 0.040514 -0.005044 0.999166
vn 0.040514 -0.005044 0.999166
vn 0.040514 -0.005044 0.999166
vn -0.335546 -0.502471 0.796826
vn -0.335546 -0.502471 0.796826
vn -0.335546 -0.502471 0.796826
vn -0.335546 -0.502471 0.796826
vn -0.335546 -0.502471 0.796826
vn -0.335546 -0.502471 0.796826
vn 0.660602 0.099206 0.744153
vn 0.660602 0.099206 0.744153
vn 0.660602 0.099206 0.744153
vn 0.660602 0.099206 0.744153
vn 0.660602 0.099206 0.744153
vn 0.660602 0.099206 0.744153
vn -0.041785 -0.941084 0.335582
vn -0.041785 -0.941084 0.335582
vn -0.041785 -0.941084 0.335582
vn -0.041785 -0.941084 0.335582
vn -0.041785 -0.941084 0.335582
vn -0.041785 -0.941084 0.335582
vn -0.017120 0.196205 -0.980413
vn -0.017120 0.196205 -0.980413
vn -0.017120 0.196205 -0.980413
vn -0.017120 0.196205 -0.980413
vn -0.017120 0.196205 -0.980413
vn -0.017120 0.196205 -0.980413
vn 0.278239 -0.327918 0.902803
vn 0.278239 -0.327918 0.902803
vn 0.278239 -0.327918 0.902803
vn 0.278239 -0.327918 0.902803
vn 0.278239 -0.327918 0.902803
vn 0.278239 -0.327918 0.902803
vn 0.373842 0.301611 0.877082
vn 0.373842 0.301611 0.877082
vn 0.373842 0.301611 0.877082
vn 0.373842 0.301611 0.877082
vn 0.373842 0.301611 0.877082
vn 0.373842 0.301611 0.877082
vn -0.623859 0.653089 0.429272
vn -0.623859 0.653089 0.429272
vn -0.623859 0.653089 0.429272
vn -0.623859 0.653089 0.429272
vn -0.623859 0.653089 0.429272
vn -0.623859 0.653089 0.429272
vn 0.509639 -0.191733 0.838753
vn 0.509639 -0.191733 0.838753
vn 0.509639 -0.191733 0.838753
vn 0.509639 -0.191733 0.838753
vn 0.509639 -0.191733 0.838753
vn 0.509639 -0.191733 0.838753
vn 0.043145 -0.970080 0.238923
vn 0.043145 -0.970080 0.238923
vn 0.043145 -0.970080 0.238923
vn 0.043145 -0.970080 0.238923
vn 0.043145 -0.970080 0.238923
vn 0.043145 -0.970080 0.238923
vn 0.054010 -0.979940 0.191834
vn 0.054010 -0.979940 0.191834
vn 0.054010 -0.979940 0.191834
vn 0.054010 -0.979940 0.191834
vn 0.054010 -0.979940 0.191834
vn 0.054010 -0.979940 0.191834
vn -0.342051 -0.512772 0.787443
vn -0.342051 -0.512772 0.787443
vn -0.342051 -0.512772 0.787443
vn -0.342051 -0.512772 0.787443
vn -0.342051 -0.512772 0.787443
vn -0.342051 -0.512772 0.787443
vn 0.040757 -0.973165 0.226468
vn 0.040757 -0.973165 0.226468
vn 0.040757 -0.973165 0.226468
vn 0.040757 -0.973165 0.226468
vn 0.040757 -0.973165 0.226468
vn 0.040757 -0.973165 0.226468
vn -0.126492 -0.961777 0.242869
vn -0.126492 -0.961777 0.242869
vn -0.126492 -0.961777 0.242869
vn -0.126492 -0.961777 0.242869
vn -0.126492 -0.961777 0.242869
vn -0.126492 -0.961777 0.242869
vn 0.730598 -0.139028 -0.668504
vn 0.730598 -0.139028 -0.668504
vn 0.730598 -0.139028 -0.668504
vn 0.730598 -0.139028 -0.668504
vn 0.730598 -0.139028 -0.668504
vn 0.730598 -0.139028 -0.668504
vn -0.048087 -0.987314 -0.151323
vn -0.048087 -0.987314 -0.151323
vn -0.048087 -0.987314 -0.151323
vn -0.048087 -0.987314 -0.151323
vn -0.048087 -0.987314 -0.151323
vn -0.048087 -0.987314 -0.151323
vn -0.138038 0.043733 0.989461
vn -0.138038 0.043733 0.989461
vn -0.138038 0.043733 0.989461
vn -0.138038 0.043733 0.989461
vn -0.138038 0.043733 0.989461
vn -0.138038 0.043733 0.989461
vn 0.316898 -0.919560 0.232344
vn 0.316898 -0.919560 0.232344
vn 0.316898 -0.919560 0.232344
vn 0.316898 -0.919560 0.232344
vn 0.316898 -0.919560 0.232344
vn 0.316898 -0.919560 0.232344
vn 0.594408 -0.173280 0.785272
vn 0.594408 -0.173280 0.785272
vn 0.594408 -0.173280 0.785272
vn 0.594408 -0.173280 0.785272
vn 0.594408 -0.173280 0.785272
vn 0.594408 -0.173280 0.785272
vn -0.533569 -0.333342 0.777295
vn -0.533569 -0.333342 0.777295
vn -0.533569 -0.333342 0.777295
vn -0.533569 -0.333342 0.777295
vn -0.533569 -0.333342 0.777295
vn -0.533569 -0.333342 0.777295
vn -0.385414 -0.390742 0.835929
vn -0.385414 -0.390742 0.835929
vn -0.385414 -0.390742 0.835929
vn -0.385414 -0.390742 0.835929
vn -0.385414 -0.390742 0.835929
vn -0.385414 -0.390742 0.835929
vn 0.292589 0.607472 -0.738491
vn 0.292589 0.607472 -0.738491
vn 0.292589 0.607472 -0.738491
vn 0.292589 0.607472 -0.738491
vn 0.292589 0.607472 -0.738491
vn 0.292589 0.607472 -0.738491
vn 0.161332 -0.037478 0.986188
vn 0.161332 -0.037478 0.986188
vn 0.161332 -0.037478 0.986188
vn 0.161332 -0.037478 0.986188
vn 0.161332 -0.037478 0.986188
vn 0.161332 -0.037478 0.986188
vn 0.061912 -0.939959 0.335624
vn 0.061912 -0.939959 0.335624
vn 0.061912 -0.939959 0.335624
vn 0.061912 -0.939959 0.335624
vn 0.061912 -0.939959 0.335624
vn 0.061912 -0.939959 0.335624
vn -0.719634 -0.132306 0.681631
vn -0.719634 -0.132306 0.681631
vn -0.719634 -0.132306 0.681631
vn -0.719634 -0.132306 0.681631
vn -0.719634 -0.132306 0.681631
vn -0.719634 -0.132306 0.681631
vn 0.233536 0.229366 -0.944909
vn 0.233536 0.229366 -0.944909
vn 0.233536 0.229366 -0.944909
vn 0.233536 0.229366 -0.944909
vn 0.233536 0.229366 -0.944909
vn 0.233536 0.229366 -0.944909
vn -0.385414 -0.390742 0.835929
vn -0.385414 -0.390742 0.835929
vn -0.385414 -0.390742 0.835929
vn -0.385414 -0.390742 0.835929
vn -0.385414 -0.390742 0.835929
vn -0.385414 -0.390742 0.835929
vn 0.474241 -0.104203 0.874207
vn 0.474241 -0.104203 0.874207
vn 0.474241 -0.104203 0.874207
vn 0.474241 -0.104203 0.874207
vn 0.474241 -0.104203 0.874207
vn 0.474241 -0.104203 0.874207
vn -0.506465 -0.848125 0.155490
vn -0.506465 -0.848125 0.155490
vn -0.506465 -0.848125 0.155490
vn -0.506465 -0.848125 0.155490
vn -0.506465 -0.848125 0.155490
vn -0.506465 -0.848125 0.155490
vn -0.234673 0.253713 -0.938381
vn -0.234673 0.253713 -0.938381
vn -0.234673 0.253713 -0.938381
vn -0.234673 0.253713 -0.938381
vn -0.234673 0.253713 -0.938381
vn -0.234673 0.253713 -0.938381
vn -0.583029 0.046223 0.811135
vn -0.583029 0.046223 0.811135
vn -0.583029 0.046223 0.811135
vn -0.583029 0.046223 0.811135
vn -0.583029 0.046223 0.811135
vn -0.583029 0.046223 0.811135
vn 0.350931 -0.452589 0.819763
vn 0.350931 -0.452589 0.819763
vn 0.350931 -0.452589 0.819763
vn 0.350931 -0.452589 0.819763
vn 0.350931 -0.452589 0.819763
vn 0.350931 -0.452589 0.819763
vn 0.147302 -0.774585 0.615077
vn 0.147302 -0.774585 0.615077
vn 0.147302 -0.774585 0.615077
vn 0.147302 -0.774585 0.615077
vn 0.147302 -0.774585 0.615077
vn 0.147302 -0.774585 0.615077
vn 0.349891 -0.525592 0.775454
vn 0.349891 -0.525592 0.775454
vn 0.349891 -0.525592 0.775454
vn 0.349891 -0.525592 0.775454
vn 0.349891 -0.525592 0.775454
vn 0.349891 -0.525592 0.775454
vn 0.058372 -0.935890 0.347422
vn 0.058372 -0.935890 0.347422
vn 0.058372 -0.935890 0.347422
vn 0.058372 -0.935890 0.347422
vn 0.058372 -0.935890 0.347422
vn 0.058372 -0.935890 0.347422
vn 0.043145 -0.970080 0.238923
vn 0.043145 -0.970080 0.238923
vn 0.043145 -0.970080 0.238923
vn 0.043145 -0.970080 0.238923
vn 0.043145 -0.970080 0.238923
vn 0.043145 -0.970080 0.238923
vn -0.006247 0.672844 -0.739758
vn -0.006247 0.672844 -0.739758
vn -0.006247 0.672844 -0.739758
vn -0.006247 0.672844 -0.739758
vn -0.006247 0.672844 -0.739758
vn -0.006247 0.672844 -0.739758
vn 0.074264 -0.491494 0.867709
vn 0.074264 -0.491494 0.867709
vn 0.074264 -0.491494 0.867709
vn 0.074264 -0.491494 0.867709
vn 0.074264 -0.491494 0.867709
vn 0.074264 -0.491494 0.867709
vn 0.049073 -0.955894 0.289584
vn 0.049073 -0.955894 0.289584
vn 0.049073 -0.955894 0.289584
vn 0.049073 -0.955894 0.289584
vn 0.049073 -0.955894 0.289584
vn 0.049073 -0.955894 0.289584
vn 0.104989 -0.026392 0.994123
vn 0.104989 -0.026392 0.994123
vn 0.104989 -0.026392 0.994123
vn 0.104989 -0.026392 0.994123
vn 0.104989 -0.026392 0.994123
vn 0.104989 -0.026392 0.994123
vn 0.361524 -0.469585 0.805475
vn 0.361524 -0.469585 0.805475
vn 0.361524 -0.469585 0.805475
vn 0.361524 -0.469585 0.805475
vn 0.361524 -0.469585 0.805475
vn 0.361524 -0.469585 0.805475
vn -0.533293 -0.225153 0.815417
vn -0.533293 -0.225153 0.815417
vn -0.533293 -0.225153 0.815417
vn -0.533293 -0.225153 0.815417
vn -0.533293 -0.225153 0.815417
vn -0.533293 -0.225153 0.815417
vn 0.283290 0.252953 -0.925074
vn 0.283290 0.252953 -0.925074
vn 0.283290 0.252953 -0.925074
vn 0.283290 0.252953 -0.925074
vn 0.283290 0.252953 -0.925074
vn 0.283290 0.252953 -0.925074
vn 0.637794 -0.247594 0.729326
vn 0.637794 -0.247594 0.729326
vn 0.637794 -0.247594 0.729326
vn 0.637794 -0.247594 0.729326
vn 0.637794 -0.247594 0.729326
vn 0.637794 -0.247594 0.729326
vn -0.385414 -0.390742 0.835929
vn -0.385414 -0.390742 0.835929
vn -0.385414 -0.390742 0.835929
vn -0.385414 -0.390742 0.835929
vn -0.385414 -0.390742 0.835929
vn -0.385414 -0.390742 0.835929
vn -0.527617 -0.124303 0.840339
vn -0.527617 -0.124303 0.840339
vn -0.527617 -0.124303 0.840339
vn -0.527617 -0.124303 0.840339
vn -0.527617 -0.124303 0.840339
vn -0.527617 -0.124303 0.840339
vn 0.029243 -0.943799 -0.329223
vn 0.029243 -0.943799 -0.329223
vn 0.029243 -0.943799 -0.329223
vn 0.029243 -0.943799 -0.329223
vn 0.029243 -0.943799 -0.329223
vn 0.029243 -0.943799 -0.329223
vn 0.411838 -0.786381 0.460428
vn 0.411838 -0.786381 0.460428
vn 0.411838 -0.786381 0.460428
vn 0.411838 -0.786381 0.460428
vn 0.411838 -0.786381 0.460428
vn 0.411838 -0.786381 0.460428
vn 0.363432 -0.770916 0.523074
vn 0.363432 -0.770916 0.523074
vn 0.363432 -0.770916 0.523074
vn 0.363432 -0.770916 0.523074
vn 0.363432 -0.770916 0.523074
vn 0.363432 -0.770916 0.523074
vn -0.068536 0.418053 -0.905834
vn -0.068536 0.418053 -0.905834
vn -0.068536 0.418053 -0.905834
vn -0.068536 0.418053 -0.905834
vn -0.068536 0.418053 -0.905834
vn -0.068536 0.418053 -0.905834
f 1/1/1 2/2/2 4/4/4
f 1/1/1 4/4/4 3/3/3
f 3/3/3 4/4/4 6/6/6
f 3/3/3 6/6/6 5/5/5
f 7/7/7 8/8/8 10/10/10
f 7/7/7 10/10/10 9/9/9
f 9/9/9 10/10/10 12/12/12
f 9/9/9 12/12/12 11/11/11
f 13/13/13 14/14/14 16/16/16
f 13/13/13 16/16/16 15/15/15
f 15/15/15 16/16/16 18/18/18
f 15/15/15 18/18/18 17/17/17
f 19/19/19 20/20/20 22/22/22
f 19/19/19 22/22/22 21/21/21
f 21/21/21 22/22/22 24/24/24
f 21/21/21 24/24/24 23/23/23
f 25/25/25 26/26/26 28/28/28
f 25/25/25 28/28/28 27/27/27
f 27/27/27 28/28/28 30/30/30
f 27/27/27 30/30/30 29/29/29
f 31/31/31 32/32/32 34/34/34
f 31/31/31 34/34/34 33/33/33
f 33/33/33 34/34/34 36/36/36
f 33/33/33 36/36/36 35/35/35
f 37/37/37 38/38/38 40/40/40
f 37/37/37 40/40/40 39/39/39
f 39/39/39 40/40/40 42/42/42
f 39/39/39 42/42/42 41/41/41
f 43/43/43 44/44/44 46/46/46
f 43/43/43 46/46/46 45/45/45
f 45/45/45 46/46/46 48/48/48
f 45/45/45 48/48/48 47/47/47
f 49/49/49 50/50/50 52/52/52
f 49/49/49 52/52/52 51/51/51
f 51/51/51 52/52/52 54/54/54
f 51/51/51 54/54/54 53/53/53
f 55/55/55 56/56/56 58/58/58
f 55/55/55 58/58/58 57/57/57
f 57/57/57 58/58/58 60/60/60
f 57/57/57 60/60/60 59/59/59
f 61/61/61 62/62/62 64/64/64
f 61/61/61 64/64/64 63/63/63
f 63/63/63 64/64/64 66/66/66
f 63/63/63 66/66/66 65/65/65
f 67/67/67 68/68/68 70/70/70
f 67/67/67 70/70/70 69/69/69
f 69/69/69 70/70/70 72/72/72
f 69/69/69 72/72/72 71/71/71
f 73/73/73 74/74/74 76/76/76
f 73/73/73 76/76/76 75/75/75
f 75/75/75 76/76/76 78/78/78
f 75/75/75 78/78/78 77/77/77
f 79/79/79 80/80/80 82/82/82
f 79/79/79 82/82/82 81/81/81
f 81/81/81 82/82/82 84/84/84
f 81/81/81 84/84/84 83/83/83
f 85/85/85 86/86/86 88/88/88
f 85/85/85 88/88/88 87/87/87
f 87/87/87 88/88/88 90/90/90
f 87/87/87 90/90/90 89/89/89
f 91/91/91 92/92/92 94/94/94
f 91/91/91 94/94/94 93/93/93
f 93/93/93 94/94/94 96/96/96
f 93/93/93 96/96/96 95/95/95
f 97/97/97 98/98/98 100/100/100
f 97/97/97 100/100/100 99/99/99
f 99/99/99 100/100/100 102/102/102
f 99/99/99 102/102/102 101/101/101
f 103/103/103 104/104/104 106/106/106
f 103/103/103 106/106/106 105/105/105
f 105/105/105 106/106/106 108/108/108
f 105/105/105 108/108/108 107/107/107
f 109/109/109 110/110/110 112/112/112
f 109/109/109 112/112/112 111/111/111
f 111/111/111 112/112/112 114/114/114
f 111/111/111 114/114/114 113/113/113
f 115/115/115 116/116/116 118/118/118
f 115/115/115 118/118/118 117/117/117
f 117/117/117 118/118/118 120/120/120
f 117/117/117 120/120/120 119/119/119
f 121/121/121 122/122/122 124/124/124
f 121/121/121 124/124/124 123/123/123
f 123/123/123 124/124/124 126/126/126
f 123/123/123 126/126/126 125/125/125
f 127/127/127 128/128/128 130/130/130
f 127/127/127 130/130/130 129/129/129
f 129/129/129 130/130/130 132/132/132
f 129/129/129 132/132/132 131/131/131
f 133/133/133 134/134/134 136/136/136
f 133/133/133 136/136/136 135/135/135
f 135/135/135 136/136/136 138/138/138
f 135/135/135 138/138/138 137/137/137
f 139/139/139 140/140/140 142/142/142
f 139/139/139 142/142/142 141/141/141
f 141/141/141 142/142/142 144/144/144
f 141/141/141 144/144/144 143/143/143
f 145/145/145 146/146/146 148/148/148
f 145/145/145 148/148/148 147/147/147
f 147/147/147 148/148/148 150/150/150
f 147/147/147 150/150/150 149/149/149
f 151/151/151 152/152/152 154/154/154
f 151/151/151 154/154/154 153/153/153
f 153/153/153 154/154/154 156/156/156
f 153/153/153 156/156/156 155/155/155
f 157/157/157 158/158/158 160/160/160
f 157/157/157 160/160/160 159/159/159
f 159/159/159 160/160/160 162/162/162
f 159/159/159 162/162/162 161/161/161
f 163/163/163 164/164/164 166/166/166
f 163/163/163 166/166/166 165/165/165
f 165/165/165 166/166/166 168/168/168
f 165/165/165 168/168/168 167/167/167
f 169/169/169 170/170/170 172/172/172
f 169/169/169 172/172/172 171/171/171
f 171/171/171 172/172/172 174/174/174
f 171/171/171 174/174/174 173/173/173
f 175/175/175 176/176/176 178/178/178
f 175/175/175 178/178/178 177/177/177
f 177/177/177 178/178/178 180/180/180
f 177/177/177 180/180/180 179/179/179
f 181/181/181 182/182/182 184/184/184
f 181/181/181 184/184/184 183/183/183
f 183/183/183 184/184/184 186/186/186
f 183/183/183 186/186/186 185/185/185
f 187/187/187 188/188/188 190/190/190
f 187/187/187 190/190/190 189/189/189
f 189/189/189 190/190/190 192/192/192
f 189/189/189 192/192/192 191/191/191
f 193/193/193 194/194/194 196/196/196
f 193/193/193 196/196/196 195/195/195
f 195/195/195 196/196/196 198/198/198
f 195/195/195 198/198/198 197/197/197
f 199/199/199 200/200/200 202/202/202
f 199/199/199 202/202/202 201/201/201
f 201/201/201 202/202/202 204/204/204
f 201/201/201 204/204/204 203/203/203
f 205/205/205 206/206/206 208/208/208
f 205/205/205 208/208/208 207/207/207
f 207/207/207 208/208/208 210/210/210
f 207/207/207 210/210/210 209/209/209
f 211/211/211 212/212/212 214/214/214
f 211/211/211 214/214/214 213/213/213
f 213/213/213 214/214/214 216/216/216
f 213/213/213 216/216/216 215/215/215
f 217/217/217 218/218/218 220/220/220
f 217/217/217 220/220/220 219/219/219
f 219/219/219 220/220/220 222/222/222
f 219/219/219 222/222/222 221/221/221
f 223/223/223 224/224/224 226/226/226
f 223/223/223 226/226/226 225/225/225
f 225/225/225 226/226/226 228/228/228
f 225/225/225 228/228/228 227/227/227
f 229/229/229 230/230/230 232/232/232
f 229/229/229 232/232/232 231/231/231
f 231/231/231 232/232/232 234/234/234
f 231/231/231 234/234/234 233/233/233
f 235/235/235 236/236/236 238/238/238
f 235/235/235 238/238/238 237/237/237
f 237/237/237 238/238/238 240/240/240
f 237/237/237 240/240/240 239/239/239
f 241/241/241 242/242/242 244/244/244
f 241/241/241 244/244/244 243/243/243
f 243/243/243 244/244/244 246/246/246
f 243/243/243 246/246/246 245/245/245
f 247/247/247 248/248/248 250/250/250
f 247/247/247 250/250/250 249/249/249
f 249/249/249 250/250/250 252/252/252
f 249/249/249 252/252/252 251/251/251
f 253/253/253 254/254/254 256/256/256
f 253/253/253 256/256/256 255/255/255
f 255/255/255 256/256/256 258/258/258
f 255/255/255 258/258/258 257/257/257
f 259/259/259 260/260/260 262/262/262
f 259/259/259 262/262/262 261/261/261
f 261/261/261 262/262/262 264/264/264
f 261/261/261 264/264/264 263/263/263
f 265/265/265 266/266/266 268/268/268
f 265/265/265 268/268/268 267/267/267
f 267/267/267 268/268/268 270/270/270
f 267/267/267 270/270/270 269/269/269
f 271/271/271 272/272/272 274/274/274
f 271/271/271 274/274/274 273/273/273
f 273/273/273 274/274/274 276/276/276
f 273/273/273 276/276/276 275/275/275
f 277/277/277 278/278/278 280/280/280
f 277/277/277 280/280/280 279/279/279
f 279/279/279 280/280/280 282/282/282
f 279/279/279 282/282/282 281/281/281
f 283/283/283 284/284/284 286/286/286
f 283/283/283 286/286/286 285/285/285
f 285/285/285 286/286/286 288/288/288
f 285/285/285 288/288/288 287/287/287
f 289/289/289 290/290/290 292/292/292
f 289/289/289 292/292/292 291/291/291
f 291/291/291 292/292/292 294/294/294
f 291/291/291 294/294/294 293/293/293
f 295/295/295 296/296/296 298/298/298
f 295/295/295 298/298/298 297/297/297
f 297/297/297 298/298/298 300/300/300
f 297/297/297 300/300/300 299/299/299
f 301/301/301 302/302/302 304/304/304
f 301/301/301 304/304/304 303/303/303
f 303/303/303 304/304/304 306/306/306
f 303/303/303 306/306/306 305/305/305
f 307/307/307 308/308/308 310/310/310
f 307/307/307 310/310/310 309/309/309
f 309/309/309 310/310/310 312/312/312
f 309/309/309 312/312/312 311/311/311
f 313/313/313 314/314/314 316/316/316
f 313/313/313 316/316/316 315/315/315
f 315/315/315 316/316/316 318/318/318
f 315/315/315 318/318/318 317/317/317
f 319/319/319 320/320/320 322/322/322
f 319/319/319 322/322/322 321/321/321
f 321/321/321 322/322/322 324/324/324
f 321/321/321 324/324/324 323/323/323
f 325/325/325 326/326/326 328/328/328
f 325/325/325 328/328/328 327/327/327
f 327/327/327 328/328/328 330/330/330
f 327/327/327 330/330/330 329/329/329
f 331/331/331 332/332/332 334/334/334
f 331/331/331 334/334/334 333/333/333
f 333/333/333 334/334/334 336/336/336
f 333/333/333 336/336/336 335/335/335
f 337/337/337 338/338/338 340/340/340
f 337/337/337 340/340/340 339/339/339
f 339/339/339 340/340/340 342/342/342
f 339/339/339 342/342/342 341/341/341
f 343/343/343 344/344/344 346/346/346
f 343/343/343 346/346/346 345/345/345
f 345/345/345 346/346/346 348/348/348
f 345/345/345 348/348/348 347/347/347
f 349/349/349 350/350/350 352/352/352
f 349/349/349 352/352/352 351/351/351
f 351/351/351 352/352/352 354/354/354
f 351/351/351 354/354/354 353/353/353
f 355/355/355 356/356/356 358/358/358
f 355/355/355 358/358/358 357/357/357
f 357/357/357 358/358/358 360/360/360
f 357/357/357 360/360/360 359/359/359
f 361/361/361 362/362/362 364/364/364
f 361/361/361 364/364/364 363/363/363
f 363/363/363 364/364/364 366/366/366
f 363/363/363 366/366/366 365/365/365
f 367/367/367 368/368/368 370/370/370
f 367/367/367 370/370/370 369/369/369
f 369/369/369 370/370/370 372/372/372
f 369/369/369 372/372/372 371/371/371
f 373/373/373 374/374/374 376/376/376
f 373/373/373 376/376/376 375/375/375
f 375/375/375 376/376/376 378/378/378
f 375/375/375 378/378/378 377/377/377
f 379/379/379 380/380/380 382/382/382
f 379/379/379 382/382/382 381/381/381
f 381/381/381 382/382/382 384/384/384
f 381/381/381 384/384/384 383/383/383
f 385/385/385 386/386/386 388/388/388
f 385/385/385 388/388/388 387/387/387
f 387/387/387 388/388/388 390/390/390
f 387/387/387 390/390/390 389/389/389
f 391/391/391 392/392/392 394/394/394
f 391/391/391 394/394/394 393/393/393
f 393/393/393 394/394/394 396/396/396
f 393/393/393 396/396/396 395/395/395
f 397/397/397 398/398/398 400/400/400
f 397/397/397 400/400/400 399/399/399
f 399/399/399 400/400/400 402/402/402
f 399/399/399 402/402/402 401/401/401
f 403/403/403 404/404/404 406/406/406
f 403/403/403 406/406/406 405/405/405
f 405/405/405 406/406/406 408/408/408
f 405/405/405 408/408/408 407/407/407
f 409/409/409 410/410/410 412/412/412
f 409/409/409 412/412/412 411/411/411
f 411/411/411 412/412/412 414/414/414
f 411/411/411 414/414/414 413/413/413
f 415/415/415 416/416/416 418/418/418
f 415/415/415 418/418/418 417/417/417
f 417/417/417 418/418/418 420/420/420
f 417/417/417 420/420/420 419/419/419
f 421/421/421 422/422/422 424/424/424
f 421/421/421 424/424/424 423/423/423
f 423/423/423 424/424/424 426/426/426
f 423/423/423 426/426/426 425/425/425
f 427/427/427 428/428/428 430/430/430
f 427/427/427 430/430/430 429/429/429
f 429/429/429 430/430/430 432/432/432
f 429/429/429 432/432/432 431/431/431
f 433/433/433 434/434/434 436/436/436
f 433/433/433 436/436/436 435/435/435
f 435/435/435 436/436/436 438/438/438
f 435/435/435 438/438/438 437/437/437
f 439/439/439 440/440/440 442/442/442
f 439/439/439 442/442/442 441/441/441
f 441/441/441 442/442/442 444/444/444
f 441/441/441 444/444/444 443/443/443
f 445/445/445 446/446/446 448/448/448
f 445/445/445 448/448/448 447/447/447
f 447/447/447 448/448/448 450/450/450
f 447/447/447 450/450/450 449/449/449
f 451/451/451 452/452/452 454/454/454
f 451/451/451 454/454/454 453/453/453
f 453/453/453 454/454/454 456/456/456
f 453/453/453 456/456/456 455/455/455
f 457/457/457 458/458/458 460/460/460
f 457/457/457 460/460/460 459/459/459
f 459/459/459 460/460/460 462/462/462
f 459/459/459 462/462/462 461/461/461
f 463/463/463 464/464/464 466/466/466
f 463/463/463 466/466/466 465/465/465
f 465/465/465 466/466/466 468/468/468
f 465/465/465 468/468/468 467/467/467
f 469/469/469 470/470/470 472/472/472
f 469/469/469 472/472/472 471/471/471
f 471/471/471 472/472/472 474/474/474
f 471/471/471 474/474/474 473/473/473
f 475/475/475 476/476/476 478/478/478
f 475/475/475 478/478/478 477/477/477
f 477/477/477 478/478/478 480/480/480
f 477/477/477 480/480/480 479/479/479
f 481/481/481 482/482/482 484/484/484
f 481/481/481 484/484/484 483/483/483
f 483/483/483 484/484/484 486/486/486
f 483/483/483 486/486/486 485/485/485
f 487/487/487 488/488/488 490/490/490
f 487/487/487 490/490/490 489/489/489
f 489/489/489 490/490/490 492/492/492
f 489/489/489 492/492/492 491/491/491
f 493/493/493 494/494/494 496/496/496
f 493/493/493 496/496/496 495/495/495
f 495/495/495 496/496/496 498/498/498
f 495/495/495 498/498/498 497/497/497
f 499/499/499 500/500/500 502/502/502
f 499/499/499 502/502/502 501/501/501
f 501/501/501 502/502/502 504/504/504
f 501/501/501 504/504/504 503/503/503
f 505/505/505 506/506/506 508/508/508
f 505/505/505 508/508/508 507/507/507
f 507/507/507 508/508/508 510/510/510
f 507/507/507 510/510/510 509/509/509
f 511/511/511 512/512/512 514/514/514
f 511/511/511 514/514/514 513/513/513
f 513/513/513 514/514/514 516/516/516
f 513/513/513 516/516/516 515/515/515
f 517/517/517 518/518/518 520/520/520
f 517/517/517 520/520/520 519/519/519
f 519/519/519 520/520/520 522/522/522
f 519/519/519 522/522/522 521/521/521
f 523/523/523 524/524/524 526/526/526
f 523/523/523 526/526/526 525/525/525
f 525/525/525 526/526/526 528/528/528
f 525/525/525 528/528/528 527/527/527
f 529/529/529 530/530/530 532/532/532
f 529/529/529 532/532/532 531/531/531
f 531/531/531 532/532/532 534/534/534
f 531/531/531 534/534/534 533/533/533
f 535/535/535 536/536/536 538/538/538
f 535/535/535 538/538/538 537/537/537
f 537/537/537 538/538/538 540/540/540
f 537/537/537 540/540/540 539/539/539
f 541/541/541 542/542/542 544/544/544
f 541/541/541 544/544/544 543/543/543
f 543/543/543 544/544/544 546/546/546
f 543/543/543 546/546/546 545/545/545
f 547/547/547 548/548/548 550/550/550
f 547/547/547 550/550/550 549/549/549
f 549/549/549 550/550/550 552/552/552
f 549/549/549 552/552/552 551/551/551
f 553/553/553 554/554/554 556/556/556
f 553/553/553 556/556/556 555/555/555
f 555/555/555 556/556/556 558/558/558
f 555/555/555 558/558/558 557/557/557
f 559/559/559 560/560/560 562/562/562
f 559/559/559 562/562/562 561/561/561
f 561/561/561 562/562/562 564/564/564
f 561/561/561 564/564/564 563/563/563
f 565/565/565 566/566/566 568/568/568
f 565/565/565 568/568/568 567/567/567
f 567/567/567 568/568/568 570/570/570
f 567/567/567 570/570/570 569/569/569
f 571/571/571 572/572/572 574/574/574
f 571/571/571 574/574/574 573/573/573
f 573/573/573 574/574/574 576/576/576
f 573/573/573 576/576/576 575/575/575
f 577/577/577 578/578/578 580/580/580
f 577/577/577 580/580/580 579/579/579
f 579/579/579 580/580/580 582/582/582
f 579/579/579 582/582/582 581/581/581
f 583/583/583 584/584/584 586/586/586
f 583/583/583 586/586/586 585/585/585
f 585/585/585 586/586/586 588/588/588
f 585/585/585 588/588/588 587/587/587
f 589/589/589 590/590/590 592/592/592
f 589/589/589 592/592/592 591/591/591
f 591/591/591 592/592/592 594/594/594
f 591/591/591 594/594/594 593/593/593
f 595/595/595 596/596/596 598/598/598
f 595/595/595 598/598/598 597/597/597
f 597/597/597 598/598/598 600/600/600
f 597/597/597 600/600/600 599/599/599
