# Face Mesh LOD3 - Triangles: 253
v -0.081612 -0.147299 -0.133717
v -0.065402 -0.003731 -0.096110
v 0.051340 -0.063746 -0.000352
v -0.005782 0.100342 -0.130048
v -0.042143 -0.008299 -0.124204
v 0.056399 -0.037622 0.014581
v -0.085618 -0.139842 -0.124152
v -0.073942 0.022190 -0.094279
v 0.040580 -0.090088 -0.018389
v -0.048646 0.028353 -0.132220
v -0.052890 -0.112648 -0.101977
v 0.030017 0.113084 -0.100207
v -0.065672 0.096457 -0.058773
v -0.072031 0.068912 -0.095830
v -0.049588 0.069457 -0.130594
v -0.040159 0.107102 -0.019815
v -0.038491 -0.089834 -0.097260
v 0.037810 -0.125010 -0.023587
v 0.032167 -0.167904 -0.011452
v -0.037635 -0.048496 -0.100546
v -0.053288 -0.019780 -0.103432
v -0.010089 0.119638 -0.098251
v -0.049288 -0.153355 -0.139880
v -0.021021 -0.099811 -0.000316
v 0.057223 0.061652 0.007633
v 0.028804 0.097234 -0.126487
v -0.044365 -0.132056 -0.129016
v -0.039549 0.116003 -0.062781
v -0.064820 0.031560 -0.116919
v -0.079065 -0.124362 -0.094877
v 0.002027 -0.170376 -0.010366
v 0.051271 -0.076773 -0.072137
v 0.061223 -0.010488 0.010050
v -0.001483 -0.129620 -0.008297
v 0.061933 0.030979 0.005527
v 0.002189 0.127133 -0.058997
v -0.068237 0.072841 -0.025057
v -0.052832 0.102455 -0.095093
v -0.043035 -0.089967 -0.021925
v -0.009740 -0.157940 -0.139552
v -0.076503 -0.131828 -0.067544
v 0.048622 -0.113966 -0.108967
v 0.041975 0.027699 -0.135939
v 0.029742 -0.007068 -0.131158
v -0.004118 -0.128283 -0.128952
v -0.085363 -0.154380 -0.046448
v -0.056021 -0.057958 -0.020405
v -0.068019 -0.011904 -0.018246
v -0.066543 -0.029984 -0.049374
v -0.035395 -0.163438 -0.016411
v 0.037583 -0.050601 -0.098368
v -0.073337 0.036820 -0.024665
v 0.037418 -0.090365 -0.097403
v -0.040583 -0.123921 -0.024917
v -0.000745 -0.029336 -0.124258
v 0.039035 0.107291 -0.019165
v 0.035587 0.069651 -0.138479
v 0.036875 -0.130281 -0.127659
v -0.082345 0.023111 -0.059314
v -0.009619 -0.007393 -0.138336
v -0.032883 0.100482 -0.121722
v -0.057311 -0.121146 -0.048179
v 0.041139 0.116335 -0.062334
v -0.010372 0.025829 -0.149915
v 0.034797 -0.156902 -0.139849
v 0.047668 -0.019890 -0.108589
v -0.076833 -0.009296 -0.056434
v -0.063788 -0.039921 -0.029065
v 0.020421 0.124341 -0.058343
v -0.008923 0.069407 -0.147920
v 0.004339 0.117867 -0.014508
v 0.002581 -0.089696 -0.111362
v -0.057007 -0.052208 -0.062902
v -0.064070 -0.168457 -0.019295
v -0.076023 0.068701 -0.056689
v -0.005407 0.124699 -0.032397
v 0.002413 -0.055319 -0.112029
v -0.055464 -0.092864 -0.060362
v 0.023478 0.025570 0.040313
v 0.062497 0.099560 -0.057503
v 0.073215 0.022313 -0.094078
v 0.076402 -0.140092 -0.126474
v 0.026404 -0.016618 0.043984
v -0.041708 0.070921 0.020456
v 0.073195 -0.149167 -0.135555
v 0.060555 -0.008045 -0.099184
v -0.038733 0.023915 0.026425
v -0.003156 -0.078536 0.050548
v -0.052730 -0.010319 0.024991
v 0.004164 0.099854 0.017788
v -0.002485 -0.047728 0.050129
v 0.072315 0.068196 -0.095516
v 0.098667 -0.133592 -0.100451
v 0.075981 -0.124312 -0.096065
v 0.063894 0.037934 -0.118025
v -0.000813 -0.006857 0.060410
v -0.047860 -0.049081 0.022989
v -0.061523 0.059529 0.001338
v -0.037375 -0.076729 0.011004
v -0.003217 0.030919 0.045774
v -0.063587 0.032603 0.002434
v 0.026431 -0.046731 0.043800
v 0.026967 0.095743 0.012855
v -0.004605 0.060428 0.041731
v 0.058441 0.092031 -0.022485
v 0.059984 0.066418 -0.122012
v -0.064587 -0.012371 0.001356
v 0.022092 -0.068234 0.046459
v -0.031392 -0.020936 0.042490
v 0.040019 0.070604 0.022486
v 0.078268 -0.149106 -0.050561
v -0.024134 0.040326 0.042832
v 0.063969 -0.124095 -0.059692
v -0.000255 -0.092441 0.021774
v 0.067313 0.069551 -0.021919
v 0.055660 -0.094490 -0.056493
v 0.045806 -0.018823 0.034259
v 0.073342 0.034094 -0.027991
v 0.035549 0.022790 0.026259
v 0.058726 -0.044749 -0.054465
v 0.067576 -0.011259 -0.017795
v 0.058920 -0.049410 -0.021790
v 0.030630 -0.080848 0.017801
v 0.075880 -0.007936 -0.055627
v 0.059029 0.094446 -0.099032
v 0.046597 -0.053566 0.023691
v 0.078509 0.021452 -0.056584
v 0.003817 0.081666 0.032995
v 0.077257 0.064168 -0.060240
v 0.102976 -0.139798 -0.075059
v 0.066008 -0.162439 -0.028468
v -0.030104 0.096238 0.011708
v 0.093547 -0.150981 -0.053940
v -0.026034 -0.055113 0.040809
f 23 1 7
f 10 5 2
f 5 21 2
f 2 8 29
f 2 67 8
f 10 2 29
f 20 2 21
f 20 73 2
f 73 67 2
f 122 6 3
f 3 6 126
f 122 3 9
f 9 3 123
f 3 126 123
f 12 4 22
f 26 4 12
f 15 61 4
f 15 4 70
f 61 22 4
f 57 4 26
f 57 70 4
f 5 10 64
f 21 5 20
f 55 20 5
f 5 60 55
f 5 64 60
f 6 33 117
f 122 33 6
f 6 117 126
f 7 27 23
f 30 27 7
f 14 29 8
f 59 14 8
f 8 67 59
f 9 18 113
f 18 9 114
f 9 113 116
f 114 9 123
f 116 122 9
f 15 10 14
f 14 10 29
f 70 10 15
f 70 64 10
f 30 17 11
f 17 45 11
f 11 78 17
f 27 30 11
f 27 11 45
f 11 30 41
f 11 41 78
f 36 12 22
f 125 26 12
f 12 36 69
f 12 69 63
f 63 125 12
f 28 14 13
f 75 13 14
f 28 13 16
f 75 16 13
f 15 14 61
f 28 38 14
f 14 38 61
f 59 75 14
f 16 36 28
f 16 76 36
f 16 75 37
f 84 16 37
f 76 16 71
f 132 71 16
f 16 84 132
f 72 17 20
f 17 73 20
f 72 45 17
f 78 73 17
f 34 19 18
f 18 19 131
f 18 114 34
f 131 113 18
f 19 34 31
f 55 77 20
f 72 20 77
f 22 28 36
f 28 22 38
f 61 38 22
f 27 40 23
f 54 34 24
f 114 24 34
f 24 39 54
f 99 39 24
f 114 99 24
f 110 25 115
f 119 25 110
f 119 115 25
f 57 26 125
f 27 45 40
f 50 31 34
f 53 51 32
f 51 120 32
f 53 32 116
f 32 120 116
f 33 118 35
f 119 33 35
f 119 117 33
f 33 121 118
f 33 122 121
f 34 54 50
f 35 118 115
f 35 115 119
f 71 69 36
f 71 36 76
f 52 37 59
f 98 37 52
f 75 59 37
f 98 84 37
f 78 39 47
f 99 47 39
f 39 78 54
f 65 40 45
f 50 41 46
f 50 54 41
f 54 62 41
f 78 41 62
f 53 42 58
f 94 42 53
f 94 58 42
f 44 64 43
f 43 86 44
f 43 70 57
f 57 95 43
f 43 64 70
f 43 95 86
f 55 44 51
f 66 51 44
f 55 60 44
f 44 60 64
f 66 44 86
f 65 45 58
f 58 45 72
f 46 74 50
f 47 68 49
f 73 47 49
f 68 47 97
f 78 47 73
f 47 99 97
f 67 48 52
f 107 52 48
f 67 68 48
f 68 97 48
f 48 97 107
f 67 49 68
f 73 49 67
f 72 51 53
f 51 77 55
f 51 66 86
f 72 77 51
f 51 86 120
f 59 67 52
f 101 98 52
f 107 101 52
f 58 72 53
f 53 113 94
f 53 116 113
f 54 78 62
f 56 63 69
f 63 56 80
f 56 69 71
f 56 71 76
f 103 56 71
f 56 105 80
f 110 56 103
f 110 105 56
f 56 105 115
f 92 106 57
f 92 57 125
f 57 106 95
f 82 65 58
f 94 82 58
f 63 80 125
f 65 82 85
f 103 71 90
f 132 90 71
f 83 79 96
f 79 83 119
f 96 79 100
f 104 100 79
f 79 119 100
f 104 79 110
f 110 79 119
f 80 92 125
f 129 92 80
f 105 115 80
f 80 115 129
f 86 95 81
f 86 81 124
f 92 81 95
f 127 81 92
f 81 127 124
f 94 93 82
f 91 83 96
f 83 91 102
f 83 102 126
f 119 83 117
f 83 126 117
f 98 87 84
f 87 104 84
f 84 128 90
f 84 90 132
f 104 128 84
f 120 86 124
f 101 89 87
f 109 87 89
f 96 87 100
f 109 96 87
f 98 101 87
f 100 112 87
f 87 112 104
f 108 91 88
f 91 134 88
f 108 88 102
f 102 88 123
f 123 88 114
f 134 114 88
f 107 97 89
f 97 109 89
f 101 107 89
f 110 103 90
f 103 90 128
f 91 96 109
f 102 91 108
f 109 134 91
f 106 92 95
f 127 92 129
f 94 130 93
f 111 94 113
f 130 94 111
f 134 97 99
f 134 109 97
f 99 114 134
f 112 100 104
f 123 126 102
f 110 103 128
f 110 128 104
f 105 110 115
f 131 111 113
f 130 111 133
f 133 111 131
f 118 127 115
f 129 115 127
f 116 120 122
f 124 118 121
f 127 118 124
f 121 122 120
f 124 121 120
