# Face Mesh LOD2 - Triangles: 1114
v -0.074090 0.047763 -0.101360
v -0.038495 -0.100199 -0.103804
v -0.000260 0.112888 -0.117564
v -0.052544 0.027714 -0.129382
v -0.022295 0.090691 -0.135893
v 0.060146 0.008157 0.014270
v -0.040255 0.036160 -0.141045
v -0.068908 -0.002195 -0.091340
v -0.034394 -0.023263 -0.121461
v 0.048935 0.062178 0.019131
v -0.072775 0.013962 -0.094209
v 0.061037 -0.010424 0.015411
v 0.040292 -0.075783 0.008302
v -0.062056 0.100369 -0.052523
v -0.040080 0.023506 -0.139195
v -0.081612 -0.147299 -0.133717
v -0.022020 0.081794 -0.141698
v 0.043762 -0.173386 -0.009017
v -0.058410 0.042127 -0.125225
v 0.021240 0.116640 -0.103021
v 0.051340 -0.063746 -0.000352
v 0.053884 0.043191 0.020754
v -0.058734 -0.116598 -0.107582
v 0.059723 -0.028275 0.010334
v 0.042931 -0.113166 -0.025463
v -0.043105 0.112800 -0.034184
v -0.056519 -0.106687 -0.084233
v -0.056799 0.059118 -0.127063
v -0.076912 -0.139423 -0.127298
v 0.045984 0.022810 0.023259
v -0.070687 0.066398 -0.106656
v -0.037119 -0.010549 -0.128180
v -0.000273 0.105255 -0.127932
v -0.040458 0.061274 -0.140503
v 0.045640 -0.080146 -0.023567
v -0.022754 0.103089 -0.125160
v -0.057187 0.101566 -0.034984
v -0.078729 0.054807 -0.085857
v 0.048583 0.011641 0.023376
v -0.040596 -0.064814 -0.091992
v -0.068454 0.083259 -0.032214
v 0.063148 -0.168615 -0.019392
v -0.063082 -0.113634 -0.090183
v 0.022116 0.111005 -0.114718
v 0.042744 -0.100773 -0.024591
v 0.054877 -0.007469 0.026316
v -0.042823 -0.084296 -0.090511
v -0.075108 0.030418 -0.094350
v -0.000329 0.083370 -0.144766
v -0.050646 -0.002403 -0.120387
v -0.094324 -0.140262 -0.121006
v -0.039694 0.007864 -0.135699
v 0.055485 -0.029807 0.019859
v -0.069288 0.092545 -0.065024
v 0.017003 0.122321 -0.087433
v 0.049777 -0.068155 -0.015356
v -0.050087 0.069083 -0.131806
v -0.048268 -0.100996 -0.094252
v -0.000300 0.092533 -0.138801
v -0.044553 0.115331 -0.053855
v -0.073537 0.083074 -0.078098
v -0.043415 -0.114660 -0.114117
v -0.051941 0.012258 -0.126251
v 0.050314 -0.048946 0.021671
v 0.059478 0.026694 0.012244
v -0.056661 -0.020003 -0.099132
v 0.060276 -0.043637 -0.001238
v 0.072635 0.046358 -0.021495
v 0.046229 -0.066020 0.016412
v 0.061820 -0.028518 0.002401
v -0.071392 0.079872 -0.041187
v 0.070419 0.025706 -0.019994
v -0.059271 -0.152577 -0.139946
v 0.057820 -0.054188 -0.022394
v -0.072721 -0.119321 -0.096266
v 0.057223 0.061652 0.007633
v -0.022201 0.113795 -0.108818
v 0.064506 -0.013573 0.001484
v 0.021385 0.081802 -0.141720
v -0.060626 0.102517 -0.068983
v -0.000299 0.123790 -0.090511
v -0.062535 0.007009 -0.111498
v -0.040332 -0.124443 -0.124321
v 0.021713 0.090698 -0.135924
v -0.058914 -0.012088 -0.103159
v 0.022217 0.103100 -0.125195
v -0.036220 -0.136129 -0.133044
v 0.067027 0.067531 -0.016004
v -0.099043 -0.133234 -0.100959
v -0.047257 -0.048737 -0.088801
v 0.066454 0.006688 0.000133
v -0.039304 -0.154132 -0.139814
v -0.064764 -0.016007 -0.085491
v 0.064690 -0.026954 -0.016014
v -0.074144 0.082652 -0.061005
v -0.041124 0.116475 -0.072435
v -0.038201 -0.047732 -0.100039
v 0.057312 -0.045437 0.009304
v 0.063116 0.025134 0.002859
v -0.017596 0.122301 -0.087387
v 0.061382 -0.044048 -0.018646
v -0.000261 0.118665 -0.106288
v 0.063206 0.041108 0.001478
v -0.064820 0.031560 -0.116919
v -0.044290 -0.027248 -0.108004
v -0.056542 -0.135594 -0.129683
v -0.048864 -0.013142 -0.115293
v 0.062401 0.059307 -0.001061
v 0.070410 0.005697 -0.020167
v -0.076369 -0.125877 -0.108478
v -0.051702 -0.032845 -0.093505
v 0.067629 -0.012521 -0.017203
v -0.024937 0.123049 -0.068753
v 0.017172 -0.008093 -0.137337
v -0.080381 0.019477 -0.053051
v 0.039746 0.061295 -0.140530
v 0.035744 -0.010546 -0.128170
v -0.060077 0.094680 -0.099832
v -0.028147 -0.046160 -0.109741
v -0.071839 -0.028324 -0.040538
v 0.050429 0.099005 -0.017291
v -0.000363 -0.128867 -0.130156
v -0.019267 -0.157260 -0.139170
v -0.053009 -0.085875 -0.036477
v 0.020730 0.124181 -0.049155
v 0.009711 0.126768 -0.047960
v -0.062496 0.083402 -0.110056
v -0.066746 -0.019147 -0.069992
v -0.078665 0.051750 -0.057154
v -0.030946 -0.033878 -0.114694
v 0.035872 0.116256 -0.034203
v -0.051932 -0.105942 -0.036081
v -0.000413 -0.117749 -0.123108
v -0.098404 -0.136925 -0.076735
v -0.046930 0.109915 -0.089354
v 0.055797 0.087113 -0.009508
v 0.025154 -0.065241 -0.105135
v 0.018311 0.004209 -0.143112
v -0.059543 -0.032704 -0.075155
v -0.074160 0.007190 -0.041395
v -0.064885 -0.138177 -0.050513
v -0.076381 0.068452 -0.051873
v 0.039075 0.023516 -0.139184
v -0.047892 -0.137272 -0.031108
v 0.024832 -0.081496 -0.104759
v 0.039379 0.036178 -0.141050
v 0.032958 -0.023252 -0.121442
v -0.055928 -0.048951 -0.070782
v -0.059966 -0.119115 -0.055646
v -0.088040 0.012065 -0.060672
v -0.044496 -0.122393 -0.026807
v 0.031615 -0.099830 -0.107037
v -0.071236 -0.012324 -0.040647
v -0.055748 -0.061613 -0.033668
v -0.054838 -0.156756 -0.031468
v 0.035246 0.119578 -0.051795
v -0.000359 -0.140243 -0.135479
v -0.088200 0.017406 -0.059874
v -0.075572 0.040077 -0.032597
v 0.020690 0.060540 -0.148865
v -0.056740 -0.102010 -0.049605
v 0.051983 0.080568 0.003178
v 0.016074 -0.017275 -0.132005
v -0.074084 -0.124718 -0.076884
v -0.076404 0.025290 -0.040258
v 0.038527 0.007869 -0.135684
v 0.063520 0.080492 -0.019027
v 0.011868 -0.062545 -0.110368
v -0.043822 0.105420 -0.106337
v 0.047588 0.091298 -0.001381
v -0.075470 -0.026289 -0.053844
v 0.015142 0.122999 -0.033869
v -0.084108 -0.129747 -0.078498
v -0.056498 -0.082366 -0.050060
v 0.036221 -0.083977 -0.096514
v -0.020411 -0.120530 -0.124156
v 0.011883 -0.080013 -0.108927
v -0.054655 -0.123177 -0.040713
v -0.005440 0.127471 -0.070442
v 0.019179 0.026274 -0.148492
v -0.056863 -0.062651 -0.052553
v 0.036670 -0.066890 -0.095221
v -0.074142 -0.012136 -0.052685
v 0.012680 -0.099465 -0.113408
v -0.079096 0.008627 -0.054157
v -0.000214 -0.158620 -0.139934
v -0.018237 -0.139509 -0.134636
v -0.074261 0.058888 -0.035153
v -0.060500 0.099804 -0.084850
v 0.014214 -0.029218 -0.123878
v -0.005053 -0.048716 -0.113506
v -0.048643 -0.072225 -0.079906
v -0.058569 -0.049390 -0.049056
v -0.000366 0.125259 -0.031878
v -0.064610 -0.117991 -0.073600
v 0.035672 -0.136288 -0.132669
v -0.088731 0.006075 -0.066131
v -0.043012 0.097875 -0.118283
v 0.046626 -0.009487 0.033702
v -0.076827 -0.157928 -0.038694
v -0.000738 -0.017765 -0.133321
v -0.000374 0.068815 -0.150800
v -0.066543 -0.029984 -0.049374
v -0.009160 -0.064251 -0.110489
v 0.030420 -0.121207 -0.123635
v 0.043362 0.010575 0.030880
v -0.079532 0.060779 -0.072228
v -0.087699 -0.009118 -0.066932
v -0.010448 0.124138 -0.032917
v -0.093900 -0.150831 -0.054202
v -0.043870 0.081378 -0.131057
v -0.019547 0.004205 -0.143112
v 0.009876 0.126816 -0.070015
v -0.007014 -0.079786 -0.109441
v -0.065608 -0.010156 -0.051485
v -0.079592 0.043421 -0.074472
v -0.000540 0.025390 -0.151336
v -0.072650 0.078028 -0.092955
v 0.043249 -0.045732 0.032989
v -0.026504 0.122643 -0.049878
v -0.081451 0.021007 -0.067558
v 0.018913 -0.157322 -0.138974
v -0.007227 -0.099521 -0.113674
v 0.011996 -0.045764 -0.113753
v -0.000748 -0.029568 -0.125026
v 0.044987 -0.028160 0.034816
v -0.000433 0.052527 -0.153484
v 0.020113 0.124501 -0.067531
v -0.018555 -0.008095 -0.137339
v -0.082591 0.007795 -0.065828
v 0.040942 0.059116 0.029056
v -0.056727 0.076434 -0.122542
v -0.066413 -0.031603 -0.038237
v -0.015700 -0.029222 -0.123870
v -0.000719 -0.008791 -0.138799
v 0.017558 -0.139470 -0.134350
v -0.026664 -0.099640 -0.110402
v -0.060146 -0.046142 -0.035032
v -0.020204 0.026269 -0.148494
v -0.005389 0.127477 -0.047571
v -0.000644 0.003369 -0.145438
v -0.026056 -0.081649 -0.104684
v -0.054130 -0.067345 -0.066962
v -0.080734 -0.011542 -0.065976
v 0.015078 -0.122800 -0.126179
v 0.029368 -0.033881 -0.114741
v -0.026216 0.120471 -0.035684
v 0.043559 0.022533 0.030512
v -0.026599 -0.065307 -0.105052
v -0.080778 -0.021499 -0.064032
v -0.080532 -0.141328 -0.059990
v -0.052604 -0.085682 -0.072480
v -0.017510 -0.017283 -0.132006
v 0.046553 0.039829 0.032640
v 0.031574 -0.046904 -0.104988
v 0.032539 0.120029 -0.071920
v -0.021458 0.060529 -0.148854
v -0.056014 -0.101398 -0.069304
v 0.045024 0.076081 0.016197
v 0.037015 -0.160584 -0.140889
v 0.016590 0.010222 0.040340
v -0.067984 -0.013115 -0.017716
v 0.005606 0.023207 0.049480
v 0.023524 -0.042125 0.047319
v 0.070207 0.066528 -0.106693
v 0.052531 -0.012572 -0.109169
v 0.009872 0.041902 0.046996
v 0.066546 -0.142073 -0.131697
v -0.025835 0.115373 -0.017369
v 0.025537 -0.035393 0.047924
v 0.102976 -0.139798 -0.075059
v 0.020365 -0.008312 0.044890
v -0.018597 -0.065877 0.048793
v 0.030758 0.059411 0.036120
v -0.061523 0.059529 0.001338
v -0.006051 -0.087475 0.037390
v -0.061163 -0.048239 -0.019894
v 0.048463 -0.152801 -0.139686
v 0.034533 0.080799 0.023069
v 0.021628 -0.020956 0.045863
v 0.048466 0.112873 -0.070321
v 0.064089 0.031648 -0.116889
v 0.030367 0.040919 0.040286
v -0.063586 0.040581 0.001699
v -0.017267 -0.077016 0.049046
v 0.071901 0.014063 -0.093970
v 0.064882 -0.011295 -0.087151
v -0.065338 -0.027593 -0.016385
v 0.032867 0.092664 0.013924
v -0.063589 0.024626 0.003170
v 0.014922 -0.045644 0.042000
v -0.005240 0.114534 -0.002450
v 0.073555 0.047896 -0.101324
v 0.030928 0.023636 0.034564
v 0.042806 -0.027209 -0.108010
v -0.025576 0.108883 -0.002416
v -0.033952 -0.079904 0.016674
v 0.073098 0.083252 -0.078188
v -0.066777 0.006085 0.000263
v 0.031739 0.011683 0.033973
v 0.047575 -0.123047 -0.121092
v 0.013471 -0.043710 0.052080
v 0.050228 -0.032756 -0.093491
v -0.067647 0.067417 -0.015889
v 0.064457 0.097670 -0.067146
v 0.011999 0.060832 0.042096
v -0.064804 -0.014162 0.001447
v 0.031339 -0.009582 0.041473
v -0.004632 -0.079836 0.052038
v 0.053150 -0.131395 -0.126551
v -0.022296 -0.081237 0.036868
v 0.045791 -0.048583 -0.088885
v 0.074528 0.030563 -0.094186
v 0.061511 0.007074 -0.111409
v 0.011396 -0.029448 0.055634
v 0.032284 -0.027620 0.043710
v -0.062180 -0.029037 0.002359
v -0.002137 0.002877 0.067344
v -0.005616 -0.063492 0.054330
v 0.015031 0.036100 0.043868
v 0.082320 -0.124941 -0.100000
v 0.019368 0.086236 0.027455
v -0.005370 0.121242 -0.019371
v -0.028348 -0.066074 0.039993
v 0.009778 -0.012977 0.056405
v 0.065209 -0.150668 -0.138045
v 0.026269 -0.044552 0.041457
v 0.017015 0.022551 0.035453
v -0.059893 -0.044491 0.001378
v -0.044662 -0.067949 0.017680
v -0.025534 0.103927 0.005699
v 0.009437 0.007072 0.054827
v 0.092691 -0.130798 -0.101211
v 0.055273 -0.019913 -0.098991
v -0.004048 -0.012171 0.069142
v 0.013465 0.098815 0.017664
v 0.044261 -0.083901 -0.087812
v -0.023720 -0.044153 0.041626
v 0.035967 0.099242 0.002579
v -0.054721 0.025243 0.020346
v -0.005922 -0.043635 0.054689
v -0.047923 -0.072432 -0.017585
v 0.012431 -0.078756 0.050560
v 0.050176 0.063275 -0.132264
v -0.003620 0.060877 0.042867
v 0.050163 -0.102622 -0.090891
v -0.028040 -0.024954 0.045120
v -0.004281 -0.026867 0.058072
v 0.048305 0.112860 -0.055301
v 0.048622 -0.113966 -0.108967
v -0.054602 0.043611 0.019614
v 0.081182 -0.147666 -0.133065
v -0.055679 -0.058707 -0.000432
v -0.049319 -0.048215 0.024563
v 0.030392 -0.064855 0.038500
v 0.067388 -0.116475 -0.092993
v -0.011103 0.034938 0.044817
v -0.064070 -0.168457 -0.019295
v 0.051675 0.040165 -0.131321
v -0.071178 0.024932 -0.020004
v -0.039632 -0.086249 -0.017114
v -0.025344 -0.009209 0.043789
v 0.012952 -0.063848 0.052190
v 0.005884 0.002864 0.065554
v 0.069858 0.081159 -0.038333
v -0.039367 0.013005 0.021243
v 0.057973 0.104622 -0.054671
v 0.086258 -0.138111 -0.121250
v 0.016647 0.117982 -0.017402
v 0.025087 -0.079671 0.035052
v -0.006811 -0.013755 0.058041
v -0.018762 0.042065 0.046180
v -0.052804 0.062679 0.014365
v 0.061084 0.096949 -0.035462
v 0.044298 -0.059955 -0.086115
v -0.007726 0.007973 0.054742
v 0.051652 0.027763 -0.129374
v -0.073261 0.045452 -0.021396
v 0.030026 0.107691 -0.004304
v -0.010399 0.023090 0.040138
v -0.043120 -0.101658 -0.024258
v -0.005137 0.100893 0.017913
v 0.007779 -0.010828 0.068502
v -0.025172 0.011058 0.036044
v -0.047756 -0.069744 -0.000038
v -0.001997 0.023670 0.050628
v 0.078332 0.055014 -0.085822
v -0.054038 -0.044587 0.018017
v -0.025381 0.095570 0.016506
v -0.046446 0.051231 0.027724
v 0.050891 0.012296 -0.126211
v -0.012324 0.011884 0.042387
v -0.038054 -0.120140 -0.021572
v 0.046285 0.110904 -0.035838
v 0.019665 0.104832 0.007461
v -0.052512 -0.065369 -0.012489
v -0.025591 0.023058 0.035071
v 0.065711 -0.123608 -0.113463
v -0.070735 0.004997 -0.020636
v -0.057067 -0.027696 0.017800
v -0.016001 -0.012756 0.051468
v 0.038179 0.105142 -0.008793
v -0.039159 0.024038 0.019407
v -0.004879 0.041415 0.047474
v -0.024749 0.085700 0.026222
v -0.024134 0.040326 0.042832
v 0.061490 0.060974 -0.121548
v 0.049406 -0.002389 -0.120358
v -0.035378 -0.140983 -0.021071
v -0.021038 -0.031146 0.049694
v 0.065061 0.096388 -0.050693
v -0.058942 -0.009057 0.019356
v 0.012392 -0.086069 0.037813
v 0.032705 0.112534 -0.018309
v 0.022092 -0.068234 0.046459
v -0.022192 0.059575 0.040229
v 0.063699 0.044220 -0.119160
v -0.037773 -0.155942 -0.022636
v -0.046481 0.061399 0.022944
v -0.019763 -0.043116 0.049144
v -0.037347 -0.079608 0.001850
v 0.074041 0.076830 -0.053225
v -0.055558 0.008288 0.019657
v 0.053586 0.104811 -0.034963
v 0.012825 0.112692 -0.002343
v -0.006651 -0.047362 0.042741
v -0.042885 -0.169397 -0.013990
v 0.071338 -0.011030 -0.040932
v -0.025747 -0.116799 -0.012861
v -0.039402 0.022751 0.032698
v -0.023594 0.076529 0.032658
v -0.039397 0.089216 0.012920
v 0.080596 -0.162129 -0.034673
v -0.021428 -0.134123 -0.013453
v 0.079169 0.061048 -0.072209
v -0.043120 0.040373 0.035250
v -0.007355 -0.182264 -0.003246
v 0.073599 0.006737 -0.040643
v -0.041422 0.077419 0.019769
v -0.025937 0.024808 0.016809
v -0.037219 0.059535 0.032288
v 0.079287 0.043699 -0.074334
v 0.005627 -0.093746 0.017870
v 0.059953 -0.044270 -0.032797
v -0.023586 -0.153618 -0.015791
v -0.004951 -0.119392 -0.002677
v -0.021021 -0.099811 -0.000316
v 0.058478 0.071861 -0.122475
v 0.081228 0.023752 -0.065823
v -0.025477 -0.168070 -0.011593
v 0.014806 -0.090547 0.019697
v -0.051236 -0.014718 0.030682
v 0.068891 -0.029537 -0.039257
v -0.000336 -0.132397 -0.007389
v 0.057369 -0.048788 -0.049100
v 0.075608 0.018750 -0.044773
v 0.055173 -0.100755 -0.069390
v 0.086075 0.005582 -0.064892
v 0.073759 0.059266 -0.035170
v -0.006886 -0.173219 -0.012928
v -0.052307 0.034649 0.027965
v -0.038755 -0.046932 0.037406
v 0.039326 -0.073204 0.021116
v 0.074605 0.004619 -0.051463
v 0.051481 -0.085096 -0.072739
v 0.069715 -0.011580 -0.050490
v -0.005084 -0.102769 0.006234
v 0.082827 -0.010455 -0.064824
v 0.093547 -0.150981 -0.053940
v -0.040792 -0.028646 0.038559
v -0.006226 -0.156785 -0.015586
v 0.051060 -0.068450 -0.071535
v 0.069741 -0.028406 -0.050165
v -0.027809 -0.176847 -0.002987
v 0.042480 0.097903 -0.118342
v -0.040845 -0.008413 0.037459
v -0.007172 -0.137981 -0.010579
v 0.084356 -0.144440 -0.058703
v -0.026578 0.012594 0.019853
v 0.075211 0.023366 -0.037978
v 0.057602 -0.047030 -0.039649
v 0.068847 -0.121230 -0.074974
v -0.038847 0.011791 0.032800
v 0.075103 0.040946 -0.032495
v -0.031493 -0.103621 -0.014191
v 0.028437 -0.083066 0.018143
v -0.004739 0.082635 0.033021
v 0.045938 0.081343 -0.129017
v 0.055167 -0.060905 -0.033877
v 0.060017 0.099917 -0.084968
v 0.080728 0.019455 -0.053275
v 0.020006 -0.092513 0.006390
v -0.023160 -0.086440 0.018856
v 0.030984 -0.102933 -0.014483
v 0.057903 -0.113877 -0.053524
v 0.010834 -0.172217 -0.012096
v 0.054501 -0.048596 -0.070916
v 0.075857 0.016517 -0.074605
v 0.026146 -0.177013 -0.003063
v 0.078359 0.052146 -0.057036
v 0.011786 -0.103216 0.003445
v 0.072214 0.078185 -0.093022
v 0.031100 0.012473 0.019327
v 0.009822 -0.156360 -0.015335
v 0.032875 -0.090914 -0.011219
v 0.058191 -0.032532 -0.075022
v 0.020368 0.023110 0.021388
v 0.077460 0.066646 -0.058491
v -0.037298 -0.061179 0.033579
v -0.062588 0.081801 -0.016972
v 0.077380 0.010064 -0.043985
v 0.051663 -0.104897 -0.036207
v -0.047813 0.085680 0.006057
v 0.057487 0.088654 -0.112208
v 0.015243 -0.135094 -0.012093
v 0.052744 -0.085095 -0.036679
v -0.056423 0.095274 -0.020015
v 0.072179 -0.153772 -0.042419
v 0.043311 0.105468 -0.106408
v 0.012373 0.080697 0.032968
v -0.043869 0.095858 -0.001249
v 0.019973 -0.118544 -0.009778
v 0.104643 -0.136386 -0.099692
v 0.031648 -0.166887 -0.015333
v 0.061620 -0.123120 -0.057493
v 0.047090 -0.137015 -0.031288
v 0.035776 -0.080815 -0.001661
v 0.027111 -0.154328 -0.018394
v 0.021445 0.015413 0.022380
v 0.067507 -0.138151 -0.052777
v 0.055800 -0.062014 -0.052847
v 0.076711 0.028841 -0.041794
v 0.023017 -0.097065 -0.001742
v -0.038759 0.109411 -0.017095
v 0.050929 -0.122411 -0.036299
v 0.011976 -0.181411 -0.003003
v 0.088506 -0.132226 -0.077806
v 0.079007 -0.024506 -0.056169
v 0.055763 -0.081677 -0.050348
v 0.072109 -0.010220 -0.066486
v 0.066485 0.078300 -0.108045
v 0.034455 -0.140796 -0.021472
v -0.001989 -0.094871 0.016419
v 0.081280 -0.014639 -0.058830
v -0.044462 0.104287 -0.015342
v 0.031590 0.025090 0.015540
v 0.009748 -0.118733 -0.003591
v -0.011481 -0.092036 0.020231
v 0.059584 0.094765 -0.099921
v -0.054844 0.078115 0.002080
v 0.027959 0.076075 0.030649
v 0.056043 -0.101037 -0.049740
v 0.081275 0.010540 -0.054086
v 0.031481 -0.118126 -0.017218
v 0.046415 0.109987 -0.089455
v 0.054279 -0.156574 -0.031340
v 0.031570 0.034520 0.023579
v 0.074386 0.006596 -0.067008
f 28 19 1
f 1 19 104
f 28 1 31
f 38 31 1
f 216 38 1
f 1 104 48
f 216 1 48
f 23 58 2
f 23 2 62
f 47 2 58
f 242 2 47
f 237 62 2
f 242 237 2
f 36 3 33
f 86 33 3
f 36 77 3
f 86 3 44
f 44 3 102
f 77 102 3
f 7 15 4
f 7 4 19
f 63 4 15
f 19 4 104
f 4 63 82
f 4 82 104
f 17 5 59
f 211 5 17
f 5 36 33
f 5 33 59
f 211 36 5
f 12 6 39
f 91 6 12
f 6 30 39
f 30 6 65
f 99 65 6
f 6 91 99
f 239 15 7
f 34 7 19
f 257 7 34
f 257 239 7
f 82 8 11
f 8 230 11
f 85 8 82
f 85 93 8
f 93 244 8
f 8 244 230
f 105 32 9
f 9 32 253
f 105 9 130
f 234 130 9
f 9 253 234
f 22 76 10
f 231 22 10
f 162 10 76
f 10 162 259
f 231 10 274
f 10 259 279
f 10 279 274
f 82 11 48
f 11 221 48
f 11 230 221
f 24 12 53
f 70 12 24
f 46 12 39
f 46 53 12
f 78 12 70
f 12 78 91
f 21 69 13
f 527 21 13
f 13 69 463
f 13 463 486
f 527 13 486
f 60 14 37
f 71 37 14
f 14 80 54
f 14 54 95
f 96 14 60
f 14 95 71
f 96 80 14
f 63 15 52
f 52 15 239
f 16 51 29
f 73 16 29
f 17 34 211
f 17 257 34
f 17 59 49
f 257 17 49
f 42 524 18
f 18 524 499
f 34 19 28
f 44 102 20
f 519 44 20
f 81 55 20
f 256 20 55
f 81 20 102
f 256 555 20
f 519 20 555
f 74 21 56
f 56 21 527
f 21 64 69
f 21 98 64
f 67 98 21
f 67 21 101
f 74 101 21
f 22 30 65
f 30 22 248
f 22 65 99
f 22 108 76
f 22 99 103
f 103 108 22
f 231 274 22
f 254 248 22
f 274 254 22
f 43 58 23
f 23 75 43
f 62 83 23
f 75 23 110
f 106 23 83
f 106 110 23
f 67 24 53
f 24 67 70
f 512 45 25
f 25 45 554
f 25 535 512
f 554 535 25
f 60 37 26
f 37 545 26
f 26 220 60
f 26 247 220
f 26 269 247
f 534 269 26
f 26 545 534
f 43 27 58
f 27 43 195
f 27 258 58
f 27 195 258
f 232 28 31
f 34 28 57
f 57 28 232
f 89 29 51
f 29 106 73
f 110 29 89
f 110 106 29
f 30 206 39
f 248 39 30
f 30 39 503
f 248 206 30
f 30 294 248
f 546 30 248
f 294 30 546
f 30 503 546
f 38 218 31
f 127 31 218
f 232 31 127
f 50 52 32
f 107 50 32
f 32 52 212
f 105 107 32
f 32 212 229
f 32 229 253
f 84 59 33
f 84 33 86
f 57 211 34
f 45 35 505
f 35 45 516
f 489 56 35
f 35 56 527
f 489 35 516
f 35 527 505
f 198 77 36
f 211 198 36
f 37 71 41
f 37 41 510
f 517 37 510
f 545 37 517
f 216 207 38
f 207 218 38
f 39 199 46
f 39 206 199
f 248 206 39
f 206 300 39
f 39 300 503
f 192 40 47
f 47 40 249
f 40 90 97
f 40 148 90
f 97 249 40
f 40 243 148
f 192 243 40
f 510 41 71
f 433 556 42
f 42 556 524
f 43 75 164
f 43 164 195
f 475 86 44
f 475 44 519
f 45 505 494
f 45 494 554
f 45 512 516
f 53 46 199
f 47 58 258
f 192 47 252
f 47 249 242
f 47 258 252
f 82 48 104
f 48 221 216
f 79 49 59
f 160 49 79
f 160 202 49
f 257 49 202
f 50 63 52
f 63 50 82
f 107 82 50
f 52 239 212
f 53 64 98
f 53 226 64
f 67 53 98
f 53 199 226
f 80 61 54
f 95 54 61
f 213 55 81
f 55 213 228
f 55 228 256
f 489 74 56
f 232 211 57
f 79 59 84
f 113 96 60
f 113 60 220
f 80 189 61
f 142 95 61
f 142 61 207
f 189 218 61
f 207 61 218
f 83 62 176
f 237 176 62
f 69 64 219
f 226 219 64
f 66 93 85
f 105 66 85
f 111 93 66
f 111 66 105
f 70 67 94
f 67 101 94
f 103 72 68
f 72 484 68
f 103 68 108
f 108 68 459
f 68 484 459
f 69 219 355
f 463 69 355
f 94 78 70
f 142 71 95
f 142 188 71
f 510 71 188
f 91 72 99
f 91 109 72
f 99 72 103
f 438 72 109
f 480 72 438
f 480 484 72
f 73 106 92
f 444 101 74
f 444 74 489
f 75 110 173
f 75 173 164
f 162 76 108
f 81 77 100
f 81 102 77
f 96 100 77
f 96 77 135
f 169 135 77
f 198 169 77
f 112 91 78
f 112 78 94
f 488 79 84
f 79 116 160
f 79 488 116
f 96 189 80
f 81 100 179
f 213 81 179
f 107 85 82
f 87 106 83
f 187 87 83
f 187 83 176
f 488 84 86
f 105 85 107
f 488 86 475
f 106 87 92
f 87 123 92
f 87 187 123
f 108 88 167
f 108 459 88
f 88 459 167
f 173 110 89
f 173 89 134
f 97 90 111
f 90 139 111
f 90 148 139
f 91 112 109
f 111 139 93
f 139 128 93
f 93 128 244
f 94 101 453
f 428 112 94
f 428 94 453
f 100 96 113
f 96 135 189
f 97 111 105
f 105 119 97
f 97 119 249
f 100 113 179
f 444 453 101
f 105 130 119
f 162 108 167
f 428 109 112
f 438 109 428
f 113 240 179
f 113 220 240
f 117 114 138
f 117 163 114
f 114 241 138
f 163 235 114
f 114 235 241
f 129 115 188
f 216 115 129
f 115 140 165
f 140 115 185
f 150 115 158
f 150 185 115
f 158 115 221
f 159 115 165
f 159 188 115
f 221 185 115
f 115 185 230
f 216 221 115
f 221 115 230
f 160 116 146
f 116 359 146
f 116 344 359
f 488 344 116
f 117 138 166
f 147 163 117
f 295 147 117
f 408 117 166
f 295 117 266
f 266 117 408
f 127 118 169
f 118 127 218
f 118 135 169
f 118 189 135
f 189 118 218
f 234 119 130
f 119 191 204
f 234 191 119
f 119 204 249
f 171 120 153
f 120 233 153
f 120 171 233
f 121 394 131
f 121 131 414
f 121 136 167
f 136 121 170
f 121 167 374
f 170 121 339
f 121 402 339
f 424 121 374
f 424 394 121
f 121 414 402
f 122 176 133
f 245 122 133
f 157 176 122
f 245 157 122
f 123 157 186
f 123 187 157
f 124 161 132
f 381 124 132
f 174 124 154
f 154 124 361
f 124 174 161
f 361 124 381
f 172 125 126
f 126 125 228
f 131 156 125
f 131 125 172
f 228 125 156
f 172 126 240
f 126 228 213
f 213 240 126
f 127 169 198
f 232 127 198
f 139 203 128
f 203 183 128
f 128 183 244
f 188 142 129
f 129 142 207
f 129 207 216
f 394 156 131
f 414 131 172
f 132 161 149
f 132 149 178
f 393 132 178
f 132 393 381
f 223 133 176
f 184 133 223
f 184 245 133
f 251 173 134
f 134 210 251
f 136 162 167
f 162 136 170
f 175 145 137
f 177 137 145
f 177 168 137
f 255 137 168
f 175 137 182
f 255 182 137
f 166 138 180
f 138 217 180
f 138 241 217
f 203 139 148
f 183 153 140
f 140 153 399
f 165 140 360
f 183 140 185
f 140 399 360
f 155 144 141
f 144 178 141
f 141 178 149
f 141 149 195
f 155 141 200
f 141 195 164
f 164 251 141
f 251 200 141
f 180 146 143
f 146 377 143
f 166 180 143
f 391 166 143
f 391 143 377
f 178 144 151
f 393 151 144
f 409 144 155
f 393 144 409
f 145 175 152
f 184 145 152
f 184 177 145
f 160 146 180
f 146 359 377
f 147 190 163
f 190 147 246
f 295 246 147
f 203 148 193
f 243 193 148
f 258 149 161
f 258 195 149
f 150 158 197
f 230 185 150
f 230 150 197
f 393 178 151
f 429 151 393
f 175 346 152
f 205 184 152
f 152 350 205
f 350 152 346
f 171 153 183
f 215 183 153
f 153 233 288
f 153 288 262
f 262 399 153
f 174 154 181
f 181 154 193
f 238 193 154
f 277 238 154
f 396 277 154
f 342 154 361
f 396 154 342
f 200 358 155
f 358 427 155
f 409 155 418
f 418 155 427
f 228 156 256
f 256 156 349
f 394 349 156
f 157 187 176
f 222 186 157
f 222 157 236
f 245 236 157
f 158 221 197
f 165 360 159
f 378 188 159
f 360 378 159
f 180 227 160
f 160 227 202
f 174 258 161
f 162 170 339
f 259 162 289
f 162 339 289
f 190 201 163
f 163 201 235
f 164 173 251
f 408 166 391
f 374 167 365
f 365 167 459
f 214 168 177
f 204 191 168
f 191 224 168
f 214 204 168
f 255 168 224
f 203 171 183
f 183 244 171
f 171 203 233
f 171 244 250
f 172 240 194
f 369 172 194
f 414 172 369
f 243 174 181
f 174 243 252
f 174 252 258
f 337 175 182
f 175 337 346
f 223 176 237
f 223 177 184
f 223 214 177
f 213 179 240
f 180 217 227
f 243 181 193
f 182 255 312
f 182 312 375
f 337 182 472
f 182 375 472
f 185 244 183
f 205 245 184
f 221 230 185
f 244 230 185
f 275 304 188
f 275 188 378
f 304 510 188
f 190 225 201
f 224 225 190
f 255 224 190
f 255 190 246
f 224 191 225
f 191 234 225
f 252 243 192
f 193 238 203
f 209 194 240
f 323 194 209
f 369 194 323
f 236 205 196
f 196 205 301
f 196 222 236
f 196 278 222
f 268 278 196
f 268 196 310
f 196 301 310
f 244 197 208
f 230 197 221
f 230 197 244
f 232 198 211
f 206 308 199
f 308 226 199
f 210 200 251
f 234 201 225
f 234 253 201
f 253 235 201
f 257 202 227
f 238 233 203
f 214 249 204
f 236 245 205
f 301 205 350
f 248 300 206
f 206 300 308
f 247 209 240
f 209 247 269
f 209 269 323
f 212 239 217
f 212 217 241
f 229 212 241
f 223 242 214
f 214 242 249
f 239 227 217
f 316 219 226
f 316 327 219
f 355 219 327
f 247 240 220
f 222 278 260
f 223 237 242
f 316 226 308
f 239 257 227
f 229 241 235
f 253 229 235
f 238 277 233
f 233 277 288
f 295 255 246
f 248 254 283
f 283 294 248
f 248 294 300
f 546 248 294
f 274 283 254
f 255 295 303
f 255 303 312
f 256 349 281
f 256 281 555
f 259 289 279
f 261 328 263
f 332 261 263
f 261 272 300
f 272 261 325
f 300 294 261
f 261 294 328
f 300 328 261
f 503 300 261
f 261 332 325
f 529 261 328
f 503 261 529
f 288 307 262
f 262 307 299
f 299 399 262
f 267 263 328
f 404 263 267
f 386 332 263
f 404 386 263
f 270 315 264
f 264 327 270
f 302 264 315
f 327 302 264
f 387 293 265
f 407 265 293
f 387 265 502
f 448 265 407
f 448 541 265
f 541 502 265
f 266 314 287
f 334 266 287
f 295 266 334
f 266 408 314
f 306 267 283
f 267 320 283
f 267 306 345
f 267 328 320
f 267 345 404
f 278 268 326
f 398 268 310
f 268 352 326
f 352 268 368
f 398 368 268
f 296 292 269
f 269 292 323
f 545 296 269
f 545 269 534
f 316 315 270
f 270 327 316
f 271 478 469
f 271 537 478
f 537 271 523
f 272 308 300
f 308 272 325
f 273 285 309
f 273 324 285
f 273 309 319
f 420 273 319
f 324 273 420
f 274 279 551
f 306 283 274
f 274 520 306
f 274 551 520
f 275 284 351
f 284 275 378
f 275 510 304
f 275 351 373
f 550 275 373
f 275 550 510
f 276 309 311
f 343 309 276
f 276 311 493
f 343 276 413
f 443 413 276
f 443 276 543
f 548 276 493
f 276 548 543
f 277 329 288
f 277 353 329
f 353 277 396
f 279 289 336
f 279 336 322
f 551 279 322
f 280 316 308
f 308 325 280
f 315 316 280
f 315 280 325
f 281 367 305
f 281 305 490
f 281 349 367
f 281 490 555
f 293 313 282
f 293 282 417
f 314 282 313
f 377 282 314
f 359 282 377
f 359 417 282
f 283 328 294
f 320 328 283
f 351 284 290
f 290 284 360
f 284 378 360
f 309 285 311
f 324 311 285
f 314 286 287
f 287 286 558
f 314 313 286
f 286 313 498
f 286 498 558
f 303 334 287
f 303 287 506
f 506 287 540
f 287 558 540
f 288 317 307
f 288 329 317
f 289 395 336
f 289 339 395
f 299 290 360
f 290 299 423
f 351 290 340
f 290 423 340
f 291 327 302
f 302 426 291
f 331 292 296
f 323 292 425
f 331 382 292
f 336 292 382
f 336 425 292
f 442 313 293
f 442 293 387
f 407 293 417
f 300 294 328
f 328 294 546
f 294 557 546
f 303 295 334
f 296 521 331
f 296 545 521
f 311 330 297
f 311 297 493
f 330 421 297
f 297 421 493
f 422 298 305
f 305 298 490
f 508 298 422
f 435 502 298
f 508 435 298
f 490 298 502
f 299 307 412
f 299 360 399
f 299 412 423
f 310 301 398
f 398 301 350
f 315 341 302
f 355 327 302
f 363 302 341
f 302 426 341
f 355 302 363
f 312 303 506
f 367 411 305
f 411 422 305
f 487 345 306
f 487 306 520
f 307 317 412
f 309 363 319
f 309 343 363
f 330 311 324
f 375 312 497
f 312 506 497
f 313 442 449
f 313 449 498
f 377 314 391
f 391 314 408
f 325 348 315
f 315 348 341
f 317 329 400
f 317 400 412
f 332 318 364
f 332 376 318
f 335 318 376
f 383 318 335
f 383 364 318
f 363 341 319
f 420 319 341
f 321 333 368
f 537 333 321
f 356 321 398
f 356 537 321
f 321 368 398
f 322 336 520
f 551 322 520
f 323 425 369
f 324 509 330
f 324 420 338
f 338 462 324
f 462 509 324
f 325 332 383
f 335 371 325
f 335 325 383
f 325 371 348
f 529 328 507
f 328 546 507
f 353 388 329
f 329 388 400
f 385 330 353
f 353 330 388
f 354 388 330
f 462 354 330
f 330 385 421
f 462 330 509
f 389 382 331
f 331 521 389
f 383 332 364
f 376 332 386
f 333 523 368
f 537 523 333
f 371 335 376
f 382 520 336
f 395 425 336
f 337 457 346
f 337 465 457
f 337 472 465
f 341 420 338
f 426 341 338
f 338 420 410
f 470 338 410
f 420 426 338
f 338 470 462
f 339 402 379
f 339 379 425
f 339 425 395
f 461 351 340
f 366 403 340
f 423 366 340
f 403 430 340
f 340 430 461
f 341 348 420
f 420 341 426
f 421 342 361
f 385 396 342
f 385 342 421
f 355 343 370
f 415 343 355
f 415 363 343
f 370 343 413
f 344 417 359
f 344 407 417
f 344 448 407
f 488 448 344
f 345 416 404
f 416 345 487
f 356 350 346
f 346 482 356
f 346 457 482
f 362 347 401
f 470 347 362
f 410 401 347
f 410 470 347
f 348 371 401
f 348 401 410
f 348 410 420
f 349 424 367
f 349 394 424
f 350 356 398
f 419 373 351
f 390 419 351
f 390 351 436
f 436 351 461
f 385 353 396
f 388 354 470
f 354 462 470
f 355 363 415
f 463 355 370
f 356 482 537
f 357 397 380
f 404 357 380
f 357 406 397
f 404 406 357
f 381 485 361
f 421 361 447
f 447 361 485
f 362 401 384
f 362 384 476
f 476 470 362
f 374 365 411
f 411 365 422
f 459 422 365
f 366 430 403
f 440 366 403
f 423 483 366
f 430 366 483
f 479 366 440
f 479 483 366
f 424 411 367
f 379 414 369
f 379 369 425
f 413 451 370
f 451 486 370
f 486 463 370
f 401 371 376
f 372 404 406
f 439 373 419
f 373 439 550
f 424 374 411
f 375 497 472
f 380 376 386
f 380 392 376
f 376 384 392
f 384 401 376
f 402 414 379
f 384 392 380
f 384 380 397
f 404 380 386
f 429 381 393
f 381 429 485
f 405 382 389
f 405 487 382
f 382 487 520
f 430 384 397
f 397 384 479
f 430 483 384
f 384 483 476
f 479 384 483
f 442 387 435
f 435 387 502
f 388 470 400
f 389 439 405
f 389 432 439
f 389 521 432
f 441 419 390
f 441 390 436
f 409 434 393
f 429 393 434
f 430 397 406
f 430 397 440
f 397 479 440
f 400 452 412
f 400 470 452
f 403 430 440
f 406 404 416
f 405 439 431
f 431 487 405
f 436 406 416
f 430 406 436
f 445 409 418
f 434 409 445
f 423 412 476
f 412 452 476
f 451 413 443
f 431 441 416
f 416 487 431
f 436 416 441
f 427 445 418
f 439 419 441
f 447 493 421
f 459 508 422
f 423 476 483
f 427 450 445
f 427 474 450
f 428 466 438
f 466 428 453
f 446 429 434
f 429 446 447
f 447 485 429
f 430 436 461
f 431 439 441
f 432 513 439
f 521 513 432
f 469 518 433
f 433 518 556
f 445 477 434
f 446 434 477
f 500 442 435
f 500 435 508
f 460 474 437
f 536 460 437
f 456 480 438
f 491 456 438
f 464 438 466
f 553 438 464
f 438 511 491
f 553 511 438
f 550 439 513
f 442 491 449
f 442 500 491
f 443 501 451
f 543 501 443
f 453 444 481
f 481 444 489
f 450 471 445
f 445 471 477
f 467 447 446
f 446 477 454
f 446 454 515
f 547 467 446
f 446 515 547
f 467 493 447
f 541 448 488
f 553 458 449
f 491 498 449
f 491 553 449
f 450 460 471
f 460 450 474
f 451 492 486
f 501 492 451
f 452 470 476
f 473 466 453
f 453 481 473
f 473 538 453
f 515 454 477
f 472 497 455
f 472 455 531
f 455 473 481
f 473 455 497
f 489 455 481
f 531 455 489
f 456 532 480
f 491 532 456
f 539 457 465
f 457 525 482
f 457 495 525
f 457 552 495
f 539 552 457
f 458 464 553
f 458 558 464
f 540 458 468
f 553 468 458
f 540 558 458
f 484 491 459
f 500 459 491
f 459 500 508
f 496 471 460
f 536 496 460
f 466 553 464
f 464 491 553
f 464 558 491
f 464 540 558
f 539 465 472
f 466 540 468
f 466 468 544
f 538 473 466
f 473 540 466
f 466 544 538
f 466 544 553
f 543 493 467
f 467 501 543
f 547 501 467
f 538 468 544
f 553 544 468
f 469 478 518
f 477 471 504
f 496 504 471
f 472 531 539
f 473 497 506
f 506 540 473
f 488 475 514
f 514 475 519
f 477 504 515
f 478 530 518
f 478 537 530
f 484 480 532
f 530 482 525
f 482 530 537
f 484 532 491
f 492 527 486
f 541 488 514
f 539 489 516
f 539 531 489
f 490 502 549
f 549 555 490
f 491 558 498
f 491 511 553
f 501 533 492
f 492 533 527
f 543 548 493
f 533 501 494
f 554 494 501
f 533 494 505
f 512 535 495
f 512 495 552
f 495 535 525
f 496 499 524
f 496 536 499
f 524 504 496
f 522 501 547
f 554 501 522
f 549 502 541
f 503 529 546
f 528 515 504
f 524 528 504
f 505 527 533
f 529 507 546
f 510 521 517
f 550 521 510
f 516 512 552
f 550 513 521
f 514 519 549
f 549 541 514
f 547 515 522
f 522 515 554
f 515 528 542
f 542 554 515
f 516 552 539
f 545 517 521
f 556 518 530
f 549 519 555
f 528 524 556
f 530 525 535
f 526 530 535
f 556 530 526
f 554 526 535
f 554 542 526
f 542 556 526
f 542 528 556
