# Face Mesh LOD1 - Triangles: 1156
v -0.074224 0.049637 -0.102373
v -0.039898 -0.103101 -0.107048
v 0.059846 -0.083833 -0.021454
v -0.058622 0.031259 -0.124839
v -0.052480 -0.074519 -0.082802
v 0.065352 0.006912 0.022563
v -0.039860 0.037972 -0.142822
v -0.034004 -0.023331 -0.125104
v 0.047936 0.061270 0.020684
v -0.073072 0.014943 -0.096190
v 0.068935 -0.012438 0.022499
v 0.049241 -0.085451 0.002532
v -0.062034 0.103004 -0.051663
v -0.039689 0.024978 -0.141426
v -0.084048 -0.151085 -0.136738
v -0.021374 0.084346 -0.142512
v 0.041610 -0.169912 -0.017325
v -0.064329 0.046127 -0.120312
v 0.057172 -0.075524 0.000317
v 0.053604 0.042420 0.022411
v -0.036756 -0.062556 -0.100866
v -0.051105 0.006005 -0.125829
v -0.060469 -0.120093 -0.110555
v 0.062540 -0.028481 0.021080
v 0.046327 -0.117349 -0.024096
v -0.044397 0.115358 -0.035468
v -0.060024 -0.110065 -0.086260
v -0.062007 0.063087 -0.122319
v -0.079226 -0.143180 -0.130299
v 0.059309 -0.046820 0.020285
v 0.046665 0.022707 0.025451
v 0.061124 -0.071392 -0.014217
v -0.036713 -0.009967 -0.131370
v 0.000574 0.108100 -0.128283
v -0.040044 0.063526 -0.141647
v -0.072135 -0.130611 -0.119467
v -0.052266 0.042015 -0.132755
v -0.021908 0.099692 -0.130815
v -0.058386 0.102950 -0.034307
v -0.078918 0.056774 -0.086452
v 0.048384 0.013618 0.026298
v 0.045889 -0.177693 -0.006809
v -0.044503 -0.068564 -0.092517
v -0.069143 0.087627 -0.037317
v 0.065927 -0.172795 -0.017884
v -0.065465 -0.117022 -0.092264
v 0.022662 0.116811 -0.108675
v 0.049051 -0.101756 -0.017306
v -0.045996 -0.086873 -0.093468
v -0.075409 0.031781 -0.095848
v 0.000565 0.085834 -0.145849
v -0.097017 -0.144014 -0.123391
v 0.062441 -0.063765 0.001771
v -0.039292 0.008996 -0.138356
v -0.070925 0.091087 -0.079484
v 0.017807 0.125371 -0.086648
v -0.051326 0.059541 -0.133687
v -0.051017 -0.104057 -0.096933
v 0.000575 0.095216 -0.139498
v -0.052304 0.108822 -0.032309
v -0.044439 0.118165 -0.052703
v -0.076214 0.079938 -0.076070
v -0.044642 -0.117905 -0.117516
v 0.054708 -0.050990 0.027260
v 0.061335 0.023115 0.015587
v 0.064804 -0.045813 0.002572
v 0.072133 0.041350 -0.020648
v 0.055707 -0.072039 0.021306
v 0.057494 0.051041 0.011131
v 0.067308 -0.029269 0.004779
v -0.072848 0.074509 -0.037694
v 0.072197 0.019849 -0.015068
v -0.061140 -0.156375 -0.143566
v -0.074918 -0.122844 -0.098557
v 0.057118 0.062912 0.007254
v -0.021696 0.116759 -0.108416
v 0.071998 -0.013514 0.005967
v 0.051321 -0.080931 0.020166
v -0.064935 0.100173 -0.066302
v -0.007383 0.126183 -0.088131
v -0.061164 -0.000727 -0.111033
v -0.049363 -0.126155 -0.124856
v -0.051819 -0.033275 -0.096581
v -0.057877 -0.015788 -0.103915
v 0.023033 0.099726 -0.130995
v 0.000293 0.127963 -0.085698
v -0.037338 -0.139710 -0.136825
v 0.067280 0.069143 -0.016557
v -0.101832 -0.136963 -0.102796
v -0.047815 -0.049864 -0.091799
v 0.073022 0.007394 0.004148
v -0.040491 -0.157877 -0.143769
v -0.065039 -0.015875 -0.087959
v 0.069987 -0.027542 -0.014836
v -0.074518 0.078865 -0.052677
v -0.040917 0.119381 -0.071506
v -0.038210 -0.048714 -0.103565
v 0.065626 0.026154 0.003983
v -0.019107 0.124059 -0.090072
v 0.066355 -0.049299 -0.019853
v 0.000515 0.118759 -0.111764
v 0.063427 0.042281 0.001075
v -0.064014 0.016913 -0.116343
v -0.069182 -0.001543 -0.093631
v 0.059380 -0.064887 0.016594
v -0.041898 -0.033645 -0.108432
v -0.058262 -0.139171 -0.133069
v -0.047507 -0.016871 -0.116313
v 0.062280 0.060762 -0.001683
v 0.075220 0.006407 -0.018348
v -0.085135 -0.128401 -0.102658
v 0.022502 0.084379 -0.142673
v 0.073858 -0.012418 -0.014710
v -0.070729 0.068634 -0.107172
v -0.028808 0.124601 -0.068892
v 0.018329 -0.007464 -0.140805
v -0.081787 0.018455 -0.055629
v 0.022068 0.070575 -0.148801
v 0.037138 -0.009926 -0.131571
v -0.057792 0.091353 -0.112037
v -0.027693 -0.047003 -0.113741
v -0.073659 -0.029857 -0.039875
v 0.052040 0.099363 -0.015813
v -0.019618 -0.160946 -0.143510
v -0.066350 -0.082608 -0.037097
v 0.015686 0.128613 -0.055032
v -0.066911 0.080747 -0.108051
v -0.068408 -0.015391 -0.073634
v -0.078298 0.034674 -0.052677
v 0.036664 0.118946 -0.033490
v -0.060332 -0.105035 -0.035282
v -0.004945 -0.124636 -0.129587
v -0.101192 -0.140737 -0.077867
v -0.046700 0.112789 -0.088759
v 0.056107 0.088852 -0.009585
v 0.030314 -0.065444 -0.106294
v 0.019465 0.005210 -0.146217
v -0.020210 0.127310 -0.070411
v -0.059963 -0.033297 -0.077687
v -0.075403 0.007538 -0.039507
v -0.067086 -0.142035 -0.050619
v -0.078384 0.060992 -0.057941
v -0.049790 -0.141435 -0.030019
v 0.033094 -0.085164 -0.104312
v 0.032493 -0.028765 -0.121997
v -0.057519 -0.050132 -0.073640
v -0.062484 -0.122815 -0.055829
v -0.089588 0.014296 -0.062526
v 0.046916 0.108457 -0.022031
v -0.046096 -0.126491 -0.025816
v 0.031322 -0.100870 -0.110942
v -0.018655 -0.143020 -0.138761
v -0.073986 -0.012961 -0.040264
v -0.062937 -0.064319 -0.034311
v 0.063358 0.090483 -0.025390
v 0.044241 -0.065186 0.037843
v -0.056424 -0.161053 -0.030664
v 0.031737 0.124038 -0.050026
v -0.000112 -0.143344 -0.139819
v -0.075351 0.041793 -0.032906
v 0.021609 0.054877 -0.152067
v -0.065250 -0.105776 -0.049922
v 0.051984 0.081942 0.002928
v 0.017203 -0.017060 -0.135783
v -0.076367 -0.128302 -0.078275
v -0.075723 0.026325 -0.035682
v 0.039914 0.009034 -0.138592
v 0.064189 0.079659 -0.017238
v 0.013182 -0.070607 -0.113455
v -0.043065 0.104502 -0.112135
v 0.047784 0.092917 -0.001317
v -0.076947 -0.027605 -0.054332
v 0.015703 0.125687 -0.032826
v -0.086681 -0.133432 -0.080013
v -0.068023 -0.079753 -0.052300
v -0.070142 0.086141 -0.094569
v -0.026938 -0.126378 -0.129671
v 0.013174 -0.082075 -0.113217
v -0.056747 -0.126988 -0.040246
v -0.007185 -0.108658 -0.120137
v -0.003393 0.130565 -0.071496
v 0.020045 0.021011 -0.150027
v -0.062741 -0.065130 -0.054493
v -0.075450 -0.012455 -0.052941
v 0.013449 -0.095690 -0.115129
v -0.079382 0.008393 -0.054140
v 0.000214 -0.162339 -0.144459
v 0.041993 -0.080445 0.036736
v -0.074123 0.060719 -0.034952
v -0.060178 0.099970 -0.091921
v 0.015300 -0.029588 -0.127968
v 0.020632 0.034610 -0.151892
v -0.008532 -0.053415 -0.116726
v 0.018627 -0.142578 -0.138706
v -0.061462 -0.051077 -0.050949
v -0.000019 0.127858 -0.030650
v -0.064531 -0.117742 -0.072529
v 0.037533 -0.139941 -0.136901
v -0.090304 0.007849 -0.067771
v 0.049598 -0.010706 0.040213
v -0.078998 -0.161965 -0.038211
v 0.000501 0.062706 -0.153875
v -0.068362 -0.030009 -0.051099
v -0.006358 -0.069921 -0.114178
v -0.071425 -0.092329 -0.050404
v 0.031909 -0.124557 -0.127804
v 0.046454 0.010047 0.033702
v -0.079686 0.062819 -0.072474
v -0.089401 -0.006501 -0.069017
v -0.010170 0.126840 -0.031576
v -0.096433 -0.154820 -0.054350
v -0.045085 0.080893 -0.131736
v 0.014267 -0.108637 -0.120015
v -0.018902 0.005190 -0.146095
v 0.015901 0.128350 -0.072942
v -0.004398 -0.086258 -0.114476
v -0.067597 -0.010488 -0.051889
v -0.079915 0.045068 -0.075295
v 0.000363 0.026748 -0.153980
v -0.075224 0.074740 -0.091292
v -0.020946 0.127273 -0.054794
v 0.045049 -0.049581 0.038833
v 0.000091 -0.046430 -0.118523
v -0.031406 0.124011 -0.049381
v -0.082412 0.020403 -0.067156
v 0.020000 -0.161080 -0.143513
v -0.013542 -0.095777 -0.114991
v 0.013056 -0.052086 -0.116739
v -0.004658 -0.031620 -0.127566
v 0.048000 -0.029439 0.039346
v -0.017903 -0.007483 -0.140700
v -0.083989 0.008295 -0.066827
v -0.056550 0.079002 -0.122840
v -0.068522 -0.032291 -0.037933
v 0.064037 -0.012227 0.032019
v -0.019789 0.034583 -0.151752
v -0.023195 -0.029420 -0.125065
v 0.000168 -0.013045 -0.139831
v -0.027435 -0.102548 -0.114081
v -0.064317 -0.048008 -0.035579
v -0.019332 0.020988 -0.149899
v -0.006529 0.130300 -0.051673
v 0.000255 0.004178 -0.148710
v -0.026715 -0.084084 -0.108483
v -0.059656 -0.069774 -0.069449
v 0.062729 -0.000007 0.032403
v -0.081949 -0.012158 -0.067241
v 0.016023 -0.126065 -0.130446
v -0.026048 0.123226 -0.034287
v 0.044209 0.022704 0.032502
v -0.026565 -0.067103 -0.108758
v -0.081453 -0.023660 -0.064454
v -0.083048 -0.145134 -0.060701
v -0.061062 -0.089003 -0.074887
v -0.016875 -0.017082 -0.135689
v 0.046390 0.040280 0.033775
v 0.033198 -0.047737 -0.108821
v 0.033485 0.123000 -0.071268
v -0.089686 0.015952 -0.066130
v -0.020810 0.062691 -0.150283
v -0.062863 -0.102059 -0.070961
v 0.044781 0.077353 0.015940
v 0.038984 -0.164426 -0.145450
v 0.072393 -0.130850 -0.119674
v 0.016149 0.008215 0.042675
v 0.004425 0.019927 0.050859
v 0.024629 -0.045345 0.049546
v 0.071804 0.068859 -0.107837
v 0.051896 -0.020440 -0.108432
v 0.009214 0.041555 0.050225
v 0.069294 -0.145905 -0.135683
v -0.025718 0.117884 -0.015994
v 0.025595 -0.034796 0.050739
v -0.053680 -0.080509 0.012788
v 0.101708 -0.141040 -0.077899
v 0.018903 -0.010784 0.047165
v -0.021099 -0.067780 0.054062
v 0.030441 0.059978 0.037632
v -0.061214 0.061202 0.001868
v -0.005606 -0.094457 0.044037
v -0.066329 -0.049929 -0.019437
v 0.050782 -0.156676 -0.144059
v 0.006468 0.053905 0.049438
v 0.034300 0.082040 0.022945
v 0.049612 0.115741 -0.070079
v 0.064808 0.017053 -0.116798
v 0.030706 0.040172 0.042057
v -0.071928 -0.008486 0.018256
v -0.063763 0.041995 0.002248
v -0.025029 -0.082499 0.052827
v -0.056520 -0.069818 0.019996
v 0.071759 0.006832 -0.095301
v 0.065396 -0.015719 -0.088219
v -0.069009 -0.032906 -0.013969
v -0.072716 -0.002351 0.018622
v 0.034188 0.091412 0.015540
v -0.014055 -0.098460 0.030231
v -0.066232 0.025739 0.005250
v 0.014034 -0.048592 0.044791
v -0.005104 0.116609 -0.001333
v 0.075276 0.049867 -0.102995
v 0.030931 0.023736 0.035914
v 0.042152 -0.033543 -0.108625
v 0.059392 -0.011522 -0.106213
v -0.025516 0.111083 -0.001119
v -0.046172 -0.084402 0.021784
v 0.077082 0.080212 -0.076957
v 0.032018 0.010468 0.036304
v 0.049614 -0.126830 -0.125112
v 0.013041 -0.045755 0.055840
v 0.052122 -0.033095 -0.096829
v -0.067477 0.069218 -0.015271
v 0.067690 0.097330 -0.071590
v 0.012756 0.062573 0.043482
v 0.030269 -0.011213 0.045187
v -0.006339 -0.086813 0.057432
v 0.055530 -0.135010 -0.130440
v -0.027825 -0.089058 0.040645
v 0.048143 -0.049602 -0.092039
v 0.076399 0.032008 -0.096405
v 0.061736 -0.000621 -0.111407
v 0.011060 -0.030606 0.057865
v 0.032026 -0.029710 0.046955
v -0.068010 -0.028828 0.001219
v -0.001886 0.000303 0.069429
v -0.005530 -0.067346 0.059687
v 0.015725 0.038402 0.046513
v 0.085452 -0.128637 -0.102903
v 0.019315 0.087603 0.027610
v -0.005132 0.123673 -0.018132
v -0.030511 -0.062281 0.047114
v 0.009311 -0.013953 0.057509
v 0.067993 -0.154586 -0.142246
v 0.026516 -0.046751 0.044177
v 0.015229 0.022646 0.037811
v -0.065296 -0.045680 0.000179
v -0.025504 0.105898 0.006913
v 0.008070 0.005918 0.056412
v -0.005082 -0.012369 0.070278
v 0.014501 0.098271 0.020053
v 0.049432 -0.086541 -0.090673
v -0.073347 0.006802 0.005273
v -0.025071 -0.046538 0.044015
v 0.034628 0.100456 0.005028
v -0.056516 0.024595 0.022914
v -0.006625 -0.046139 0.057750
v -0.000266 0.108649 0.012450
v 0.012616 -0.086813 0.056418
v 0.052387 0.059662 -0.134127
v -0.004134 0.064726 0.043554
v 0.050170 -0.099320 -0.094357
v -0.028800 -0.026623 0.047750
v -0.005151 -0.028473 0.059527
v 0.044944 0.118251 -0.053493
v 0.097109 -0.154929 -0.054265
v 0.051028 -0.117262 -0.112473
v -0.071146 -0.018502 0.001370
v -0.056360 0.041036 0.020705
v 0.084370 -0.151558 -0.136844
v -0.060844 -0.067183 0.001755
v 0.034869 -0.065248 0.044764
v 0.070544 -0.119971 -0.095677
v -0.011861 0.034757 0.046880
v -0.065745 -0.172934 -0.017921
v 0.053232 0.042134 -0.133181
v -0.072169 0.026540 -0.015775
v -0.025200 -0.009803 0.046229
v 0.013896 -0.067016 0.057704
v 0.004301 0.001060 0.067078
v 0.070867 0.080094 -0.035714
v -0.039287 0.013072 0.023294
v 0.081768 -0.139411 -0.125519
v 0.017070 0.120396 -0.016439
v 0.031316 -0.087827 0.039181
v -0.007405 -0.014897 0.059206
v -0.020514 0.045173 0.048902
v -0.053511 0.055400 0.018156
v -0.046337 -0.177849 -0.006852
v 0.061973 0.099365 -0.035402
v 0.047420 -0.070112 -0.089576
v -0.008058 0.006481 0.057056
v 0.053239 0.029393 -0.131662
v -0.072574 0.047294 -0.021740
v 0.030375 0.109765 -0.003675
v -0.011047 0.022936 0.041429
v -0.042247 -0.104698 -0.013954
v -0.006060 0.101157 0.020039
v 0.006858 -0.011411 0.069375
v -0.025521 0.009497 0.038621
v -0.002332 0.023826 0.051302
v 0.079965 0.057092 -0.087200
v -0.058128 -0.048884 0.021649
v -0.025363 0.097201 0.017557
v -0.042288 0.041361 0.026492
v 0.051724 0.006076 -0.126155
v -0.012006 0.013214 0.044620
v -0.039540 -0.124320 -0.020277
v 0.050790 0.111124 -0.036491
v -0.073575 -0.012969 -0.014381
v 0.014593 0.107286 0.009545
v -0.060429 -0.071912 -0.013855
v -0.026873 0.023254 0.036061
v 0.064279 -0.123504 -0.114265
v -0.075285 0.005674 -0.017756
v -0.062730 -0.028847 0.021808
v -0.017403 -0.014083 0.054541
v 0.038642 0.107284 -0.008314
v -0.041073 0.023875 0.021536
v -0.006014 0.041670 0.050863
v -0.024732 0.087270 0.026977
v -0.024988 0.039363 0.044846
v 0.063092 0.063266 -0.122876
v 0.025289 -0.082464 0.052952
v 0.049109 -0.012453 -0.118533
v -0.036703 -0.145374 -0.019408
v 0.041098 0.063596 -0.141948
v 0.059947 -0.105835 -0.084031
v -0.021913 -0.033602 0.052872
v 0.062632 0.103156 -0.052627
v -0.007377 0.053960 0.049216
v 0.046643 -0.108360 -0.105175
v -0.068604 -0.014765 0.023065
v 0.015515 -0.093934 0.040946
v 0.033292 0.114963 -0.017606
v -0.052810 -0.100583 -0.021852
v 0.024998 -0.068338 0.052060
v -0.023665 0.061200 0.041601
v 0.065341 0.046284 -0.120834
v -0.038887 -0.160339 -0.021085
v 0.040765 0.038032 -0.143105
v -0.047614 0.064568 0.021715
v -0.021994 -0.045465 0.051428
v 0.014441 -0.098317 0.030161
v -0.048476 -0.085763 0.002632
v 0.080750 0.042127 -0.081645
v 0.073483 0.082693 -0.050598
v -0.071009 -0.024406 -0.022550
v -0.061893 0.010436 0.024279
v 0.040467 0.025026 -0.141685
v 0.054861 0.104887 -0.028819
v 0.065801 0.033397 -0.118927
v 0.013056 0.114746 -0.001458
v -0.006829 -0.049862 0.045423
v -0.058760 -0.084382 -0.021321
v -0.041740 -0.170126 -0.017328
v 0.074739 -0.012480 -0.040572
v -0.053951 -0.028745 0.035689
v -0.028817 -0.121542 -0.012350
v -0.041132 0.022767 0.034180
v -0.023613 0.077806 0.033406
v -0.030998 0.034571 0.025355
v -0.039437 0.090858 0.014046
v 0.064581 -0.105409 -0.067382
v 0.083890 -0.166166 -0.034011
v -0.022195 -0.138645 -0.011105
v 0.080623 0.063183 -0.073324
v -0.042850 0.040288 0.037281
v 0.076847 0.056542 -0.044765
v 0.063002 -0.090464 -0.072694
v -0.007210 -0.186970 -0.000272
v 0.075761 0.004309 -0.039659
v -0.041457 0.079025 0.020667
v -0.026585 0.024461 0.017637
v -0.037419 0.060561 0.034012
v 0.081223 0.048824 -0.070426
v 0.011178 -0.101504 0.020429
v 0.064646 -0.047271 -0.035978
v -0.024377 -0.158043 -0.013408
v -0.058460 0.004864 0.032587
v 0.061740 -0.075678 -0.068412
v -0.004961 -0.124170 0.000338
v -0.028751 -0.102235 0.002555
v 0.059989 0.074404 -0.123397
v 0.084867 0.019931 -0.066762
v -0.026186 -0.172561 -0.009102
v -0.061119 -0.008615 0.035759
v 0.072379 -0.030614 -0.039345
v -0.005140 -0.136582 -0.005362
v 0.087192 0.008239 -0.066050
v 0.073116 0.063240 -0.031657
v -0.006781 -0.177712 -0.010091
v -0.042267 -0.049817 0.041056
v 0.076386 0.004315 -0.053447
v 0.057604 -0.084273 -0.079720
v 0.072511 -0.011014 -0.051117
v -0.021534 -0.117571 -0.004433
v -0.005294 -0.111779 0.008170
v 0.084277 -0.011304 -0.066608
v -0.041703 -0.030466 0.043982
v -0.006156 -0.161000 -0.012888
v 0.057851 -0.062364 -0.070963
v 0.071477 -0.029005 -0.051960
v -0.028538 -0.181504 -0.000259
v 0.043702 0.100784 -0.118621
v 0.024958 -0.098012 0.014845
v -0.042851 -0.010884 0.043295
v -0.005541 -0.145484 -0.008850
v 0.083686 -0.145277 -0.060784
v 0.084862 -0.021864 -0.064913
v -0.028025 0.012858 0.021760
v 0.097356 -0.144435 -0.123550
v 0.075298 0.022372 -0.033986
v 0.072119 -0.124858 -0.076754
v 0.061934 -0.050364 -0.051129
v -0.041084 0.010955 0.035387
v 0.075760 0.042569 -0.033732
v 0.036835 -0.091187 0.021020
v -0.004789 0.083995 0.033639
v 0.048010 0.081569 -0.130357
v 0.061291 0.102691 -0.085061
v 0.083201 0.018545 -0.055349
v -0.033316 -0.091889 0.025066
v 0.036664 -0.107581 -0.011660
v 0.011810 -0.176546 -0.009336
v 0.057795 -0.049579 -0.073908
v 0.077605 -0.032644 -0.042721
v 0.027609 -0.181496 -0.000368
v 0.059218 -0.131596 -0.042107
v -0.040904 -0.082649 0.034723
v 0.079163 0.035312 -0.053436
v 0.011494 -0.111026 0.007215
v 0.073658 0.080678 -0.093705
v 0.031293 0.012661 0.022104
v 0.063013 -0.064319 -0.054728
v 0.010894 -0.160538 -0.012696
v -0.022207 -0.098168 0.018235
v 0.020577 0.022789 0.023932
v 0.079172 0.061407 -0.058846
v -0.040201 -0.066530 0.040952
v -0.062349 0.082146 -0.014019
v 0.077932 0.007836 -0.043049
v 0.022373 -0.117292 -0.004502
v 0.057260 -0.112689 -0.035727
v 0.070373 -0.085447 -0.051291
v -0.047876 0.087380 0.007193
v 0.011001 -0.145157 -0.009310
v -0.058706 0.095213 -0.020641
v 0.067384 -0.161650 -0.035573
v 0.051659 0.099928 -0.109501
v 0.012312 0.081940 0.033346
v -0.043885 0.097867 -0.000034
v 0.021689 -0.126061 -0.008402
v 0.102208 -0.137387 -0.102884
v 0.066340 -0.105076 -0.049794
v 0.025401 -0.172559 -0.009202
v 0.063525 -0.122353 -0.055996
v 0.050413 -0.141282 -0.029910
v 0.063489 -0.063705 -0.034514
v 0.029154 -0.158585 -0.016175
v 0.067955 -0.142003 -0.050624
v 0.060342 -0.033029 -0.077898
v 0.077961 0.030238 -0.043135
v 0.029615 -0.102215 0.002471
v -0.041502 0.112131 -0.020635
v 0.051747 -0.123968 -0.032212
v 0.012845 -0.186041 -0.000047
v 0.087122 -0.133638 -0.080162
v 0.080390 -0.026544 -0.054145
v 0.073396 -0.011937 -0.068791
v 0.067946 0.080926 -0.108690
v 0.029966 -0.141812 -0.015407
v -0.004161 -0.102942 0.019816
v 0.082277 -0.015783 -0.058312
v -0.043252 0.105770 -0.010587
v 0.031701 0.024965 0.016881
v 0.010839 -0.123516 -0.000752
v 0.064198 -0.100253 -0.034731
v 0.060906 0.097563 -0.100153
v -0.054909 0.079915 0.003034
v 0.027747 0.077162 0.030733
v 0.081999 0.009725 -0.053172
v 0.034044 -0.122633 -0.015302
v 0.067567 -0.082051 -0.037101
v 0.047584 0.112904 -0.089326
v 0.055085 -0.155968 -0.032095
v 0.031852 0.034839 0.025305
v 0.010793 -0.136219 -0.006110
v 0.076306 0.008189 -0.068296
f 1 18 4
f 1 4 50
f 28 18 1
f 28 1 114
f 40 114 1
f 218 40 1
f 218 1 50
f 23 58 2
f 23 2 63
f 49 2 58
f 244 2 49
f 239 63 2
f 244 239 2
f 3 32 12
f 3 12 48
f 548 32 3
f 3 48 567
f 548 3 573
f 3 567 573
f 7 14 4
f 7 4 37
f 22 4 14
f 37 4 18
f 4 22 103
f 103 50 4
f 5 43 49
f 5 245 43
f 5 49 254
f 254 245 5
f 11 77 6
f 11 6 246
f 6 31 41
f 65 31 6
f 207 6 41
f 98 65 6
f 6 77 91
f 6 91 98
f 207 246 6
f 236 14 7
f 35 7 37
f 260 7 35
f 260 236 7
f 108 33 8
f 8 33 255
f 106 108 8
f 106 8 237
f 8 255 237
f 9 20 69
f 9 278 20
f 69 75 9
f 163 9 75
f 9 163 262
f 9 262 284
f 9 284 278
f 103 10 50
f 10 225 50
f 81 10 103
f 81 104 10
f 104 232 10
f 10 232 225
f 70 11 24
f 235 24 11
f 77 11 70
f 246 235 11
f 32 19 12
f 12 19 78
f 48 12 553
f 12 78 507
f 495 12 507
f 495 553 12
f 44 39 13
f 61 13 39
f 13 95 44
f 96 13 61
f 13 79 95
f 96 79 13
f 22 14 54
f 54 14 241
f 236 241 14
f 15 52 29
f 73 15 29
f 16 35 212
f 16 260 35
f 16 38 59
f 212 38 16
f 16 59 51
f 260 16 51
f 45 17 42
f 42 17 545
f 45 538 17
f 549 17 538
f 17 549 545
f 57 18 28
f 57 37 18
f 32 53 19
f 19 53 68
f 19 68 78
f 20 31 65
f 31 20 250
f 20 65 98
f 20 102 69
f 20 98 102
f 256 250 20
f 278 256 20
f 21 43 90
f 21 251 43
f 21 90 97
f 97 251 21
f 22 54 33
f 108 22 33
f 22 81 103
f 108 81 22
f 74 23 36
f 107 36 23
f 46 58 23
f 23 74 46
f 63 82 23
f 107 23 82
f 30 66 24
f 30 24 230
f 24 66 70
f 24 200 230
f 24 235 200
f 533 48 25
f 25 48 572
f 25 555 533
f 572 555 25
f 39 26 60
f 61 39 26
f 39 554 26
f 26 224 61
f 26 249 224
f 554 249 26
f 46 27 58
f 27 46 197
f 27 261 58
f 197 261 27
f 212 57 28
f 233 28 114
f 212 28 233
f 36 107 29
f 111 36 29
f 89 29 52
f 29 107 73
f 111 29 89
f 53 66 30
f 53 30 105
f 105 30 64
f 30 230 64
f 207 41 31
f 250 41 31
f 31 41 523
f 250 207 31
f 302 250 31
f 250 31 565
f 302 31 565
f 31 523 565
f 100 53 32
f 548 100 32
f 33 54 214
f 33 214 231
f 33 231 255
f 38 34 59
f 38 101 34
f 85 59 34
f 85 34 101
f 35 37 57
f 35 57 212
f 74 36 111
f 38 76 101
f 170 76 38
f 212 170 38
f 39 44 537
f 554 39 537
f 40 220 114
f 218 208 40
f 208 220 40
f 250 308 41
f 308 523 41
f 42 545 517
f 49 43 251
f 43 146 90
f 43 245 146
f 71 44 95
f 530 44 71
f 537 44 530
f 454 538 45
f 46 74 165
f 46 165 197
f 80 56 47
f 258 47 56
f 80 47 101
f 85 101 47
f 494 85 47
f 258 574 47
f 494 47 539
f 539 47 574
f 553 513 48
f 48 513 572
f 533 567 48
f 49 58 261
f 49 251 244
f 49 261 254
f 50 225 218
f 112 51 59
f 118 51 112
f 118 202 51
f 260 51 202
f 66 53 100
f 105 68 53
f 54 241 214
f 95 55 62
f 176 62 55
f 95 79 55
f 79 190 55
f 190 176 55
f 56 80 86
f 215 56 86
f 56 215 258
f 112 59 85
f 115 96 61
f 115 61 224
f 142 95 62
f 142 62 208
f 176 220 62
f 208 62 220
f 82 63 177
f 239 177 63
f 105 64 68
f 68 64 222
f 230 222 64
f 70 66 94
f 66 100 94
f 98 72 67
f 72 502 67
f 98 67 102
f 102 67 109
f 109 67 480
f 67 506 480
f 67 502 506
f 78 68 188
f 156 188 68
f 68 222 156
f 69 109 75
f 102 109 69
f 94 77 70
f 95 189 71
f 530 71 189
f 91 72 98
f 91 110 72
f 72 110 502
f 73 107 92
f 74 111 174
f 74 174 165
f 163 75 109
f 80 76 99
f 80 101 76
f 96 99 76
f 96 76 134
f 170 134 76
f 113 91 77
f 113 77 94
f 78 188 374
f 507 78 374
f 96 190 79
f 86 80 181
f 99 115 80
f 80 115 138
f 80 138 181
f 84 104 81
f 108 84 81
f 87 107 82
f 87 82 177
f 83 93 84
f 83 84 108
f 97 90 83
f 90 139 83
f 83 139 93
f 97 83 106
f 83 108 106
f 84 93 104
f 509 112 85
f 509 85 494
f 215 86 181
f 107 87 92
f 87 124 92
f 87 152 124
f 152 87 177
f 109 88 168
f 109 480 88
f 88 480 168
f 174 111 89
f 174 89 133
f 90 146 139
f 91 113 110
f 93 247 104
f 139 128 93
f 93 128 247
f 94 100 477
f 446 113 94
f 446 94 477
f 189 95 142
f 99 96 115
f 96 134 190
f 106 121 97
f 97 121 251
f 467 477 100
f 467 100 548
f 104 247 232
f 106 237 121
f 163 109 168
f 446 110 113
f 461 110 446
f 502 110 461
f 112 416 118
f 112 509 416
f 127 114 220
f 233 114 127
f 115 221 138
f 221 115 224
f 119 116 137
f 119 164 116
f 116 243 137
f 164 238 116
f 116 238 243
f 117 166 129
f 225 117 129
f 117 140 166
f 140 117 186
f 186 117 148
f 225 148 117
f 117 186 225
f 186 232 117
f 161 202 118
f 118 416 161
f 119 137 167
f 145 164 119
f 269 145 119
f 395 119 167
f 269 119 414
f 414 119 395
f 190 120 127
f 233 127 120
f 120 190 170
f 233 120 170
f 229 193 121
f 121 193 251
f 229 121 237
f 172 122 153
f 153 122 437
f 122 172 203
f 203 234 122
f 122 234 437
f 123 135 168
f 135 123 171
f 123 149 424
f 149 123 440
f 123 168 155
f 123 155 379
f 171 123 344
f 123 407 344
f 440 123 379
f 123 424 407
f 124 152 159
f 124 159 187
f 205 131 125
f 444 125 131
f 175 125 154
f 154 125 444
f 205 125 175
f 130 158 126
f 130 126 173
f 126 158 258
f 173 126 242
f 181 126 215
f 126 181 242
f 215 126 258
f 190 127 176
f 127 220 176
f 139 203 128
f 203 247 128
f 142 129 189
f 218 129 142
f 160 129 166
f 160 189 129
f 218 225 129
f 149 398 130
f 149 130 424
f 130 354 158
f 424 130 173
f 398 354 130
f 131 162 147
f 131 147 179
f 131 205 162
f 397 131 179
f 131 397 386
f 425 131 386
f 444 131 425
f 159 177 132
f 248 159 132
f 180 132 177
f 213 132 180
f 213 248 132
f 253 174 133
f 133 211 253
f 190 134 170
f 135 163 168
f 163 135 171
f 178 136 144
f 144 136 380
f 178 169 136
f 169 228 136
f 257 136 228
f 136 257 319
f 136 319 380
f 167 137 182
f 137 219 182
f 137 243 219
f 138 242 181
f 138 221 242
f 203 139 146
f 184 153 140
f 140 153 404
f 140 404 166
f 184 140 186
f 157 143 141
f 143 179 141
f 141 179 147
f 141 147 197
f 157 141 201
f 141 197 165
f 165 253 141
f 253 201 141
f 142 208 218
f 179 143 150
f 397 150 143
f 415 143 157
f 397 143 415
f 185 144 151
f 144 351 151
f 185 178 144
f 144 341 351
f 341 144 380
f 145 191 164
f 257 191 145
f 303 257 145
f 303 145 269
f 203 146 195
f 245 195 146
f 261 147 162
f 261 197 147
f 148 232 186
f 148 199 232
f 148 259 199
f 148 225 259
f 440 398 149
f 397 179 150
f 448 150 397
f 213 185 151
f 206 213 151
f 151 356 206
f 151 351 421
f 151 421 356
f 159 152 177
f 172 153 184
f 217 184 153
f 399 404 153
f 153 437 399
f 175 154 183
f 183 154 195
f 240 195 154
f 281 240 154
f 401 281 154
f 401 154 444
f 155 168 370
f 379 155 370
f 156 361 188
f 222 361 156
f 201 364 157
f 364 445 157
f 415 157 429
f 429 157 445
f 258 158 354
f 226 187 159
f 226 159 194
f 248 194 159
f 366 160 166
f 383 189 160
f 366 383 160
f 192 202 161
f 161 430 192
f 161 416 430
f 205 261 162
f 163 171 344
f 262 163 296
f 163 344 296
f 191 238 164
f 165 174 253
f 366 166 404
f 167 182 439
f 395 167 439
f 370 168 480
f 216 169 178
f 216 204 169
f 204 228 169
f 233 170 212
f 172 184 203
f 247 184 172
f 247 172 252
f 173 242 196
f 373 173 196
f 424 173 373
f 245 175 183
f 175 254 205
f 175 245 254
f 180 177 239
f 216 178 185
f 185 213 180
f 185 180 216
f 227 216 180
f 180 239 227
f 182 219 192
f 192 439 182
f 245 183 195
f 184 186 232
f 203 184 247
f 184 232 247
f 186 225 232
f 361 374 188
f 279 312 189
f 279 189 383
f 312 530 189
f 228 229 191
f 257 228 191
f 191 229 238
f 192 219 202
f 192 430 439
f 204 193 228
f 204 251 193
f 193 223 228
f 193 229 223
f 194 206 198
f 198 226 194
f 194 248 206
f 195 240 203
f 210 196 242
f 330 196 210
f 373 196 330
f 198 206 309
f 198 282 226
f 271 282 198
f 271 198 317
f 198 309 317
f 199 209 247
f 247 199 232
f 232 199 259
f 246 207 200
f 207 308 200
f 315 230 200
f 200 235 246
f 200 308 315
f 211 201 253
f 236 202 219
f 236 260 202
f 240 234 203
f 216 251 204
f 205 254 261
f 206 248 213
f 309 206 356
f 250 308 207
f 249 210 242
f 210 249 272
f 210 272 330
f 214 241 219
f 214 219 243
f 231 214 243
f 227 244 216
f 216 244 251
f 241 236 219
f 249 221 224
f 249 242 221
f 323 222 230
f 323 334 222
f 222 334 361
f 228 223 229
f 232 259 225
f 226 282 263
f 227 239 244
f 237 238 229
f 323 230 315
f 231 243 238
f 255 231 238
f 240 281 234
f 234 281 294
f 234 294 437
f 237 255 238
f 554 272 249
f 250 256 287
f 287 302 250
f 250 302 308
f 565 250 302
f 278 287 256
f 257 303 311
f 257 311 319
f 258 354 285
f 258 285 574
f 262 296 284
f 264 271 317
f 264 372 271
f 317 403 264
f 362 328 264
f 328 372 264
f 362 264 403
f 315 265 276
f 265 338 276
f 265 315 308
f 308 335 265
f 265 335 338
f 338 335 266
f 266 335 390
f 390 338 266
f 273 322 267
f 267 334 273
f 267 299 310
f 334 299 267
f 310 267 322
f 267 310 334
f 267 310 368
f 334 267 361
f 361 267 368
f 391 301 268
f 412 268 301
f 391 268 522
f 473 268 412
f 473 560 268
f 560 522 268
f 269 304 293
f 311 269 293
f 311 303 269
f 269 414 304
f 283 270 314
f 270 283 420
f 270 327 287
f 314 270 327
f 270 335 327
f 390 335 270
f 409 390 270
f 270 420 409
f 282 271 333
f 271 359 333
f 359 271 372
f 305 300 272
f 272 300 330
f 564 305 272
f 564 272 554
f 273 323 322
f 273 334 323
f 306 291 274
f 291 360 274
f 306 274 434
f 274 360 434
f 275 498 355
f 498 275 557
f 557 275 543
f 315 276 323
f 322 323 276
f 322 276 332
f 276 338 332
f 277 290 316
f 529 290 277
f 277 316 326
f 432 277 326
f 331 277 432
f 331 529 277
f 278 284 570
f 278 327 287
f 314 327 278
f 278 540 314
f 278 570 540
f 279 289 358
f 289 279 383
f 279 530 312
f 279 358 377
f 431 279 377
f 569 279 431
f 279 569 530
f 280 318 297
f 280 297 562
f 280 316 318
f 348 316 280
f 348 280 423
f 466 423 280
f 466 280 562
f 281 336 294
f 281 360 336
f 360 281 401
f 283 314 350
f 283 350 420
f 284 296 340
f 284 340 329
f 570 284 329
f 285 419 313
f 285 313 510
f 285 354 419
f 285 510 574
f 286 320 292
f 321 286 292
f 286 441 320
f 395 286 321
f 382 286 395
f 382 441 286
f 287 335 302
f 327 335 287
f 342 288 295
f 295 288 438
f 399 288 342
f 399 357 288
f 357 422 288
f 469 288 422
f 469 438 288
f 358 289 298
f 298 289 366
f 289 383 366
f 316 290 318
f 529 318 290
f 306 519 291
f 360 291 392
f 482 392 291
f 482 291 529
f 519 529 291
f 304 292 293
f 293 292 559
f 304 321 292
f 292 320 474
f 292 474 578
f 292 578 559
f 311 293 551
f 551 293 559
f 294 336 324
f 437 294 324
f 342 295 438
f 296 344 340
f 297 318 526
f 562 297 526
f 342 298 366
f 298 342 438
f 358 298 345
f 298 438 345
f 334 310 299
f 310 443 299
f 337 300 305
f 330 300 442
f 337 387 300
f 387 347 300
f 400 300 347
f 400 442 300
f 435 320 301
f 301 320 441
f 435 301 391
f 412 301 428
f 301 441 428
f 308 302 335
f 308 302 565
f 335 302 527
f 302 565 527
f 302 576 565
f 414 321 304
f 305 541 337
f 305 564 541
f 526 306 434
f 512 519 306
f 526 512 306
f 436 307 313
f 522 313 307
f 528 307 436
f 456 522 307
f 528 456 307
f 308 565 523
f 317 309 403
f 403 309 356
f 322 346 310
f 368 310 346
f 310 443 346
f 319 311 551
f 419 436 313
f 510 313 522
f 508 350 314
f 508 314 540
f 316 368 326
f 316 348 368
f 318 519 512
f 526 318 512
f 529 519 318
f 380 319 515
f 319 551 515
f 320 435 474
f 414 395 321
f 332 353 322
f 322 353 346
f 324 336 405
f 324 357 399
f 357 324 422
f 437 324 399
f 324 405 422
f 339 325 381
f 388 325 339
f 369 381 325
f 388 369 325
f 368 346 326
f 432 326 346
f 362 557 328
f 328 543 372
f 557 543 328
f 329 340 540
f 570 329 540
f 330 442 373
f 331 432 343
f 331 343 482
f 482 529 331
f 332 338 388
f 332 375 353
f 332 388 375
f 336 360 392
f 336 392 405
f 393 387 337
f 337 541 393
f 369 338 381
f 388 338 369
f 381 338 390
f 375 339 381
f 375 388 339
f 344 400 340
f 347 387 340
f 347 340 400
f 387 540 340
f 341 417 351
f 341 380 484
f 341 459 417
f 341 484 459
f 342 366 404
f 342 404 399
f 346 432 343
f 443 343 346
f 343 432 418
f 489 343 418
f 343 489 482
f 344 407 384
f 344 384 442
f 344 442 400
f 345 449 358
f 408 345 438
f 408 449 345
f 346 353 432
f 368 348 413
f 348 374 413
f 423 374 348
f 416 349 365
f 349 428 365
f 349 412 428
f 509 412 349
f 416 509 349
f 350 427 420
f 427 350 508
f 417 421 351
f 418 367 352
f 496 352 367
f 418 489 352
f 489 352 496
f 353 375 406
f 353 406 418
f 353 418 432
f 354 398 419
f 355 538 454
f 355 498 538
f 356 362 403
f 362 356 421
f 394 377 358
f 457 394 358
f 449 457 358
f 359 372 501
f 360 401 434
f 361 368 426
f 361 413 374
f 361 426 413
f 362 421 417
f 417 503 362
f 362 503 557
f 363 402 385
f 409 363 385
f 363 411 402
f 409 411 363
f 364 378 445
f 430 365 382
f 365 441 382
f 416 365 430
f 365 428 441
f 367 375 381
f 367 406 375
f 389 367 381
f 505 367 389
f 418 406 367
f 367 505 496
f 426 368 413
f 379 370 436
f 480 436 370
f 389 371 500
f 389 505 371
f 408 438 371
f 371 449 408
f 371 408 500
f 505 408 371
f 438 469 371
f 371 505 449
f 371 469 505
f 543 501 372
f 384 424 373
f 384 373 442
f 433 374 423
f 433 466 374
f 466 507 374
f 409 376 411
f 376 409 420
f 411 376 427
f 376 420 427
f 394 431 377
f 378 475 445
f 378 493 475
f 398 379 419
f 398 440 379
f 379 436 419
f 484 380 470
f 380 491 470
f 380 515 491
f 385 381 390
f 385 396 381
f 396 389 381
f 395 439 382
f 430 382 439
f 407 424 384
f 389 396 385
f 389 385 402
f 409 385 390
f 448 386 397
f 425 386 444
f 434 444 386
f 434 386 472
f 486 386 448
f 472 386 486
f 410 387 393
f 410 508 387
f 387 508 540
f 463 402 389
f 505 389 402
f 463 389 500
f 465 435 391
f 465 391 456
f 456 391 522
f 392 447 405
f 392 489 447
f 392 482 489
f 393 462 410
f 393 452 462
f 393 541 452
f 449 394 408
f 408 394 451
f 464 431 394
f 449 451 394
f 464 394 457
f 415 455 397
f 448 397 455
f 434 401 444
f 457 402 411
f 449 402 451
f 402 457 449
f 449 402 463
f 449 505 402
f 451 402 463
f 422 405 476
f 405 447 476
f 449 408 463
f 505 449 408
f 408 451 463
f 463 500 408
f 410 462 450
f 450 508 410
f 457 411 427
f 509 473 412
f 468 415 429
f 455 415 468
f 417 459 453
f 417 453 503
f 422 476 469
f 433 423 466
f 450 464 427
f 427 508 450
f 457 427 464
f 445 468 429
f 462 431 464
f 431 462 569
f 526 434 472
f 435 465 474
f 480 458 436
f 458 528 436
f 445 475 468
f 446 483 461
f 485 446 477
f 446 485 483
f 476 447 496
f 447 489 496
f 471 448 455
f 471 486 448
f 450 462 464
f 452 535 462
f 541 535 452
f 534 453 459
f 453 546 503
f 534 544 453
f 453 544 546
f 468 497 455
f 471 455 478
f 478 455 497
f 528 465 456
f 480 506 458
f 506 520 458
f 528 458 520
f 484 470 459
f 534 459 470
f 481 493 460
f 556 481 460
f 571 461 483
f 511 502 461
f 571 511 461
f 571 461 531
f 569 462 535
f 465 520 474
f 465 528 520
f 466 495 507
f 466 553 495
f 466 521 553
f 562 521 466
f 477 467 492
f 504 492 467
f 548 504 467
f 475 490 468
f 468 490 497
f 469 476 505
f 470 491 524
f 470 524 534
f 471 478 577
f 487 486 471
f 566 487 471
f 471 577 566
f 487 472 486
f 562 472 487
f 562 526 472
f 560 473 509
f 479 511 474
f 571 479 474
f 511 474 520
f 571 474 511
f 571 578 474
f 475 481 490
f 481 475 493
f 476 496 505
f 492 485 477
f 492 558 477
f 477 558 516
f 536 478 497
f 536 577 478
f 483 571 479
f 578 483 479
f 559 479 488
f 488 479 571
f 479 511 571
f 559 578 479
f 514 490 481
f 556 514 481
f 563 485 483
f 485 571 483
f 571 483 578
f 485 488 492
f 485 559 488
f 558 485 492
f 485 492 559
f 558 563 485
f 485 563 571
f 562 487 521
f 566 521 487
f 558 492 488
f 558 499 488
f 488 563 558
f 488 571 563
f 497 490 525
f 514 525 490
f 491 515 504
f 491 504 524
f 492 504 515
f 492 515 551
f 551 559 492
f 509 494 539
f 497 525 536
f 503 550 498
f 503 498 557
f 498 550 538
f 506 502 552
f 511 552 502
f 550 503 546
f 524 504 548
f 506 552 520
f 560 509 539
f 510 522 568
f 568 574 510
f 511 520 552
f 553 532 513
f 572 513 532
f 514 517 545
f 514 556 517
f 545 525 514
f 550 546 518
f 546 555 518
f 547 550 518
f 555 547 518
f 532 553 521
f 532 521 566
f 568 522 560
f 523 565 527
f 534 524 548
f 549 536 525
f 545 549 525
f 530 541 537
f 569 541 530
f 542 532 566
f 572 532 542
f 533 546 544
f 544 567 533
f 533 555 546
f 567 544 534
f 534 548 573
f 534 573 567
f 569 535 541
f 549 561 536
f 577 536 561
f 564 537 541
f 554 537 564
f 549 538 575
f 575 538 550
f 568 560 539
f 568 539 574
f 566 561 542
f 542 561 572
f 575 550 547
f 572 547 555
f 572 561 547
f 561 575 547
f 561 549 575
f 566 577 561
