# Face Mesh LOD3 - Triangles: 282
v -0.084048 -0.151085 -0.136738
v 0.055707 -0.072039 0.021306
v -0.067111 -0.008709 -0.090795
v -0.008314 0.094638 -0.137391
v 0.017807 0.125371 -0.086648
v -0.042332 -0.011041 -0.124654
v 0.060128 -0.054455 0.013696
v -0.082793 -0.139268 -0.124386
v -0.074241 0.023362 -0.096019
v 0.042858 -0.104668 -0.014483
v -0.045946 0.029044 -0.136040
v -0.060247 -0.115079 -0.098408
v 0.040635 0.109881 -0.102501
v -0.064935 0.100173 -0.066302
v -0.073201 0.066107 -0.099068
v -0.051003 0.069210 -0.130446
v -0.043741 0.107453 -0.019010
v -0.040590 -0.092530 -0.100469
v 0.036651 -0.127199 -0.018547
v -0.026048 0.123226 -0.034287
v 0.033933 -0.172049 -0.009976
v -0.041691 -0.049336 -0.099327
v -0.059521 -0.008257 -0.107474
v -0.010590 0.117759 -0.110090
v -0.050816 -0.157126 -0.143667
v 0.057306 0.056977 0.009193
v -0.030107 0.124306 -0.059137
v -0.008732 0.126068 -0.087967
v 0.029746 0.094963 -0.130763
v -0.043309 -0.129864 -0.128387
v -0.049130 0.113517 -0.058624
v -0.064014 0.016913 -0.116343
v -0.084513 -0.129672 -0.090347
v 0.002567 -0.174801 -0.007555
v 0.066258 -0.015989 0.019791
v -0.064329 0.046127 -0.120312
v -0.069143 0.087627 -0.037317
v -0.003342 -0.133418 -0.005698
v 0.063728 0.024713 0.011628
v -0.012769 0.128862 -0.062093
v -0.071755 0.062935 -0.027414
v -0.051934 0.102154 -0.101213
v -0.054915 -0.093322 -0.021253
v -0.009702 -0.161643 -0.143985
v -0.071555 -0.134970 -0.061283
v 0.051028 -0.117262 -0.112473
v 0.032364 0.025542 -0.145060
v 0.030095 -0.011746 -0.131129
v -0.007904 -0.137000 -0.136056
v -0.087716 -0.158393 -0.046281
v -0.062937 -0.064319 -0.034311
v -0.073290 -0.010567 -0.018229
v 0.003541 -0.108647 -0.120076
v -0.068522 -0.032291 -0.037933
v -0.037499 -0.168782 -0.014100
v 0.042225 -0.049922 -0.100364
v 0.015703 0.125687 -0.032826
v -0.074414 0.031553 -0.028121
v 0.042132 -0.096051 -0.101092
v -0.040189 -0.131832 -0.021574
v 0.001538 -0.050643 -0.117330
v -0.068233 -0.092619 -0.050875
v 0.039286 0.109246 -0.017242
v 0.037035 0.066056 -0.141460
v 0.030741 -0.131994 -0.131794
v -0.083076 0.018092 -0.060766
v -0.011587 -0.012755 -0.137665
v -0.062349 0.082146 -0.014019
v -0.066350 -0.082608 -0.037097
v -0.059615 -0.124901 -0.048038
v 0.047278 0.116996 -0.061786
v -0.070534 0.088614 -0.087027
v -0.012919 0.027440 -0.151877
v 0.036589 -0.160727 -0.144340
v 0.051896 -0.020440 -0.108432
v -0.075721 -0.018108 -0.056475
v -0.066238 -0.044131 -0.017201
v 0.024202 0.126000 -0.062317
v -0.010154 0.062698 -0.152079
v 0.003976 0.115678 -0.001395
v 0.002171 -0.089950 -0.114453
v -0.060344 -0.059028 -0.062133
v -0.065745 -0.172934 -0.017921
v -0.077200 0.070654 -0.064790
v -0.005107 0.126124 -0.026786
v 0.003412 -0.070264 -0.113816
v -0.061962 -0.095531 -0.072924
v 0.020860 0.028930 0.043748
v 0.065161 0.100243 -0.062109
v 0.076303 0.026989 -0.091117
v 0.069746 -0.137794 -0.127829
v 0.032699 -0.015603 0.044880
v -0.049354 0.066779 0.016575
v 0.076181 -0.153072 -0.139545
v 0.062175 -0.009287 -0.101946
v -0.040035 0.023788 0.027536
v 0.000224 -0.089361 0.052629
v -0.059065 -0.015336 0.031461
v -0.003163 0.104903 0.016244
v -0.004780 -0.052395 0.053284
v 0.074288 0.069606 -0.096231
v 0.101958 -0.139214 -0.090391
v 0.075903 -0.126121 -0.093952
v 0.059270 0.030494 -0.125142
v -0.000489 -0.010185 0.061661
v -0.058497 -0.061962 0.014467
v -0.041883 -0.087908 0.016591
v -0.006267 0.030382 0.048135
v 0.060342 -0.033029 -0.077898
v -0.067781 0.024845 0.004257
v 0.027322 -0.052096 0.048257
v 0.023445 0.097006 0.015555
v -0.003190 0.059273 0.045458
v 0.097356 -0.144435 -0.123550
v 0.058776 -0.095054 -0.081875
v 0.059075 0.095897 -0.024799
v 0.062807 0.061318 -0.122369
v -0.070481 -0.014586 0.012506
v 0.020402 -0.088199 0.046949
v -0.034639 -0.019444 0.045314
v 0.039532 0.073291 0.021810
v -0.024988 0.039363 0.044846
v 0.068596 -0.135307 -0.052378
v -0.007311 -0.100269 0.022178
v 0.067546 0.070579 -0.020570
v 0.003100 -0.111402 0.007692
v 0.065207 -0.092415 -0.061915
v 0.048000 -0.029439 0.039346
v 0.073847 0.031535 -0.025858
v 0.035475 0.021789 0.029165
v 0.063640 -0.051854 -0.058690
v 0.073022 -0.011184 -0.015965
v 0.064830 -0.053425 -0.030115
v 0.034965 -0.090548 0.020889
v 0.077132 -0.014720 -0.053534
v 0.061981 -0.082611 -0.021437
v 0.061099 0.100127 -0.092607
v 0.044645 -0.057384 0.038338
v 0.081078 0.017252 -0.056156
v -0.005363 0.081247 0.033464
v 0.057260 -0.112689 -0.035727
v 0.078270 0.062530 -0.059592
v -0.026427 -0.085778 0.046736
v 0.068071 -0.164145 -0.029891
v -0.032582 0.093721 0.014537
v 0.097109 -0.154929 -0.054265
v -0.034513 -0.056291 0.043285
f 25 1 8
f 136 7 2
f 2 7 138
f 136 2 134
f 138 134 2
f 23 3 9
f 3 66 9
f 22 3 23
f 22 76 3
f 3 76 66
f 16 42 4
f 4 79 16
f 29 4 24
f 42 24 4
f 64 4 29
f 64 79 4
f 28 5 13
f 78 13 5
f 78 5 28
f 11 6 32
f 6 11 67
f 22 23 6
f 22 6 67
f 6 23 32
f 7 35 128
f 35 7 132
f 128 138 7
f 7 133 132
f 133 7 136
f 30 8 12
f 33 12 8
f 8 30 25
f 15 11 9
f 32 9 11
f 66 15 9
f 23 9 32
f 134 19 10
f 141 10 19
f 136 134 10
f 141 136 10
f 15 36 11
f 16 11 36
f 79 11 16
f 11 73 67
f 79 73 11
f 12 18 30
f 33 18 12
f 12 87 18
f 12 33 45
f 45 87 12
f 28 13 24
f 29 24 13
f 64 29 13
f 101 64 13
f 78 71 13
f 71 137 13
f 137 101 13
f 31 42 14
f 31 14 84
f 14 42 72
f 84 14 72
f 16 36 15
f 16 15 42
f 42 15 72
f 66 84 15
f 72 15 84
f 17 20 27
f 85 20 17
f 17 27 31
f 37 17 31
f 17 37 68
f 93 17 68
f 17 80 85
f 145 80 17
f 93 145 17
f 81 18 22
f 18 82 22
f 53 30 18
f 53 18 81
f 87 82 18
f 21 19 38
f 19 21 144
f 19 126 38
f 141 19 123
f 144 123 19
f 19 134 126
f 20 40 27
f 20 85 40
f 21 38 34
f 67 61 22
f 86 22 61
f 76 22 82
f 81 22 86
f 31 28 24
f 31 24 42
f 30 44 25
f 121 39 26
f 39 125 26
f 121 26 125
f 28 31 27
f 28 27 40
f 78 28 40
f 30 49 44
f 53 49 30
f 31 84 37
f 33 50 45
f 55 34 38
f 130 35 39
f 132 39 35
f 35 92 128
f 35 130 92
f 68 37 41
f 41 37 84
f 38 43 60
f 107 43 38
f 38 60 55
f 126 107 38
f 121 130 39
f 39 129 125
f 39 132 129
f 57 78 40
f 57 40 85
f 58 41 66
f 110 41 58
f 84 66 41
f 93 68 41
f 110 93 41
f 51 69 43
f 43 77 51
f 60 43 70
f 62 43 69
f 43 62 70
f 106 77 43
f 106 43 107
f 74 44 49
f 55 45 50
f 55 60 45
f 60 70 45
f 87 45 70
f 59 46 65
f 103 46 59
f 103 65 46
f 48 73 47
f 48 47 104
f 47 79 64
f 64 104 47
f 47 73 79
f 56 61 48
f 56 48 75
f 61 67 48
f 48 67 73
f 75 48 95
f 48 104 95
f 53 65 49
f 74 49 65
f 50 83 55
f 62 69 51
f 62 51 82
f 77 82 51
f 76 54 52
f 54 77 52
f 66 52 58
f 110 58 52
f 66 76 52
f 52 77 118
f 52 118 110
f 65 53 59
f 53 81 59
f 77 54 76
f 81 56 59
f 59 56 115
f 86 61 56
f 56 75 95
f 81 86 56
f 56 95 109
f 56 109 131
f 115 56 127
f 56 131 127
f 63 78 57
f 63 57 85
f 103 59 115
f 59 127 115
f 87 70 62
f 62 82 87
f 63 71 78
f 71 63 89
f 85 80 63
f 112 63 80
f 63 116 89
f 121 63 112
f 121 116 63
f 63 116 125
f 101 117 64
f 64 117 104
f 91 74 65
f 91 65 103
f 71 89 137
f 74 91 94
f 82 77 76
f 77 106 98
f 118 77 98
f 112 80 99
f 145 99 80
f 88 105 92
f 88 92 130
f 88 130 105
f 113 108 88
f 108 130 88
f 113 88 121
f 121 88 130
f 137 89 101
f 142 101 89
f 116 142 89
f 95 104 90
f 95 90 135
f 101 90 104
f 142 90 101
f 90 139 135
f 90 142 139
f 94 91 114
f 103 102 91
f 102 114 91
f 111 92 105
f 92 111 138
f 92 138 128
f 93 110 96
f 96 113 93
f 140 93 113
f 145 93 140
f 109 95 135
f 98 96 118
f 98 120 96
f 108 96 105
f 96 120 105
f 108 122 96
f 110 118 96
f 96 122 113
f 100 97 119
f 100 143 97
f 124 119 97
f 97 134 119
f 97 143 124
f 106 120 98
f 99 140 112
f 145 140 99
f 100 111 105
f 100 105 120
f 111 100 119
f 120 147 100
f 147 143 100
f 101 104 117
f 123 102 103
f 102 123 146
f 115 127 103
f 127 123 103
f 105 130 108
f 107 147 106
f 106 147 120
f 124 107 126
f 124 143 107
f 147 107 143
f 122 108 113
f 135 131 109
f 111 119 134
f 138 111 134
f 121 112 140
f 121 140 113
f 116 121 125
f 116 125 142
f 134 119 124
f 141 123 127
f 146 123 144
f 124 126 134
f 125 129 142
f 127 131 133
f 127 133 136
f 127 136 141
f 129 132 135
f 139 129 135
f 129 139 142
f 131 135 133
f 132 133 135
