# Humanoid-Face-3D Facial Hair Cards Mesh
# Cards: 80, Vertices: 480, Triangles: 320
v 0.011504 -0.230975 0.455613
v 0.103998 0.091565 -0.531814
v 0.076833 -2.268710 -0.258959
v 0.160078 -1.978424 -1.147644
v -0.287477 -4.194478 -1.142421
v -0.241230 -4.033207 -1.636135
v -0.117945 -0.035244 -0.636617
v -0.013954 -0.055941 0.608397
v 0.105937 -2.457610 -0.632884
v 0.199529 -2.476237 0.487628
v 0.834377 -4.762735 -0.481239
v 0.886373 -4.773083 0.141268
v -0.624386 -0.153075 0.006210
v 0.633064 0.043376 0.108016
v -0.213206 -1.970235 -0.765333
v 0.918499 -1.793429 -0.673708
v 0.381239 -3.538848 -1.878233
v 1.009964 -3.440623 -1.827330
v -0.154718 -0.014087 0.493459
v 0.301571 -0.014087 -0.613991
v -1.894837 -1.568648 -0.288274
v -1.484178 -1.568648 -1.284978
v -3.807403 -2.683719 -1.335374
v -3.579259 -2.683719 -1.889099
v 0.442274 -0.021268 0.005612
v -0.606760 -0.021268 -0.138171
v 0.317727 -1.898895 0.524426
v -0.626403 -1.898895 0.395022
v -0.014319 -3.609638 1.387522
v -0.538835 -3.609638 1.315631
v 0.512770 -0.019430 0.014436
v -0.679172 -0.019430 -0.148934
v 0.373791 -2.086830 0.585434
v -0.698956 -2.086830 0.438401
v 0.000809 -3.970480 1.534753
v -0.595162 -3.970480 1.453068
v -0.495521 0.008645 -0.548492
v 0.336048 0.008645 0.440322
v 0.202195 -2.032633 -1.050848
v 0.950607 -2.032633 -0.160916
v 1.325290 -3.834949 -1.657715
v 1.741074 -3.834949 -1.163308
v -0.450190 0.055905 -0.268625
v 0.398740 -0.145230 0.364647
v -1.136070 -1.926753 0.112872
v -0.372034 -2.107775 0.682816
v -1.447593 -4.023261 0.231642
v -1.023129 -4.123828 0.548278
v -0.548865 -0.002778 -0.515512
v 0.399669 -0.002778 0.422095
v 0.072842 -2.223521 -1.049605
v 0.926523 -2.223521 -0.205759
v 1.139771 -4.208076 -1.749530
v 1.614038 -4.208076 -1.280727
v -0.332982 0.003565 0.369089
v 0.509864 0.003565 -0.504870
v -0.226380 -2.537971 0.387556
v 0.532181 -2.537971 -0.399007
v -0.371058 -5.019603 -0.089332
v 0.050364 -5.019603 -0.526311
v -0.315994 -0.002859 0.311255
v 0.465417 -0.002859 -0.404418
v -0.810836 -2.003281 -0.307484
v -0.107565 -2.003281 -0.951589
v -1.449504 -3.779722 -1.318590
v -1.058798 -3.779722 -1.676426
v -0.651223 0.018758 0.147973
v 0.654710 -0.154355 -0.033975
v -0.855071 -2.435810 0.534226
v 0.320269 -2.591611 0.370473
v -0.934036 -4.913166 0.380513
v -0.281070 -4.999722 0.289539
v -0.257839 -0.007807 0.466779
v 0.110633 -0.007807 -0.569628
v -0.608398 -2.191775 0.283774
v -0.276773 -2.191775 -0.648991
v -1.314944 -4.228034 -0.200905
v -1.130708 -4.228034 -0.719108
v -0.306153 -0.032101 -0.572442
v 0.147494 -0.032102 0.469433
v -1.392405 -2.308179 -0.037505
v -0.984123 -2.308180 0.900182
v -1.947854 -4.762543 0.452222
v -1.721030 -4.762544 0.973159
v -0.477576 -0.137798 0.515650
v 0.513362 0.052394 -0.410814
v 0.482771 -2.022874 1.054574
v 1.374615 -1.851701 0.220757
v 1.317223 -4.034519 1.129049
v 1.812692 -3.939423 0.665817
v -0.444499 -0.178986 0.345057
v 0.484711 0.066424 -0.246077
v 0.052894 -2.384729 0.103515
v 0.889183 -2.163860 -0.428505
v 0.427649 -4.497997 -0.615458
v 0.892254 -4.375292 -0.911025
v 0.023844 -0.012141 -0.657294
v -0.199510 -0.012141 0.522718
v 0.419408 -2.325349 -0.521306
v 0.218390 -2.325349 0.540705
v 1.235735 -4.482276 -0.122333
v 1.124058 -4.482276 0.467673
v 0.616236 -0.037256 0.068770
v -0.464535 -0.037262 -0.167252
v 0.143497 -1.671477 1.974280
v -0.829197 -1.671482 1.761860
v -0.550070 -2.852298 4.113226
v -1.090456 -2.852301 3.995215
v -0.438339 -0.019812 0.120165
v 0.607158 -0.019812 -0.244106
v 0.085255 -2.197562 1.454690
v 1.026203 -2.197562 1.126846
v 0.603995 -4.602427 2.270538
v 1.126744 -4.602427 2.088403
v -0.715904 -0.018776 0.004317
v 0.560515 -0.018776 -0.116854
v -0.468256 -0.799779 1.934713
v 0.680521 -0.799779 1.825660
v -0.049967 -1.956217 3.627595
v 0.588243 -1.956217 3.567010
v 0.659316 -0.028535 -0.207999
v -0.513931 -0.028536 0.099516
v 1.128898 -1.150426 1.822756
v 0.072975 -1.150427 2.099520
v 1.464638 -1.809856 4.060435
v 0.878014 -1.809857 4.214193
v -0.106520 -0.009691 0.468196
v 0.255612 -0.009691 -0.556864
v -0.285251 -2.152390 0.347405
v 0.040668 -2.152390 -0.575149
v -0.818531 -4.186205 -0.071590
v -0.637465 -4.186205 -0.584121
v -0.578984 -0.017178 -0.175656
v 0.419634 -0.017178 0.059674
v -0.959560 -1.507100 1.662960
v -0.060804 -1.507100 1.874757
v -1.106893 -3.336596 3.182755
v -0.607584 -3.336596 3.300420
v -0.508088 0.116692 -0.126993
v 0.463654 -0.199261 0.231181
v -0.720935 -1.975122 -1.231099
v 0.153632 -2.259479 -0.908743
v -0.571686 -3.861326 -2.645229
v -0.085815 -4.019302 -2.466143
v -0.410431 0.150055 -0.300181
v 0.325035 -0.302719 0.330637
v 0.182298 -1.561335 -2.128938
v 0.844218 -1.968832 -1.561202
v 1.234537 -2.958534 -3.995931
v 1.602270 -3.184922 -3.680522
v -0.547571 -0.022196 -0.530478
v 0.390199 -0.022196 0.420869
v -0.844869 -2.541302 -0.143636
v -0.000876 -2.541302 0.712576
v -0.622441 -5.082060 0.012257
v -0.153557 -5.082060 0.487931
v 0.425731 -0.034737 -0.547797
v -0.279381 -0.034745 0.447646
v 0.844149 -2.463617 -0.176688
v 0.209549 -2.463624 0.719210
v 1.549889 -4.703491 0.622178
v 1.197333 -4.703495 1.119900
v 0.731750 -0.035879 0.094614
v -0.579063 -0.035883 -0.197640
v 0.322208 -1.256871 1.622928
v -0.857523 -1.256875 1.359900
v -0.327929 -2.115584 3.304627
v -0.983335 -2.115586 3.158500
v -0.317701 -0.025311 0.355524
v 0.478769 -0.025311 -0.468065
v 0.391748 -1.979992 0.961921
v 1.108571 -1.979992 0.220690
v 0.911459 -4.065772 1.145752
v 1.309694 -4.065772 0.733957
v -0.174149 -0.021354 0.548052
v 0.327511 -0.021354 -0.652074
v 0.783947 -2.350694 0.878050
v 1.235440 -2.350694 -0.202063
v 1.347160 -4.815963 0.831512
v 1.597990 -4.815963 0.231449
v -0.243420 -0.026575 0.536174
v 0.400154 -0.026575 -0.643127
v 0.633644 -1.830015 0.938284
v 1.212860 -1.830015 -0.123087
v 1.256090 -3.775576 0.971865
v 1.577877 -3.775576 0.382214
v -0.556014 -0.004413 -0.047214
v 0.702847 -0.004413 -0.047214
v -0.493071 -1.985406 0.249935
v 0.639903 -1.985406 0.249935
v -0.241299 -3.966399 0.131075
v 0.388131 -3.966399 0.131075
v -0.225670 -0.003917 -0.685682
v 0.055556 -0.003917 0.551849
v -0.430875 -2.301375 -0.573978
v -0.177771 -2.301375 0.539800
v -0.127022 -4.574236 -0.382740
v 0.013591 -4.574236 0.236025
v -0.353081 -0.291212 0.342838
v 0.435261 0.148948 -0.294898
v -0.344990 -2.242431 -1.089681
v 0.364517 -1.846287 -1.663643
v -0.566029 -3.857975 -2.861166
v -0.171858 -3.637895 -3.180034
v -0.061887 -0.020382 -0.695616
v -0.079736 -0.020383 0.629984
v 0.003115 -2.396772 -0.628450
v -0.012949 -2.396773 0.564590
v 0.551426 -4.686419 -0.355901
v 0.542501 -4.686420 0.306899
v -0.519862 -0.008544 -0.424773
v 0.370236 -0.008544 0.307142
v -0.255269 -1.976096 -0.655832
v 0.545819 -1.976096 0.002892
v 0.392712 -3.811866 -1.080980
v 0.837761 -3.811866 -0.715022
v -0.485172 0.000193 -0.478319
v 0.319186 0.000193 0.359609
v -0.653745 -2.581661 -0.235997
v 0.070178 -2.581661 0.518139
v -0.312698 -5.143418 -0.241368
v 0.089481 -5.143418 0.177596
v 0.469693 -0.015277 -0.314278
v -0.607898 -0.015277 0.215888
v 0.307110 -2.479399 -0.508716
v -0.662723 -2.479399 -0.031567
v 0.209648 -4.918183 -0.162727
v -0.329148 -4.918183 0.102355
v -0.576195 -0.253178 0.221884
v 0.593512 0.151645 -0.104483
v -0.195932 -1.994820 -0.826603
v 0.856804 -1.630480 -1.120334
v 0.190576 -3.444603 -2.243801
v 0.775429 -3.242192 -2.406984
v -0.321532 -0.307047 0.349635
v 0.398299 0.150793 -0.318767
v -0.785067 -1.913135 -1.337561
v -0.137219 -1.501079 -1.939123
v -1.475063 -3.111495 -3.252942
v -1.115148 -2.882575 -3.587143
v -0.355930 0.146370 -0.441339
v 0.262428 -0.356355 0.392270
v -1.054554 -2.180068 -1.246341
v -0.498032 -2.632520 -0.496094
v -1.220510 -4.526085 -2.218955
v -0.911331 -4.777447 -1.802150
v -0.168601 -0.004079 0.595604
v 0.315945 -0.004079 -0.683704
v -0.159700 -2.230173 0.525834
v 0.276391 -2.230173 -0.625543
v -0.505197 -4.384321 0.102408
v -0.262924 -4.384321 -0.537246
v 0.432618 -0.010346 0.407848
v -0.285946 -0.010346 -0.501053
v 0.298397 -2.141539 0.440112
v -0.348310 -2.141539 -0.377899
v -0.283939 -4.181342 0.605101
v -0.643221 -4.181342 0.150650
v 0.328572 -0.030241 0.403520
v -0.476846 -0.030239 -0.513429
v -0.056232 -2.027866 0.660296
v -0.781109 -2.027865 -0.164959
v -0.859480 -3.869771 1.040959
v -1.262189 -3.869770 0.582484
v -0.351496 -0.019980 0.238125
v 0.516960 -0.019980 -0.360854
v 0.452948 -1.917253 1.311577
v 1.234558 -1.917253 0.772496
v 1.142982 -4.031365 1.940424
v 1.577210 -4.031365 1.640934
v 0.332906 -0.014511 0.486789
v -0.187132 -0.014511 -0.601990
v -1.042002 -1.387196 1.076634
v -1.510037 -1.387196 0.096732
v -2.707753 -2.410577 1.604820
v -2.967772 -2.410577 1.060430
v -0.709185 -0.006839 -0.048763
v 0.563709 -0.006839 -0.048763
v -0.645540 -2.389825 0.308685
v 0.500065 -2.389825 0.308685
v -0.390961 -4.772810 0.165706
v 0.245486 -4.772810 0.165706
v 0.021565 -0.036742 0.606692
v 0.131154 -0.036728 -0.700363
v -1.167211 -2.215168 0.441186
v -1.068582 -2.215155 -0.735164
v -2.748598 -4.080345 0.045329
v -2.693804 -4.080338 -0.608199
v -0.057817 -0.000845 0.533510
v 0.206496 -0.000845 -0.637579
v -0.065004 -2.283663 0.470351
v 0.172878 -2.283663 -0.583629
v -0.489254 -4.491858 0.128450
v -0.357098 -4.491858 -0.457095
v -0.529451 -0.199809 0.384481
v 0.558508 0.092608 -0.277139
v -0.325720 -2.469224 -0.412517
v 0.653443 -2.206048 -1.007975
v -0.236066 -4.509293 -1.682720
v 0.307914 -4.363084 -2.013530
v -0.467701 -0.235171 0.087115
v 0.510390 0.149917 0.012216
v 0.041628 -1.687840 -1.471830
v 0.921910 -1.341261 -1.539239
v 0.545284 -2.747674 -3.309228
v 1.034330 -2.555129 -3.346678
v -0.609576 -0.018200 -0.342098
v 0.463666 -0.018200 0.228194
v -1.541284 -0.830859 1.540801
v -0.575367 -0.830859 2.054064
v -2.203333 -2.049763 3.304729
v -1.666712 -2.049763 3.589875
v -0.361561 -0.055132 0.359262
v 0.385061 -0.154443 -0.348341
v -1.017334 -1.822565 -0.160080
v -0.345375 -1.911945 -0.796923
v -1.778054 -3.381323 -1.045845
v -1.404744 -3.430979 -1.399647
v 0.512529 -0.029868 0.115872
v -0.647251 -0.029866 -0.222052
v 0.046132 -1.426799 1.500653
v -0.997670 -1.426797 1.196521
v -0.661906 -2.480849 3.067009
v -1.241796 -2.480848 2.898048
v -0.592036 -0.007237 -0.128619
v 0.446919 -0.007237 0.028212
v -0.301277 -1.740787 -1.702831
v 0.633782 -1.740787 -1.561684
v 0.191109 -3.092330 -3.556827
v 0.710587 -3.092330 -3.478412
v -0.047410 -0.033461 -0.666915
v -0.083947 -0.033494 0.582026
v 0.925898 -2.119531 -0.575996
v 0.893016 -2.119561 0.548051
v 2.291937 -3.940984 -0.286080
v 2.273669 -3.941000 0.338391
v -0.322288 -0.028477 0.346213
v 0.483070 -0.028477 -0.455345
v 0.489028 -2.036579 1.080839
v 1.213851 -2.036579 0.359438
v 1.106460 -4.207300 1.379051
v 1.509139 -4.207300 0.978272
v 0.504879 -0.028476 -0.343956
v -0.366794 -0.028477 0.238284
v 1.493059 -1.268678 1.229810
v 0.708554 -1.268679 1.753826
v 2.460181 -2.089172 3.055134
v 2.024344 -2.089173 3.346253
v -0.537974 -0.002710 -0.203097
v 0.698951 -0.002710 0.087277
v -0.422696 -2.496269 -0.416183
v 0.690536 -2.496269 -0.154847
v -0.006484 -4.864994 -1.077273
v 0.611978 -4.864994 -0.932086
v 0.054291 -0.016410 -0.598202
v -0.199624 -0.016410 0.482456
v 1.330173 -1.569550 -0.241400
v 1.101649 -1.569550 0.731192
v 2.838796 -2.802988 0.341135
v 2.711839 -2.802988 0.881464
v 0.337152 -0.028820 0.328483
v -0.478225 -0.028819 -0.440477
v -0.678001 -1.944280 1.323234
v -1.411841 -1.944279 0.631170
v -2.055350 -3.509054 2.457010
v -2.463038 -3.509054 2.072530
v -0.270292 -0.012872 0.461478
v 0.417322 -0.012872 -0.570671
v -0.794354 -2.225637 0.037838
v -0.175502 -2.225637 -0.891096
v -1.576283 -4.232421 -0.781126
v -1.232476 -4.232421 -1.297201
v -0.486510 -0.021513 0.244170
v 0.653606 -0.021513 -0.365364
v 0.219446 -1.707987 1.427536
v 1.245550 -1.707987 0.878955
v 0.913125 -3.625195 2.176623
v 1.483182 -3.625195 1.871856
v -0.354316 -0.019819 -0.496546
v 0.192384 -0.019819 0.381888
v -0.167698 -1.976139 -0.551755
v 0.324332 -1.976139 0.238836
v 0.437137 -3.833659 -0.684443
v 0.710487 -3.833659 -0.245226
v -0.230581 -0.026637 -0.559202
v 0.074082 -0.026637 0.451080
v -0.723162 -2.220988 -0.355551
v -0.448966 -2.220988 0.553703
v -0.722919 -4.456672 -0.135193
v -0.570588 -4.456672 0.369948
v -0.068338 -0.021600 0.510623
v 0.229597 -0.021600 -0.627203
v -0.662279 -1.974823 0.294310
v -0.394137 -1.974823 -0.729734
v -1.580840 -3.738615 -0.189380
v -1.431872 -3.738615 -0.758293
v -0.194977 -0.014961 0.402844
v 0.339133 -0.014961 -0.485224
v -0.011509 -2.375263 0.452722
v 0.469190 -2.375263 -0.346539
v -0.168168 -4.700421 0.116643
v 0.098887 -4.700421 -0.327391
v -0.564022 -0.017602 0.115273
v 0.719468 -0.017602 -0.226971
v -0.032857 -1.396358 1.849475
v 1.122284 -1.396358 1.541456
v 0.603487 -3.104890 3.204781
v 1.245232 -3.104890 3.033659
v 0.169903 -0.027017 -0.638546
v -0.303858 -0.027021 0.519569
v 0.954850 -1.806135 -0.249849
v 0.528465 -1.806138 0.792454
v 1.982011 -3.351009 0.440721
v 1.745131 -3.351011 1.019778
v -0.563388 0.191947 0.106353
v 0.560507 -0.292283 0.015087
v -1.540803 -2.132565 -0.421898
v -0.529298 -2.568372 -0.504038
v -2.310487 -4.344556 -1.464145
v -1.748540 -4.586670 -1.509778
v -0.688878 0.006542 -0.049786
v 0.527544 0.006542 -0.049786
v -0.628057 -2.215279 0.283487
v 0.466723 -2.215279 0.283487
v -0.384772 -4.437099 0.150178
v 0.223439 -4.437099 0.150178
v -0.310341 -0.012811 0.509912
v 0.457040 -0.012811 -0.595820
v 0.048702 -2.573187 0.677174
v 0.739345 -2.573187 -0.317985
v 0.080969 -5.134851 0.371908
v 0.464659 -5.134851 -0.180959
v -0.111928 -0.025641 0.414860
v 0.277997 -0.025641 -0.534763
v -0.124550 -2.028023 0.354191
v 0.226383 -2.028023 -0.500469
v -0.458118 -3.961586 -0.004722
v -0.263156 -3.961586 -0.479533
v -0.324139 -0.018226 -0.549890
v 0.179799 -0.018226 0.466912
v -0.364139 -1.999376 -0.466738
v 0.089406 -1.999376 0.448384
v 0.038029 -3.934437 -0.412745
v 0.289998 -3.934437 0.095656
v 0.601461 -0.012053 -0.275847
v -0.438952 -0.012053 0.142757
v 0.656516 -2.485285 0.011211
v -0.279856 -2.485285 0.387955
v 0.741809 -4.823410 0.824099
v 0.221603 -4.823410 1.033401
v -0.372707 -0.022094 0.430683
v 0.535581 -0.022094 -0.548917
v 0.299022 -2.225528 0.962423
v 1.116481 -2.225528 0.080784
v 0.755856 -4.536498 1.021647
v 1.209999 -4.536498 0.531848
v -0.346249 -0.025208 0.294764
v 0.496446 -0.025208 -0.386893
v 0.306624 -1.916904 1.015702
v 1.065050 -1.916904 0.402211
v 0.822747 -3.949769 1.309069
v 1.244095 -3.949769 0.968241
v -0.397888 -0.025531 0.281531
v 0.556956 -0.025531 -0.392090
v 0.590535 -2.062467 1.581244
v 1.449894 -2.062467 0.974985
v 1.452045 -4.371792 2.396998
v 1.929466 -4.371791 2.060187
v 0.339448 -0.063170 0.605626
v -0.393518 -0.027023 -0.533530
v 0.493410 -2.211017 0.357814
v -0.166260 -2.178486 -0.667426
v 0.159363 -4.341331 0.182770
v -0.207121 -4.323257 -0.386808
v -0.093461 -0.030572 0.567781
v 0.253606 -0.030571 -0.676352
v -0.373702 -2.457388 0.422555
v -0.061341 -2.457387 -0.697165
v -1.072802 -4.745988 -0.040661
v -0.899268 -4.745988 -0.662727
vt 0.000000 0.000000
vt 1.000000 0.000000
vt 0.000000 0.500000
vt 1.000000 0.500000
vt 0.000000 1.000000
vt 1.000000 1.000000
vt 0.000000 0.000000
vt 1.000000 0.000000
vt 0.000000 0.500000
vt 1.000000 0.500000
vt 0.000000 1.000000
vt 1.000000 1.000000
vt 0.000000 0.000000
vt 1.000000 0.000000
vt 0.000000 0.500000
vt 1.000000 0.500000
vt 0.000000 1.000000
vt 1.000000 1.000000
vt 0.000000 0.000000
vt 1.000000 0.000000
vt 0.000000 0.500000
vt 1.000000 0.500000
vt 0.000000 1.000000
vt 1.000000 1.000000
vt 0.000000 0.000000
vt 1.000000 0.000000
vt 0.000000 0.500000
vt 1.000000 0.500000
vt 0.000000 1.000000
vt 1.000000 1.000000
vt 0.000000 0.000000
vt 1.000000 0.000000
vt 0.000000 0.500000
vt 1.000000 0.500000
vt 0.000000 1.000000
vt 1.000000 1.000000
vt 0.000000 0.000000
vt 1.000000 0.000000
vt 0.000000 0.500000
vt 1.000000 0.500000
vt 0.000000 1.000000
vt 1.000000 1.000000
vt 0.000000 0.000000
vt 1.000000 0.000000
vt 0.000000 0.500000
vt 1.000000 0.500000
vt 0.000000 1.000000
vt 1.000000 1.000000
vt 0.000000 0.000000
vt 1.000000 0.000000
vt 0.000000 0.500000
vt 1.000000 0.500000
vt 0.000000 1.000000
vt 1.000000 1.000000
vt 0.000000 0.000000
vt 1.000000 0.000000
vt 0.000000 0.500000
vt 1.000000 0.500000
vt 0.000000 1.000000
vt 1.000000 1.000000
vt 0.000000 0.000000
vt 1.000000 0.000000
vt 0.000000 0.500000
vt 1.000000 0.500000
vt 0.000000 1.000000
vt 1.000000 1.000000
vt 0.000000 0.000000
vt 1.000000 0.000000
vt 0.000000 0.500000
vt 1.000000 0.500000
vt 0.000000 1.000000
vt 1.000000 1.000000
vt 0.000000 0.000000
vt 1.000000 0.000000
vt 0.000000 0.500000
vt 1.000000 0.500000
vt 0.000000 1.000000
vt 1.000000 1.000000
vt 0.000000 0.000000
vt 1.000000 0.000000
vt 0.000000 0.500000
vt 1.000000 0.500000
vt 0.000000 1.000000
vt 1.000000 1.000000
vt 0.000000 0.000000
vt 1.000000 0.000000
vt 0.000000 0.500000
vt 1.000000 0.500000
vt 0.000000 1.000000
vt 1.000000 1.000000
vt 0.000000 0.000000
vt 1.000000 0.000000
vt 0.000000 0.500000
vt 1.000000 0.500000
vt 0.000000 1.000000
vt 1.000000 1.000000
vt 0.000000 0.000000
vt 1.000000 0.000000
vt 0.000000 0.500000
vt 1.000000 0.500000
vt 0.000000 1.000000
vt 1.000000 1.000000
vt 0.000000 0.000000
vt 1.000000 0.000000
vt 0.000000 0.500000
vt 1.000000 0.500000
vt 0.000000 1.000000
vt 1.000000 1.000000
vt 0.000000 0.000000
vt 1.000000 0.000000
vt 0.000000 0.500000
vt 1.000000 0.500000
vt 0.000000 1.000000
vt 1.000000 1.000000
vt 0.000000 0.000000
vt 1.000000 0.000000
vt 0.000000 0.500000
vt 1.000000 0.500000
vt 0.000000 1.000000
vt 1.000000 1.000000
vt 0.000000 0.000000
vt 1.000000 0.000000
vt 0.000000 0.500000
vt 1.000000 0.500000
vt 0.000000 1.000000
vt 1.000000 1.000000
vt 0.000000 0.000000
vt 1.000000 0.000000
vt 0.000000 0.500000
vt 1.000000 0.500000
vt 0.000000 1.000000
vt 1.000000 1.000000
vt 0.000000 0.000000
vt 1.000000 0.000000
vt 0.000000 0.500000
vt 1.000000 0.500000
vt 0.000000 1.000000
vt 1.000000 1.000000
vt 0.000000 0.000000
vt 1.000000 0.000000
vt 0.000000 0.500000
vt 1.000000 0.500000
vt 0.000000 1.000000
vt 1.000000 1.000000
vt 0.000000 0.000000
vt 1.000000 0.000000
vt 0.000000 0.500000
vt 1.000000 0.500000
vt 0.000000 1.000000
vt 1.000000 1.000000
vt 0.000000 0.000000
vt 1.000000 0.000000
vt 0.000000 0.500000
vt 1.000000 0.500000
vt 0.000000 1.000000
vt 1.000000 1.000000
vt 0.000000 0.000000
vt 1.000000 0.000000
vt 0.000000 0.500000
vt 1.000000 0.500000
vt 0.000000 1.000000
vt 1.000000 1.000000
vt 0.000000 0.000000
vt 1.000000 0.000000
vt 0.000000 0.500000
vt 1.000000 0.500000
vt 0.000000 1.000000
vt 1.000000 1.000000
vt 0.000000 0.000000
vt 1.000000 0.000000
vt 0.000000 0.500000
vt 1.000000 0.500000
vt 0.000000 1.000000
vt 1.000000 1.000000
vt 0.000000 0.000000
vt 1.000000 0.000000
vt 0.000000 0.500000
vt 1.000000 0.500000
vt 0.000000 1.000000
vt 1.000000 1.000000
vt 0.000000 0.000000
vt 1.000000 0.000000
vt 0.000000 0.500000
vt 1.000000 0.500000
vt 0.000000 1.000000
vt 1.000000 1.000000
vt 0.000000 0.000000
vt 1.000000 0.000000
vt 0.000000 0.500000
vt 1.000000 0.500000
vt 0.000000 1.000000
vt 1.000000 1.000000
vt 0.000000 0.000000
vt 1.000000 0.000000
vt 0.000000 0.500000
vt 1.000000 0.500000
vt 0.000000 1.000000
vt 1.000000 1.000000
vt 0.000000 0.000000
vt 1.000000 0.000000
vt 0.000000 0.500000
vt 1.000000 0.500000
vt 0.000000 1.000000
vt 1.000000 1.000000
vt 0.000000 0.000000
vt 1.000000 0.000000
vt 0.000000 0.500000
vt 1.000000 0.500000
vt 0.000000 1.000000
vt 1.000000 1.000000
vt 0.000000 0.000000
vt 1.000000 0.000000
vt 0.000000 0.500000
vt 1.000000 0.500000
vt 0.000000 1.000000
vt 1.000000 1.000000
vt 0.000000 0.000000
vt 1.000000 0.000000
vt 0.000000 0.500000
vt 1.000000 0.500000
vt 0.000000 1.000000
vt 1.000000 1.000000
vt 0.000000 0.000000
vt 1.000000 0.000000
vt 0.000000 0.500000
vt 1.000000 0.500000
vt 0.000000 1.000000
vt 1.000000 1.000000
vt 0.000000 0.000000
vt 1.000000 0.000000
vt 0.000000 0.500000
vt 1.000000 0.500000
vt 0.000000 1.000000
vt 1.000000 1.000000
vt 0.000000 0.000000
vt 1.000000 0.000000
vt 0.000000 0.500000
vt 1.000000 0.500000
vt 0.000000 1.000000
vt 1.000000 1.000000
vt 0.000000 0.000000
vt 1.000000 0.000000
vt 0.000000 0.500000
vt 1.000000 0.500000
vt 0.000000 1.000000
vt 1.000000 1.000000
vt 0.000000 0.000000
vt 1.000000 0.000000
vt 0.000000 0.500000
vt 1.000000 0.500000
vt 0.000000 1.000000
vt 1.000000 1.000000
vt 0.000000 0.000000
vt 1.000000 0.000000
vt 0.000000 0.500000
vt 1.000000 0.500000
vt 0.000000 1.000000
vt 1.000000 1.000000
vt 0.000000 0.000000
vt 1.000000 0.000000
vt 0.000000 0.500000
vt 1.000000 0.500000
vt 0.000000 1.000000
vt 1.000000 1.000000
vt 0.000000 0.000000
vt 1.000000 0.000000
vt 0.000000 0.500000
vt 1.000000 0.500000
vt 0.000000 1.000000
vt 1.000000 1.000000
vt 0.000000 0.000000
vt 1.000000 0.000000
vt 0.000000 0.500000
vt 1.000000 0.500000
vt 0.000000 1.000000
vt 1.000000 1.000000
vt 0.000000 0.000000
vt 1.000000 0.000000
vt 0.000000 0.500000
vt 1.000000 0.500000
vt 0.000000 1.000000
vt 1.000000 1.000000
vt 0.000000 0.000000
vt 1.000000 0.000000
vt 0.000000 0.500000
vt 1.000000 0.500000
vt 0.000000 1.000000
vt 1.000000 1.000000
vt 0.000000 0.000000
vt 1.000000 0.000000
vt 0.000000 0.500000
vt 1.000000 0.500000
vt 0.000000 1.000000
vt 1.000000 1.000000
vt 0.000000 0.000000
vt 1.000000 0.000000
vt 0.000000 0.500000
vt 1.000000 0.500000
vt 0.000000 1.000000
vt 1.000000 1.000000
vt 0.000000 0.000000
vt 1.000000 0.000000
vt 0.000000 0.500000
vt 1.000000 0.500000
vt 0.000000 1.000000
vt 1.000000 1.000000
vt 0.000000 0.000000
vt 1.000000 0.000000
vt 0.000000 0.500000
vt 1.000000 0.500000
vt 0.000000 1.000000
vt 1.000000 1.000000
vt 0.000000 0.000000
vt 1.000000 0.000000
vt 0.000000 0.500000
vt 1.000000 0.500000
vt 0.000000 1.000000
vt 1.000000 1.000000
vt 0.000000 0.000000
vt 1.000000 0.000000
vt 0.000000 0.500000
vt 1.000000 0.500000
vt 0.000000 1.000000
vt 1.000000 1.000000
vt 0.000000 0.000000
vt 1.000000 0.000000
vt 0.000000 0.500000
vt 1.000000 0.500000
vt 0.000000 1.000000
vt 1.000000 1.000000
vt 0.000000 0.000000
vt 1.000000 0.000000
vt 0.000000 0.500000
vt 1.000000 0.500000
vt 0.000000 1.000000
vt 1.000000 1.000000
vt 0.000000 0.000000
vt 1.000000 0.000000
vt 0.000000 0.500000
vt 1.000000 0.500000
vt 0.000000 1.000000
vt 1.000000 1.000000
vt 0.000000 0.000000
vt 1.000000 0.000000
vt 0.000000 0.500000
vt 1.000000 0.500000
vt 0.000000 1.000000
vt 1.000000 1.000000
vt 0.000000 0.000000
vt 1.000000 0.000000
vt 0.000000 0.500000
vt 1.000000 0.500000
vt 0.000000 1.000000
vt 1.000000 1.000000
vt 0.000000 0.000000
vt 1.000000 0.000000
vt 0.000000 0.500000
vt 1.000000 0.500000
vt 0.000000 1.000000
vt 1.000000 1.000000
vt 0.000000 0.000000
vt 1.000000 0.000000
vt 0.000000 0.500000
vt 1.000000 0.500000
vt 0.000000 1.000000
vt 1.000000 1.000000
vt 0.000000 0.000000
vt 1.000000 0.000000
vt 0.000000 0.500000
vt 1.000000 0.500000
vt 0.000000 1.000000
vt 1.000000 1.000000
vt 0.000000 0.000000
vt 1.000000 0.000000
vt 0.000000 0.500000
vt 1.000000 0.500000
vt 0.000000 1.000000
vt 1.000000 1.000000
vt 0.000000 0.000000
vt 1.000000 0.000000
vt 0.000000 0.500000
vt 1.000000 0.500000
vt 0.000000 1.000000
vt 1.000000 1.000000
vt 0.000000 0.000000
vt 1.000000 0.000000
vt 0.000000 0.500000
vt 1.000000 0.500000
vt 0.000000 1.000000
vt 1.000000 1.000000
vt 0.000000 0.000000
vt 1.000000 0.000000
vt 0.000000 0.500000
vt 1.000000 0.500000
vt 0.000000 1.000000
vt 1.000000 1.000000
vt 0.000000 0.000000
vt 1.000000 0.000000
vt 0.000000 0.500000
vt 1.000000 0.500000
vt 0.000000 1.000000
vt 1.000000 1.000000
vt 0.000000 0.000000
vt 1.000000 0.000000
vt 0.000000 0.500000
vt 1.000000 0.500000
vt 0.000000 1.000000
vt 1.000000 1.000000
vt 0.000000 0.000000
vt 1.000000 0.000000
vt 0.000000 0.500000
vt 1.000000 0.500000
vt 0.000000 1.000000
vt 1.000000 1.000000
vt 0.000000 0.000000
vt 1.000000 0.000000
vt 0.000000 0.500000
vt 1.000000 0.500000
vt 0.000000 1.000000
vt 1.000000 1.000000
vt 0.000000 0.000000
vt 1.000000 0.000000
vt 0.000000 0.500000
vt 1.000000 0.500000
vt 0.000000 1.000000
vt 1.000000 1.000000
vt 0.000000 0.000000
vt 1.000000 0.000000
vt 0.000000 0.500000
vt 1.000000 0.500000
vt 0.000000 1.000000
vt 1.000000 1.000000
vt 0.000000 0.000000
vt 1.000000 0.000000
vt 0.000000 0.500000
vt 1.000000 0.500000
vt 0.000000 1.000000
vt 1.000000 1.000000
vt 0.000000 0.000000
vt 1.000000 0.000000
vt 0.000000 0.500000
vt 1.000000 0.500000
vt 0.000000 1.000000
vt 1.000000 1.000000
vt 0.000000 0.000000
vt 1.000000 0.000000
vt 0.000000 0.500000
vt 1.000000 0.500000
vt 0.000000 1.000000
vt 1.000000 1.000000
vt 0.000000 0.000000
vt 1.000000 0.000000
vt 0.000000 0.500000
vt 1.000000 0.500000
vt 0.000000 1.000000
vt 1.000000 1.000000
vt 0.000000 0.000000
vt 1.000000 0.000000
vt 0.000000 0.500000
vt 1.000000 0.500000
vt 0.000000 1.000000
vt 1.000000 1.000000
vt 0.000000 0.000000
vt 1.000000 0.000000
vt 0.000000 0.500000
vt 1.000000 0.500000
vt 0.000000 1.000000
vt 1.000000 1.000000
vt 0.000000 0.000000
vt 1.000000 0.000000
vt 0.000000 0.500000
vt 1.000000 0.500000
vt 0.000000 1.000000
vt 1.000000 1.000000
vt 0.000000 0.000000
vt 1.000000 0.000000
vt 0.000000 0.500000
vt 1.000000 0.500000
vt 0.000000 1.000000
vt 1.000000 1.000000
vn 0.946100 -0.323428 -0.017024
vn 0.946100 -0.323428 -0.017024
vn 0.946100 -0.323428 -0.017024
vn 0.946100 -0.323428 -0.017024
vn 0.946100 -0.323428 -0.017024
vn 0.946100 -0.323428 -0.017024
vn -0.903032 -0.424096 0.068377
vn -0.903032 -0.424096 0.068377
vn -0.903032 -0.424096 0.068377
vn -0.903032 -0.424096 0.068377
vn -0.903032 -0.424096 0.068377
vn -0.903032 -0.424096 0.068377
vn 0.046435 -0.677586 0.733976
vn 0.046435 -0.677586 0.733976
vn 0.046435 -0.677586 0.733976
vn 0.046435 -0.677586 0.733976
vn 0.046435 -0.677586 0.733976
vn 0.046435 -0.677586 0.733976
vn 0.306354 -0.943512 0.126223
vn 0.306354 -0.943512 0.126223
vn 0.306354 -0.943512 0.126223
vn 0.306354 -0.943512 0.126223
vn 0.306354 -0.943512 0.126223
vn 0.306354 -0.943512 0.126223
vn 0.110372 -0.582543 -0.805271
vn 0.110372 -0.582543 -0.805271
vn 0.110372 -0.582543 -0.805271
vn 0.110372 -0.582543 -0.805271
vn 0.110372 -0.582543 -0.805271
vn 0.110372 -0.582543 -0.805271
vn 0.110372 -0.582543 -0.805271
vn 0.110372 -0.582543 -0.805271
vn 0.110372 -0.582543 -0.805271
vn 0.110372 -0.582543 -0.805271
vn 0.110372 -0.582543 -0.805271
vn 0.110372 -0.582543 -0.805271
vn -0.563157 -0.677167 0.473602
vn -0.563157 -0.677167 0.473602
vn -0.563157 -0.677167 0.473602
vn -0.563157 -0.677167 0.473602
vn -0.563157 -0.677167 0.473602
vn -0.563157 -0.677167 0.473602
vn -0.598490 -0.003724 0.801121
vn -0.598490 -0.003724 0.801121
vn -0.598490 -0.003724 0.801121
vn -0.598490 -0.003724 0.801121
vn -0.598490 -0.003724 0.801121
vn -0.598490 -0.003724 0.801121
vn -0.538238 -0.643279 0.544511
vn -0.538238 -0.643279 0.544511
vn -0.538238 -0.643279 0.544511
vn -0.538238 -0.643279 0.544511
vn -0.538238 -0.643279 0.544511
vn -0.538238 -0.643279 0.544511
vn 0.685259 -0.306073 0.660863
vn 0.685259 -0.306073 0.660863
vn 0.685259 -0.306073 0.660863
vn 0.685259 -0.306073 0.660863
vn 0.685259 -0.306073 0.660863
vn 0.685259 -0.306073 0.660863
vn 0.506605 -0.661353 0.553140
vn 0.506605 -0.661353 0.553140
vn 0.506605 -0.661353 0.553140
vn 0.506605 -0.661353 0.553140
vn 0.506605 -0.661353 0.553140
vn 0.506605 -0.661353 0.553140
vn 0.109074 -0.200464 0.973610
vn 0.109074 -0.200464 0.973610
vn 0.109074 -0.200464 0.973610
vn 0.109074 -0.200464 0.973610
vn 0.109074 -0.200464 0.973610
vn 0.109074 -0.200464 0.973610
vn 0.815936 -0.500097 0.290089
vn 0.815936 -0.500097 0.290089
vn 0.815936 -0.500097 0.290089
vn 0.815936 -0.500097 0.290089
vn 0.815936 -0.500097 0.290089
vn 0.815936 -0.500097 0.290089
vn -0.907609 0.141682 0.395186
vn -0.907609 0.141682 0.395186
vn -0.907609 0.141682 0.395186
vn -0.907609 0.141682 0.395186
vn -0.907609 0.141682 0.395186
vn -0.907609 0.141682 0.395186
vn 0.659000 0.153355 0.736343
vn 0.659000 0.153355 0.736343
vn 0.659000 0.153355 0.736343
vn 0.659000 0.153355 0.736343
vn 0.659000 0.153355 0.736343
vn 0.659000 0.153355 0.736343
vn 0.567228 -0.305635 0.764748
vn 0.567228 -0.305635 0.764748
vn 0.567228 -0.305635 0.764748
vn 0.567228 -0.305635 0.764748
vn 0.567228 -0.305635 0.764748
vn 0.567228 -0.305635 0.764748
vn -0.851032 -0.499796 -0.161084
vn -0.851032 -0.499796 -0.161084
vn -0.851032 -0.499796 -0.161084
vn -0.851032 -0.499796 -0.161084
vn -0.851032 -0.499796 -0.161084
vn -0.851032 -0.499796 -0.161084
vn 0.072782 -0.940025 -0.333251
vn 0.072782 -0.940025 -0.333251
vn 0.072782 -0.940025 -0.333251
vn 0.072782 -0.940025 -0.333251
vn 0.072782 -0.940025 -0.333251
vn 0.072782 -0.940025 -0.333251
vn 0.319935 0.233372 0.918248
vn 0.319935 0.233372 0.918248
vn 0.319935 0.233372 0.918248
vn 0.319935 0.233372 0.918248
vn 0.319935 0.233372 0.918248
vn 0.319935 0.233372 0.918248
vn 0.062888 0.746444 0.662469
vn 0.062888 0.746444 0.662469
vn 0.062888 0.746444 0.662469
vn 0.062888 0.746444 0.662469
vn 0.062888 0.746444 0.662469
vn 0.062888 0.746444 0.662469
vn -0.037303 -0.989117 -0.142323
vn -0.037303 -0.989117 -0.142323
vn -0.037303 -0.989117 -0.142323
vn -0.037303 -0.989117 -0.142323
vn -0.037303 -0.989117 -0.142323
vn -0.037303 -0.989117 -0.142323
vn 0.851708 -0.429020 0.300890
vn 0.851708 -0.429020 0.300890
vn 0.851708 -0.429020 0.300890
vn 0.851708 -0.429020 0.300890
vn 0.851708 -0.429020 0.300890
vn 0.851708 -0.429020 0.300890
vn -0.195119 0.525707 0.827986
vn -0.195119 0.525707 0.827986
vn -0.195119 0.525707 0.827986
vn -0.195119 0.525707 0.827986
vn -0.195119 0.525707 0.827986
vn -0.195119 0.525707 0.827986
vn -0.439155 -0.661449 0.607970
vn -0.439155 -0.661449 0.607970
vn -0.439155 -0.661449 0.607970
vn -0.439155 -0.661449 0.607970
vn -0.439155 -0.661449 0.607970
vn -0.439155 -0.661449 0.607970
vn -0.578660 -0.810237 0.093103
vn -0.578660 -0.810237 0.093103
vn -0.578660 -0.810237 0.093103
vn -0.578660 -0.810237 0.093103
vn -0.578660 -0.810237 0.093103
vn -0.578660 -0.810237 0.093103
vn -0.703441 -0.156097 0.693401
vn -0.703441 -0.156097 0.693401
vn -0.703441 -0.156097 0.693401
vn -0.703441 -0.156097 0.693401
vn -0.703441 -0.156097 0.693401
vn -0.703441 -0.156097 0.693401
vn -0.686435 -0.540726 -0.486233
vn -0.686435 -0.540726 -0.486233
vn -0.686435 -0.540726 -0.486233
vn -0.686435 -0.540726 -0.486233
vn -0.686435 -0.540726 -0.486233
vn -0.686435 -0.540726 -0.486233
vn 0.066675 -0.951909 -0.299037
vn 0.066675 -0.951909 -0.299037
vn 0.066675 -0.951909 -0.299037
vn 0.066675 -0.951909 -0.299037
vn 0.066675 -0.951909 -0.299037
vn 0.066675 -0.951909 -0.299037
vn 0.715363 0.098280 0.691807
vn 0.715363 0.098280 0.691807
vn 0.715363 0.098280 0.691807
vn 0.715363 0.098280 0.691807
vn 0.715363 0.098280 0.691807
vn 0.715363 0.098280 0.691807
vn 0.920790 0.063254 0.384896
vn 0.920790 0.063254 0.384896
vn 0.920790 0.063254 0.384896
vn 0.920790 0.063254 0.384896
vn 0.920790 0.063254 0.384896
vn 0.920790 0.063254 0.384896
vn 0.868715 0.143466 0.474079
vn 0.868715 0.143466 0.474079
vn 0.868715 0.143466 0.474079
vn 0.868715 0.143466 0.474079
vn 0.868715 0.143466 0.474079
vn 0.868715 0.143466 0.474079
vn 0.000000 -0.196116 0.980581
vn 0.000000 -0.196116 0.980581
vn 0.000000 -0.196116 0.980581
vn 0.000000 -0.196116 0.980581
vn 0.000000 -0.196116 0.980581
vn 0.000000 -0.196116 0.980581
vn -0.945130 -0.246168 0.214779
vn -0.945130 -0.246168 0.214779
vn -0.945130 -0.246168 0.214779
vn -0.945130 -0.246168 0.214779
vn -0.945130 -0.246168 0.214779
vn -0.945130 -0.246168 0.214779
vn 0.654877 -0.672033 0.345699
vn 0.654877 -0.672033 0.345699
vn 0.654877 -0.672033 0.345699
vn 0.654877 -0.672033 0.345699
vn 0.654877 -0.672033 0.345699
vn 0.654877 -0.672033 0.345699
vn -0.930786 -0.365351 -0.012533
vn -0.930786 -0.365351 -0.012533
vn -0.930786 -0.365351 -0.012533
vn -0.930786 -0.365351 -0.012533
vn -0.930786 -0.365351 -0.012533
vn -0.930786 -0.365351 -0.012533
vn -0.550988 -0.497415 0.670068
vn -0.550988 -0.497415 0.670068
vn -0.550988 -0.497415 0.670068
vn -0.550988 -0.497415 0.670068
vn -0.550988 -0.497415 0.670068
vn -0.550988 -0.497415 0.670068
vn -0.701640 -0.232506 0.673530
vn -0.701640 -0.232506 0.673530
vn -0.701640 -0.232506 0.673530
vn -0.701640 -0.232506 0.673530
vn -0.701640 -0.232506 0.673530
vn -0.701640 -0.232506 0.673530
vn -0.428091 -0.244192 -0.870120
vn -0.428091 -0.244192 -0.870120
vn -0.428091 -0.244192 -0.870120
vn -0.428091 -0.244192 -0.870120
vn -0.428091 -0.244192 -0.870120
vn -0.428091 -0.244192 -0.870120
vn 0.405774 -0.681132 0.609432
vn 0.405774 -0.681132 0.609432
vn 0.405774 -0.681132 0.609432
vn 0.405774 -0.681132 0.609432
vn 0.405774 -0.681132 0.609432
vn 0.405774 -0.681132 0.609432
vn 0.603361 -0.790035 0.108630
vn 0.603361 -0.790035 0.108630
vn 0.603361 -0.790035 0.108630
vn 0.603361 -0.790035 0.108630
vn 0.603361 -0.790035 0.108630
vn 0.603361 -0.790035 0.108630
vn -0.844100 -0.278334 0.458285
vn -0.844100 -0.278334 0.458285
vn -0.844100 -0.278334 0.458285
vn -0.844100 -0.278334 0.458285
vn -0.844100 -0.278334 0.458285
vn -0.844100 -0.278334 0.458285
vn 0.877297 -0.346322 0.332282
vn 0.877297 -0.346322 0.332282
vn 0.877297 -0.346322 0.332282
vn 0.877297 -0.346322 0.332282
vn 0.877297 -0.346322 0.332282
vn 0.877297 -0.346322 0.332282
vn 0.720994 -0.394029 -0.570008
vn 0.720994 -0.394029 -0.570008
vn 0.720994 -0.394029 -0.570008
vn 0.720994 -0.394029 -0.570008
vn 0.720994 -0.394029 -0.570008
vn 0.720994 -0.394029 -0.570008
vn 0.631753 -0.541258 -0.554912
vn 0.631753 -0.541258 -0.554912
vn 0.631753 -0.541258 -0.554912
vn 0.631753 -0.541258 -0.554912
vn 0.631753 -0.541258 -0.554912
vn 0.631753 -0.541258 -0.554912
vn 0.547376 0.265553 0.793638
vn 0.547376 0.265553 0.793638
vn 0.547376 0.265553 0.793638
vn 0.547376 0.265553 0.793638
vn 0.547376 0.265553 0.793638
vn 0.547376 0.265553 0.793638
vn 0.348505 -0.922408 -0.166458
vn 0.348505 -0.922408 -0.166458
vn 0.348505 -0.922408 -0.166458
vn 0.348505 -0.922408 -0.166458
vn 0.348505 -0.922408 -0.166458
vn 0.348505 -0.922408 -0.166458
vn -0.000000 -0.196116 0.980581
vn -0.000000 -0.196116 0.980581
vn -0.000000 -0.196116 0.980581
vn -0.000000 -0.196116 0.980581
vn -0.000000 -0.196116 0.980581
vn -0.000000 -0.196116 0.980581
vn 0.658245 -0.750778 0.055182
vn 0.658245 -0.750778 0.055182
vn 0.658245 -0.750778 0.055182
vn 0.658245 -0.750778 0.055182
vn 0.658245 -0.750778 0.055182
vn 0.658245 -0.750778 0.055182
vn 0.914488 -0.348010 0.206398
vn 0.914488 -0.348010 0.206398
vn 0.914488 -0.348010 0.206398
vn 0.914488 -0.348010 0.206398
vn 0.914488 -0.348010 0.206398
vn 0.914488 -0.348010 0.206398
vn 0.538544 -0.539763 0.647014
vn 0.538544 -0.539763 0.647014
vn 0.538544 -0.539763 0.647014
vn 0.538544 -0.539763 0.647014
vn 0.538544 -0.539763 0.647014
vn 0.538544 -0.539763 0.647014
vn 0.360341 -0.833941 0.417967
vn 0.360341 -0.833941 0.417967
vn 0.360341 -0.833941 0.417967
vn 0.360341 -0.833941 0.417967
vn 0.360341 -0.833941 0.417967
vn 0.360341 -0.833941 0.417967
vn -0.307830 0.754746 0.579309
vn -0.307830 0.754746 0.579309
vn -0.307830 0.754746 0.579309
vn -0.307830 0.754746 0.579309
vn -0.307830 0.754746 0.579309
vn -0.307830 0.754746 0.579309
vn 0.437989 -0.702650 0.560757
vn 0.437989 -0.702650 0.560757
vn 0.437989 -0.702650 0.560757
vn 0.437989 -0.702650 0.560757
vn 0.437989 -0.702650 0.560757
vn 0.437989 -0.702650 0.560757
vn 0.113310 -0.914287 -0.388897
vn 0.113310 -0.914287 -0.388897
vn 0.113310 -0.914287 -0.388897
vn 0.113310 -0.914287 -0.388897
vn 0.113310 -0.914287 -0.388897
vn 0.113310 -0.914287 -0.388897
vn -0.068814 -0.887382 0.455870
vn -0.068814 -0.887382 0.455870
vn -0.068814 -0.887382 0.455870
vn -0.068814 -0.887382 0.455870
vn -0.068814 -0.887382 0.455870
vn -0.068814 -0.887382 0.455870
vn -0.707989 -0.705919 -0.020730
vn -0.707989 -0.705919 -0.020730
vn -0.707989 -0.705919 -0.020730
vn -0.707989 -0.705919 -0.020730
vn -0.707989 -0.705919 -0.020730
vn -0.707989 -0.705919 -0.020730
vn 0.697280 0.151587 0.700587
vn 0.697280 0.151587 0.700587
vn 0.697280 0.151587 0.700587
vn 0.697280 0.151587 0.700587
vn 0.697280 0.151587 0.700587
vn 0.697280 0.151587 0.700587
vn -0.133324 -0.970765 -0.199602
vn -0.133324 -0.970765 -0.199602
vn -0.133324 -0.970765 -0.199602
vn -0.133324 -0.970765 -0.199602
vn -0.133324 -0.970765 -0.199602
vn -0.133324 -0.970765 -0.199602
vn -0.206796 -0.425732 0.880902
vn -0.206796 -0.425732 0.880902
vn -0.206796 -0.425732 0.880902
vn -0.206796 -0.425732 0.880902
vn -0.206796 -0.425732 0.880902
vn -0.206796 -0.425732 0.880902
vn -0.482617 -0.868460 -0.113397
vn -0.482617 -0.868460 -0.113397
vn -0.482617 -0.868460 -0.113397
vn -0.482617 -0.868460 -0.113397
vn -0.482617 -0.868460 -0.113397
vn -0.482617 -0.868460 -0.113397
vn 0.379727 -0.832874 -0.402651
vn 0.379727 -0.832874 -0.402651
vn 0.379727 -0.832874 -0.402651
vn 0.379727 -0.832874 -0.402651
vn 0.379727 -0.832874 -0.402651
vn 0.379727 -0.832874 -0.402651
vn 0.667171 -0.597773 0.444466
vn 0.667171 -0.597773 0.444466
vn 0.667171 -0.597773 0.444466
vn 0.667171 -0.597773 0.444466
vn 0.667171 -0.597773 0.444466
vn 0.667171 -0.597773 0.444466
vn 0.444763 0.331817 0.831915
vn 0.444763 0.331817 0.831915
vn 0.444763 0.331817 0.831915
vn 0.444763 0.331817 0.831915
vn 0.444763 0.331817 0.831915
vn 0.444763 0.331817 0.831915
vn -0.767453 -0.427652 0.477630
vn -0.767453 -0.427652 0.477630
vn -0.767453 -0.427652 0.477630
vn -0.767453 -0.427652 0.477630
vn -0.767453 -0.427652 0.477630
vn -0.767453 -0.427652 0.477630
vn -0.951719 -0.108905 0.287002
vn -0.951719 -0.108905 0.287002
vn -0.951719 -0.108905 0.287002
vn -0.951719 -0.108905 0.287002
vn -0.951719 -0.108905 0.287002
vn -0.951719 -0.108905 0.287002
vn 0.765413 -0.611535 0.200420
vn 0.765413 -0.611535 0.200420
vn 0.765413 -0.611535 0.200420
vn 0.765413 -0.611535 0.200420
vn 0.765413 -0.611535 0.200420
vn 0.765413 -0.611535 0.200420
vn 0.826148 -0.265707 0.496870
vn 0.826148 -0.265707 0.496870
vn 0.826148 -0.265707 0.496870
vn 0.826148 -0.265707 0.496870
vn 0.826148 -0.265707 0.496870
vn 0.826148 -0.265707 0.496870
vn 0.216328 0.543166 0.811279
vn 0.216328 0.543166 0.811279
vn 0.216328 0.543166 0.811279
vn 0.216328 0.543166 0.811279
vn 0.216328 0.543166 0.811279
vn 0.216328 0.543166 0.811279
vn -0.642997 -0.719281 -0.263039
vn -0.642997 -0.719281 -0.263039
vn -0.642997 -0.719281 -0.263039
vn -0.642997 -0.719281 -0.263039
vn -0.642997 -0.719281 -0.263039
vn -0.642997 -0.719281 -0.263039
vn -0.149193 -0.506353 0.849322
vn -0.149193 -0.506353 0.849322
vn -0.149193 -0.506353 0.849322
vn -0.149193 -0.506353 0.849322
vn -0.149193 -0.506353 0.849322
vn -0.149193 -0.506353 0.849322
vn -0.000000 -0.196116 0.980581
vn -0.000000 -0.196116 0.980581
vn -0.000000 -0.196116 0.980581
vn -0.000000 -0.196116 0.980581
vn -0.000000 -0.196116 0.980581
vn -0.000000 -0.196116 0.980581
vn 0.805970 -0.193766 0.559345
vn 0.805970 -0.193766 0.559345
vn 0.805970 -0.193766 0.559345
vn 0.805970 -0.193766 0.559345
vn 0.805970 -0.193766 0.559345
vn 0.805970 -0.193766 0.559345
vn 0.864568 -0.355663 0.355001
vn 0.864568 -0.355663 0.355001
vn 0.864568 -0.355663 0.355001
vn 0.864568 -0.355663 0.355001
vn 0.864568 -0.355663 0.355001
vn 0.864568 -0.355663 0.355001
vn -0.853402 -0.304653 0.422956
vn -0.853402 -0.304653 0.422956
vn -0.853402 -0.304653 0.422956
vn -0.853402 -0.304653 0.422956
vn -0.853402 -0.304653 0.422956
vn -0.853402 -0.304653 0.422956
vn -0.334173 -0.445521 -0.830566
vn -0.334173 -0.445521 -0.830566
vn -0.334173 -0.445521 -0.830566
vn -0.334173 -0.445521 -0.830566
vn -0.334173 -0.445521 -0.830566
vn -0.334173 -0.445521 -0.830566
vn 0.733091 0.023507 0.679724
vn 0.733091 0.023507 0.679724
vn 0.733091 0.023507 0.679724
vn 0.733091 0.023507 0.679724
vn 0.733091 0.023507 0.679724
vn 0.733091 0.023507 0.679724
vn 0.623762 0.127640 0.771122
vn 0.623762 0.127640 0.771122
vn 0.623762 0.127640 0.771122
vn 0.623762 0.127640 0.771122
vn 0.623762 0.127640 0.771122
vn 0.623762 0.127640 0.771122
vn 0.545520 0.323223 0.773263
vn 0.545520 0.323223 0.773263
vn 0.545520 0.323223 0.773263
vn 0.545520 0.323223 0.773263
vn 0.545520 0.323223 0.773263
vn 0.545520 0.323223 0.773263
vn 0.816677 -0.222373 -0.532530
vn 0.816677 -0.222373 -0.532530
vn 0.816677 -0.222373 -0.532530
vn 0.816677 -0.222373 -0.532530
vn 0.816677 -0.222373 -0.532530
vn 0.816677 -0.222373 -0.532530
vn 0.857504 -0.455483 0.239212
vn 0.857504 -0.455483 0.239212
vn 0.857504 -0.455483 0.239212
vn 0.857504 -0.455483 0.239212
vn 0.857504 -0.455483 0.239212
vn 0.857504 -0.455483 0.239212
f 1/1/1 2/2/2 4/4/4
f 1/1/1 4/4/4 3/3/3
f 3/3/3 4/4/4 6/6/6
f 3/3/3 6/6/6 5/5/5
f 7/7/7 8/8/8 10/10/10
f 7/7/7 10/10/10 9/9/9
f 9/9/9 10/10/10 12/12/12
f 9/9/9 12/12/12 11/11/11
f 13/13/13 14/14/14 16/16/16
f 13/13/13 16/16/16 15/15/15
f 15/15/15 16/16/16 18/18/18
f 15/15/15 18/18/18 17/17/17
f 19/19/19 20/20/20 22/22/22
f 19/19/19 22/22/22 21/21/21
f 21/21/21 22/22/22 24/24/24
f 21/21/21 24/24/24 23/23/23
f 25/25/25 26/26/26 28/28/28
f 25/25/25 28/28/28 27/27/27
f 27/27/27 28/28/28 30/30/30
f 27/27/27 30/30/30 29/29/29
f 31/31/31 32/32/32 34/34/34
f 31/31/31 34/34/34 33/33/33
f 33/33/33 34/34/34 36/36/36
f 33/33/33 36/36/36 35/35/35
f 37/37/37 38/38/38 40/40/40
f 37/37/37 40/40/40 39/39/39
f 39/39/39 40/40/40 42/42/42
f 39/39/39 42/42/42 41/41/41
f 43/43/43 44/44/44 46/46/46
f 43/43/43 46/46/46 45/45/45
f 45/45/45 46/46/46 48/48/48
f 45/45/45 48/48/48 47/47/47
f 49/49/49 50/50/50 52/52/52
f 49/49/49 52/52/52 51/51/51
f 51/51/51 52/52/52 54/54/54
f 51/51/51 54/54/54 53/53/53
f 55/55/55 56/56/56 58/58/58
f 55/55/55 58/58/58 57/57/57
f 57/57/57 58/58/58 60/60/60
f 57/57/57 60/60/60 59/59/59
f 61/61/61 62/62/62 64/64/64
f 61/61/61 64/64/64 63/63/63
f 63/63/63 64/64/64 66/66/66
f 63/63/63 66/66/66 65/65/65
f 67/67/67 68/68/68 70/70/70
f 67/67/67 70/70/70 69/69/69
f 69/69/69 70/70/70 72/72/72
f 69/69/69 72/72/72 71/71/71
f 73/73/73 74/74/74 76/76/76
f 73/73/73 76/76/76 75/75/75
f 75/75/75 76/76/76 78/78/78
f 75/75/75 78/78/78 77/77/77
f 79/79/79 80/80/80 82/82/82
f 79/79/79 82/82/82 81/81/81
f 81/81/81 82/82/82 84/84/84
f 81/81/81 84/84/84 83/83/83
f 85/85/85 86/86/86 88/88/88
f 85/85/85 88/88/88 87/87/87
f 87/87/87 88/88/88 90/90/90
f 87/87/87 90/90/90 89/89/89
f 91/91/91 92/92/92 94/94/94
f 91/91/91 94/94/94 93/93/93
f 93/93/93 94/94/94 96/96/96
f 93/93/93 96/96/96 95/95/95
f 97/97/97 98/98/98 100/100/100
f 97/97/97 100/100/100 99/99/99
f 99/99/99 100/100/100 102/102/102
f 99/99/99 102/102/102 101/101/101
f 103/103/103 104/104/104 106/106/106
f 103/103/103 106/106/106 105/105/105
f 105/105/105 106/106/106 108/108/108
f 105/105/105 108/108/108 107/107/107
f 109/109/109 110/110/110 112/112/112
f 109/109/109 112/112/112 111/111/111
f 111/111/111 112/112/112 114/114/114
f 111/111/111 114/114/114 113/113/113
f 115/115/115 116/116/116 118/118/118
f 115/115/115 118/118/118 117/117/117
f 117/117/117 118/118/118 120/120/120
f 117/117/117 120/120/120 119/119/119
f 121/121/121 122/122/122 124/124/124
f 121/121/121 124/124/124 123/123/123
f 123/123/123 124/124/124 126/126/126
f 123/123/123 126/126/126 125/125/125
f 127/127/127 128/128/128 130/130/130
f 127/127/127 130/130/130 129/129/129
f 129/129/129 130/130/130 132/132/132
f 129/129/129 132/132/132 131/131/131
f 133/133/133 134/134/134 136/136/136
f 133/133/133 136/136/136 135/135/135
f 135/135/135 136/136/136 138/138/138
f 135/135/135 138/138/138 137/137/137
f 139/139/139 140/140/140 142/142/142
f 139/139/139 142/142/142 141/141/141
f 141/141/141 142/142/142 144/144/144
f 141/141/141 144/144/144 143/143/143
f 145/145/145 146/146/146 148/148/148
f 145/145/145 148/148/148 147/147/147
f 147/147/147 148/148/148 150/150/150
f 147/147/147 150/150/150 149/149/149
f 151/151/151 152/152/152 154/154/154
f 151/151/151 154/154/154 153/153/153
f 153/153/153 154/154/154 156/156/156
f 153/153/153 156/156/156 155/155/155
f 157/157/157 158/158/158 160/160/160
f 157/157/157 160/160/160 159/159/159
f 159/159/159 160/160/160 162/162/162
f 159/159/159 162/162/162 161/161/161
f 163/163/163 164/164/164 166/166/166
f 163/163/163 166/166/166 165/165/165
f 165/165/165 166/166/166 168/168/168
f 165/165/165 168/168/168 167/167/167
f 169/169/169 170/170/170 172/172/172
f 169/169/169 172/172/172 171/171/171
f 171/171/171 172/172/172 174/174/174
f 171/171/171 174/174/174 173/173/173
f 175/175/175 176/176/176 178/178/178
f 175/175/175 178/178/178 177/177/177
f 177/177/177 178/178/178 180/180/180
f 177/177/177 180/180/180 179/179/179
f 181/181/181 182/182/182 184/184/184
f 181/181/181 184/184/184 183/183/183
f 183/183/183 184/184/184 186/186/186
f 183/183/183 186/186/186 185/185/185
f 187/187/187 188/188/188 190/190/190
f 187/187/187 190/190/190 189/189/189
f 189/189/189 190/190/190 192/192/192
f 189/189/189 192/192/192 191/191/191
f 193/193/193 194/194/194 196/196/196
f 193/193/193 196/196/196 195/195/195
f 195/195/195 196/196/196 198/198/198
f 195/195/195 198/198/198 197/197/197
f 199/199/199 200/200/200 202/202/202
f 199/199/199 202/202/202 201/201/201
f 201/201/201 202/202/202 204/204/204
f 201/201/201 204/204/204 203/203/203
f 205/205/205 206/206/206 208/208/208
f 205/205/205 208/208/208 207/207/207
f 207/207/207 208/208/208 210/210/210
f 207/207/207 210/210/210 209/209/209
f 211/211/211 212/212/212 214/214/214
f 211/211/211 214/214/214 213/213/213
f 213/213/213 214/214/214 216/216/216
f 213/213/213 216/216/216 215/215/215
f 217/217/217 218/218/218 220/220/220
f 217/217/217 220/220/220 219/219/219
f 219/219/219 220/220/220 222/222/222
f 219/219/219 222/222/222 221/221/221
f 223/223/223 224/224/224 226/226/226
f 223/223/223 226/226/226 225/225/225
f 225/225/225 226/226/226 228/228/228
f 225/225/225 228/228/228 227/227/227
f 229/229/229 230/230/230 232/232/232
f 229/229/229 232/232/232 231/231/231
f 231/231/231 232/232/232 234/234/234
f 231/231/231 234/234/234 233/233/233
f 235/235/235 236/236/236 238/238/238
f 235/235/235 238/238/238 237/237/237
f 237/237/237 238/238/238 240/240/240
f 237/237/237 240/240/240 239/239/239
f 241/241/241 242/242/242 244/244/244
f 241/241/241 244/244/244 243/243/243
f 243/243/243 244/244/244 246/246/246
f 243/243/243 246/246/246 245/245/245
f 247/247/247 248/248/248 250/250/250
f 247/247/247 250/250/250 249/249/249
f 249/249/249 250/250/250 252/252/252
f 249/249/249 252/252/252 251/251/251
f 253/253/253 254/254/254 256/256/256
f 253/253/253 256/256/256 255/255/255
f 255/255/255 256/256/256 258/258/258
f 255/255/255 258/258/258 257/257/257
f 259/259/259 260/260/260 262/262/262
f 259/259/259 262/262/262 261/261/261
f 261/261/261 262/262/262 264/264/264
f 261/261/261 264/264/264 263/263/263
f 265/265/265 266/266/266 268/268/268
f 265/265/265 268/268/268 267/267/267
f 267/267/267 268/268/268 270/270/270
f 267/267/267 270/270/270 269/269/269
f 271/271/271 272/272/272 274/274/274
f 271/271/271 274/274/274 273/273/273
f 273/273/273 274/274/274 276/276/276
f 273/273/273 276/276/276 275/275/275
f 277/277/277 278/278/278 280/280/280
f 277/277/277 280/280/280 279/279/279
f 279/279/279 280/280/280 282/282/282
f 279/279/279 282/282/282 281/281/281
f 283/283/283 284/284/284 286/286/286
f 283/283/283 286/286/286 285/285/285
f 285/285/285 286/286/286 288/288/288
f 285/285/285 288/288/288 287/287/287
f 289/289/289 290/290/290 292/292/292
f 289/289/289 292/292/292 291/291/291
f 291/291/291 292/292/292 294/294/294
f 291/291/291 294/294/294 293/293/293
f 295/295/295 296/296/296 298/298/298
f 295/295/295 298/298/298 297/297/297
f 297/297/297 298/298/298 300/300/300
f 297/297/297 300/300/300 299/299/299
f 301/301/301 302/302/302 304/304/304
f 301/301/301 304/304/304 303/303/303
f 303/303/303 304/304/304 306/306/306
f 303/303/303 306/306/306 305/305/305
f 307/307/307 308/308/308 310/310/310
f 307/307/307 310/310/310 309/309/309
f 309/309/309 310/310/310 312/312/312
f 309/309/309 312/312/312 311/311/311
f 313/313/313 314/314/314 316/316/316
f 313/313/313 316/316/316 315/315/315
f 315/315/315 316/316/316 318/318/318
f 315/315/315 318/318/318 317/317/317
f 319/319/319 320/320/320 322/322/322
f 319/319/319 322/322/322 321/321/321
f 321/321/321 322/322/322 324/324/324
f 321/321/321 324/324/324 323/323/323
f 325/325/325 326/326/326 328/328/328
f 325/325/325 328/328/328 327/327/327
f 327/327/327 328/328/328 330/330/330
f 327/327/327 330/330/330 329/329/329
f 331/331/331 332/332/332 334/334/334
f 331/331/331 334/334/334 333/333/333
f 333/333/333 334/334/334 336/336/336
f 333/333/333 336/336/336 335/335/335
f 337/337/337 338/338/338 340/340/340
f 337/337/337 340/340/340 339/339/339
f 339/339/339 340/340/340 342/342/342
f 339/339/339 342/342/342 341/341/341
f 343/343/343 344/344/344 346/346/346
f 343/343/343 346/346/346 345/345/345
f 345/345/345 346/346/346 348/348/348
f 345/345/345 348/348/348 347/347/347
f 349/349/349 350/350/350 352/352/352
f 349/349/349 352/352/352 351/351/351
f 351/351/351 352/352/352 354/354/354
f 351/351/351 354/354/354 353/353/353
f 355/355/355 356/356/356 358/358/358
f 355/355/355 358/358/358 357/357/357
f 357/357/357 358/358/358 360/360/360
f 357/357/357 360/360/360 359/359/359
f 361/361/361 362/362/362 364/364/364
f 361/361/361 364/364/364 363/363/363
f 363/363/363 364/364/364 366/366/366
f 363/363/363 366/366/366 365/365/365
f 367/367/367 368/368/368 370/370/370
f 367/367/367 370/370/370 369/369/369
f 369/369/369 370/370/370 372/372/372
f 369/369/369 372/372/372 371/371/371
f 373/373/373 374/374/374 376/376/376
f 373/373/373 376/376/376 375/375/375
f 375/375/375 376/376/376 378/378/378
f 375/375/375 378/378/378 377/377/377
f 379/379/379 380/380/380 382/382/382
f 379/379/379 382/382/382 381/381/381
f 381/381/381 382/382/382 384/384/384
f 381/381/381 384/384/384 383/383/383
f 385/385/385 386/386/386 388/388/388
f 385/385/385 388/388/388 387/387/387
f 387/387/387 388/388/388 390/390/390
f 387/387/387 390/390/390 389/389/389
f 391/391/391 392/392/392 394/394/394
f 391/391/391 394/394/394 393/393/393
f 393/393/393 394/394/394 396/396/396
f 393/393/393 396/396/396 395/395/395
f 397/397/397 398/398/398 400/400/400
f 397/397/397 400/400/400 399/399/399
f 399/399/399 400/400/400 402/402/402
f 399/399/399 402/402/402 401/401/401
f 403/403/403 404/404/404 406/406/406
f 403/403/403 406/406/406 405/405/405
f 405/405/405 406/406/406 408/408/408
f 405/405/405 408/408/408 407/407/407
f 409/409/409 410/410/410 412/412/412
f 409/409/409 412/412/412 411/411/411
f 411/411/411 412/412/412 414/414/414
f 411/411/411 414/414/414 413/413/413
f 415/415/415 416/416/416 418/418/418
f 415/415/415 418/418/418 417/417/417
f 417/417/417 418/418/418 420/420/420
f 417/417/417 420/420/420 419/419/419
f 421/421/421 422/422/422 424/424/424
f 421/421/421 424/424/424 423/423/423
f 423/423/423 424/424/424 426/426/426
f 423/423/423 426/426/426 425/425/425
f 427/427/427 428/428/428 430/430/430
f 427/427/427 430/430/430 429/429/429
f 429/429/429 430/430/430 432/432/432
f 429/429/429 432/432/432 431/431/431
f 433/433/433 434/434/434 436/436/436
f 433/433/433 436/436/436 435/435/435
f 435/435/435 436/436/436 438/438/438
f 435/435/435 438/438/438 437/437/437
f 439/439/439 440/440/440 442/442/442
f 439/439/439 442/442/442 441/441/441
f 441/441/441 442/442/442 444/444/444
f 441/441/441 444/444/444 443/443/443
f 445/445/445 446/446/446 448/448/448
f 445/445/445 448/448/448 447/447/447
f 447/447/447 448/448/448 450/450/450
f 447/447/447 450/450/450 449/449/449
f 451/451/451 452/452/452 454/454/454
f 451/451/451 454/454/454 453/453/453
f 453/453/453 454/454/454 456/456/456
f 453/453/453 456/456/456 455/455/455
f 457/457/457 458/458/458 460/460/460
f 457/457/457 460/460/460 459/459/459
f 459/459/459 460/460/460 462/462/462
f 459/459/459 462/462/462 461/461/461
f 463/463/463 464/464/464 466/466/466
f 463/463/463 466/466/466 465/465/465
f 465/465/465 466/466/466 468/468/468
f 465/465/465 468/468/468 467/467/467
f 469/469/469 470/470/470 472/472/472
f 469/469/469 472/472/472 471/471/471
f 471/471/471 472/472/472 474/474/474
f 471/471/471 474/474/474 473/473/473
f 475/475/475 476/476/476 478/478/478
f 475/475/475 478/478/478 477/477/477
f 477/477/477 478/478/478 480/480/480
f 477/477/477 480/480/480 479/479/479
